%TF.GenerationSoftware,KiCad,Pcbnew,(5.99.0-3341-g150dc429c)*%
%TF.CreationDate,2020-09-14T09:08:56+02:00*%
%TF.ProjectId,loadCell,6c6f6164-4365-46c6-9c2e-6b696361645f,rev?*%
%TF.SameCoordinates,Original*%
%TF.FileFunction,Legend,Top*%
%TF.FilePolarity,Positive*%
%FSLAX46Y46*%
G04 Gerber Fmt 4.6, Leading zero omitted, Abs format (unit mm)*
G04 Created by KiCad (PCBNEW (5.99.0-3341-g150dc429c)) date 2020-09-14 09:08:56*
%MOMM*%
%LPD*%
G01*
G04 APERTURE LIST*
%ADD10C,0.100000*%
%ADD11C,0.150000*%
%ADD12C,0.120000*%
G04 APERTURE END LIST*
D10*
G36*
X111760000Y-45720000D02*
G01*
X110490000Y-45720000D01*
X110490000Y-44450000D01*
X111760000Y-44450000D01*
X111760000Y-45720000D01*
G37*
X111760000Y-45720000D02*
X110490000Y-45720000D01*
X110490000Y-44450000D01*
X111760000Y-44450000D01*
X111760000Y-45720000D01*
G36*
X133350000Y-35560000D02*
G01*
X132080000Y-35560000D01*
X132080000Y-34290000D01*
X133350000Y-34290000D01*
X133350000Y-35560000D01*
G37*
X133350000Y-35560000D02*
X132080000Y-35560000D01*
X132080000Y-34290000D01*
X133350000Y-34290000D01*
X133350000Y-35560000D01*
G36*
X143510000Y-57150000D02*
G01*
X142240000Y-57150000D01*
X142240000Y-55880000D01*
X143510000Y-55880000D01*
X143510000Y-57150000D01*
G37*
X143510000Y-57150000D02*
X142240000Y-57150000D01*
X142240000Y-55880000D01*
X143510000Y-55880000D01*
X143510000Y-57150000D01*
G36*
X133350000Y-67310000D02*
G01*
X132080000Y-67310000D01*
X132080000Y-66040000D01*
X133350000Y-66040000D01*
X133350000Y-67310000D01*
G37*
X133350000Y-67310000D02*
X132080000Y-67310000D01*
X132080000Y-66040000D01*
X133350000Y-66040000D01*
X133350000Y-67310000D01*
D11*
%TO.C,J4*%
X119042380Y-63833333D02*
X119756666Y-63833333D01*
X119899523Y-63880952D01*
X119994761Y-63976190D01*
X120042380Y-64119047D01*
X120042380Y-64214285D01*
X119375714Y-62928571D02*
X120042380Y-62928571D01*
X118994761Y-63166666D02*
X119709047Y-63404761D01*
X119709047Y-62785714D01*
%TO.C,J3*%
X139366666Y-44112380D02*
X139366666Y-44826666D01*
X139319047Y-44969523D01*
X139223809Y-45064761D01*
X139080952Y-45112380D01*
X138985714Y-45112380D01*
X139747619Y-44112380D02*
X140366666Y-44112380D01*
X140033333Y-44493333D01*
X140176190Y-44493333D01*
X140271428Y-44540952D01*
X140319047Y-44588571D01*
X140366666Y-44683809D01*
X140366666Y-44921904D01*
X140319047Y-45017142D01*
X140271428Y-45064761D01*
X140176190Y-45112380D01*
X139890476Y-45112380D01*
X139795238Y-45064761D01*
X139747619Y-45017142D01*
%TO.C,J2*%
X120312380Y-38433333D02*
X121026666Y-38433333D01*
X121169523Y-38480952D01*
X121264761Y-38576190D01*
X121312380Y-38719047D01*
X121312380Y-38814285D01*
X120407619Y-38004761D02*
X120360000Y-37957142D01*
X120312380Y-37861904D01*
X120312380Y-37623809D01*
X120360000Y-37528571D01*
X120407619Y-37480952D01*
X120502857Y-37433333D01*
X120598095Y-37433333D01*
X120740952Y-37480952D01*
X121312380Y-38052380D01*
X121312380Y-37433333D01*
%TO.C,J1*%
X113966666Y-56392380D02*
X113966666Y-57106666D01*
X113919047Y-57249523D01*
X113823809Y-57344761D01*
X113680952Y-57392380D01*
X113585714Y-57392380D01*
X114966666Y-57392380D02*
X114395238Y-57392380D01*
X114680952Y-57392380D02*
X114680952Y-56392380D01*
X114585714Y-56535238D01*
X114490476Y-56630476D01*
X114395238Y-56678095D01*
%TO.C,H4*%
X138938095Y-34352380D02*
X138938095Y-33352380D01*
X138938095Y-33828571D02*
X139509523Y-33828571D01*
X139509523Y-34352380D02*
X139509523Y-33352380D01*
X140414285Y-33685714D02*
X140414285Y-34352380D01*
X140176190Y-33304761D02*
X139938095Y-34019047D01*
X140557142Y-34019047D01*
%TO.C,H3*%
X138938095Y-59752380D02*
X138938095Y-58752380D01*
X138938095Y-59228571D02*
X139509523Y-59228571D01*
X139509523Y-59752380D02*
X139509523Y-58752380D01*
X139890476Y-58752380D02*
X140509523Y-58752380D01*
X140176190Y-59133333D01*
X140319047Y-59133333D01*
X140414285Y-59180952D01*
X140461904Y-59228571D01*
X140509523Y-59323809D01*
X140509523Y-59561904D01*
X140461904Y-59657142D01*
X140414285Y-59704761D01*
X140319047Y-59752380D01*
X140033333Y-59752380D01*
X139938095Y-59704761D01*
X139890476Y-59657142D01*
%TO.C,H2*%
X113538095Y-34352380D02*
X113538095Y-33352380D01*
X113538095Y-33828571D02*
X114109523Y-33828571D01*
X114109523Y-34352380D02*
X114109523Y-33352380D01*
X114538095Y-33447619D02*
X114585714Y-33400000D01*
X114680952Y-33352380D01*
X114919047Y-33352380D01*
X115014285Y-33400000D01*
X115061904Y-33447619D01*
X115109523Y-33542857D01*
X115109523Y-33638095D01*
X115061904Y-33780952D01*
X114490476Y-34352380D01*
X115109523Y-34352380D01*
%TO.C,H1*%
X113538095Y-59752380D02*
X113538095Y-58752380D01*
X113538095Y-59228571D02*
X114109523Y-59228571D01*
X114109523Y-59752380D02*
X114109523Y-58752380D01*
X115109523Y-59752380D02*
X114538095Y-59752380D01*
X114823809Y-59752380D02*
X114823809Y-58752380D01*
X114728571Y-58895238D01*
X114633333Y-58990476D01*
X114538095Y-59038095D01*
D12*
%TO.C,J4*%
X120590000Y-64830000D02*
X120590000Y-63500000D01*
X121920000Y-64830000D02*
X120590000Y-64830000D01*
X123190000Y-64830000D02*
X123190000Y-62170000D01*
X123190000Y-62170000D02*
X133410000Y-62170000D01*
X123190000Y-64830000D02*
X133410000Y-64830000D01*
X133410000Y-64830000D02*
X133410000Y-62170000D01*
%TO.C,J3*%
X138370000Y-52830000D02*
X138370000Y-55940000D01*
X138370000Y-47750000D02*
X138370000Y-51310000D01*
X141030000Y-50290000D02*
X141030000Y-53850000D01*
X141030000Y-55370000D02*
X141030000Y-55940000D01*
X138370000Y-45660000D02*
X138370000Y-46230000D01*
X138370000Y-46230000D02*
X136850000Y-46230000D01*
X141030000Y-45660000D02*
X141030000Y-48770000D01*
X138370000Y-55940000D02*
X141030000Y-55940000D01*
X138370000Y-45660000D02*
X141030000Y-45660000D01*
%TO.C,J2*%
X129030000Y-39430000D02*
X132140000Y-39430000D01*
X123950000Y-39430000D02*
X127510000Y-39430000D01*
X126490000Y-36770000D02*
X130050000Y-36770000D01*
X131570000Y-36770000D02*
X132140000Y-36770000D01*
X121860000Y-39430000D02*
X122430000Y-39430000D01*
X122430000Y-39430000D02*
X122430000Y-40950000D01*
X121860000Y-36770000D02*
X124970000Y-36770000D01*
X132140000Y-39430000D02*
X132140000Y-36770000D01*
X121860000Y-39430000D02*
X121860000Y-36770000D01*
%TO.C,J1*%
X115630000Y-48770000D02*
X115630000Y-45660000D01*
X115630000Y-53850000D02*
X115630000Y-50290000D01*
X112970000Y-51310000D02*
X112970000Y-47750000D01*
X112970000Y-46230000D02*
X112970000Y-45660000D01*
X115630000Y-55940000D02*
X115630000Y-55370000D01*
X115630000Y-55370000D02*
X117150000Y-55370000D01*
X112970000Y-55940000D02*
X112970000Y-52830000D01*
X115630000Y-45660000D02*
X112970000Y-45660000D01*
X115630000Y-55940000D02*
X112970000Y-55940000D01*
%TD*%
M02*
