%TF.GenerationSoftware,KiCad,Pcbnew,(5.99.0-3341-g150dc429c)*%
%TF.CreationDate,2020-09-14T09:08:56+02:00*%
%TF.ProjectId,loadCell,6c6f6164-4365-46c6-9c2e-6b696361645f,rev?*%
%TF.SameCoordinates,Original*%
%TF.FileFunction,Copper,L1,Top*%
%TF.FilePolarity,Positive*%
%FSLAX46Y46*%
G04 Gerber Fmt 4.6, Leading zero omitted, Abs format (unit mm)*
G04 Created by KiCad (PCBNEW (5.99.0-3341-g150dc429c)) date 2020-09-14 09:08:56*
%MOMM*%
%LPD*%
G01*
G04 APERTURE LIST*
%TA.AperFunction,ComponentPad*%
%ADD10O,1.700000X1.700000*%
%TD*%
%TA.AperFunction,ComponentPad*%
%ADD11R,1.700000X1.700000*%
%TD*%
%TA.AperFunction,SMDPad,CuDef*%
%ADD12R,2.510000X1.000000*%
%TD*%
%TA.AperFunction,SMDPad,CuDef*%
%ADD13R,1.000000X2.510000*%
%TD*%
%TA.AperFunction,ViaPad*%
%ADD14C,1.524000*%
%TD*%
%TA.AperFunction,Conductor*%
%ADD15C,1.270000*%
%TD*%
G04 APERTURE END LIST*
D10*
%TO.P,J4,5,Pin_5*%
%TO.N,Net-(J1-Pad4)*%
X132080000Y-63500000D03*
%TO.P,J4,4,Pin_4*%
%TO.N,Net-(J1-Pad3)*%
X129540000Y-63500000D03*
%TO.P,J4,3,Pin_3*%
%TO.N,Net-(J1-Pad2)*%
X127000000Y-63500000D03*
%TO.P,J4,2,Pin_2*%
%TO.N,Net-(J1-Pad1)*%
X124460000Y-63500000D03*
D11*
%TO.P,J4,1,Pin_1*%
%TO.N,GND*%
X121920000Y-63500000D03*
%TD*%
D12*
%TO.P,J3,4,Pin_4*%
%TO.N,Net-(J1-Pad4)*%
X141355000Y-54610000D03*
%TO.P,J3,2,Pin_2*%
%TO.N,Net-(J1-Pad2)*%
X141355000Y-49530000D03*
%TO.P,J3,3,Pin_3*%
%TO.N,Net-(J1-Pad3)*%
X138045000Y-52070000D03*
%TO.P,J3,1,Pin_1*%
%TO.N,Net-(J1-Pad1)*%
X138045000Y-46990000D03*
%TD*%
D13*
%TO.P,J2,4,Pin_4*%
%TO.N,Net-(J1-Pad4)*%
X130810000Y-36445000D03*
%TO.P,J2,2,Pin_2*%
%TO.N,Net-(J1-Pad2)*%
X125730000Y-36445000D03*
%TO.P,J2,3,Pin_3*%
%TO.N,Net-(J1-Pad3)*%
X128270000Y-39755000D03*
%TO.P,J2,1,Pin_1*%
%TO.N,Net-(J1-Pad1)*%
X123190000Y-39755000D03*
%TD*%
D12*
%TO.P,J1,4,Pin_4*%
%TO.N,Net-(J1-Pad4)*%
X112645000Y-46990000D03*
%TO.P,J1,2,Pin_2*%
%TO.N,Net-(J1-Pad2)*%
X112645000Y-52070000D03*
%TO.P,J1,3,Pin_3*%
%TO.N,Net-(J1-Pad3)*%
X115955000Y-49530000D03*
%TO.P,J1,1,Pin_1*%
%TO.N,Net-(J1-Pad1)*%
X115955000Y-54610000D03*
%TD*%
D14*
%TO.N,Net-(J1-Pad4)*%
X123190000Y-45720000D03*
X132080000Y-41910000D03*
%TO.N,Net-(J1-Pad3)*%
X119380000Y-50473000D03*
%TO.N,Net-(J1-Pad2)*%
X121920000Y-52070000D03*
%TO.N,Net-(J1-Pad4)*%
X134620000Y-44450000D03*
X134620000Y-54610000D03*
%TO.N,Net-(J1-Pad3)*%
X130810000Y-44450000D03*
X132080000Y-52070000D03*
%TO.N,Net-(J1-Pad2)*%
X127000000Y-44450000D03*
X129540000Y-49530000D03*
X127000000Y-52070000D03*
%TO.N,Net-(J1-Pad3)*%
X129540000Y-54610000D03*
%TD*%
D15*
%TO.N,Net-(J1-Pad4)*%
X130810000Y-40640000D02*
X132080000Y-41910000D01*
X121920000Y-46990000D02*
X123190000Y-45720000D01*
X112645000Y-46990000D02*
X121920000Y-46990000D01*
X132080000Y-41910000D02*
X134620000Y-44450000D01*
%TO.N,Net-(J1-Pad3)*%
X115955000Y-49530000D02*
X118437000Y-49530000D01*
X118437000Y-49530000D02*
X119380000Y-50473000D01*
%TO.N,Net-(J1-Pad2)*%
X112645000Y-52070000D02*
X121920000Y-52070000D01*
%TO.N,Net-(J1-Pad1)*%
X124460000Y-49530000D02*
X124460000Y-54610000D01*
X124460000Y-54610000D02*
X124460000Y-63500000D01*
X115955000Y-54610000D02*
X124460000Y-54610000D01*
%TO.N,Net-(J1-Pad4)*%
X134620000Y-54610000D02*
X133350000Y-54610000D01*
X141355000Y-54610000D02*
X134620000Y-54610000D01*
X130810000Y-36445000D02*
X130810000Y-40640000D01*
%TO.N,Net-(J1-Pad3)*%
X128270000Y-41910000D02*
X130810000Y-44450000D01*
X128270000Y-39755000D02*
X128270000Y-41910000D01*
%TO.N,Net-(J1-Pad2)*%
X125730000Y-43180000D02*
X127000000Y-44450000D01*
X125730000Y-36445000D02*
X125730000Y-43180000D01*
%TO.N,Net-(J1-Pad4)*%
X132080000Y-55880000D02*
X132080000Y-57150000D01*
X132080000Y-57150000D02*
X132080000Y-63500000D01*
X133350000Y-54610000D02*
X132080000Y-55880000D01*
%TO.N,Net-(J1-Pad3)*%
X138045000Y-52070000D02*
X132080000Y-52070000D01*
X132080000Y-52070000D02*
X129540000Y-54610000D01*
X129540000Y-54610000D02*
X129540000Y-63500000D01*
%TO.N,Net-(J1-Pad2)*%
X141355000Y-49530000D02*
X129540000Y-49530000D01*
X127000000Y-52070000D02*
X127000000Y-63500000D01*
X129540000Y-49530000D02*
X127000000Y-52070000D01*
%TO.N,Net-(J1-Pad1)*%
X127000000Y-46990000D02*
X124460000Y-49530000D01*
X138045000Y-46990000D02*
X127000000Y-46990000D01*
X127000000Y-46990000D02*
X123190000Y-43180000D01*
X123190000Y-43180000D02*
X123190000Y-39755000D01*
%TD*%
%TA.AperFunction,Conductor*%
%TO.N,GND*%
G36*
X144271501Y-68071500D02*
G01*
X109728500Y-68071500D01*
X109728500Y-63477876D01*
X112187116Y-63477876D01*
X112203661Y-63764827D01*
X112216555Y-63830546D01*
X112258999Y-64046885D01*
X112352103Y-64318820D01*
X112481252Y-64575605D01*
X112547490Y-64671981D01*
X112644056Y-64812485D01*
X112837499Y-65025077D01*
X113058014Y-65209457D01*
X113301495Y-65362192D01*
X113563471Y-65480479D01*
X113839062Y-65562112D01*
X114123191Y-65605590D01*
X114410586Y-65610104D01*
X114695937Y-65575573D01*
X114973961Y-65502635D01*
X115239514Y-65392639D01*
X115322237Y-65344300D01*
X115487686Y-65247619D01*
X115713872Y-65070267D01*
X115913900Y-64863853D01*
X115914917Y-64862469D01*
X116084065Y-64632202D01*
X116221216Y-64379601D01*
X116232400Y-64350002D01*
X120557000Y-64350002D01*
X120603358Y-64563105D01*
X120682301Y-64685945D01*
X120792651Y-64781563D01*
X120925474Y-64842220D01*
X121069997Y-64863000D01*
X121666000Y-64863000D01*
X121666001Y-63754000D01*
X120557000Y-63753999D01*
X120557000Y-64350002D01*
X116232400Y-64350002D01*
X116322816Y-64110724D01*
X116364432Y-63929018D01*
X116386986Y-63830544D01*
X116412537Y-63544251D01*
X116413000Y-63499998D01*
X116393450Y-63213234D01*
X116388914Y-63191327D01*
X116335163Y-62931772D01*
X116239216Y-62660827D01*
X116233627Y-62649997D01*
X120557000Y-62649997D01*
X120557000Y-63246000D01*
X121666000Y-63246001D01*
X121666001Y-62137000D01*
X121069998Y-62137000D01*
X120856895Y-62183358D01*
X120734055Y-62262301D01*
X120638437Y-62372651D01*
X120577780Y-62505474D01*
X120557000Y-62649997D01*
X116233627Y-62649997D01*
X116107385Y-62405409D01*
X115942109Y-62170246D01*
X115746448Y-61959689D01*
X115524021Y-61777635D01*
X115503256Y-61764910D01*
X115278950Y-61627454D01*
X115015748Y-61511917D01*
X114739320Y-61433174D01*
X114568578Y-61408875D01*
X114454752Y-61392675D01*
X114263133Y-61391672D01*
X114167325Y-61391170D01*
X114167324Y-61391170D01*
X114072333Y-61403676D01*
X113882348Y-61428687D01*
X113605109Y-61504531D01*
X113472911Y-61560918D01*
X113340718Y-61617303D01*
X113340714Y-61617305D01*
X113094084Y-61764910D01*
X112869761Y-61944627D01*
X112671903Y-62153126D01*
X112504177Y-62386541D01*
X112369679Y-62640561D01*
X112369678Y-62640565D01*
X112270899Y-62910492D01*
X112223019Y-63130095D01*
X112209668Y-63191326D01*
X112187116Y-63477876D01*
X109728500Y-63477876D01*
X109728500Y-46489997D01*
X110877000Y-46489997D01*
X110877000Y-47490002D01*
X110908440Y-47634529D01*
X110923359Y-47703108D01*
X111002300Y-47825944D01*
X111002301Y-47825945D01*
X111062029Y-47877699D01*
X111112651Y-47921563D01*
X111245471Y-47982220D01*
X111317735Y-47992610D01*
X111389997Y-48003000D01*
X112114111Y-48003000D01*
X112205488Y-48051076D01*
X112406213Y-48113403D01*
X112576019Y-48133500D01*
X118432891Y-48133500D01*
X118483226Y-48148279D01*
X118522923Y-48133500D01*
X121879803Y-48133500D01*
X121919952Y-48136131D01*
X121950061Y-48138105D01*
X121950064Y-48138105D01*
X122039521Y-48127517D01*
X122129298Y-48119268D01*
X122129301Y-48119267D01*
X122129303Y-48119267D01*
X122143814Y-48115175D01*
X122158782Y-48113403D01*
X122158785Y-48113402D01*
X122158786Y-48113402D01*
X122244830Y-48086685D01*
X122331579Y-48062219D01*
X122331583Y-48062218D01*
X122331584Y-48062218D01*
X122331586Y-48062217D01*
X122345114Y-48055546D01*
X122359512Y-48051075D01*
X122439216Y-48009141D01*
X122520088Y-47969258D01*
X122520090Y-47969257D01*
X122532175Y-47960233D01*
X122545521Y-47953211D01*
X122597263Y-47912420D01*
X122616252Y-47897450D01*
X122645150Y-47875871D01*
X122688494Y-47843505D01*
X122747757Y-47779395D01*
X123606354Y-46920798D01*
X123745134Y-46868358D01*
X123745133Y-46868358D01*
X123745137Y-46868357D01*
X123939720Y-46751901D01*
X124110605Y-46602829D01*
X124252391Y-46425851D01*
X124309162Y-46321292D01*
X124360599Y-46226558D01*
X124424923Y-46032076D01*
X125382847Y-46990000D01*
X123679862Y-48692985D01*
X123678642Y-48694055D01*
X123626908Y-48739425D01*
X123611606Y-48758836D01*
X123571145Y-48810161D01*
X123513491Y-48879483D01*
X123506122Y-48892642D01*
X123496787Y-48904483D01*
X123454827Y-48984235D01*
X123410792Y-49062866D01*
X123405946Y-49077143D01*
X123398923Y-49090491D01*
X123372181Y-49176613D01*
X123343234Y-49261889D01*
X123341071Y-49276804D01*
X123336597Y-49291214D01*
X123329287Y-49352980D01*
X123326001Y-49380738D01*
X123313074Y-49469892D01*
X123316500Y-49557090D01*
X123316500Y-51489956D01*
X123296498Y-51558077D01*
X123242842Y-51604570D01*
X123172568Y-51614674D01*
X123107988Y-51585180D01*
X123076774Y-51544200D01*
X123017877Y-51420719D01*
X122885546Y-51236561D01*
X122722698Y-51078749D01*
X122534477Y-50952271D01*
X122326836Y-50861122D01*
X122326834Y-50861122D01*
X122326833Y-50861121D01*
X122106329Y-50808183D01*
X121879936Y-50795129D01*
X121879934Y-50795129D01*
X121772066Y-50808183D01*
X121654809Y-50822373D01*
X121438064Y-50889052D01*
X121365510Y-50926500D01*
X120568148Y-50926500D01*
X120621800Y-50764264D01*
X120653752Y-50539757D01*
X120655500Y-50472998D01*
X120635342Y-50247128D01*
X120575504Y-50028400D01*
X120575503Y-50028396D01*
X120477876Y-49823718D01*
X120477876Y-49823717D01*
X120345546Y-49639561D01*
X120182698Y-49481749D01*
X119994477Y-49355271D01*
X119789402Y-49265249D01*
X119274011Y-48749858D01*
X119264862Y-48739425D01*
X119227576Y-48696909D01*
X119156794Y-48641108D01*
X119087518Y-48583491D01*
X119080150Y-48579365D01*
X119074361Y-48576123D01*
X119062518Y-48566787D01*
X119062519Y-48566787D01*
X119062517Y-48566786D01*
X119007385Y-48537780D01*
X118982749Y-48524818D01*
X118904136Y-48480793D01*
X118889861Y-48475947D01*
X118876512Y-48468924D01*
X118790403Y-48442186D01*
X118705109Y-48413233D01*
X118690194Y-48411070D01*
X118675789Y-48406597D01*
X118645948Y-48403066D01*
X118586271Y-48396003D01*
X118504841Y-48384195D01*
X118471822Y-48369068D01*
X118437837Y-48385403D01*
X118425310Y-48385895D01*
X118409911Y-48386500D01*
X115900581Y-48386500D01*
X115745702Y-48400732D01*
X115543418Y-48457781D01*
X115423334Y-48517000D01*
X114699998Y-48517000D01*
X114486895Y-48563358D01*
X114486894Y-48563359D01*
X114486892Y-48563359D01*
X114364056Y-48642300D01*
X114268437Y-48752651D01*
X114207780Y-48885471D01*
X114207780Y-48885474D01*
X114187000Y-49029997D01*
X114187000Y-50030002D01*
X114218440Y-50174529D01*
X114233359Y-50243108D01*
X114312300Y-50365944D01*
X114422651Y-50461563D01*
X114555471Y-50522220D01*
X114627735Y-50532610D01*
X114699997Y-50543000D01*
X115424111Y-50543000D01*
X115515488Y-50591076D01*
X115716213Y-50653403D01*
X115886019Y-50673500D01*
X117963348Y-50673500D01*
X118001253Y-50711405D01*
X118035279Y-50773717D01*
X118030214Y-50844532D01*
X117987667Y-50901368D01*
X117912158Y-50926500D01*
X112590581Y-50926500D01*
X112435702Y-50940732D01*
X112233418Y-50997781D01*
X112113334Y-51057000D01*
X111389998Y-51057000D01*
X111176895Y-51103358D01*
X111176894Y-51103359D01*
X111176892Y-51103359D01*
X111054056Y-51182300D01*
X110958437Y-51292651D01*
X110897780Y-51425471D01*
X110897780Y-51425474D01*
X110877000Y-51569997D01*
X110877000Y-52570002D01*
X110923358Y-52783105D01*
X110923359Y-52783108D01*
X110964644Y-52847349D01*
X111002301Y-52905945D01*
X111062029Y-52957699D01*
X111112651Y-53001563D01*
X111245471Y-53062220D01*
X111317736Y-53072610D01*
X111389997Y-53083000D01*
X112114111Y-53083000D01*
X112205488Y-53131076D01*
X112406213Y-53193403D01*
X112576019Y-53213500D01*
X121347930Y-53213500D01*
X121371631Y-53222172D01*
X121428731Y-53264364D01*
X121453956Y-53330728D01*
X121439297Y-53400195D01*
X121389408Y-53450709D01*
X121328335Y-53466500D01*
X115900581Y-53466500D01*
X115745702Y-53480732D01*
X115543418Y-53537781D01*
X115423334Y-53597000D01*
X114699998Y-53597000D01*
X114486895Y-53643358D01*
X114486894Y-53643359D01*
X114486892Y-53643359D01*
X114364056Y-53722300D01*
X114268437Y-53832651D01*
X114207780Y-53965471D01*
X114207780Y-53965474D01*
X114187000Y-54109997D01*
X114187000Y-55110002D01*
X114218440Y-55254529D01*
X114233359Y-55323108D01*
X114312300Y-55445944D01*
X114422651Y-55541563D01*
X114555471Y-55602220D01*
X114622714Y-55611888D01*
X114699997Y-55623000D01*
X115424111Y-55623000D01*
X115515488Y-55671076D01*
X115716213Y-55733403D01*
X115886019Y-55753500D01*
X123316500Y-55753500D01*
X123316501Y-62175756D01*
X123296499Y-62243877D01*
X123242843Y-62290370D01*
X123172569Y-62300474D01*
X123107989Y-62270981D01*
X123047350Y-62218438D01*
X122914526Y-62157780D01*
X122770003Y-62137000D01*
X122174000Y-62137000D01*
X122173999Y-63246001D01*
X122174000Y-63246001D01*
X122173999Y-64863000D01*
X122770002Y-64863000D01*
X122983105Y-64816642D01*
X123105945Y-64737699D01*
X123201563Y-64627349D01*
X123269745Y-64478050D01*
X123273941Y-64479966D01*
X123289403Y-64446129D01*
X123349138Y-64407759D01*
X123420134Y-64407775D01*
X123468999Y-64435100D01*
X123635931Y-64585670D01*
X123772195Y-64671979D01*
X123830638Y-64708997D01*
X124043336Y-64797752D01*
X124212183Y-64836578D01*
X124267952Y-64849402D01*
X124498057Y-64862469D01*
X124498058Y-64862469D01*
X124727071Y-64836579D01*
X124727074Y-64836578D01*
X124727075Y-64836578D01*
X124917056Y-64781563D01*
X124948460Y-64772469D01*
X125155868Y-64671981D01*
X125343386Y-64537978D01*
X125449135Y-64431302D01*
X125505646Y-64374296D01*
X125638007Y-64185616D01*
X125638009Y-64185612D01*
X125744393Y-64033962D01*
X125751952Y-64047855D01*
X125862102Y-64250305D01*
X126004789Y-64431302D01*
X126175931Y-64585670D01*
X126312195Y-64671979D01*
X126370638Y-64708997D01*
X126583336Y-64797752D01*
X126752183Y-64836578D01*
X126807952Y-64849402D01*
X127038057Y-64862469D01*
X127038058Y-64862469D01*
X127267071Y-64836579D01*
X127267074Y-64836578D01*
X127267075Y-64836578D01*
X127457056Y-64781563D01*
X127488460Y-64772469D01*
X127695868Y-64671981D01*
X127883386Y-64537978D01*
X127989135Y-64431302D01*
X128045646Y-64374296D01*
X128178007Y-64185616D01*
X128178009Y-64185612D01*
X128284393Y-64033962D01*
X128291952Y-64047855D01*
X128402102Y-64250305D01*
X128544789Y-64431302D01*
X128715931Y-64585670D01*
X128852195Y-64671979D01*
X128910638Y-64708997D01*
X129123336Y-64797752D01*
X129292183Y-64836578D01*
X129347952Y-64849402D01*
X129578057Y-64862469D01*
X129578058Y-64862469D01*
X129807071Y-64836579D01*
X129807074Y-64836578D01*
X129807075Y-64836578D01*
X129997056Y-64781563D01*
X130028460Y-64772469D01*
X130235868Y-64671981D01*
X130423386Y-64537978D01*
X130529135Y-64431302D01*
X130585646Y-64374296D01*
X130718007Y-64185616D01*
X130718009Y-64185612D01*
X130824393Y-64033962D01*
X130831952Y-64047855D01*
X130942102Y-64250305D01*
X131084789Y-64431302D01*
X131255931Y-64585670D01*
X131392195Y-64671979D01*
X131450638Y-64708997D01*
X131663336Y-64797752D01*
X131832183Y-64836578D01*
X131887952Y-64849402D01*
X132118057Y-64862469D01*
X132118058Y-64862469D01*
X132347071Y-64836579D01*
X132347074Y-64836578D01*
X132347075Y-64836578D01*
X132537056Y-64781563D01*
X132568460Y-64772469D01*
X132775868Y-64671981D01*
X132963386Y-64537978D01*
X133069135Y-64431302D01*
X133125646Y-64374296D01*
X133258007Y-64185616D01*
X133258009Y-64185612D01*
X133356683Y-63977337D01*
X133418859Y-63755399D01*
X133442749Y-63526167D01*
X133443000Y-63500003D01*
X133441124Y-63477876D01*
X137587116Y-63477876D01*
X137603661Y-63764827D01*
X137616555Y-63830546D01*
X137658999Y-64046885D01*
X137752103Y-64318820D01*
X137881252Y-64575605D01*
X137947490Y-64671981D01*
X138044056Y-64812485D01*
X138237499Y-65025077D01*
X138458014Y-65209457D01*
X138701495Y-65362192D01*
X138963471Y-65480479D01*
X139239062Y-65562112D01*
X139523191Y-65605590D01*
X139810586Y-65610104D01*
X140095937Y-65575573D01*
X140373961Y-65502635D01*
X140639514Y-65392639D01*
X140722237Y-65344300D01*
X140887686Y-65247619D01*
X141113872Y-65070267D01*
X141313900Y-64863853D01*
X141314917Y-64862469D01*
X141484065Y-64632202D01*
X141621216Y-64379601D01*
X141722816Y-64110724D01*
X141764432Y-63929018D01*
X141786986Y-63830544D01*
X141812537Y-63544251D01*
X141813000Y-63499998D01*
X141793450Y-63213234D01*
X141788914Y-63191327D01*
X141735163Y-62931772D01*
X141639216Y-62660827D01*
X141507385Y-62405409D01*
X141342109Y-62170246D01*
X141146448Y-61959689D01*
X140924021Y-61777635D01*
X140903256Y-61764910D01*
X140678950Y-61627454D01*
X140415748Y-61511917D01*
X140139320Y-61433174D01*
X139968578Y-61408875D01*
X139854752Y-61392675D01*
X139663133Y-61391672D01*
X139567325Y-61391170D01*
X139567324Y-61391170D01*
X139472333Y-61403676D01*
X139282348Y-61428687D01*
X139005109Y-61504531D01*
X138872912Y-61560918D01*
X138740718Y-61617303D01*
X138740714Y-61617305D01*
X138494084Y-61764910D01*
X138269761Y-61944627D01*
X138071903Y-62153126D01*
X137904177Y-62386541D01*
X137769679Y-62640561D01*
X137769678Y-62640565D01*
X137670899Y-62910492D01*
X137623019Y-63130095D01*
X137609668Y-63191326D01*
X137587116Y-63477876D01*
X133441124Y-63477876D01*
X133441123Y-63477873D01*
X133423514Y-63270349D01*
X133365612Y-63047264D01*
X133313589Y-62931775D01*
X133270952Y-62837125D01*
X133223500Y-62766642D01*
X133223500Y-56353652D01*
X133823653Y-55753500D01*
X134047932Y-55753500D01*
X134158816Y-55794077D01*
X134289876Y-55842038D01*
X134513269Y-55881027D01*
X134513272Y-55881027D01*
X134740035Y-55879839D01*
X134963005Y-55838515D01*
X135187991Y-55753500D01*
X141409419Y-55753500D01*
X141564298Y-55739268D01*
X141766582Y-55682219D01*
X141886666Y-55623000D01*
X142610002Y-55623000D01*
X142823105Y-55576642D01*
X142823106Y-55576641D01*
X142823108Y-55576641D01*
X142945944Y-55497700D01*
X143041563Y-55387349D01*
X143102220Y-55254529D01*
X143114685Y-55167833D01*
X143123000Y-55110003D01*
X143123000Y-54109998D01*
X143076642Y-53896895D01*
X143076641Y-53896894D01*
X143076641Y-53896892D01*
X142997700Y-53774056D01*
X142977434Y-53756495D01*
X142887349Y-53678437D01*
X142754529Y-53617780D01*
X142682264Y-53607390D01*
X142610003Y-53597000D01*
X141885889Y-53597000D01*
X141794512Y-53548924D01*
X141593787Y-53486597D01*
X141423981Y-53466500D01*
X135175769Y-53466500D01*
X135149280Y-53454872D01*
X135094946Y-53409176D01*
X135073942Y-53341358D01*
X135092937Y-53272950D01*
X135145901Y-53225671D01*
X135199928Y-53213500D01*
X138099419Y-53213500D01*
X138254298Y-53199268D01*
X138456582Y-53142219D01*
X138576666Y-53083000D01*
X139300002Y-53083000D01*
X139513105Y-53036642D01*
X139513106Y-53036641D01*
X139513108Y-53036641D01*
X139635944Y-52957700D01*
X139731563Y-52847349D01*
X139792220Y-52714529D01*
X139804685Y-52627833D01*
X139813000Y-52570003D01*
X139813000Y-51569998D01*
X139766642Y-51356895D01*
X139766641Y-51356894D01*
X139766641Y-51356892D01*
X139687700Y-51234056D01*
X139577349Y-51138437D01*
X139444529Y-51077780D01*
X139372264Y-51067390D01*
X139300003Y-51057000D01*
X138575889Y-51057000D01*
X138484512Y-51008924D01*
X138283787Y-50946597D01*
X138113981Y-50926500D01*
X132635769Y-50926500D01*
X132609280Y-50914872D01*
X132554946Y-50869176D01*
X132533942Y-50801358D01*
X132552937Y-50732950D01*
X132605901Y-50685671D01*
X132659928Y-50673500D01*
X141409419Y-50673500D01*
X141564298Y-50659268D01*
X141766582Y-50602219D01*
X141886666Y-50543000D01*
X142610002Y-50543000D01*
X142823105Y-50496642D01*
X142823106Y-50496641D01*
X142823108Y-50496641D01*
X142945944Y-50417700D01*
X143041563Y-50307349D01*
X143102220Y-50174529D01*
X143123000Y-50030000D01*
X143123000Y-49029997D01*
X143076642Y-48816895D01*
X143076641Y-48816894D01*
X143076641Y-48816892D01*
X142997700Y-48694056D01*
X142887349Y-48598437D01*
X142754529Y-48537780D01*
X142682264Y-48527390D01*
X142610003Y-48517000D01*
X141885889Y-48517000D01*
X141794512Y-48468924D01*
X141593787Y-48406597D01*
X141423981Y-48386500D01*
X130095769Y-48386500D01*
X130069280Y-48374872D01*
X130014946Y-48329176D01*
X129993942Y-48261358D01*
X130012937Y-48192950D01*
X130065901Y-48145671D01*
X130119928Y-48133500D01*
X138099419Y-48133500D01*
X138254298Y-48119268D01*
X138456582Y-48062219D01*
X138576666Y-48003000D01*
X139300002Y-48003000D01*
X139513105Y-47956642D01*
X139513106Y-47956641D01*
X139513108Y-47956641D01*
X139635944Y-47877700D01*
X139731563Y-47767349D01*
X139792220Y-47634529D01*
X139813000Y-47490000D01*
X139813000Y-46489997D01*
X139766642Y-46276895D01*
X139766641Y-46276894D01*
X139766641Y-46276892D01*
X139687700Y-46154056D01*
X139577349Y-46058437D01*
X139444529Y-45997780D01*
X139372265Y-45987390D01*
X139300003Y-45977000D01*
X138575889Y-45977000D01*
X138484512Y-45928924D01*
X138283787Y-45866597D01*
X138113981Y-45846500D01*
X135208356Y-45846500D01*
X135140235Y-45826498D01*
X135093742Y-45772842D01*
X135083638Y-45702568D01*
X135113132Y-45637988D01*
X135163818Y-45602634D01*
X135175137Y-45598357D01*
X135369720Y-45481901D01*
X135540605Y-45332829D01*
X135682391Y-45155851D01*
X135731844Y-45064769D01*
X135790596Y-44956564D01*
X135861801Y-44741260D01*
X135893752Y-44516757D01*
X135895500Y-44449998D01*
X135875342Y-44224128D01*
X135815504Y-44005400D01*
X135815503Y-44005396D01*
X135717876Y-43800718D01*
X135717876Y-43800717D01*
X135585546Y-43616561D01*
X135422698Y-43458749D01*
X135234477Y-43332271D01*
X135159941Y-43299552D01*
X135029402Y-43242249D01*
X133284147Y-41496994D01*
X133275503Y-41465396D01*
X133261647Y-41436347D01*
X133177877Y-41260719D01*
X133045546Y-41076561D01*
X132882698Y-40918749D01*
X132694477Y-40792271D01*
X132489402Y-40702249D01*
X131953500Y-40166347D01*
X131953500Y-38077876D01*
X137587116Y-38077876D01*
X137603661Y-38364827D01*
X137616555Y-38430546D01*
X137658999Y-38646885D01*
X137752103Y-38918820D01*
X137881252Y-39175605D01*
X137977392Y-39315489D01*
X138044056Y-39412485D01*
X138237499Y-39625077D01*
X138458014Y-39809457D01*
X138701495Y-39962192D01*
X138963471Y-40080479D01*
X139239062Y-40162112D01*
X139523191Y-40205590D01*
X139810586Y-40210104D01*
X140095937Y-40175573D01*
X140373961Y-40102635D01*
X140639514Y-39992639D01*
X140722237Y-39944300D01*
X140887686Y-39847619D01*
X141113872Y-39670267D01*
X141313900Y-39463853D01*
X141313901Y-39463852D01*
X141484065Y-39232202D01*
X141621216Y-38979601D01*
X141722816Y-38710724D01*
X141771078Y-38500000D01*
X141786986Y-38430544D01*
X141812537Y-38144251D01*
X141813000Y-38099998D01*
X141793450Y-37813234D01*
X141788914Y-37791327D01*
X141735163Y-37531772D01*
X141639216Y-37260827D01*
X141507385Y-37005409D01*
X141342109Y-36770246D01*
X141146448Y-36559689D01*
X140924021Y-36377635D01*
X140924018Y-36377633D01*
X140678950Y-36227454D01*
X140415748Y-36111917D01*
X140139320Y-36033174D01*
X139944789Y-36005489D01*
X139854752Y-35992675D01*
X139663133Y-35991672D01*
X139567325Y-35991170D01*
X139567324Y-35991170D01*
X139472333Y-36003676D01*
X139282348Y-36028687D01*
X139005109Y-36104531D01*
X138872911Y-36160918D01*
X138740718Y-36217303D01*
X138740714Y-36217305D01*
X138494084Y-36364910D01*
X138269761Y-36544627D01*
X138071903Y-36753126D01*
X137904177Y-36986541D01*
X137769679Y-37240561D01*
X137769678Y-37240565D01*
X137670899Y-37510492D01*
X137609668Y-37791327D01*
X137590620Y-38033359D01*
X137587116Y-38077876D01*
X131953500Y-38077876D01*
X131953500Y-36390586D01*
X131939268Y-36235702D01*
X131904358Y-36111919D01*
X131882219Y-36033418D01*
X131823000Y-35913334D01*
X131823000Y-35189998D01*
X131776642Y-34976895D01*
X131776641Y-34976894D01*
X131776641Y-34976892D01*
X131697700Y-34854056D01*
X131587349Y-34758437D01*
X131454529Y-34697780D01*
X131382264Y-34687390D01*
X131310003Y-34677000D01*
X130309998Y-34677000D01*
X130096895Y-34723358D01*
X130096894Y-34723359D01*
X130096892Y-34723359D01*
X129974056Y-34802300D01*
X129878437Y-34912651D01*
X129817780Y-35045471D01*
X129797000Y-35190000D01*
X129797000Y-35914112D01*
X129748924Y-36005489D01*
X129686597Y-36206214D01*
X129667815Y-36364910D01*
X129666500Y-36376023D01*
X129666501Y-40599792D01*
X129665230Y-40619180D01*
X129648966Y-40663592D01*
X129664627Y-40693144D01*
X129672487Y-40759559D01*
X129675493Y-40792271D01*
X129680733Y-40849299D01*
X129684825Y-40863812D01*
X129686598Y-40878786D01*
X129713326Y-40964865D01*
X129737784Y-41051585D01*
X129744453Y-41065109D01*
X129748926Y-41079514D01*
X129790891Y-41159276D01*
X129830742Y-41240088D01*
X129839764Y-41252169D01*
X129846786Y-41265516D01*
X129902571Y-41336279D01*
X129956496Y-41408494D01*
X130020593Y-41467745D01*
X130879959Y-42327113D01*
X130900962Y-42388454D01*
X130914773Y-42428793D01*
X131013561Y-42606279D01*
X131025061Y-42626940D01*
X131168686Y-42802418D01*
X131168690Y-42802421D01*
X131341127Y-42949696D01*
X131536919Y-43064107D01*
X131663148Y-43110300D01*
X133419959Y-44867112D01*
X133447939Y-44948834D01*
X133454773Y-44968793D01*
X133550587Y-45140935D01*
X133565061Y-45166940D01*
X133708686Y-45342418D01*
X133708690Y-45342421D01*
X133881127Y-45489696D01*
X134076919Y-45604107D01*
X134076921Y-45604108D01*
X134086628Y-45609780D01*
X134085212Y-45612204D01*
X134128738Y-45644371D01*
X134153958Y-45710737D01*
X134139294Y-45780203D01*
X134089403Y-45830713D01*
X134028337Y-45846500D01*
X131398356Y-45846500D01*
X131330235Y-45826498D01*
X131283742Y-45772842D01*
X131273638Y-45702568D01*
X131303132Y-45637988D01*
X131353818Y-45602634D01*
X131365137Y-45598357D01*
X131559720Y-45481901D01*
X131730605Y-45332829D01*
X131872391Y-45155851D01*
X131921844Y-45064769D01*
X131980596Y-44956564D01*
X132051801Y-44741260D01*
X132083752Y-44516757D01*
X132085500Y-44449998D01*
X132065342Y-44224128D01*
X132005504Y-44005400D01*
X132005503Y-44005396D01*
X131907876Y-43800718D01*
X131907876Y-43800717D01*
X131775546Y-43616561D01*
X131612698Y-43458749D01*
X131424477Y-43332271D01*
X131349941Y-43299552D01*
X131219402Y-43242249D01*
X129413500Y-41436347D01*
X129413500Y-40707953D01*
X129430227Y-40650985D01*
X129413500Y-40610940D01*
X129413500Y-39700581D01*
X129399268Y-39545702D01*
X129342219Y-39343418D01*
X129283000Y-39223334D01*
X129283000Y-38499998D01*
X129236642Y-38286895D01*
X129236641Y-38286894D01*
X129236641Y-38286892D01*
X129157700Y-38164056D01*
X129047349Y-38068437D01*
X128914529Y-38007780D01*
X128842264Y-37997390D01*
X128770003Y-37987000D01*
X127769998Y-37987000D01*
X127556895Y-38033358D01*
X127556894Y-38033359D01*
X127556892Y-38033359D01*
X127434056Y-38112300D01*
X127338437Y-38222651D01*
X127277780Y-38355471D01*
X127257000Y-38500000D01*
X127257000Y-39224112D01*
X127208924Y-39315489D01*
X127146597Y-39516214D01*
X127126500Y-39686019D01*
X127126500Y-39686023D01*
X127126501Y-41869793D01*
X127125230Y-41889181D01*
X127108966Y-41933592D01*
X127124627Y-41963144D01*
X127132487Y-42029559D01*
X127139493Y-42105805D01*
X127140733Y-42119299D01*
X127144825Y-42133812D01*
X127146598Y-42148786D01*
X127173326Y-42234865D01*
X127197784Y-42321585D01*
X127204453Y-42335109D01*
X127208926Y-42349514D01*
X127250891Y-42429276D01*
X127290742Y-42510088D01*
X127299764Y-42522169D01*
X127306786Y-42535516D01*
X127362571Y-42606279D01*
X127416496Y-42678494D01*
X127416499Y-42678497D01*
X127480588Y-42737740D01*
X129609959Y-44867112D01*
X129637939Y-44948834D01*
X129644773Y-44968793D01*
X129740587Y-45140935D01*
X129755061Y-45166940D01*
X129898686Y-45342418D01*
X129898690Y-45342421D01*
X130071127Y-45489696D01*
X130266919Y-45604107D01*
X130266921Y-45604108D01*
X130276628Y-45609780D01*
X130275212Y-45612204D01*
X130318738Y-45644371D01*
X130343958Y-45710737D01*
X130329294Y-45780203D01*
X130279403Y-45830713D01*
X130218337Y-45846500D01*
X127588356Y-45846500D01*
X127520235Y-45826498D01*
X127473742Y-45772842D01*
X127463638Y-45702568D01*
X127493132Y-45637988D01*
X127543818Y-45602634D01*
X127555137Y-45598357D01*
X127749720Y-45481901D01*
X127920605Y-45332829D01*
X128062391Y-45155851D01*
X128111844Y-45064769D01*
X128170596Y-44956564D01*
X128241801Y-44741260D01*
X128273752Y-44516757D01*
X128275500Y-44449998D01*
X128255342Y-44224128D01*
X128195504Y-44005400D01*
X128195503Y-44005396D01*
X128097876Y-43800718D01*
X128097876Y-43800717D01*
X127965546Y-43616561D01*
X127802698Y-43458749D01*
X127614477Y-43332271D01*
X127539941Y-43299552D01*
X127409402Y-43242249D01*
X126873500Y-42706347D01*
X126873500Y-41977953D01*
X126890227Y-41920985D01*
X126873500Y-41880941D01*
X126873500Y-36390581D01*
X126859268Y-36235702D01*
X126802219Y-36033418D01*
X126743000Y-35913334D01*
X126743000Y-35189998D01*
X126696642Y-34976895D01*
X126696641Y-34976894D01*
X126696641Y-34976892D01*
X126617700Y-34854056D01*
X126507349Y-34758437D01*
X126374529Y-34697780D01*
X126302264Y-34687390D01*
X126230003Y-34677000D01*
X125229998Y-34677000D01*
X125016895Y-34723358D01*
X125016894Y-34723359D01*
X125016892Y-34723359D01*
X124894056Y-34802300D01*
X124798437Y-34912651D01*
X124737780Y-35045471D01*
X124717000Y-35190000D01*
X124717000Y-35914112D01*
X124668924Y-36005489D01*
X124606597Y-36206214D01*
X124586500Y-36376020D01*
X124586501Y-39625079D01*
X124586501Y-42655158D01*
X124566499Y-42723279D01*
X124512843Y-42769772D01*
X124442569Y-42779876D01*
X124371406Y-42744253D01*
X124333500Y-42706347D01*
X124333500Y-39700586D01*
X124332162Y-39686019D01*
X124319268Y-39545702D01*
X124262219Y-39343418D01*
X124203000Y-39223334D01*
X124203000Y-38499998D01*
X124156642Y-38286895D01*
X124156641Y-38286894D01*
X124156641Y-38286892D01*
X124077700Y-38164056D01*
X123967349Y-38068437D01*
X123834529Y-38007780D01*
X123762264Y-37997390D01*
X123690003Y-37987000D01*
X122689998Y-37987000D01*
X122476895Y-38033358D01*
X122476894Y-38033359D01*
X122476892Y-38033359D01*
X122354056Y-38112300D01*
X122258437Y-38222651D01*
X122197780Y-38355471D01*
X122177000Y-38500000D01*
X122177000Y-39224113D01*
X122128925Y-39315488D01*
X122066598Y-39516213D01*
X122046501Y-39686019D01*
X122046500Y-43139803D01*
X122041895Y-43210064D01*
X122052483Y-43299525D01*
X122055492Y-43332271D01*
X122060731Y-43389294D01*
X122060732Y-43389297D01*
X122064826Y-43403813D01*
X122066598Y-43418786D01*
X122093318Y-43504840D01*
X122117783Y-43591585D01*
X122124454Y-43605111D01*
X122128925Y-43619512D01*
X122170875Y-43699245D01*
X122210741Y-43780086D01*
X122210743Y-43780088D01*
X122210743Y-43780089D01*
X122219766Y-43792173D01*
X122224262Y-43800718D01*
X122226790Y-43805523D01*
X122282557Y-43876263D01*
X122336497Y-43948496D01*
X122398056Y-44005400D01*
X122400601Y-44007753D01*
X122855699Y-44462851D01*
X122708065Y-44539052D01*
X122708064Y-44539052D01*
X122506553Y-44643060D01*
X122506551Y-44643061D01*
X122506550Y-44643062D01*
X122326646Y-44781107D01*
X122174024Y-44948836D01*
X122053523Y-45140931D01*
X122053521Y-45140935D01*
X121987380Y-45305467D01*
X121446347Y-45846500D01*
X112590581Y-45846500D01*
X112435702Y-45860732D01*
X112233418Y-45917781D01*
X112113334Y-45977000D01*
X111389998Y-45977000D01*
X111176895Y-46023358D01*
X111176894Y-46023359D01*
X111176892Y-46023359D01*
X111054056Y-46102300D01*
X110958437Y-46212651D01*
X110897780Y-46345471D01*
X110897780Y-46345474D01*
X110877000Y-46489997D01*
X109728500Y-46489997D01*
X109728500Y-38077876D01*
X112187116Y-38077876D01*
X112203661Y-38364827D01*
X112216555Y-38430546D01*
X112258999Y-38646885D01*
X112352103Y-38918820D01*
X112481252Y-39175605D01*
X112577392Y-39315489D01*
X112644056Y-39412485D01*
X112837499Y-39625077D01*
X113058014Y-39809457D01*
X113301495Y-39962192D01*
X113563471Y-40080479D01*
X113839062Y-40162112D01*
X114123191Y-40205590D01*
X114410586Y-40210104D01*
X114695937Y-40175573D01*
X114973961Y-40102635D01*
X115239514Y-39992639D01*
X115322237Y-39944300D01*
X115487686Y-39847619D01*
X115713872Y-39670267D01*
X115913900Y-39463853D01*
X115913901Y-39463852D01*
X116084065Y-39232202D01*
X116221216Y-38979601D01*
X116322816Y-38710724D01*
X116371078Y-38500000D01*
X116386986Y-38430544D01*
X116412537Y-38144251D01*
X116413000Y-38099998D01*
X116393450Y-37813234D01*
X116388914Y-37791327D01*
X116335163Y-37531772D01*
X116239216Y-37260827D01*
X116107385Y-37005409D01*
X115942109Y-36770246D01*
X115746448Y-36559689D01*
X115524021Y-36377635D01*
X115524018Y-36377633D01*
X115278950Y-36227454D01*
X115015748Y-36111917D01*
X114739320Y-36033174D01*
X114544789Y-36005489D01*
X114454752Y-35992675D01*
X114263133Y-35991672D01*
X114167325Y-35991170D01*
X114167324Y-35991170D01*
X114072333Y-36003676D01*
X113882348Y-36028687D01*
X113605109Y-36104531D01*
X113472911Y-36160918D01*
X113340718Y-36217303D01*
X113340714Y-36217305D01*
X113094084Y-36364910D01*
X112869761Y-36544627D01*
X112671903Y-36753126D01*
X112504177Y-36986541D01*
X112369679Y-37240561D01*
X112369678Y-37240565D01*
X112270899Y-37510492D01*
X112209668Y-37791327D01*
X112190620Y-38033359D01*
X112187116Y-38077876D01*
X109728500Y-38077876D01*
X109728500Y-33528500D01*
X144271500Y-33528500D01*
X144271501Y-68071500D01*
G37*
%TD.AperFunction*%
%TD*%
M02*
