%TF.GenerationSoftware,KiCad,Pcbnew,(5.99.0-3341-g150dc429c)*%
%TF.CreationDate,2020-09-14T09:08:56+02:00*%
%TF.ProjectId,loadCell,6c6f6164-4365-46c6-9c2e-6b696361645f,rev?*%
%TF.SameCoordinates,Original*%
%TF.FileFunction,Copper,L2,Bot*%
%TF.FilePolarity,Positive*%
%FSLAX46Y46*%
G04 Gerber Fmt 4.6, Leading zero omitted, Abs format (unit mm)*
G04 Created by KiCad (PCBNEW (5.99.0-3341-g150dc429c)) date 2020-09-14 09:08:56*
%MOMM*%
%LPD*%
G01*
G04 APERTURE LIST*
%TA.AperFunction,ComponentPad*%
%ADD10O,1.700000X1.700000*%
%TD*%
%TA.AperFunction,ComponentPad*%
%ADD11R,1.700000X1.700000*%
%TD*%
%TA.AperFunction,ViaPad*%
%ADD12C,1.524000*%
%TD*%
%TA.AperFunction,Conductor*%
%ADD13C,1.270000*%
%TD*%
G04 APERTURE END LIST*
D10*
%TO.P,J4,5,Pin_5*%
%TO.N,Net-(J1-Pad4)*%
X132080000Y-63500000D03*
%TO.P,J4,4,Pin_4*%
%TO.N,Net-(J1-Pad3)*%
X129540000Y-63500000D03*
%TO.P,J4,3,Pin_3*%
%TO.N,Net-(J1-Pad2)*%
X127000000Y-63500000D03*
%TO.P,J4,2,Pin_2*%
%TO.N,Net-(J1-Pad1)*%
X124460000Y-63500000D03*
D11*
%TO.P,J4,1,Pin_1*%
%TO.N,GND*%
X121920000Y-63500000D03*
%TD*%
D12*
%TO.N,Net-(J1-Pad4)*%
X123190000Y-45720000D03*
X132080000Y-41910000D03*
%TO.N,Net-(J1-Pad3)*%
X119380000Y-50473000D03*
%TO.N,Net-(J1-Pad2)*%
X121920000Y-52070000D03*
%TO.N,Net-(J1-Pad4)*%
X134620000Y-44450000D03*
X134620000Y-54610000D03*
%TO.N,Net-(J1-Pad3)*%
X130810000Y-44450000D03*
X132080000Y-52070000D03*
%TO.N,Net-(J1-Pad2)*%
X127000000Y-44450000D03*
X129540000Y-49530000D03*
X127000000Y-52070000D03*
%TO.N,Net-(J1-Pad3)*%
X129540000Y-54610000D03*
%TD*%
D13*
%TO.N,Net-(J1-Pad4)*%
X123190000Y-45720000D02*
X127000000Y-41910000D01*
X127000000Y-41910000D02*
X132080000Y-41910000D01*
%TO.N,Net-(J1-Pad3)*%
X119380000Y-50473000D02*
X119380000Y-52070000D01*
X121920000Y-54610000D02*
X129540000Y-54610000D01*
X119380000Y-52070000D02*
X121920000Y-54610000D01*
%TO.N,Net-(J1-Pad2)*%
X121920000Y-52070000D02*
X127000000Y-52070000D01*
%TO.N,Net-(J1-Pad4)*%
X134620000Y-44450000D02*
X134620000Y-54610000D01*
%TO.N,Net-(J1-Pad3)*%
X130810000Y-44450000D02*
X132080000Y-45720000D01*
X132080000Y-45720000D02*
X132080000Y-52070000D01*
%TO.N,Net-(J1-Pad2)*%
X127000000Y-44450000D02*
X127000000Y-46990000D01*
X127000000Y-46990000D02*
X129540000Y-49530000D01*
%TD*%
%TA.AperFunction,Conductor*%
%TO.N,GND*%
G36*
X144271501Y-68071500D02*
G01*
X109728500Y-68071500D01*
X109728500Y-63477876D01*
X112187116Y-63477876D01*
X112203661Y-63764827D01*
X112216555Y-63830546D01*
X112258999Y-64046885D01*
X112352103Y-64318820D01*
X112481252Y-64575605D01*
X112547490Y-64671981D01*
X112644056Y-64812485D01*
X112837499Y-65025077D01*
X113058014Y-65209457D01*
X113301495Y-65362192D01*
X113563471Y-65480479D01*
X113839062Y-65562112D01*
X114123191Y-65605590D01*
X114410586Y-65610104D01*
X114695937Y-65575573D01*
X114973961Y-65502635D01*
X115239514Y-65392639D01*
X115322237Y-65344300D01*
X115487686Y-65247619D01*
X115713872Y-65070267D01*
X115913900Y-64863853D01*
X115914917Y-64862469D01*
X116084065Y-64632202D01*
X116221216Y-64379601D01*
X116232400Y-64350002D01*
X120557000Y-64350002D01*
X120603358Y-64563105D01*
X120682301Y-64685945D01*
X120792651Y-64781563D01*
X120925474Y-64842220D01*
X121069997Y-64863000D01*
X121666000Y-64863000D01*
X121666001Y-63754000D01*
X120557000Y-63753999D01*
X120557000Y-64350002D01*
X116232400Y-64350002D01*
X116322816Y-64110724D01*
X116364432Y-63929018D01*
X116386986Y-63830544D01*
X116412537Y-63544251D01*
X116413000Y-63499998D01*
X116393450Y-63213234D01*
X116388914Y-63191327D01*
X116352436Y-63015179D01*
X116335164Y-62931775D01*
X116327627Y-62910491D01*
X116239216Y-62660827D01*
X116233627Y-62649997D01*
X120557000Y-62649997D01*
X120557000Y-63246000D01*
X121666000Y-63246001D01*
X122173999Y-63246001D01*
X122174000Y-63246001D01*
X122173999Y-64863000D01*
X122770002Y-64863000D01*
X122983105Y-64816642D01*
X123105945Y-64737699D01*
X123201563Y-64627349D01*
X123269745Y-64478050D01*
X123273941Y-64479966D01*
X123289403Y-64446129D01*
X123349138Y-64407759D01*
X123420134Y-64407775D01*
X123468999Y-64435100D01*
X123635931Y-64585670D01*
X123772195Y-64671979D01*
X123830638Y-64708997D01*
X124043336Y-64797752D01*
X124212183Y-64836578D01*
X124267952Y-64849402D01*
X124498057Y-64862469D01*
X124498058Y-64862469D01*
X124727071Y-64836579D01*
X124727074Y-64836578D01*
X124727075Y-64836578D01*
X124917056Y-64781563D01*
X124948460Y-64772469D01*
X125155868Y-64671981D01*
X125343386Y-64537978D01*
X125449135Y-64431302D01*
X125505646Y-64374296D01*
X125638007Y-64185616D01*
X125638009Y-64185612D01*
X125744393Y-64033962D01*
X125751952Y-64047855D01*
X125862102Y-64250305D01*
X126004789Y-64431302D01*
X126175931Y-64585670D01*
X126312195Y-64671979D01*
X126370638Y-64708997D01*
X126583336Y-64797752D01*
X126752183Y-64836578D01*
X126807952Y-64849402D01*
X127038057Y-64862469D01*
X127038058Y-64862469D01*
X127267071Y-64836579D01*
X127267074Y-64836578D01*
X127267075Y-64836578D01*
X127457056Y-64781563D01*
X127488460Y-64772469D01*
X127695868Y-64671981D01*
X127883386Y-64537978D01*
X127989135Y-64431302D01*
X128045646Y-64374296D01*
X128178007Y-64185616D01*
X128178009Y-64185612D01*
X128284393Y-64033962D01*
X128291952Y-64047855D01*
X128402102Y-64250305D01*
X128544789Y-64431302D01*
X128715931Y-64585670D01*
X128852195Y-64671979D01*
X128910638Y-64708997D01*
X129123336Y-64797752D01*
X129292183Y-64836578D01*
X129347952Y-64849402D01*
X129578057Y-64862469D01*
X129578058Y-64862469D01*
X129807071Y-64836579D01*
X129807074Y-64836578D01*
X129807075Y-64836578D01*
X129997056Y-64781563D01*
X130028460Y-64772469D01*
X130235868Y-64671981D01*
X130423386Y-64537978D01*
X130529135Y-64431302D01*
X130585646Y-64374296D01*
X130718007Y-64185616D01*
X130718009Y-64185612D01*
X130824393Y-64033962D01*
X130831952Y-64047855D01*
X130942102Y-64250305D01*
X131084789Y-64431302D01*
X131255931Y-64585670D01*
X131392195Y-64671979D01*
X131450638Y-64708997D01*
X131663336Y-64797752D01*
X131832183Y-64836578D01*
X131887952Y-64849402D01*
X132118057Y-64862469D01*
X132118058Y-64862469D01*
X132347071Y-64836579D01*
X132347074Y-64836578D01*
X132347075Y-64836578D01*
X132537056Y-64781563D01*
X132568460Y-64772469D01*
X132775868Y-64671981D01*
X132963386Y-64537978D01*
X133069135Y-64431302D01*
X133125646Y-64374296D01*
X133258007Y-64185616D01*
X133258009Y-64185612D01*
X133356683Y-63977337D01*
X133418859Y-63755399D01*
X133442749Y-63526167D01*
X133443000Y-63500003D01*
X133441124Y-63477876D01*
X137587116Y-63477876D01*
X137603661Y-63764827D01*
X137616555Y-63830546D01*
X137658999Y-64046885D01*
X137752103Y-64318820D01*
X137881252Y-64575605D01*
X137947490Y-64671981D01*
X138044056Y-64812485D01*
X138237499Y-65025077D01*
X138458014Y-65209457D01*
X138701495Y-65362192D01*
X138963471Y-65480479D01*
X139239062Y-65562112D01*
X139523191Y-65605590D01*
X139810586Y-65610104D01*
X140095937Y-65575573D01*
X140373961Y-65502635D01*
X140639514Y-65392639D01*
X140722237Y-65344300D01*
X140887686Y-65247619D01*
X141113872Y-65070267D01*
X141313900Y-64863853D01*
X141314917Y-64862469D01*
X141484065Y-64632202D01*
X141621216Y-64379601D01*
X141722816Y-64110724D01*
X141764432Y-63929018D01*
X141786986Y-63830544D01*
X141812537Y-63544251D01*
X141813000Y-63499998D01*
X141793450Y-63213234D01*
X141788914Y-63191327D01*
X141752436Y-63015179D01*
X141735164Y-62931775D01*
X141727627Y-62910491D01*
X141639216Y-62660827D01*
X141507385Y-62405409D01*
X141342109Y-62170246D01*
X141146448Y-61959689D01*
X140924021Y-61777635D01*
X140903256Y-61764910D01*
X140678950Y-61627454D01*
X140415748Y-61511917D01*
X140139320Y-61433174D01*
X139968578Y-61408875D01*
X139854752Y-61392675D01*
X139663133Y-61391672D01*
X139567325Y-61391170D01*
X139567324Y-61391170D01*
X139472333Y-61403676D01*
X139282348Y-61428687D01*
X139005109Y-61504531D01*
X138872912Y-61560918D01*
X138740718Y-61617303D01*
X138740714Y-61617305D01*
X138494084Y-61764910D01*
X138269761Y-61944627D01*
X138071903Y-62153126D01*
X137904177Y-62386541D01*
X137769679Y-62640561D01*
X137767710Y-62645942D01*
X137670899Y-62910492D01*
X137623019Y-63130095D01*
X137609668Y-63191326D01*
X137587116Y-63477876D01*
X133441124Y-63477876D01*
X133441123Y-63477873D01*
X133423514Y-63270349D01*
X133365612Y-63047264D01*
X133330281Y-62968830D01*
X133270952Y-62837125D01*
X133142240Y-62645942D01*
X133142239Y-62645941D01*
X133142238Y-62645939D01*
X132983151Y-62479173D01*
X132798241Y-62341596D01*
X132592794Y-62237141D01*
X132372684Y-62168796D01*
X132144206Y-62138513D01*
X132144203Y-62138513D01*
X132029049Y-62142836D01*
X131913892Y-62147160D01*
X131688328Y-62194488D01*
X131688326Y-62194489D01*
X131688325Y-62194489D01*
X131473963Y-62279144D01*
X131276925Y-62398709D01*
X131189888Y-62474237D01*
X131102851Y-62549764D01*
X131023991Y-62645941D01*
X130956716Y-62727988D01*
X130819620Y-62968830D01*
X130602240Y-62645941D01*
X130443150Y-62479172D01*
X130335004Y-62398709D01*
X130258241Y-62341596D01*
X130052794Y-62237141D01*
X129832684Y-62168796D01*
X129604206Y-62138513D01*
X129604203Y-62138513D01*
X129489049Y-62142836D01*
X129373892Y-62147160D01*
X129148328Y-62194488D01*
X129148326Y-62194489D01*
X129148325Y-62194489D01*
X128933963Y-62279144D01*
X128736925Y-62398709D01*
X128649888Y-62474237D01*
X128562851Y-62549764D01*
X128483991Y-62645941D01*
X128416716Y-62727988D01*
X128279620Y-62968830D01*
X128062240Y-62645941D01*
X127903150Y-62479172D01*
X127795004Y-62398709D01*
X127718241Y-62341596D01*
X127512794Y-62237141D01*
X127292684Y-62168796D01*
X127064206Y-62138513D01*
X127064203Y-62138513D01*
X126949049Y-62142836D01*
X126833892Y-62147160D01*
X126608328Y-62194488D01*
X126608326Y-62194489D01*
X126608325Y-62194489D01*
X126393963Y-62279144D01*
X126196925Y-62398709D01*
X126109888Y-62474237D01*
X126022851Y-62549764D01*
X125943991Y-62645941D01*
X125876716Y-62727988D01*
X125739620Y-62968830D01*
X125522240Y-62645941D01*
X125363150Y-62479172D01*
X125255004Y-62398709D01*
X125178241Y-62341596D01*
X124972794Y-62237141D01*
X124752684Y-62168796D01*
X124524206Y-62138513D01*
X124524203Y-62138513D01*
X124409049Y-62142836D01*
X124293892Y-62147160D01*
X124068328Y-62194488D01*
X124068326Y-62194489D01*
X124068325Y-62194489D01*
X123853963Y-62279144D01*
X123656925Y-62398709D01*
X123564201Y-62479172D01*
X123482851Y-62549764D01*
X123472849Y-62561962D01*
X123414191Y-62601956D01*
X123343221Y-62603888D01*
X123282472Y-62567144D01*
X123252296Y-62508855D01*
X123236642Y-62436894D01*
X123157699Y-62314055D01*
X123047349Y-62218437D01*
X122914526Y-62157780D01*
X122770003Y-62137000D01*
X122174000Y-62137000D01*
X122173999Y-63246001D01*
X121666000Y-63246001D01*
X121666001Y-62137000D01*
X121069998Y-62137000D01*
X120856895Y-62183358D01*
X120734055Y-62262301D01*
X120638437Y-62372651D01*
X120577780Y-62505474D01*
X120557000Y-62649997D01*
X116233627Y-62649997D01*
X116107385Y-62405409D01*
X115942109Y-62170246D01*
X115746448Y-61959689D01*
X115524021Y-61777635D01*
X115503256Y-61764910D01*
X115278950Y-61627454D01*
X115015748Y-61511917D01*
X114739320Y-61433174D01*
X114568578Y-61408875D01*
X114454752Y-61392675D01*
X114263133Y-61391672D01*
X114167325Y-61391170D01*
X114167324Y-61391170D01*
X114072333Y-61403676D01*
X113882348Y-61428687D01*
X113605109Y-61504531D01*
X113472911Y-61560918D01*
X113340718Y-61617303D01*
X113340714Y-61617305D01*
X113094084Y-61764910D01*
X112869761Y-61944627D01*
X112671903Y-62153126D01*
X112504177Y-62386541D01*
X112369679Y-62640561D01*
X112367710Y-62645942D01*
X112270899Y-62910492D01*
X112223019Y-63130095D01*
X112209668Y-63191326D01*
X112187116Y-63477876D01*
X109728500Y-63477876D01*
X109728500Y-50553089D01*
X118107017Y-50553089D01*
X118141318Y-50777249D01*
X118214773Y-50991793D01*
X118236500Y-51030829D01*
X118236500Y-52029803D01*
X118231895Y-52100064D01*
X118242483Y-52189521D01*
X118250732Y-52279298D01*
X118250733Y-52279301D01*
X118254825Y-52293811D01*
X118256597Y-52308782D01*
X118256598Y-52308785D01*
X118256598Y-52308786D01*
X118283321Y-52394850D01*
X118307784Y-52481586D01*
X118314453Y-52495109D01*
X118318925Y-52509512D01*
X118318926Y-52509514D01*
X118360891Y-52589276D01*
X118400742Y-52670088D01*
X118409764Y-52682169D01*
X118416786Y-52695516D01*
X118472571Y-52766279D01*
X118526496Y-52838494D01*
X118526499Y-52838497D01*
X118590588Y-52897740D01*
X121082989Y-55390142D01*
X121129425Y-55443092D01*
X121200198Y-55498885D01*
X121247689Y-55538383D01*
X121269481Y-55556508D01*
X121276848Y-55560633D01*
X121282637Y-55563875D01*
X121294483Y-55573214D01*
X121374276Y-55615195D01*
X121452861Y-55659205D01*
X121452863Y-55659206D01*
X121467135Y-55664051D01*
X121480488Y-55671076D01*
X121519271Y-55683119D01*
X121566602Y-55697816D01*
X121593988Y-55707112D01*
X121651888Y-55726766D01*
X121666803Y-55728929D01*
X121681213Y-55733403D01*
X121742979Y-55740713D01*
X121770737Y-55743999D01*
X121859891Y-55756926D01*
X121859892Y-55756926D01*
X121877331Y-55756241D01*
X121947089Y-55753500D01*
X128967932Y-55753500D01*
X129095659Y-55800241D01*
X129209876Y-55842038D01*
X129433269Y-55881027D01*
X129433272Y-55881027D01*
X129660035Y-55879839D01*
X129883005Y-55838515D01*
X129966293Y-55807043D01*
X130095137Y-55758357D01*
X130289720Y-55641901D01*
X130460605Y-55492829D01*
X130602391Y-55315851D01*
X130651844Y-55224769D01*
X130710596Y-55116564D01*
X130781801Y-54901260D01*
X130813752Y-54676757D01*
X130815500Y-54609998D01*
X130795342Y-54384128D01*
X130735504Y-54165400D01*
X130735503Y-54165397D01*
X130735503Y-54165396D01*
X130637876Y-53960718D01*
X130637876Y-53960717D01*
X130505546Y-53776561D01*
X130342698Y-53618749D01*
X130154477Y-53492271D01*
X129946836Y-53401122D01*
X129946834Y-53401122D01*
X129946833Y-53401121D01*
X129726329Y-53348183D01*
X129499936Y-53335129D01*
X129499934Y-53335129D01*
X129392066Y-53348183D01*
X129274809Y-53362373D01*
X129058064Y-53429052D01*
X128985510Y-53466500D01*
X127588356Y-53466500D01*
X127520235Y-53446498D01*
X127473742Y-53392842D01*
X127463638Y-53322568D01*
X127493132Y-53257988D01*
X127543818Y-53222634D01*
X127545041Y-53222172D01*
X127555137Y-53218357D01*
X127749720Y-53101901D01*
X127920605Y-52952829D01*
X128062391Y-52775851D01*
X128113256Y-52682169D01*
X128170596Y-52576564D01*
X128241801Y-52361260D01*
X128273752Y-52136757D01*
X128275500Y-52069998D01*
X128255342Y-51844128D01*
X128195504Y-51625400D01*
X128195503Y-51625396D01*
X128097876Y-51420718D01*
X128097876Y-51420717D01*
X127965546Y-51236561D01*
X127802698Y-51078749D01*
X127614477Y-50952271D01*
X127406836Y-50861122D01*
X127406834Y-50861122D01*
X127406833Y-50861121D01*
X127186329Y-50808183D01*
X126959936Y-50795129D01*
X126959934Y-50795129D01*
X126852066Y-50808183D01*
X126734809Y-50822373D01*
X126518064Y-50889052D01*
X126445510Y-50926500D01*
X122475769Y-50926500D01*
X122389278Y-50888533D01*
X122326836Y-50861122D01*
X122326834Y-50861122D01*
X122326833Y-50861121D01*
X122106329Y-50808183D01*
X121879936Y-50795129D01*
X121879934Y-50795129D01*
X121772066Y-50808183D01*
X121654809Y-50822373D01*
X121438064Y-50889052D01*
X121315580Y-50952271D01*
X121236549Y-50993062D01*
X121056646Y-51131107D01*
X120904024Y-51298836D01*
X120783521Y-51490934D01*
X120766407Y-51533507D01*
X120722440Y-51589251D01*
X120655315Y-51612376D01*
X120586344Y-51595539D01*
X120537424Y-51544086D01*
X120523500Y-51486510D01*
X120523500Y-51029467D01*
X120543267Y-50993060D01*
X120550596Y-50979562D01*
X120568145Y-50926500D01*
X120621800Y-50764265D01*
X120653752Y-50539757D01*
X120655500Y-50472998D01*
X120635342Y-50247128D01*
X120575504Y-50028400D01*
X120575503Y-50028396D01*
X120477876Y-49823718D01*
X120477876Y-49823717D01*
X120345546Y-49639561D01*
X120182698Y-49481749D01*
X119994477Y-49355271D01*
X119786836Y-49264122D01*
X119786834Y-49264122D01*
X119786833Y-49264121D01*
X119566329Y-49211183D01*
X119339936Y-49198129D01*
X119339934Y-49198129D01*
X119232066Y-49211183D01*
X119114809Y-49225373D01*
X118898064Y-49292052D01*
X118775580Y-49355271D01*
X118696549Y-49396062D01*
X118516646Y-49534107D01*
X118364024Y-49701836D01*
X118243521Y-49893934D01*
X118158939Y-50104339D01*
X118158939Y-50104340D01*
X118112953Y-50326398D01*
X118107017Y-50553089D01*
X109728500Y-50553089D01*
X109728500Y-45800089D01*
X121917017Y-45800089D01*
X121951318Y-46024249D01*
X122020586Y-46226563D01*
X122024774Y-46238795D01*
X122135061Y-46436940D01*
X122278686Y-46612418D01*
X122278690Y-46612421D01*
X122451127Y-46759696D01*
X122646919Y-46874107D01*
X122859876Y-46952038D01*
X123083269Y-46991027D01*
X123083272Y-46991027D01*
X123310035Y-46989839D01*
X123533005Y-46948515D01*
X123616293Y-46917043D01*
X123745137Y-46868357D01*
X123939720Y-46751901D01*
X124110605Y-46602829D01*
X124252391Y-46425851D01*
X124353954Y-46238795D01*
X124360596Y-46226563D01*
X124390248Y-46136904D01*
X125764273Y-44762880D01*
X125834773Y-44968793D01*
X125856500Y-45007829D01*
X125856501Y-46949789D01*
X125851895Y-47020064D01*
X125862487Y-47109559D01*
X125869493Y-47185805D01*
X125870733Y-47199299D01*
X125874825Y-47213812D01*
X125876598Y-47228786D01*
X125903326Y-47314865D01*
X125927784Y-47401585D01*
X125934453Y-47415109D01*
X125938926Y-47429514D01*
X125980891Y-47509276D01*
X126020742Y-47590088D01*
X126029764Y-47602169D01*
X126036786Y-47615516D01*
X126092571Y-47686279D01*
X126146496Y-47758494D01*
X126146499Y-47758497D01*
X126210588Y-47817740D01*
X128339959Y-49947112D01*
X128370585Y-50036562D01*
X128374773Y-50048793D01*
X128412528Y-50116624D01*
X128485061Y-50246940D01*
X128628686Y-50422418D01*
X128628690Y-50422421D01*
X128801127Y-50569696D01*
X128996919Y-50684107D01*
X129209876Y-50762038D01*
X129433269Y-50801027D01*
X129433272Y-50801027D01*
X129660035Y-50799839D01*
X129883005Y-50758515D01*
X129966293Y-50727043D01*
X130095137Y-50678357D01*
X130289720Y-50561901D01*
X130460605Y-50412829D01*
X130602391Y-50235851D01*
X130691186Y-50072311D01*
X130699770Y-50056502D01*
X130749853Y-50006180D01*
X130819191Y-49990924D01*
X130885770Y-50015577D01*
X130928452Y-50072311D01*
X130936501Y-50116623D01*
X130936501Y-51508398D01*
X130858939Y-51701340D01*
X130812953Y-51923398D01*
X130807017Y-52150089D01*
X130841318Y-52374249D01*
X130910586Y-52576564D01*
X130914774Y-52588795D01*
X131025061Y-52786940D01*
X131168686Y-52962418D01*
X131168690Y-52962421D01*
X131341127Y-53109696D01*
X131536919Y-53224107D01*
X131749876Y-53302038D01*
X131973269Y-53341027D01*
X131973272Y-53341027D01*
X132200035Y-53339839D01*
X132423005Y-53298515D01*
X132530256Y-53257988D01*
X132635137Y-53218357D01*
X132829720Y-53101901D01*
X133000605Y-52952829D01*
X133142391Y-52775851D01*
X133231186Y-52612311D01*
X133239770Y-52596502D01*
X133289853Y-52546180D01*
X133359191Y-52530924D01*
X133425770Y-52555577D01*
X133468452Y-52612311D01*
X133476501Y-52656623D01*
X133476501Y-54048398D01*
X133398939Y-54241340D01*
X133352953Y-54463398D01*
X133347017Y-54690089D01*
X133381318Y-54914249D01*
X133450586Y-55116564D01*
X133454774Y-55128795D01*
X133565061Y-55326940D01*
X133708686Y-55502418D01*
X133708690Y-55502421D01*
X133881127Y-55649696D01*
X134076919Y-55764107D01*
X134289876Y-55842038D01*
X134513269Y-55881027D01*
X134513272Y-55881027D01*
X134740035Y-55879839D01*
X134963005Y-55838515D01*
X135046293Y-55807043D01*
X135175137Y-55758357D01*
X135369720Y-55641901D01*
X135540605Y-55492829D01*
X135682391Y-55315851D01*
X135731844Y-55224769D01*
X135790596Y-55116564D01*
X135861801Y-54901260D01*
X135893752Y-54676757D01*
X135895500Y-54609998D01*
X135875342Y-54384128D01*
X135815504Y-54165397D01*
X135763500Y-54056369D01*
X135763500Y-45006467D01*
X135790596Y-44956562D01*
X135790597Y-44956560D01*
X135861800Y-44741265D01*
X135893752Y-44516757D01*
X135895500Y-44449998D01*
X135875342Y-44224128D01*
X135815504Y-44005400D01*
X135815503Y-44005396D01*
X135751368Y-43870934D01*
X135717876Y-43800717D01*
X135585546Y-43616561D01*
X135422698Y-43458749D01*
X135234477Y-43332271D01*
X135026836Y-43241122D01*
X135026834Y-43241122D01*
X135026833Y-43241121D01*
X134806329Y-43188183D01*
X134579936Y-43175129D01*
X134579934Y-43175129D01*
X134472066Y-43188183D01*
X134354809Y-43202373D01*
X134138064Y-43269052D01*
X134015580Y-43332271D01*
X133936549Y-43373062D01*
X133756646Y-43511107D01*
X133604024Y-43678836D01*
X133483521Y-43870934D01*
X133398939Y-44081339D01*
X133398939Y-44081340D01*
X133352953Y-44303398D01*
X133347366Y-44516755D01*
X133347017Y-44530091D01*
X133360737Y-44619753D01*
X133381318Y-44754249D01*
X133454773Y-44968793D01*
X133476500Y-45007829D01*
X133476500Y-45652047D01*
X133459773Y-45709014D01*
X133476500Y-45749058D01*
X133476501Y-49481750D01*
X133476501Y-51489956D01*
X133456499Y-51558077D01*
X133402843Y-51604570D01*
X133332569Y-51614674D01*
X133267989Y-51585180D01*
X133236782Y-51544214D01*
X133233661Y-51537673D01*
X133223500Y-51516370D01*
X133223500Y-45760196D01*
X133224770Y-45740818D01*
X133241034Y-45696407D01*
X133225373Y-45666855D01*
X133217516Y-45600467D01*
X133214072Y-45562986D01*
X133209269Y-45510705D01*
X133208391Y-45507593D01*
X133205174Y-45496186D01*
X133203402Y-45481213D01*
X133176682Y-45395159D01*
X133152217Y-45308414D01*
X133145546Y-45294888D01*
X133141075Y-45280487D01*
X133099115Y-45200732D01*
X133079185Y-45160320D01*
X133059257Y-45119910D01*
X133050236Y-45107829D01*
X133043213Y-45094481D01*
X132987429Y-45023720D01*
X132973859Y-45005548D01*
X132933505Y-44951505D01*
X132869407Y-44892254D01*
X132014147Y-44036994D01*
X132005503Y-44005396D01*
X131941368Y-43870934D01*
X131907877Y-43800719D01*
X131775546Y-43616561D01*
X131612698Y-43458749D01*
X131424477Y-43332271D01*
X131339281Y-43294872D01*
X131284947Y-43249177D01*
X131263942Y-43181359D01*
X131282937Y-43112950D01*
X131335901Y-43065671D01*
X131389928Y-43053500D01*
X131507932Y-43053500D01*
X131635659Y-43100241D01*
X131749876Y-43142038D01*
X131973269Y-43181027D01*
X131973272Y-43181027D01*
X132200035Y-43179839D01*
X132423005Y-43138515D01*
X132506293Y-43107043D01*
X132635137Y-43058357D01*
X132829720Y-42941901D01*
X133000605Y-42792829D01*
X133142391Y-42615851D01*
X133191844Y-42524769D01*
X133250596Y-42416564D01*
X133321801Y-42201260D01*
X133353752Y-41976757D01*
X133355500Y-41909998D01*
X133335342Y-41684128D01*
X133275504Y-41465400D01*
X133275503Y-41465396D01*
X133177876Y-41260718D01*
X133177876Y-41260717D01*
X133045546Y-41076561D01*
X132882698Y-40918749D01*
X132694477Y-40792271D01*
X132486836Y-40701122D01*
X132486834Y-40701122D01*
X132486833Y-40701121D01*
X132266329Y-40648183D01*
X132039936Y-40635129D01*
X132039934Y-40635129D01*
X131932066Y-40648183D01*
X131814809Y-40662373D01*
X131598064Y-40729052D01*
X131525510Y-40766500D01*
X127040212Y-40766500D01*
X127000054Y-40763868D01*
X126969939Y-40761894D01*
X126969936Y-40761894D01*
X126880455Y-40772485D01*
X126790702Y-40780732D01*
X126781888Y-40783218D01*
X126776186Y-40784826D01*
X126771196Y-40785417D01*
X126761213Y-40786598D01*
X126675149Y-40813321D01*
X126588414Y-40837783D01*
X126574891Y-40844452D01*
X126560488Y-40848924D01*
X126480718Y-40890892D01*
X126440314Y-40910818D01*
X126399910Y-40930743D01*
X126387831Y-40939763D01*
X126374482Y-40946786D01*
X126330619Y-40981366D01*
X126303703Y-41002584D01*
X126231503Y-41056498D01*
X126172259Y-41120588D01*
X122774115Y-44518732D01*
X122708064Y-44539052D01*
X122518770Y-44636754D01*
X122506549Y-44643062D01*
X122326646Y-44781107D01*
X122174024Y-44948836D01*
X122053521Y-45140934D01*
X121968939Y-45351339D01*
X121956929Y-45409335D01*
X121922953Y-45573398D01*
X121917017Y-45800089D01*
X109728500Y-45800089D01*
X109728500Y-38077876D01*
X112187116Y-38077876D01*
X112203661Y-38364827D01*
X112258999Y-38646884D01*
X112352104Y-38918822D01*
X112481253Y-39175606D01*
X112644056Y-39412485D01*
X112837499Y-39625077D01*
X113058014Y-39809457D01*
X113301495Y-39962192D01*
X113563471Y-40080479D01*
X113839062Y-40162112D01*
X114123191Y-40205590D01*
X114410586Y-40210104D01*
X114695937Y-40175573D01*
X114973961Y-40102635D01*
X115239514Y-39992639D01*
X115322237Y-39944300D01*
X115487686Y-39847619D01*
X115713872Y-39670267D01*
X115913900Y-39463853D01*
X115913901Y-39463852D01*
X116084065Y-39232202D01*
X116221216Y-38979601D01*
X116322816Y-38710724D01*
X116364432Y-38529018D01*
X116386986Y-38430544D01*
X116412537Y-38144251D01*
X116413000Y-38099998D01*
X116411492Y-38077876D01*
X137587116Y-38077876D01*
X137603661Y-38364827D01*
X137658999Y-38646884D01*
X137752104Y-38918822D01*
X137881253Y-39175606D01*
X138044056Y-39412485D01*
X138237499Y-39625077D01*
X138458014Y-39809457D01*
X138701495Y-39962192D01*
X138963471Y-40080479D01*
X139239062Y-40162112D01*
X139523191Y-40205590D01*
X139810586Y-40210104D01*
X140095937Y-40175573D01*
X140373961Y-40102635D01*
X140639514Y-39992639D01*
X140722237Y-39944300D01*
X140887686Y-39847619D01*
X141113872Y-39670267D01*
X141313900Y-39463853D01*
X141313901Y-39463852D01*
X141484065Y-39232202D01*
X141621216Y-38979601D01*
X141722816Y-38710724D01*
X141764432Y-38529018D01*
X141786986Y-38430544D01*
X141812537Y-38144251D01*
X141813000Y-38099998D01*
X141793450Y-37813234D01*
X141788914Y-37791327D01*
X141735163Y-37531772D01*
X141639216Y-37260827D01*
X141507385Y-37005409D01*
X141342109Y-36770246D01*
X141146448Y-36559689D01*
X140924021Y-36377635D01*
X140903256Y-36364910D01*
X140678950Y-36227454D01*
X140415748Y-36111917D01*
X140139320Y-36033174D01*
X139968578Y-36008875D01*
X139854752Y-35992675D01*
X139663133Y-35991672D01*
X139567325Y-35991170D01*
X139567324Y-35991170D01*
X139472333Y-36003676D01*
X139282348Y-36028687D01*
X139005109Y-36104531D01*
X138872911Y-36160918D01*
X138740718Y-36217303D01*
X138740714Y-36217305D01*
X138494084Y-36364910D01*
X138269761Y-36544627D01*
X138071903Y-36753126D01*
X137904177Y-36986541D01*
X137769679Y-37240561D01*
X137769678Y-37240565D01*
X137670899Y-37510492D01*
X137666259Y-37531775D01*
X137609668Y-37791326D01*
X137587116Y-38077876D01*
X116411492Y-38077876D01*
X116393450Y-37813234D01*
X116388914Y-37791327D01*
X116335163Y-37531772D01*
X116239216Y-37260827D01*
X116107385Y-37005409D01*
X115942109Y-36770246D01*
X115746448Y-36559689D01*
X115524021Y-36377635D01*
X115503256Y-36364910D01*
X115278950Y-36227454D01*
X115015748Y-36111917D01*
X114739320Y-36033174D01*
X114568578Y-36008875D01*
X114454752Y-35992675D01*
X114263133Y-35991672D01*
X114167325Y-35991170D01*
X114167324Y-35991170D01*
X114072333Y-36003676D01*
X113882348Y-36028687D01*
X113605109Y-36104531D01*
X113472911Y-36160918D01*
X113340718Y-36217303D01*
X113340714Y-36217305D01*
X113094084Y-36364910D01*
X112869761Y-36544627D01*
X112671903Y-36753126D01*
X112504177Y-36986541D01*
X112369679Y-37240561D01*
X112369678Y-37240565D01*
X112270899Y-37510492D01*
X112266259Y-37531775D01*
X112209668Y-37791326D01*
X112187116Y-38077876D01*
X109728500Y-38077876D01*
X109728500Y-33528500D01*
X144271500Y-33528500D01*
X144271501Y-68071500D01*
G37*
%TD.AperFunction*%
%TD*%
M02*
