G04 #@! TF.GenerationSoftware,KiCad,Pcbnew,(5.1.5-0-10_14)*
G04 #@! TF.CreationDate,2020-01-08T06:54:43+01:00*
G04 #@! TF.ProjectId,Bertha_main,42657274-6861-45f6-9d61-696e2e6b6963,rev?*
G04 #@! TF.SameCoordinates,Original*
G04 #@! TF.FileFunction,Copper,L2,Bot*
G04 #@! TF.FilePolarity,Positive*
%FSLAX46Y46*%
G04 Gerber Fmt 4.6, Leading zero omitted, Abs format (unit mm)*
G04 Created by KiCad (PCBNEW (5.1.5-0-10_14)) date 2020-01-08 06:54:43*
%MOMM*%
%LPD*%
G04 APERTURE LIST*
%ADD10O,2.500000X4.500000*%
%ADD11R,2.500000X4.500000*%
%ADD12C,0.600000*%
%ADD13R,9.500000X3.400000*%
%ADD14O,1.700000X1.700000*%
%ADD15R,1.700000X1.700000*%
%ADD16R,2.200000X4.000000*%
%ADD17O,4.000000X2.200000*%
%ADD18O,2.200000X4.000000*%
%ADD19C,1.397000*%
%ADD20C,0.100000*%
%ADD21R,3.500000X3.500000*%
%ADD22C,0.800000*%
%ADD23C,1.600000*%
%ADD24C,2.400000*%
%ADD25C,2.540000*%
%ADD26C,0.508000*%
%ADD27C,1.270000*%
%ADD28C,0.400000*%
%ADD29C,0.254000*%
G04 APERTURE END LIST*
D10*
X102224000Y-121793000D03*
X96774000Y-121793000D03*
D11*
X91324000Y-121793000D03*
D12*
X162076000Y-84358000D03*
X162076000Y-83058000D03*
X162076000Y-81758000D03*
X163856000Y-81758000D03*
X163856000Y-83058000D03*
X163856000Y-84358000D03*
X165636000Y-81758000D03*
X165636000Y-83058000D03*
X165636000Y-84358000D03*
X167416000Y-81758000D03*
X167416000Y-83058000D03*
X167416000Y-84358000D03*
X169196000Y-81758000D03*
X169196000Y-83058000D03*
X169196000Y-84358000D03*
X170976000Y-81758000D03*
X170976000Y-83058000D03*
X170976000Y-84358000D03*
D13*
X166526000Y-83058000D03*
D14*
X170942000Y-117856000D03*
D15*
X170942000Y-120396000D03*
D16*
X126492000Y-140716000D03*
D17*
X125992000Y-133416000D03*
D18*
X119392000Y-137816000D03*
X116692000Y-136616000D03*
D17*
X121892000Y-144616000D03*
D19*
X142748000Y-137414000D03*
X141548000Y-139954000D03*
X140348000Y-137414000D03*
X139148000Y-139954000D03*
X137947999Y-137414000D03*
X136747999Y-139954000D03*
X153257999Y-139954000D03*
X154457999Y-137414000D03*
X155658000Y-139954000D03*
X156858000Y-137414000D03*
X158058000Y-139954000D03*
X159258000Y-137414000D03*
G04 #@! TA.AperFunction,ComponentPad*
D20*
G36*
X110366765Y-136438213D02*
G01*
X110451704Y-136450813D01*
X110534999Y-136471677D01*
X110615848Y-136500605D01*
X110693472Y-136537319D01*
X110767124Y-136581464D01*
X110836094Y-136632616D01*
X110899718Y-136690282D01*
X110957384Y-136753906D01*
X111008536Y-136822876D01*
X111052681Y-136896528D01*
X111089395Y-136974152D01*
X111118323Y-137055001D01*
X111139187Y-137138296D01*
X111151787Y-137223235D01*
X111156000Y-137309000D01*
X111156000Y-139059000D01*
X111151787Y-139144765D01*
X111139187Y-139229704D01*
X111118323Y-139312999D01*
X111089395Y-139393848D01*
X111052681Y-139471472D01*
X111008536Y-139545124D01*
X110957384Y-139614094D01*
X110899718Y-139677718D01*
X110836094Y-139735384D01*
X110767124Y-139786536D01*
X110693472Y-139830681D01*
X110615848Y-139867395D01*
X110534999Y-139896323D01*
X110451704Y-139917187D01*
X110366765Y-139929787D01*
X110281000Y-139934000D01*
X108531000Y-139934000D01*
X108445235Y-139929787D01*
X108360296Y-139917187D01*
X108277001Y-139896323D01*
X108196152Y-139867395D01*
X108118528Y-139830681D01*
X108044876Y-139786536D01*
X107975906Y-139735384D01*
X107912282Y-139677718D01*
X107854616Y-139614094D01*
X107803464Y-139545124D01*
X107759319Y-139471472D01*
X107722605Y-139393848D01*
X107693677Y-139312999D01*
X107672813Y-139229704D01*
X107660213Y-139144765D01*
X107656000Y-139059000D01*
X107656000Y-137309000D01*
X107660213Y-137223235D01*
X107672813Y-137138296D01*
X107693677Y-137055001D01*
X107722605Y-136974152D01*
X107759319Y-136896528D01*
X107803464Y-136822876D01*
X107854616Y-136753906D01*
X107912282Y-136690282D01*
X107975906Y-136632616D01*
X108044876Y-136581464D01*
X108118528Y-136537319D01*
X108196152Y-136500605D01*
X108277001Y-136471677D01*
X108360296Y-136450813D01*
X108445235Y-136438213D01*
X108531000Y-136434000D01*
X110281000Y-136434000D01*
X110366765Y-136438213D01*
G37*
G04 #@! TD.AperFunction*
G04 #@! TA.AperFunction,ComponentPad*
G36*
X105779513Y-139687611D02*
G01*
X105852318Y-139698411D01*
X105923714Y-139716295D01*
X105993013Y-139741090D01*
X106059548Y-139772559D01*
X106122678Y-139810398D01*
X106181795Y-139854242D01*
X106236330Y-139903670D01*
X106285758Y-139958205D01*
X106329602Y-140017322D01*
X106367441Y-140080452D01*
X106398910Y-140146987D01*
X106423705Y-140216286D01*
X106441589Y-140287682D01*
X106452389Y-140360487D01*
X106456000Y-140434000D01*
X106456000Y-141934000D01*
X106452389Y-142007513D01*
X106441589Y-142080318D01*
X106423705Y-142151714D01*
X106398910Y-142221013D01*
X106367441Y-142287548D01*
X106329602Y-142350678D01*
X106285758Y-142409795D01*
X106236330Y-142464330D01*
X106181795Y-142513758D01*
X106122678Y-142557602D01*
X106059548Y-142595441D01*
X105993013Y-142626910D01*
X105923714Y-142651705D01*
X105852318Y-142669589D01*
X105779513Y-142680389D01*
X105706000Y-142684000D01*
X103706000Y-142684000D01*
X103632487Y-142680389D01*
X103559682Y-142669589D01*
X103488286Y-142651705D01*
X103418987Y-142626910D01*
X103352452Y-142595441D01*
X103289322Y-142557602D01*
X103230205Y-142513758D01*
X103175670Y-142464330D01*
X103126242Y-142409795D01*
X103082398Y-142350678D01*
X103044559Y-142287548D01*
X103013090Y-142221013D01*
X102988295Y-142151714D01*
X102970411Y-142080318D01*
X102959611Y-142007513D01*
X102956000Y-141934000D01*
X102956000Y-140434000D01*
X102959611Y-140360487D01*
X102970411Y-140287682D01*
X102988295Y-140216286D01*
X103013090Y-140146987D01*
X103044559Y-140080452D01*
X103082398Y-140017322D01*
X103126242Y-139958205D01*
X103175670Y-139903670D01*
X103230205Y-139854242D01*
X103289322Y-139810398D01*
X103352452Y-139772559D01*
X103418987Y-139741090D01*
X103488286Y-139716295D01*
X103559682Y-139698411D01*
X103632487Y-139687611D01*
X103706000Y-139684000D01*
X105706000Y-139684000D01*
X105779513Y-139687611D01*
G37*
G04 #@! TD.AperFunction*
D21*
X104706000Y-135184000D03*
D15*
X137649000Y-75041000D03*
D14*
X140189000Y-75041000D03*
D15*
X124314000Y-75041000D03*
D14*
X126854000Y-75041000D03*
X115316000Y-107696000D03*
D15*
X112776000Y-107696000D03*
X112776000Y-112522000D03*
D14*
X115316000Y-112522000D03*
D15*
X161954000Y-69469000D03*
D14*
X164494000Y-69469000D03*
X167034000Y-69469000D03*
X169574000Y-69469000D03*
D15*
X102679500Y-74549000D03*
D14*
X105219500Y-74549000D03*
X107759500Y-74549000D03*
X110299500Y-74549000D03*
X112839500Y-74549000D03*
D15*
X99631500Y-86233000D03*
D14*
X99631500Y-88773000D03*
D22*
X152648000Y-115544000D03*
X149148000Y-115044000D03*
X149148000Y-108544000D03*
D23*
X175768000Y-137414000D03*
X168050000Y-73406000D03*
X172495000Y-73406000D03*
X163478000Y-73406000D03*
X157382000Y-73406000D03*
X169447000Y-95504000D03*
X175797000Y-96520000D03*
X180496000Y-96520000D03*
X163605000Y-95504000D03*
D24*
X151413000Y-84201000D03*
X156112000Y-79375000D03*
X176432000Y-79756000D03*
D23*
X120504000Y-70850000D03*
X133712000Y-70850000D03*
D24*
X120758000Y-80248000D03*
X134474000Y-80248000D03*
X133604000Y-100838000D03*
X133604000Y-104140000D03*
X118872000Y-111506000D03*
X116586000Y-102108000D03*
X121158000Y-106934000D03*
D23*
X108775500Y-93027500D03*
D24*
X131064000Y-116840000D03*
D23*
X117348000Y-89154000D03*
X109728000Y-88392000D03*
X143510000Y-98552000D03*
X146812000Y-97282000D03*
D22*
X162814000Y-127254000D03*
D23*
X175768000Y-120396000D03*
X157226000Y-104140000D03*
X155194000Y-125476000D03*
X153162000Y-125476000D03*
X170180000Y-108966000D03*
D22*
X161544000Y-113792000D03*
D23*
X113792000Y-127254000D03*
D24*
X97028000Y-95758000D03*
D23*
X159766000Y-70358000D03*
X171958000Y-69850000D03*
X185674000Y-99314000D03*
D22*
X112268000Y-67056000D03*
D23*
X109982000Y-110236000D03*
X109982000Y-119634000D03*
D22*
X159004000Y-127962011D03*
X159258000Y-131232021D03*
X166677814Y-78891814D03*
X161700000Y-78486000D03*
X165608000Y-127000000D03*
X164338000Y-130378021D03*
X154940000Y-113284000D03*
X154940000Y-115408000D03*
D23*
X164240000Y-87932055D03*
X169164000Y-88539980D03*
D22*
X161798000Y-122174000D03*
X159004000Y-121920000D03*
D23*
X158242000Y-87884000D03*
D22*
X168301000Y-78232000D03*
X157226000Y-113284000D03*
X156225997Y-113268003D03*
X158496000Y-122936000D03*
X161798000Y-123190000D03*
X169891831Y-125695831D03*
X151638000Y-112014000D03*
X144653000Y-113919000D03*
D23*
X123063000Y-130810000D03*
X109982000Y-131064000D03*
X141224000Y-121539000D03*
X101854000Y-130048000D03*
X140716000Y-107823000D03*
X140716000Y-105029000D03*
X142748000Y-104267000D03*
X131318000Y-127000000D03*
X139700000Y-122936000D03*
X142748000Y-107950000D03*
X139065000Y-120015000D03*
X117729000Y-123571000D03*
D25*
X97028000Y-95758000D02*
X93980000Y-95758000D01*
X93980000Y-95758000D02*
X93218000Y-94996000D01*
X93218000Y-94996000D02*
X93218000Y-71882000D01*
X93218000Y-71882000D02*
X101600000Y-63500000D01*
X177292000Y-63500000D02*
X185928000Y-72136000D01*
D26*
X159766000Y-70358000D02*
X159766000Y-64770000D01*
X159004000Y-64008000D02*
X159004000Y-63500000D01*
X159766000Y-64770000D02*
X159004000Y-64008000D01*
X171958000Y-69850000D02*
X171958000Y-68718630D01*
D25*
X172212000Y-63500000D02*
X177292000Y-63500000D01*
D26*
X172212000Y-68464630D02*
X172212000Y-63500000D01*
X171958000Y-68718630D02*
X172212000Y-68464630D01*
D25*
X159004000Y-63500000D02*
X172212000Y-63500000D01*
X185928000Y-99060000D02*
X185674000Y-99314000D01*
X185928000Y-72136000D02*
X185928000Y-99060000D01*
D26*
X112268000Y-67056000D02*
X112667999Y-66656001D01*
X112667999Y-64407999D02*
X111760000Y-63500000D01*
X112667999Y-66656001D02*
X112667999Y-64407999D01*
D25*
X111760000Y-63500000D02*
X159004000Y-63500000D01*
X101600000Y-63500000D02*
X111760000Y-63500000D01*
D27*
X109982000Y-110236000D02*
X109982000Y-119634000D01*
D26*
X159004000Y-130978021D02*
X159258000Y-131232021D01*
X159004000Y-127962011D02*
X159004000Y-130978021D01*
D28*
X166272000Y-78486000D02*
X161700000Y-78486000D01*
X166677814Y-78891814D02*
X166272000Y-78486000D01*
D26*
X165608000Y-129108021D02*
X164338000Y-130378021D01*
X165608000Y-127000000D02*
X165608000Y-129108021D01*
X154940000Y-113284000D02*
X154940000Y-115408000D01*
X161954000Y-70827000D02*
X161954000Y-69469000D01*
X161954000Y-75980922D02*
X161954000Y-70827000D01*
X161902684Y-89138001D02*
X157640079Y-89138001D01*
X163108630Y-87932055D02*
X161902684Y-89138001D01*
X156987999Y-80946923D02*
X161954000Y-75980922D01*
X156987999Y-88485921D02*
X156987999Y-80946923D01*
X157640079Y-89138001D02*
X156987999Y-88485921D01*
X164240000Y-87932055D02*
X163108630Y-87932055D01*
X167132000Y-69567000D02*
X167034000Y-69469000D01*
X167132000Y-69898922D02*
X167132000Y-69567000D01*
X171730001Y-74496923D02*
X167132000Y-69898922D01*
X171730001Y-87105349D02*
X171730001Y-74496923D01*
X170295370Y-88539980D02*
X171730001Y-87105349D01*
X169164000Y-88539980D02*
X170295370Y-88539980D01*
X159258000Y-122174000D02*
X159004000Y-121920000D01*
X161798000Y-122174000D02*
X159258000Y-122174000D01*
X167901001Y-78631999D02*
X168301000Y-78232000D01*
X167087735Y-79745815D02*
X167901001Y-78932549D01*
X159522185Y-79745815D02*
X167087735Y-79745815D01*
X167901001Y-78932549D02*
X167901001Y-78631999D01*
X158242000Y-81026000D02*
X159522185Y-79745815D01*
X158242000Y-87884000D02*
X158242000Y-81026000D01*
X157641999Y-120303999D02*
X157226000Y-119888000D01*
X157226000Y-114357685D02*
X157226000Y-113284000D01*
X157226000Y-119888000D02*
X157226000Y-114357685D01*
X157641999Y-124113999D02*
X157641999Y-120303999D01*
X158058000Y-124530000D02*
X157641999Y-124113999D01*
X158058000Y-139954000D02*
X158058000Y-124530000D01*
X156225997Y-113268003D02*
X156225997Y-119618003D01*
X156858000Y-137274000D02*
X157349990Y-136782010D01*
X156858000Y-137414000D02*
X156858000Y-137274000D01*
X157349990Y-124823266D02*
X156933989Y-124407266D01*
X157349990Y-136782010D02*
X157349990Y-124823266D01*
X156225997Y-119889273D02*
X156225997Y-119618003D01*
X156933989Y-120597265D02*
X156225997Y-119889273D01*
X156933989Y-124407266D02*
X156933989Y-120597265D01*
X158750000Y-123190000D02*
X158496000Y-122936000D01*
X161798000Y-123190000D02*
X158750000Y-123190000D01*
X161798000Y-123190000D02*
X162363685Y-123190000D01*
X167386000Y-123190000D02*
X168656000Y-124460000D01*
X162363685Y-123190000D02*
X167386000Y-123190000D01*
X168656000Y-124460000D02*
X169891831Y-125695831D01*
X149733000Y-113919000D02*
X144653000Y-113919000D01*
X151638000Y-112014000D02*
X149733000Y-113919000D01*
X125652078Y-130810000D02*
X123063000Y-130810000D01*
X134923078Y-121539000D02*
X125652078Y-130810000D01*
X141224000Y-121539000D02*
X134923078Y-121539000D01*
X108966000Y-130048000D02*
X109982000Y-131064000D01*
X101854000Y-130048000D02*
X108966000Y-130048000D01*
X140716000Y-105029000D02*
X140716000Y-107823000D01*
X142748000Y-105177902D02*
X142769988Y-105155914D01*
X131318000Y-127000000D02*
X135636000Y-122682000D01*
X139446000Y-122682000D02*
X139700000Y-122936000D01*
X135636000Y-122682000D02*
X139446000Y-122682000D01*
X142748000Y-105029000D02*
X142748000Y-107950000D01*
X121285000Y-120015000D02*
X117729000Y-123571000D01*
X139065000Y-120015000D02*
X121285000Y-120015000D01*
D29*
G36*
X188263001Y-146139000D02*
G01*
X123623217Y-146139000D01*
X123760578Y-146065579D01*
X124024766Y-145848766D01*
X124241579Y-145584578D01*
X124402686Y-145283168D01*
X124501895Y-144956119D01*
X124535394Y-144616000D01*
X124501895Y-144275881D01*
X124402686Y-143948832D01*
X124241579Y-143647422D01*
X124024766Y-143383234D01*
X123760578Y-143166421D01*
X123459168Y-143005314D01*
X123132119Y-142906105D01*
X122877225Y-142881000D01*
X120906775Y-142881000D01*
X120651881Y-142906105D01*
X120324832Y-143005314D01*
X120023422Y-143166421D01*
X119759234Y-143383234D01*
X119542421Y-143647422D01*
X119381314Y-143948832D01*
X119282105Y-144275881D01*
X119248606Y-144616000D01*
X119282105Y-144956119D01*
X119381314Y-145283168D01*
X119542421Y-145584578D01*
X119759234Y-145848766D01*
X120023422Y-146065579D01*
X120160783Y-146139000D01*
X89633000Y-146139000D01*
X89633000Y-142273872D01*
X90983000Y-142273872D01*
X90983000Y-142714128D01*
X91068890Y-143145925D01*
X91237369Y-143552669D01*
X91481962Y-143918729D01*
X91793271Y-144230038D01*
X92159331Y-144474631D01*
X92566075Y-144643110D01*
X92997872Y-144729000D01*
X93438128Y-144729000D01*
X93869925Y-144643110D01*
X94276669Y-144474631D01*
X94642729Y-144230038D01*
X94954038Y-143918729D01*
X95198631Y-143552669D01*
X95367110Y-143145925D01*
X95453000Y-142714128D01*
X95453000Y-142684000D01*
X102317928Y-142684000D01*
X102330188Y-142808482D01*
X102366498Y-142928180D01*
X102425463Y-143038494D01*
X102504815Y-143135185D01*
X102601506Y-143214537D01*
X102711820Y-143273502D01*
X102831518Y-143309812D01*
X102956000Y-143322072D01*
X104420250Y-143319000D01*
X104579000Y-143160250D01*
X104579000Y-141311000D01*
X104833000Y-141311000D01*
X104833000Y-143160250D01*
X104991750Y-143319000D01*
X106456000Y-143322072D01*
X106580482Y-143309812D01*
X106700180Y-143273502D01*
X106810494Y-143214537D01*
X106907185Y-143135185D01*
X106986537Y-143038494D01*
X107045502Y-142928180D01*
X107081812Y-142808482D01*
X107094072Y-142684000D01*
X107091000Y-141469750D01*
X106932250Y-141311000D01*
X104833000Y-141311000D01*
X104579000Y-141311000D01*
X102479750Y-141311000D01*
X102321000Y-141469750D01*
X102317928Y-142684000D01*
X95453000Y-142684000D01*
X95453000Y-142273872D01*
X95367110Y-141842075D01*
X95198631Y-141435331D01*
X94954038Y-141069271D01*
X94642729Y-140757962D01*
X94276669Y-140513369D01*
X93869925Y-140344890D01*
X93438128Y-140259000D01*
X92997872Y-140259000D01*
X92566075Y-140344890D01*
X92159331Y-140513369D01*
X91793271Y-140757962D01*
X91481962Y-141069271D01*
X91237369Y-141435331D01*
X91068890Y-141842075D01*
X90983000Y-142273872D01*
X89633000Y-142273872D01*
X89633000Y-139684000D01*
X102317928Y-139684000D01*
X102321000Y-140898250D01*
X102479750Y-141057000D01*
X104579000Y-141057000D01*
X104579000Y-139207750D01*
X104833000Y-139207750D01*
X104833000Y-141057000D01*
X106932250Y-141057000D01*
X107091000Y-140898250D01*
X107094072Y-139684000D01*
X107081812Y-139559518D01*
X107045502Y-139439820D01*
X106986537Y-139329506D01*
X106907185Y-139232815D01*
X106810494Y-139153463D01*
X106700180Y-139094498D01*
X106580482Y-139058188D01*
X106456000Y-139045928D01*
X104991750Y-139049000D01*
X104833000Y-139207750D01*
X104579000Y-139207750D01*
X104420250Y-139049000D01*
X102956000Y-139045928D01*
X102831518Y-139058188D01*
X102711820Y-139094498D01*
X102601506Y-139153463D01*
X102504815Y-139232815D01*
X102425463Y-139329506D01*
X102366498Y-139439820D01*
X102330188Y-139559518D01*
X102317928Y-139684000D01*
X89633000Y-139684000D01*
X89633000Y-133434000D01*
X102317928Y-133434000D01*
X102317928Y-136934000D01*
X102330188Y-137058482D01*
X102366498Y-137178180D01*
X102425463Y-137288494D01*
X102504815Y-137385185D01*
X102601506Y-137464537D01*
X102711820Y-137523502D01*
X102831518Y-137559812D01*
X102956000Y-137572072D01*
X106456000Y-137572072D01*
X106580482Y-137559812D01*
X106700180Y-137523502D01*
X106810494Y-137464537D01*
X106907185Y-137385185D01*
X106986537Y-137288494D01*
X107027494Y-137211869D01*
X107017928Y-137309000D01*
X107017928Y-139059000D01*
X107047001Y-139354186D01*
X107133104Y-139638028D01*
X107272927Y-139899618D01*
X107461097Y-140128903D01*
X107690382Y-140317073D01*
X107951972Y-140456896D01*
X108235814Y-140542999D01*
X108531000Y-140572072D01*
X110281000Y-140572072D01*
X110576186Y-140542999D01*
X110860028Y-140456896D01*
X111121618Y-140317073D01*
X111350903Y-140128903D01*
X111539073Y-139899618D01*
X111678896Y-139638028D01*
X111764999Y-139354186D01*
X111794072Y-139059000D01*
X111794072Y-137309000D01*
X111764999Y-137013814D01*
X111678896Y-136729972D01*
X111539073Y-136468382D01*
X111350903Y-136239097D01*
X111121618Y-136050927D01*
X110860028Y-135911104D01*
X110576186Y-135825001D01*
X110281000Y-135795928D01*
X108531000Y-135795928D01*
X108235814Y-135825001D01*
X107951972Y-135911104D01*
X107690382Y-136050927D01*
X107461097Y-136239097D01*
X107272927Y-136468382D01*
X107133104Y-136729972D01*
X107094072Y-136858643D01*
X107094072Y-135630776D01*
X114957000Y-135630776D01*
X114957000Y-137601225D01*
X114982106Y-137856119D01*
X115081315Y-138183168D01*
X115242422Y-138484578D01*
X115459235Y-138748766D01*
X115723423Y-138965579D01*
X116024833Y-139126686D01*
X116351882Y-139225895D01*
X116692000Y-139259394D01*
X117032119Y-139225895D01*
X117359168Y-139126686D01*
X117660578Y-138965579D01*
X117672245Y-138956004D01*
X117682106Y-139056119D01*
X117781315Y-139383168D01*
X117942422Y-139684578D01*
X118159235Y-139948766D01*
X118423423Y-140165579D01*
X118724833Y-140326686D01*
X119051882Y-140425895D01*
X119392000Y-140459394D01*
X119732119Y-140425895D01*
X120059168Y-140326686D01*
X120360578Y-140165579D01*
X120624766Y-139948766D01*
X120841579Y-139684578D01*
X121002686Y-139383168D01*
X121101895Y-139056119D01*
X121127000Y-138801225D01*
X121127000Y-138716000D01*
X124753928Y-138716000D01*
X124753928Y-142716000D01*
X124766188Y-142840482D01*
X124802498Y-142960180D01*
X124861463Y-143070494D01*
X124940815Y-143167185D01*
X125037506Y-143246537D01*
X125147820Y-143305502D01*
X125267518Y-143341812D01*
X125392000Y-143354072D01*
X127592000Y-143354072D01*
X127716482Y-143341812D01*
X127836180Y-143305502D01*
X127946494Y-143246537D01*
X128043185Y-143167185D01*
X128122537Y-143070494D01*
X128181502Y-142960180D01*
X128217812Y-142840482D01*
X128218585Y-142832628D01*
X131906502Y-142832628D01*
X131906502Y-143195372D01*
X131977270Y-143551146D01*
X132116086Y-143886277D01*
X132317616Y-144187888D01*
X132574114Y-144444386D01*
X132875725Y-144645916D01*
X133210856Y-144784732D01*
X133566630Y-144855500D01*
X133929374Y-144855500D01*
X134285148Y-144784732D01*
X134620279Y-144645916D01*
X134921890Y-144444386D01*
X135178388Y-144187888D01*
X135379918Y-143886277D01*
X135518734Y-143551146D01*
X135589502Y-143195372D01*
X135589502Y-142832628D01*
X143906500Y-142832628D01*
X143906500Y-143195372D01*
X143977268Y-143551146D01*
X144116084Y-143886277D01*
X144317614Y-144187888D01*
X144574112Y-144444386D01*
X144875723Y-144645916D01*
X145210854Y-144784732D01*
X145566628Y-144855500D01*
X145929372Y-144855500D01*
X146285146Y-144784732D01*
X146620277Y-144645916D01*
X146921888Y-144444386D01*
X147178386Y-144187888D01*
X147379916Y-143886277D01*
X147518732Y-143551146D01*
X147589500Y-143195372D01*
X147589500Y-142832628D01*
X148416502Y-142832628D01*
X148416502Y-143195372D01*
X148487270Y-143551146D01*
X148626086Y-143886277D01*
X148827616Y-144187888D01*
X149084114Y-144444386D01*
X149385725Y-144645916D01*
X149720856Y-144784732D01*
X150076630Y-144855500D01*
X150439374Y-144855500D01*
X150795148Y-144784732D01*
X151130279Y-144645916D01*
X151431890Y-144444386D01*
X151688388Y-144187888D01*
X151889918Y-143886277D01*
X152028734Y-143551146D01*
X152099502Y-143195372D01*
X152099502Y-142832628D01*
X160416500Y-142832628D01*
X160416500Y-143195372D01*
X160487268Y-143551146D01*
X160626084Y-143886277D01*
X160827614Y-144187888D01*
X161084112Y-144444386D01*
X161385723Y-144645916D01*
X161720854Y-144784732D01*
X162076628Y-144855500D01*
X162439372Y-144855500D01*
X162795146Y-144784732D01*
X163130277Y-144645916D01*
X163431888Y-144444386D01*
X163688386Y-144187888D01*
X163889916Y-143886277D01*
X164028732Y-143551146D01*
X164099500Y-143195372D01*
X164099500Y-142832628D01*
X164028732Y-142476854D01*
X163889916Y-142141723D01*
X163796698Y-142002212D01*
X168983000Y-142002212D01*
X168983000Y-142225788D01*
X169026617Y-142445067D01*
X169112176Y-142651624D01*
X169236388Y-142837520D01*
X169394480Y-142995612D01*
X169580376Y-143119824D01*
X169786933Y-143205383D01*
X170006212Y-143249000D01*
X170229788Y-143249000D01*
X170449067Y-143205383D01*
X170655624Y-143119824D01*
X170841520Y-142995612D01*
X170999612Y-142837520D01*
X171123824Y-142651624D01*
X171209383Y-142445067D01*
X171253000Y-142225788D01*
X171253000Y-142002212D01*
X173383000Y-142002212D01*
X173383000Y-142225788D01*
X173426617Y-142445067D01*
X173512176Y-142651624D01*
X173636388Y-142837520D01*
X173794480Y-142995612D01*
X173980376Y-143119824D01*
X174186933Y-143205383D01*
X174406212Y-143249000D01*
X174629788Y-143249000D01*
X174849067Y-143205383D01*
X175055624Y-143119824D01*
X175241520Y-142995612D01*
X175399612Y-142837520D01*
X175523824Y-142651624D01*
X175609383Y-142445067D01*
X175643435Y-142273872D01*
X182423000Y-142273872D01*
X182423000Y-142714128D01*
X182508890Y-143145925D01*
X182677369Y-143552669D01*
X182921962Y-143918729D01*
X183233271Y-144230038D01*
X183599331Y-144474631D01*
X184006075Y-144643110D01*
X184437872Y-144729000D01*
X184878128Y-144729000D01*
X185309925Y-144643110D01*
X185716669Y-144474631D01*
X186082729Y-144230038D01*
X186394038Y-143918729D01*
X186638631Y-143552669D01*
X186807110Y-143145925D01*
X186893000Y-142714128D01*
X186893000Y-142273872D01*
X186807110Y-141842075D01*
X186638631Y-141435331D01*
X186394038Y-141069271D01*
X186082729Y-140757962D01*
X185716669Y-140513369D01*
X185309925Y-140344890D01*
X184878128Y-140259000D01*
X184437872Y-140259000D01*
X184006075Y-140344890D01*
X183599331Y-140513369D01*
X183233271Y-140757962D01*
X182921962Y-141069271D01*
X182677369Y-141435331D01*
X182508890Y-141842075D01*
X182423000Y-142273872D01*
X175643435Y-142273872D01*
X175653000Y-142225788D01*
X175653000Y-142002212D01*
X175609383Y-141782933D01*
X175523824Y-141576376D01*
X175399612Y-141390480D01*
X175241520Y-141232388D01*
X175055624Y-141108176D01*
X174849067Y-141022617D01*
X174629788Y-140979000D01*
X174406212Y-140979000D01*
X174186933Y-141022617D01*
X173980376Y-141108176D01*
X173794480Y-141232388D01*
X173636388Y-141390480D01*
X173512176Y-141576376D01*
X173426617Y-141782933D01*
X173383000Y-142002212D01*
X171253000Y-142002212D01*
X171209383Y-141782933D01*
X171123824Y-141576376D01*
X170999612Y-141390480D01*
X170841520Y-141232388D01*
X170655624Y-141108176D01*
X170449067Y-141022617D01*
X170229788Y-140979000D01*
X170006212Y-140979000D01*
X169786933Y-141022617D01*
X169580376Y-141108176D01*
X169394480Y-141232388D01*
X169236388Y-141390480D01*
X169112176Y-141576376D01*
X169026617Y-141782933D01*
X168983000Y-142002212D01*
X163796698Y-142002212D01*
X163688386Y-141840112D01*
X163431888Y-141583614D01*
X163130277Y-141382084D01*
X162795146Y-141243268D01*
X162439372Y-141172500D01*
X162076628Y-141172500D01*
X161720854Y-141243268D01*
X161385723Y-141382084D01*
X161084112Y-141583614D01*
X160827614Y-141840112D01*
X160626084Y-142141723D01*
X160487268Y-142476854D01*
X160416500Y-142832628D01*
X152099502Y-142832628D01*
X152028734Y-142476854D01*
X151889918Y-142141723D01*
X151688388Y-141840112D01*
X151431890Y-141583614D01*
X151130279Y-141382084D01*
X150795148Y-141243268D01*
X150439374Y-141172500D01*
X150076630Y-141172500D01*
X149720856Y-141243268D01*
X149385725Y-141382084D01*
X149084114Y-141583614D01*
X148827616Y-141840112D01*
X148626086Y-142141723D01*
X148487270Y-142476854D01*
X148416502Y-142832628D01*
X147589500Y-142832628D01*
X147518732Y-142476854D01*
X147379916Y-142141723D01*
X147178386Y-141840112D01*
X146921888Y-141583614D01*
X146620277Y-141382084D01*
X146285146Y-141243268D01*
X145929372Y-141172500D01*
X145566628Y-141172500D01*
X145210854Y-141243268D01*
X144875723Y-141382084D01*
X144574112Y-141583614D01*
X144317614Y-141840112D01*
X144116084Y-142141723D01*
X143977268Y-142476854D01*
X143906500Y-142832628D01*
X135589502Y-142832628D01*
X135518734Y-142476854D01*
X135379918Y-142141723D01*
X135178388Y-141840112D01*
X134921890Y-141583614D01*
X134620279Y-141382084D01*
X134285148Y-141243268D01*
X133929374Y-141172500D01*
X133566630Y-141172500D01*
X133210856Y-141243268D01*
X132875725Y-141382084D01*
X132574114Y-141583614D01*
X132317616Y-141840112D01*
X132116086Y-142141723D01*
X131977270Y-142476854D01*
X131906502Y-142832628D01*
X128218585Y-142832628D01*
X128230072Y-142716000D01*
X128230072Y-140874197D01*
X136007407Y-140874197D01*
X136066685Y-141107812D01*
X136304874Y-141218559D01*
X136560092Y-141280711D01*
X136822532Y-141291876D01*
X137082106Y-141251629D01*
X137328841Y-141161514D01*
X137429313Y-141107812D01*
X137488591Y-140874197D01*
X138407408Y-140874197D01*
X138466686Y-141107812D01*
X138704875Y-141218559D01*
X138960093Y-141280711D01*
X139222533Y-141291876D01*
X139482107Y-141251629D01*
X139728842Y-141161514D01*
X139829314Y-141107812D01*
X139888592Y-140874197D01*
X139148000Y-140133605D01*
X138407408Y-140874197D01*
X137488591Y-140874197D01*
X136747999Y-140133605D01*
X136007407Y-140874197D01*
X128230072Y-140874197D01*
X128230072Y-140028533D01*
X135410123Y-140028533D01*
X135450370Y-140288107D01*
X135540485Y-140534842D01*
X135594187Y-140635314D01*
X135827802Y-140694592D01*
X136568394Y-139954000D01*
X136927604Y-139954000D01*
X137668196Y-140694592D01*
X137901811Y-140635314D01*
X137944786Y-140542886D01*
X137994188Y-140635314D01*
X138227803Y-140694592D01*
X138968395Y-139954000D01*
X139327605Y-139954000D01*
X140068197Y-140694592D01*
X140301812Y-140635314D01*
X140346780Y-140538600D01*
X140366268Y-140585649D01*
X140512203Y-140804057D01*
X140697943Y-140989797D01*
X140916351Y-141135732D01*
X141159032Y-141236254D01*
X141416662Y-141287500D01*
X141679338Y-141287500D01*
X141936968Y-141236254D01*
X142179649Y-141135732D01*
X142398057Y-140989797D01*
X142513657Y-140874197D01*
X152517407Y-140874197D01*
X152576685Y-141107812D01*
X152814874Y-141218559D01*
X153070092Y-141280711D01*
X153332532Y-141291876D01*
X153592106Y-141251629D01*
X153838841Y-141161514D01*
X153939313Y-141107812D01*
X153998591Y-140874197D01*
X154917408Y-140874197D01*
X154976686Y-141107812D01*
X155214875Y-141218559D01*
X155470093Y-141280711D01*
X155732533Y-141291876D01*
X155992107Y-141251629D01*
X156238842Y-141161514D01*
X156339314Y-141107812D01*
X156398592Y-140874197D01*
X155658000Y-140133605D01*
X154917408Y-140874197D01*
X153998591Y-140874197D01*
X153257999Y-140133605D01*
X152517407Y-140874197D01*
X142513657Y-140874197D01*
X142583797Y-140804057D01*
X142729732Y-140585649D01*
X142830254Y-140342968D01*
X142881500Y-140085338D01*
X142881500Y-140028533D01*
X151920123Y-140028533D01*
X151960370Y-140288107D01*
X152050485Y-140534842D01*
X152104187Y-140635314D01*
X152337802Y-140694592D01*
X153078394Y-139954000D01*
X153437604Y-139954000D01*
X154178196Y-140694592D01*
X154411811Y-140635314D01*
X154454786Y-140542886D01*
X154504188Y-140635314D01*
X154737803Y-140694592D01*
X155478395Y-139954000D01*
X154737803Y-139213408D01*
X154504188Y-139272686D01*
X154461213Y-139365114D01*
X154411811Y-139272686D01*
X154178196Y-139213408D01*
X153437604Y-139954000D01*
X153078394Y-139954000D01*
X152337802Y-139213408D01*
X152104187Y-139272686D01*
X151993440Y-139510875D01*
X151931288Y-139766093D01*
X151920123Y-140028533D01*
X142881500Y-140028533D01*
X142881500Y-139822662D01*
X142830254Y-139565032D01*
X142729732Y-139322351D01*
X142583797Y-139103943D01*
X142513657Y-139033803D01*
X152517407Y-139033803D01*
X153257999Y-139774395D01*
X153998591Y-139033803D01*
X154917408Y-139033803D01*
X155658000Y-139774395D01*
X156398592Y-139033803D01*
X156339314Y-138800188D01*
X156101125Y-138689441D01*
X155845907Y-138627289D01*
X155583467Y-138616124D01*
X155323893Y-138656371D01*
X155077158Y-138746486D01*
X154976686Y-138800188D01*
X154917408Y-139033803D01*
X153998591Y-139033803D01*
X153939313Y-138800188D01*
X153701124Y-138689441D01*
X153445906Y-138627289D01*
X153183466Y-138616124D01*
X152923892Y-138656371D01*
X152677157Y-138746486D01*
X152576685Y-138800188D01*
X152517407Y-139033803D01*
X142513657Y-139033803D01*
X142398057Y-138918203D01*
X142179649Y-138772268D01*
X141936968Y-138671746D01*
X141679338Y-138620500D01*
X141416662Y-138620500D01*
X141159032Y-138671746D01*
X140916351Y-138772268D01*
X140697943Y-138918203D01*
X140512203Y-139103943D01*
X140366268Y-139322351D01*
X140349716Y-139362311D01*
X140301812Y-139272686D01*
X140068197Y-139213408D01*
X139327605Y-139954000D01*
X138968395Y-139954000D01*
X138227803Y-139213408D01*
X137994188Y-139272686D01*
X137951213Y-139365114D01*
X137901811Y-139272686D01*
X137668196Y-139213408D01*
X136927604Y-139954000D01*
X136568394Y-139954000D01*
X135827802Y-139213408D01*
X135594187Y-139272686D01*
X135483440Y-139510875D01*
X135421288Y-139766093D01*
X135410123Y-140028533D01*
X128230072Y-140028533D01*
X128230072Y-139033803D01*
X136007407Y-139033803D01*
X136747999Y-139774395D01*
X137488591Y-139033803D01*
X138407408Y-139033803D01*
X139148000Y-139774395D01*
X139888592Y-139033803D01*
X139829314Y-138800188D01*
X139591125Y-138689441D01*
X139335907Y-138627289D01*
X139073467Y-138616124D01*
X138813893Y-138656371D01*
X138567158Y-138746486D01*
X138466686Y-138800188D01*
X138407408Y-139033803D01*
X137488591Y-139033803D01*
X137429313Y-138800188D01*
X137191124Y-138689441D01*
X136935906Y-138627289D01*
X136673466Y-138616124D01*
X136413892Y-138656371D01*
X136167157Y-138746486D01*
X136066685Y-138800188D01*
X136007407Y-139033803D01*
X128230072Y-139033803D01*
X128230072Y-138716000D01*
X128217812Y-138591518D01*
X128181502Y-138471820D01*
X128122537Y-138361506D01*
X128043185Y-138264815D01*
X127946494Y-138185463D01*
X127836180Y-138126498D01*
X127716482Y-138090188D01*
X127592000Y-138077928D01*
X125392000Y-138077928D01*
X125267518Y-138090188D01*
X125147820Y-138126498D01*
X125037506Y-138185463D01*
X124940815Y-138264815D01*
X124861463Y-138361506D01*
X124802498Y-138471820D01*
X124766188Y-138591518D01*
X124753928Y-138716000D01*
X121127000Y-138716000D01*
X121127000Y-137282662D01*
X136614499Y-137282662D01*
X136614499Y-137545338D01*
X136665745Y-137802968D01*
X136766267Y-138045649D01*
X136912202Y-138264057D01*
X137097942Y-138449797D01*
X137316350Y-138595732D01*
X137559031Y-138696254D01*
X137816661Y-138747500D01*
X138079337Y-138747500D01*
X138336967Y-138696254D01*
X138579648Y-138595732D01*
X138798056Y-138449797D01*
X138983796Y-138264057D01*
X139129731Y-138045649D01*
X139148000Y-138001546D01*
X139166268Y-138045649D01*
X139312203Y-138264057D01*
X139497943Y-138449797D01*
X139716351Y-138595732D01*
X139959032Y-138696254D01*
X140216662Y-138747500D01*
X140479338Y-138747500D01*
X140736968Y-138696254D01*
X140979649Y-138595732D01*
X141198057Y-138449797D01*
X141383797Y-138264057D01*
X141529732Y-138045649D01*
X141548000Y-138001546D01*
X141566268Y-138045649D01*
X141712203Y-138264057D01*
X141897943Y-138449797D01*
X142116351Y-138595732D01*
X142359032Y-138696254D01*
X142616662Y-138747500D01*
X142879338Y-138747500D01*
X143136968Y-138696254D01*
X143379649Y-138595732D01*
X143598057Y-138449797D01*
X143783797Y-138264057D01*
X143929732Y-138045649D01*
X144030254Y-137802968D01*
X144081500Y-137545338D01*
X144081500Y-137282662D01*
X153124499Y-137282662D01*
X153124499Y-137545338D01*
X153175745Y-137802968D01*
X153276267Y-138045649D01*
X153422202Y-138264057D01*
X153607942Y-138449797D01*
X153826350Y-138595732D01*
X154069031Y-138696254D01*
X154326661Y-138747500D01*
X154589337Y-138747500D01*
X154846967Y-138696254D01*
X155089648Y-138595732D01*
X155308056Y-138449797D01*
X155493796Y-138264057D01*
X155639731Y-138045649D01*
X155658000Y-138001546D01*
X155676268Y-138045649D01*
X155822203Y-138264057D01*
X156007943Y-138449797D01*
X156226351Y-138595732D01*
X156469032Y-138696254D01*
X156726662Y-138747500D01*
X156989338Y-138747500D01*
X157169000Y-138711763D01*
X157169000Y-138957146D01*
X157022203Y-139103943D01*
X156876268Y-139322351D01*
X156859716Y-139362311D01*
X156811812Y-139272686D01*
X156578197Y-139213408D01*
X155837605Y-139954000D01*
X156578197Y-140694592D01*
X156811812Y-140635314D01*
X156856780Y-140538600D01*
X156876268Y-140585649D01*
X157022203Y-140804057D01*
X157207943Y-140989797D01*
X157426351Y-141135732D01*
X157669032Y-141236254D01*
X157926662Y-141287500D01*
X158189338Y-141287500D01*
X158446968Y-141236254D01*
X158689649Y-141135732D01*
X158908057Y-140989797D01*
X159093797Y-140804057D01*
X159239732Y-140585649D01*
X159340254Y-140342968D01*
X159391500Y-140085338D01*
X159391500Y-139822662D01*
X159340254Y-139565032D01*
X159239732Y-139322351D01*
X159093797Y-139103943D01*
X158947000Y-138957146D01*
X158947000Y-138711763D01*
X159126662Y-138747500D01*
X159389338Y-138747500D01*
X159646968Y-138696254D01*
X159889649Y-138595732D01*
X160108057Y-138449797D01*
X160293797Y-138264057D01*
X160439732Y-138045649D01*
X160540254Y-137802968D01*
X160591500Y-137545338D01*
X160591500Y-137282662D01*
X160540254Y-137025032D01*
X160439732Y-136782351D01*
X160293797Y-136563943D01*
X160108057Y-136378203D01*
X159889649Y-136232268D01*
X159646968Y-136131746D01*
X159389338Y-136080500D01*
X159126662Y-136080500D01*
X158947000Y-136116237D01*
X158947000Y-132223477D01*
X158956102Y-132227247D01*
X159156061Y-132267021D01*
X159359939Y-132267021D01*
X159559898Y-132227247D01*
X159748256Y-132149226D01*
X159917774Y-132035958D01*
X160061937Y-131891795D01*
X160175205Y-131722277D01*
X160253226Y-131533919D01*
X160293000Y-131333960D01*
X160293000Y-131130082D01*
X160253226Y-130930123D01*
X160175205Y-130741765D01*
X160061937Y-130572247D01*
X159917774Y-130428084D01*
X159893000Y-130411531D01*
X159893000Y-128494479D01*
X159921205Y-128452267D01*
X159999226Y-128263909D01*
X160039000Y-128063950D01*
X160039000Y-127860072D01*
X159999226Y-127660113D01*
X159921205Y-127471755D01*
X159807937Y-127302237D01*
X159663774Y-127158074D01*
X159494256Y-127044806D01*
X159305898Y-126966785D01*
X159105939Y-126927011D01*
X158947000Y-126927011D01*
X158947000Y-124573659D01*
X158951300Y-124529999D01*
X158947000Y-124486339D01*
X158947000Y-124486333D01*
X158937406Y-124388924D01*
X158934136Y-124355724D01*
X158891660Y-124215699D01*
X158883303Y-124188149D01*
X158824962Y-124079000D01*
X160732388Y-124079000D01*
X160711137Y-124130304D01*
X160667700Y-124348675D01*
X160667700Y-124571325D01*
X160711137Y-124789696D01*
X160796341Y-124995398D01*
X160920039Y-125180524D01*
X161077476Y-125337961D01*
X161262602Y-125461659D01*
X161297224Y-125476000D01*
X161262602Y-125490341D01*
X161077476Y-125614039D01*
X160920039Y-125771476D01*
X160796341Y-125956602D01*
X160711137Y-126162304D01*
X160667700Y-126380675D01*
X160667700Y-126603325D01*
X160711137Y-126821696D01*
X160796341Y-127027398D01*
X160920039Y-127212524D01*
X161077476Y-127369961D01*
X161262602Y-127493659D01*
X161468304Y-127578863D01*
X161686675Y-127622300D01*
X161909325Y-127622300D01*
X162127696Y-127578863D01*
X162333398Y-127493659D01*
X162518524Y-127369961D01*
X162675961Y-127212524D01*
X162799659Y-127027398D01*
X162884863Y-126821696D01*
X162928300Y-126603325D01*
X162928300Y-126380675D01*
X162884863Y-126162304D01*
X162799659Y-125956602D01*
X162675961Y-125771476D01*
X162518524Y-125614039D01*
X162333398Y-125490341D01*
X162298776Y-125476000D01*
X162333398Y-125461659D01*
X162518524Y-125337961D01*
X162675961Y-125180524D01*
X162799659Y-124995398D01*
X162884863Y-124789696D01*
X162928300Y-124571325D01*
X162928300Y-124348675D01*
X162884863Y-124130304D01*
X162863612Y-124079000D01*
X167017765Y-124079000D01*
X167412899Y-124474134D01*
X167207696Y-124389137D01*
X166989325Y-124345700D01*
X166766675Y-124345700D01*
X166548304Y-124389137D01*
X166342602Y-124474341D01*
X166157476Y-124598039D01*
X166000039Y-124755476D01*
X165876341Y-124940602D01*
X165791137Y-125146304D01*
X165747700Y-125364675D01*
X165747700Y-125587325D01*
X165791137Y-125805696D01*
X165870338Y-125996905D01*
X165709939Y-125965000D01*
X165506061Y-125965000D01*
X165306102Y-126004774D01*
X165117744Y-126082795D01*
X164948226Y-126196063D01*
X164804063Y-126340226D01*
X164690795Y-126509744D01*
X164612774Y-126698102D01*
X164573000Y-126898061D01*
X164573000Y-127101939D01*
X164612774Y-127301898D01*
X164690795Y-127490256D01*
X164719000Y-127532468D01*
X164719001Y-128739784D01*
X164085895Y-129372891D01*
X164036102Y-129382795D01*
X163847744Y-129460816D01*
X163678226Y-129574084D01*
X163534063Y-129718247D01*
X163420795Y-129887765D01*
X163342774Y-130076123D01*
X163303000Y-130276082D01*
X163303000Y-130479960D01*
X163342774Y-130679919D01*
X163420795Y-130868277D01*
X163534063Y-131037795D01*
X163678226Y-131181958D01*
X163847744Y-131295226D01*
X164036102Y-131373247D01*
X164236061Y-131413021D01*
X164439939Y-131413021D01*
X164639898Y-131373247D01*
X164828256Y-131295226D01*
X164997774Y-131181958D01*
X165141937Y-131037795D01*
X165255205Y-130868277D01*
X165333226Y-130679919D01*
X165343130Y-130630126D01*
X166205741Y-129767515D01*
X166239659Y-129739680D01*
X166350753Y-129604312D01*
X166433303Y-129449872D01*
X166458055Y-129368273D01*
X166484136Y-129282297D01*
X166490006Y-129222697D01*
X166497000Y-129151688D01*
X166497000Y-129151682D01*
X166501300Y-129108022D01*
X166497000Y-129064362D01*
X166497000Y-127532468D01*
X166525205Y-127490256D01*
X166603226Y-127301898D01*
X166643000Y-127101939D01*
X166643000Y-126898061D01*
X166603226Y-126698102D01*
X166546981Y-126562315D01*
X166548304Y-126562863D01*
X166766675Y-126606300D01*
X166989325Y-126606300D01*
X167207696Y-126562863D01*
X167413398Y-126477659D01*
X167598524Y-126353961D01*
X167755961Y-126196524D01*
X167879659Y-126011398D01*
X167964863Y-125805696D01*
X168008300Y-125587325D01*
X168008300Y-125364675D01*
X167964863Y-125146304D01*
X167879866Y-124941102D01*
X168058259Y-125119495D01*
X168058264Y-125119499D01*
X168886701Y-125947936D01*
X168896605Y-125997729D01*
X168974626Y-126186087D01*
X169087894Y-126355605D01*
X169232057Y-126499768D01*
X169401575Y-126613036D01*
X169589933Y-126691057D01*
X169789892Y-126730831D01*
X169993770Y-126730831D01*
X170193729Y-126691057D01*
X170382087Y-126613036D01*
X170551605Y-126499768D01*
X170695768Y-126355605D01*
X170809036Y-126186087D01*
X170887057Y-125997729D01*
X170926831Y-125797770D01*
X170926831Y-125593892D01*
X170887057Y-125393933D01*
X170809036Y-125205575D01*
X170695768Y-125036057D01*
X170551605Y-124891894D01*
X170382087Y-124778626D01*
X170193729Y-124700605D01*
X170143936Y-124690701D01*
X169315499Y-123862264D01*
X169315495Y-123862259D01*
X168045499Y-122592264D01*
X168017659Y-122558341D01*
X167882291Y-122447247D01*
X167727851Y-122364697D01*
X167560274Y-122313864D01*
X167429667Y-122301000D01*
X167429660Y-122301000D01*
X167386000Y-122296700D01*
X167342340Y-122301000D01*
X162828015Y-122301000D01*
X162833000Y-122275939D01*
X162833000Y-122072061D01*
X162793226Y-121872102D01*
X162715205Y-121683744D01*
X162601937Y-121514226D01*
X162457774Y-121370063D01*
X162288256Y-121256795D01*
X162099898Y-121178774D01*
X161899939Y-121139000D01*
X161696061Y-121139000D01*
X161496102Y-121178774D01*
X161307744Y-121256795D01*
X161265532Y-121285000D01*
X159824490Y-121285000D01*
X159807937Y-121260226D01*
X159663774Y-121116063D01*
X159494256Y-121002795D01*
X159305898Y-120924774D01*
X159105939Y-120885000D01*
X158902061Y-120885000D01*
X158702102Y-120924774D01*
X158530999Y-120995648D01*
X158530999Y-120347658D01*
X158535299Y-120303998D01*
X158530999Y-120260338D01*
X158530999Y-120260332D01*
X158518135Y-120129725D01*
X158518135Y-120129723D01*
X158467301Y-119962146D01*
X158451689Y-119932939D01*
X158384752Y-119807708D01*
X158273658Y-119672340D01*
X158239730Y-119644496D01*
X158141234Y-119546000D01*
X169453928Y-119546000D01*
X169453928Y-121246000D01*
X169466188Y-121370482D01*
X169502498Y-121490180D01*
X169561463Y-121600494D01*
X169640815Y-121697185D01*
X169737506Y-121776537D01*
X169847820Y-121835502D01*
X169967518Y-121871812D01*
X170092000Y-121884072D01*
X171792000Y-121884072D01*
X171916482Y-121871812D01*
X172036180Y-121835502D01*
X172146494Y-121776537D01*
X172243185Y-121697185D01*
X172322537Y-121600494D01*
X172381502Y-121490180D01*
X172417812Y-121370482D01*
X172430072Y-121246000D01*
X172430072Y-119546000D01*
X172417812Y-119421518D01*
X172381502Y-119301820D01*
X172322537Y-119191506D01*
X172243185Y-119094815D01*
X172146494Y-119015463D01*
X172036180Y-118956498D01*
X171955534Y-118932034D01*
X172039588Y-118856269D01*
X172213641Y-118622920D01*
X172338825Y-118360099D01*
X172383476Y-118212890D01*
X172262155Y-117983000D01*
X171069000Y-117983000D01*
X171069000Y-118003000D01*
X170815000Y-118003000D01*
X170815000Y-117983000D01*
X169621845Y-117983000D01*
X169500524Y-118212890D01*
X169545175Y-118360099D01*
X169670359Y-118622920D01*
X169844412Y-118856269D01*
X169928466Y-118932034D01*
X169847820Y-118956498D01*
X169737506Y-119015463D01*
X169640815Y-119094815D01*
X169561463Y-119191506D01*
X169502498Y-119301820D01*
X169466188Y-119421518D01*
X169453928Y-119546000D01*
X158141234Y-119546000D01*
X158115000Y-119519766D01*
X158115000Y-117499110D01*
X169500524Y-117499110D01*
X169621845Y-117729000D01*
X170815000Y-117729000D01*
X170815000Y-116535186D01*
X171069000Y-116535186D01*
X171069000Y-117729000D01*
X172262155Y-117729000D01*
X172383476Y-117499110D01*
X172338825Y-117351901D01*
X172213641Y-117089080D01*
X172039588Y-116855731D01*
X171823355Y-116660822D01*
X171573252Y-116511843D01*
X171298891Y-116414519D01*
X171069000Y-116535186D01*
X170815000Y-116535186D01*
X170585109Y-116414519D01*
X170310748Y-116511843D01*
X170060645Y-116660822D01*
X169844412Y-116855731D01*
X169670359Y-117089080D01*
X169545175Y-117351901D01*
X169500524Y-117499110D01*
X158115000Y-117499110D01*
X158115000Y-113816468D01*
X158143205Y-113774256D01*
X158221226Y-113585898D01*
X158261000Y-113385939D01*
X158261000Y-113182061D01*
X158221226Y-112982102D01*
X158143205Y-112793744D01*
X158029937Y-112624226D01*
X157885774Y-112480063D01*
X157716256Y-112366795D01*
X157527898Y-112288774D01*
X157327939Y-112249000D01*
X157124061Y-112249000D01*
X156924102Y-112288774D01*
X156738491Y-112365657D01*
X156716253Y-112350798D01*
X156527895Y-112272777D01*
X156327936Y-112233003D01*
X156124058Y-112233003D01*
X155924099Y-112272777D01*
X155735741Y-112350798D01*
X155571028Y-112460855D01*
X155430256Y-112366795D01*
X155241898Y-112288774D01*
X155041939Y-112249000D01*
X154838061Y-112249000D01*
X154638102Y-112288774D01*
X154449744Y-112366795D01*
X154280226Y-112480063D01*
X154136063Y-112624226D01*
X154022795Y-112793744D01*
X153944774Y-112982102D01*
X153905000Y-113182061D01*
X153905000Y-113385939D01*
X153944774Y-113585898D01*
X154022795Y-113774256D01*
X154051000Y-113816468D01*
X154051001Y-114875531D01*
X154022795Y-114917744D01*
X153944774Y-115106102D01*
X153905000Y-115306061D01*
X153905000Y-115509939D01*
X153944774Y-115709898D01*
X154022795Y-115898256D01*
X154136063Y-116067774D01*
X154280226Y-116211937D01*
X154449744Y-116325205D01*
X154638102Y-116403226D01*
X154838061Y-116443000D01*
X155041939Y-116443000D01*
X155241898Y-116403226D01*
X155336997Y-116363834D01*
X155336998Y-119574326D01*
X155336997Y-119574336D01*
X155336997Y-119845613D01*
X155332697Y-119889273D01*
X155336997Y-119932933D01*
X155336997Y-119932939D01*
X155349861Y-120063546D01*
X155400694Y-120231123D01*
X155483244Y-120385563D01*
X155594338Y-120520932D01*
X155628260Y-120548771D01*
X156044990Y-120965502D01*
X156044989Y-124363607D01*
X156040689Y-124407267D01*
X156044989Y-124450927D01*
X156044989Y-124450932D01*
X156048476Y-124486333D01*
X156057853Y-124581542D01*
X156108687Y-124749119D01*
X156130376Y-124789696D01*
X156191236Y-124903556D01*
X156302330Y-125038925D01*
X156336254Y-125066765D01*
X156460991Y-125191503D01*
X156460990Y-136135077D01*
X156226351Y-136232268D01*
X156007943Y-136378203D01*
X155822203Y-136563943D01*
X155676268Y-136782351D01*
X155658000Y-136826454D01*
X155639731Y-136782351D01*
X155493796Y-136563943D01*
X155308056Y-136378203D01*
X155089648Y-136232268D01*
X154846967Y-136131746D01*
X154589337Y-136080500D01*
X154326661Y-136080500D01*
X154069031Y-136131746D01*
X153826350Y-136232268D01*
X153607942Y-136378203D01*
X153422202Y-136563943D01*
X153276267Y-136782351D01*
X153175745Y-137025032D01*
X153124499Y-137282662D01*
X144081500Y-137282662D01*
X144030254Y-137025032D01*
X143929732Y-136782351D01*
X143783797Y-136563943D01*
X143598057Y-136378203D01*
X143379649Y-136232268D01*
X143136968Y-136131746D01*
X142879338Y-136080500D01*
X142616662Y-136080500D01*
X142359032Y-136131746D01*
X142116351Y-136232268D01*
X141897943Y-136378203D01*
X141712203Y-136563943D01*
X141566268Y-136782351D01*
X141548000Y-136826454D01*
X141529732Y-136782351D01*
X141383797Y-136563943D01*
X141198057Y-136378203D01*
X140979649Y-136232268D01*
X140736968Y-136131746D01*
X140479338Y-136080500D01*
X140216662Y-136080500D01*
X139959032Y-136131746D01*
X139716351Y-136232268D01*
X139497943Y-136378203D01*
X139312203Y-136563943D01*
X139166268Y-136782351D01*
X139148000Y-136826454D01*
X139129731Y-136782351D01*
X138983796Y-136563943D01*
X138798056Y-136378203D01*
X138579648Y-136232268D01*
X138336967Y-136131746D01*
X138079337Y-136080500D01*
X137816661Y-136080500D01*
X137559031Y-136131746D01*
X137316350Y-136232268D01*
X137097942Y-136378203D01*
X136912202Y-136563943D01*
X136766267Y-136782351D01*
X136665745Y-137025032D01*
X136614499Y-137282662D01*
X121127000Y-137282662D01*
X121127000Y-136830775D01*
X121101895Y-136575881D01*
X121002686Y-136248832D01*
X120841579Y-135947422D01*
X120624766Y-135683234D01*
X120360577Y-135466421D01*
X120059167Y-135305314D01*
X119732118Y-135206105D01*
X119392000Y-135172606D01*
X119051881Y-135206105D01*
X118724832Y-135305314D01*
X118423422Y-135466421D01*
X118411755Y-135475995D01*
X118401895Y-135375881D01*
X118302686Y-135048832D01*
X118141579Y-134747422D01*
X117924766Y-134483234D01*
X117660577Y-134266421D01*
X117359167Y-134105314D01*
X117032118Y-134006105D01*
X116692000Y-133972606D01*
X116351881Y-134006105D01*
X116024832Y-134105314D01*
X115723422Y-134266421D01*
X115459234Y-134483234D01*
X115242421Y-134747423D01*
X115081314Y-135048833D01*
X114982105Y-135375882D01*
X114957000Y-135630776D01*
X107094072Y-135630776D01*
X107094072Y-133434000D01*
X107081812Y-133309518D01*
X107045502Y-133189820D01*
X106986537Y-133079506D01*
X106907185Y-132982815D01*
X106810494Y-132903463D01*
X106700180Y-132844498D01*
X106580482Y-132808188D01*
X106456000Y-132795928D01*
X102956000Y-132795928D01*
X102831518Y-132808188D01*
X102711820Y-132844498D01*
X102601506Y-132903463D01*
X102504815Y-132982815D01*
X102425463Y-133079506D01*
X102366498Y-133189820D01*
X102330188Y-133309518D01*
X102317928Y-133434000D01*
X89633000Y-133434000D01*
X89633000Y-129906665D01*
X100419000Y-129906665D01*
X100419000Y-130189335D01*
X100474147Y-130466574D01*
X100582320Y-130727727D01*
X100739363Y-130962759D01*
X100939241Y-131162637D01*
X101174273Y-131319680D01*
X101435426Y-131427853D01*
X101712665Y-131483000D01*
X101995335Y-131483000D01*
X102272574Y-131427853D01*
X102533727Y-131319680D01*
X102768759Y-131162637D01*
X102968637Y-130962759D01*
X102985849Y-130937000D01*
X108547000Y-130937000D01*
X108547000Y-131205335D01*
X108602147Y-131482574D01*
X108710320Y-131743727D01*
X108867363Y-131978759D01*
X109067241Y-132178637D01*
X109302273Y-132335680D01*
X109563426Y-132443853D01*
X109840665Y-132499000D01*
X110123335Y-132499000D01*
X110400574Y-132443853D01*
X110661727Y-132335680D01*
X110896759Y-132178637D01*
X111096637Y-131978759D01*
X111253680Y-131743727D01*
X111361853Y-131482574D01*
X111417000Y-131205335D01*
X111417000Y-130922665D01*
X111361853Y-130645426D01*
X111253680Y-130384273D01*
X111096637Y-130149241D01*
X110896759Y-129949363D01*
X110661727Y-129792320D01*
X110400574Y-129684147D01*
X110123335Y-129629000D01*
X109840665Y-129629000D01*
X109810279Y-129635044D01*
X109625499Y-129450264D01*
X109597659Y-129416341D01*
X109462291Y-129305247D01*
X109307851Y-129222697D01*
X109140274Y-129171864D01*
X109009667Y-129159000D01*
X109009660Y-129159000D01*
X108966000Y-129154700D01*
X108922340Y-129159000D01*
X102985849Y-129159000D01*
X102968637Y-129133241D01*
X102768759Y-128933363D01*
X102533727Y-128776320D01*
X102272574Y-128668147D01*
X101995335Y-128613000D01*
X101712665Y-128613000D01*
X101435426Y-128668147D01*
X101174273Y-128776320D01*
X100939241Y-128933363D01*
X100739363Y-129133241D01*
X100582320Y-129368273D01*
X100474147Y-129629426D01*
X100419000Y-129906665D01*
X89633000Y-129906665D01*
X89633000Y-124502544D01*
X89719506Y-124573537D01*
X89829820Y-124632502D01*
X89949518Y-124668812D01*
X90074000Y-124681072D01*
X92574000Y-124681072D01*
X92698482Y-124668812D01*
X92818180Y-124632502D01*
X92928494Y-124573537D01*
X93025185Y-124494185D01*
X93104537Y-124397494D01*
X93163502Y-124287180D01*
X93199812Y-124167482D01*
X93212072Y-124043000D01*
X93212072Y-120700404D01*
X94889000Y-120700404D01*
X94889001Y-122885597D01*
X94916276Y-123162524D01*
X95024062Y-123517848D01*
X95199098Y-123845317D01*
X95434656Y-124132345D01*
X95721684Y-124367903D01*
X96049153Y-124542939D01*
X96404477Y-124650725D01*
X96774000Y-124687120D01*
X97143524Y-124650725D01*
X97498848Y-124542939D01*
X97826317Y-124367903D01*
X98113345Y-124132345D01*
X98348903Y-123845317D01*
X98523939Y-123517848D01*
X98631725Y-123162524D01*
X98659000Y-122885597D01*
X98659000Y-121920000D01*
X100339000Y-121920000D01*
X100339000Y-122920000D01*
X100399996Y-123285305D01*
X100531088Y-123631691D01*
X100727237Y-123945847D01*
X100980906Y-124215699D01*
X101282347Y-124430878D01*
X101619975Y-124583114D01*
X101804355Y-124630695D01*
X102097000Y-124514572D01*
X102097000Y-121920000D01*
X102351000Y-121920000D01*
X102351000Y-124514572D01*
X102643645Y-124630695D01*
X102828025Y-124583114D01*
X103165653Y-124430878D01*
X103467094Y-124215699D01*
X103720763Y-123945847D01*
X103916912Y-123631691D01*
X103993370Y-123429665D01*
X116294000Y-123429665D01*
X116294000Y-123712335D01*
X116349147Y-123989574D01*
X116457320Y-124250727D01*
X116614363Y-124485759D01*
X116814241Y-124685637D01*
X117049273Y-124842680D01*
X117310426Y-124950853D01*
X117587665Y-125006000D01*
X117870335Y-125006000D01*
X118147574Y-124950853D01*
X118408727Y-124842680D01*
X118643759Y-124685637D01*
X118843637Y-124485759D01*
X119000680Y-124250727D01*
X119108853Y-123989574D01*
X119164000Y-123712335D01*
X119164000Y-123429665D01*
X119157956Y-123399279D01*
X121653235Y-120904000D01*
X134295490Y-120904000D01*
X134291419Y-120907341D01*
X134263584Y-120941258D01*
X125283843Y-129921000D01*
X124194849Y-129921000D01*
X124177637Y-129895241D01*
X123977759Y-129695363D01*
X123742727Y-129538320D01*
X123481574Y-129430147D01*
X123204335Y-129375000D01*
X122921665Y-129375000D01*
X122644426Y-129430147D01*
X122383273Y-129538320D01*
X122148241Y-129695363D01*
X121948363Y-129895241D01*
X121791320Y-130130273D01*
X121683147Y-130391426D01*
X121628000Y-130668665D01*
X121628000Y-130951335D01*
X121683147Y-131228574D01*
X121791320Y-131489727D01*
X121948363Y-131724759D01*
X122148241Y-131924637D01*
X122383273Y-132081680D01*
X122644426Y-132189853D01*
X122921665Y-132245000D01*
X123204335Y-132245000D01*
X123481574Y-132189853D01*
X123742727Y-132081680D01*
X123977759Y-131924637D01*
X124177637Y-131724759D01*
X124194849Y-131699000D01*
X124824019Y-131699000D01*
X124751881Y-131706105D01*
X124424832Y-131805314D01*
X124123422Y-131966421D01*
X123859234Y-132183234D01*
X123642421Y-132447422D01*
X123481314Y-132748832D01*
X123382105Y-133075881D01*
X123348606Y-133416000D01*
X123382105Y-133756119D01*
X123481314Y-134083168D01*
X123642421Y-134384578D01*
X123859234Y-134648766D01*
X124123422Y-134865579D01*
X124424832Y-135026686D01*
X124751881Y-135125895D01*
X125006775Y-135151000D01*
X126977225Y-135151000D01*
X127232119Y-135125895D01*
X127559168Y-135026686D01*
X127860578Y-134865579D01*
X128124766Y-134648766D01*
X128341579Y-134384578D01*
X128502686Y-134083168D01*
X128601895Y-133756119D01*
X128635394Y-133416000D01*
X128601895Y-133075881D01*
X128502686Y-132748832D01*
X128341579Y-132447422D01*
X128124766Y-132183234D01*
X127860578Y-131966421D01*
X127559168Y-131805314D01*
X127232119Y-131706105D01*
X126977225Y-131681000D01*
X125843283Y-131681000D01*
X125993929Y-131635303D01*
X126148369Y-131552753D01*
X126283737Y-131441659D01*
X126311577Y-131407736D01*
X130044348Y-127674966D01*
X130046320Y-127679727D01*
X130203363Y-127914759D01*
X130403241Y-128114637D01*
X130638273Y-128271680D01*
X130899426Y-128379853D01*
X131176665Y-128435000D01*
X131459335Y-128435000D01*
X131736574Y-128379853D01*
X131997727Y-128271680D01*
X132232759Y-128114637D01*
X132432637Y-127914759D01*
X132589680Y-127679727D01*
X132697853Y-127418574D01*
X132753000Y-127141335D01*
X132753000Y-126858665D01*
X132746956Y-126828279D01*
X136004236Y-123571000D01*
X138409793Y-123571000D01*
X138428320Y-123615727D01*
X138585363Y-123850759D01*
X138785241Y-124050637D01*
X139020273Y-124207680D01*
X139281426Y-124315853D01*
X139558665Y-124371000D01*
X139841335Y-124371000D01*
X140118574Y-124315853D01*
X140379727Y-124207680D01*
X140614759Y-124050637D01*
X140814637Y-123850759D01*
X140971680Y-123615727D01*
X141079853Y-123354574D01*
X141135000Y-123077335D01*
X141135000Y-122974000D01*
X141365335Y-122974000D01*
X141642574Y-122918853D01*
X141903727Y-122810680D01*
X142138759Y-122653637D01*
X142338637Y-122453759D01*
X142495680Y-122218727D01*
X142603853Y-121957574D01*
X142659000Y-121680335D01*
X142659000Y-121397665D01*
X142603853Y-121120426D01*
X142495680Y-120859273D01*
X142338637Y-120624241D01*
X142138759Y-120424363D01*
X141903727Y-120267320D01*
X141642574Y-120159147D01*
X141365335Y-120104000D01*
X141082665Y-120104000D01*
X140805426Y-120159147D01*
X140544273Y-120267320D01*
X140467753Y-120318449D01*
X140500000Y-120156335D01*
X140500000Y-119873665D01*
X140444853Y-119596426D01*
X140336680Y-119335273D01*
X140179637Y-119100241D01*
X139979759Y-118900363D01*
X139744727Y-118743320D01*
X139483574Y-118635147D01*
X139206335Y-118580000D01*
X138923665Y-118580000D01*
X138646426Y-118635147D01*
X138385273Y-118743320D01*
X138150241Y-118900363D01*
X137950363Y-119100241D01*
X137933151Y-119126000D01*
X121328659Y-119126000D01*
X121284999Y-119121700D01*
X121241339Y-119126000D01*
X121241333Y-119126000D01*
X121143924Y-119135594D01*
X121110724Y-119138864D01*
X121009058Y-119169704D01*
X120943149Y-119189697D01*
X120788709Y-119272247D01*
X120653341Y-119383341D01*
X120625501Y-119417264D01*
X117900721Y-122142044D01*
X117870335Y-122136000D01*
X117587665Y-122136000D01*
X117310426Y-122191147D01*
X117049273Y-122299320D01*
X116814241Y-122456363D01*
X116614363Y-122656241D01*
X116457320Y-122891273D01*
X116349147Y-123152426D01*
X116294000Y-123429665D01*
X103993370Y-123429665D01*
X104048004Y-123285305D01*
X104109000Y-122920000D01*
X104109000Y-121920000D01*
X102351000Y-121920000D01*
X102097000Y-121920000D01*
X100339000Y-121920000D01*
X98659000Y-121920000D01*
X98659000Y-120700403D01*
X98655612Y-120666000D01*
X100339000Y-120666000D01*
X100339000Y-121666000D01*
X102097000Y-121666000D01*
X102097000Y-119071428D01*
X102351000Y-119071428D01*
X102351000Y-121666000D01*
X104109000Y-121666000D01*
X104109000Y-120666000D01*
X104048004Y-120300695D01*
X103916912Y-119954309D01*
X103720763Y-119640153D01*
X103467094Y-119370301D01*
X103165653Y-119155122D01*
X102828025Y-119002886D01*
X102643645Y-118955305D01*
X102351000Y-119071428D01*
X102097000Y-119071428D01*
X101804355Y-118955305D01*
X101619975Y-119002886D01*
X101282347Y-119155122D01*
X100980906Y-119370301D01*
X100727237Y-119640153D01*
X100531088Y-119954309D01*
X100399996Y-120300695D01*
X100339000Y-120666000D01*
X98655612Y-120666000D01*
X98631725Y-120423476D01*
X98523939Y-120068152D01*
X98348903Y-119740683D01*
X98113345Y-119453655D01*
X97826317Y-119218097D01*
X97498847Y-119043061D01*
X97143523Y-118935275D01*
X96774000Y-118898880D01*
X96404476Y-118935275D01*
X96049152Y-119043061D01*
X95721683Y-119218097D01*
X95434655Y-119453655D01*
X95199097Y-119740683D01*
X95024061Y-120068153D01*
X94916275Y-120423477D01*
X94889000Y-120700404D01*
X93212072Y-120700404D01*
X93212072Y-119543000D01*
X93199812Y-119418518D01*
X93163502Y-119298820D01*
X93104537Y-119188506D01*
X93025185Y-119091815D01*
X92928494Y-119012463D01*
X92818180Y-118953498D01*
X92698482Y-118917188D01*
X92574000Y-118904928D01*
X90074000Y-118904928D01*
X89949518Y-118917188D01*
X89829820Y-118953498D01*
X89719506Y-119012463D01*
X89633000Y-119083456D01*
X89633000Y-110094665D01*
X108547000Y-110094665D01*
X108547000Y-110377335D01*
X108602147Y-110654574D01*
X108710320Y-110915727D01*
X108712000Y-110918241D01*
X108712001Y-118951757D01*
X108710320Y-118954273D01*
X108602147Y-119215426D01*
X108547000Y-119492665D01*
X108547000Y-119775335D01*
X108602147Y-120052574D01*
X108710320Y-120313727D01*
X108867363Y-120548759D01*
X109067241Y-120748637D01*
X109302273Y-120905680D01*
X109563426Y-121013853D01*
X109840665Y-121069000D01*
X110123335Y-121069000D01*
X110400574Y-121013853D01*
X110661727Y-120905680D01*
X110896759Y-120748637D01*
X111096637Y-120548759D01*
X111253680Y-120313727D01*
X111361853Y-120052574D01*
X111417000Y-119775335D01*
X111417000Y-119492665D01*
X111361853Y-119215426D01*
X111253680Y-118954273D01*
X111252000Y-118951759D01*
X111252000Y-111672000D01*
X111287928Y-111672000D01*
X111287928Y-113372000D01*
X111300188Y-113496482D01*
X111336498Y-113616180D01*
X111395463Y-113726494D01*
X111474815Y-113823185D01*
X111571506Y-113902537D01*
X111681820Y-113961502D01*
X111801518Y-113997812D01*
X111926000Y-114010072D01*
X113626000Y-114010072D01*
X113750482Y-113997812D01*
X113870180Y-113961502D01*
X113980494Y-113902537D01*
X114077185Y-113823185D01*
X114156537Y-113726494D01*
X114215502Y-113616180D01*
X114239966Y-113535534D01*
X114315731Y-113619588D01*
X114549080Y-113793641D01*
X114811901Y-113918825D01*
X114959110Y-113963476D01*
X115189000Y-113842155D01*
X115189000Y-112649000D01*
X115443000Y-112649000D01*
X115443000Y-113842155D01*
X115672890Y-113963476D01*
X115820099Y-113918825D01*
X116033750Y-113817061D01*
X143618000Y-113817061D01*
X143618000Y-114020939D01*
X143657774Y-114220898D01*
X143735795Y-114409256D01*
X143849063Y-114578774D01*
X143993226Y-114722937D01*
X144162744Y-114836205D01*
X144351102Y-114914226D01*
X144551061Y-114954000D01*
X144754939Y-114954000D01*
X144954898Y-114914226D01*
X145143256Y-114836205D01*
X145185468Y-114808000D01*
X149689340Y-114808000D01*
X149733000Y-114812300D01*
X149776660Y-114808000D01*
X149776667Y-114808000D01*
X149907274Y-114795136D01*
X150074851Y-114744303D01*
X150229291Y-114661753D01*
X150364659Y-114550659D01*
X150392499Y-114516736D01*
X151890106Y-113019130D01*
X151939898Y-113009226D01*
X152128256Y-112931205D01*
X152297774Y-112817937D01*
X152441937Y-112673774D01*
X152555205Y-112504256D01*
X152633226Y-112315898D01*
X152673000Y-112115939D01*
X152673000Y-111912061D01*
X152633226Y-111712102D01*
X152555205Y-111523744D01*
X152441937Y-111354226D01*
X152297774Y-111210063D01*
X152128256Y-111096795D01*
X151939898Y-111018774D01*
X151739939Y-110979000D01*
X151536061Y-110979000D01*
X151336102Y-111018774D01*
X151147744Y-111096795D01*
X150978226Y-111210063D01*
X150834063Y-111354226D01*
X150720795Y-111523744D01*
X150642774Y-111712102D01*
X150632870Y-111761894D01*
X149364765Y-113030000D01*
X145185468Y-113030000D01*
X145143256Y-113001795D01*
X144954898Y-112923774D01*
X144754939Y-112884000D01*
X144551061Y-112884000D01*
X144351102Y-112923774D01*
X144162744Y-113001795D01*
X143993226Y-113115063D01*
X143849063Y-113259226D01*
X143735795Y-113428744D01*
X143657774Y-113617102D01*
X143618000Y-113817061D01*
X116033750Y-113817061D01*
X116082920Y-113793641D01*
X116316269Y-113619588D01*
X116511178Y-113403355D01*
X116660157Y-113153252D01*
X116757481Y-112878891D01*
X116636814Y-112649000D01*
X115443000Y-112649000D01*
X115189000Y-112649000D01*
X115169000Y-112649000D01*
X115169000Y-112395000D01*
X115189000Y-112395000D01*
X115189000Y-111201845D01*
X115443000Y-111201845D01*
X115443000Y-112395000D01*
X116636814Y-112395000D01*
X116757481Y-112165109D01*
X116660157Y-111890748D01*
X116511178Y-111640645D01*
X116316269Y-111424412D01*
X116082920Y-111250359D01*
X115820099Y-111125175D01*
X115672890Y-111080524D01*
X115443000Y-111201845D01*
X115189000Y-111201845D01*
X114959110Y-111080524D01*
X114811901Y-111125175D01*
X114549080Y-111250359D01*
X114315731Y-111424412D01*
X114239966Y-111508466D01*
X114215502Y-111427820D01*
X114156537Y-111317506D01*
X114077185Y-111220815D01*
X113980494Y-111141463D01*
X113870180Y-111082498D01*
X113750482Y-111046188D01*
X113626000Y-111033928D01*
X111926000Y-111033928D01*
X111801518Y-111046188D01*
X111681820Y-111082498D01*
X111571506Y-111141463D01*
X111474815Y-111220815D01*
X111395463Y-111317506D01*
X111336498Y-111427820D01*
X111300188Y-111547518D01*
X111287928Y-111672000D01*
X111252000Y-111672000D01*
X111252000Y-110918241D01*
X111253680Y-110915727D01*
X111361853Y-110654574D01*
X111417000Y-110377335D01*
X111417000Y-110094665D01*
X111361853Y-109817426D01*
X111253680Y-109556273D01*
X111096637Y-109321241D01*
X110896759Y-109121363D01*
X110661727Y-108964320D01*
X110400574Y-108856147D01*
X110123335Y-108801000D01*
X109840665Y-108801000D01*
X109563426Y-108856147D01*
X109302273Y-108964320D01*
X109067241Y-109121363D01*
X108867363Y-109321241D01*
X108710320Y-109556273D01*
X108602147Y-109817426D01*
X108547000Y-110094665D01*
X89633000Y-110094665D01*
X89633000Y-106846000D01*
X111287928Y-106846000D01*
X111287928Y-108546000D01*
X111300188Y-108670482D01*
X111336498Y-108790180D01*
X111395463Y-108900494D01*
X111474815Y-108997185D01*
X111571506Y-109076537D01*
X111681820Y-109135502D01*
X111801518Y-109171812D01*
X111926000Y-109184072D01*
X113626000Y-109184072D01*
X113750482Y-109171812D01*
X113870180Y-109135502D01*
X113980494Y-109076537D01*
X114077185Y-108997185D01*
X114156537Y-108900494D01*
X114215502Y-108790180D01*
X114239966Y-108709534D01*
X114315731Y-108793588D01*
X114549080Y-108967641D01*
X114811901Y-109092825D01*
X114959110Y-109137476D01*
X115189000Y-109016155D01*
X115189000Y-107823000D01*
X115443000Y-107823000D01*
X115443000Y-109016155D01*
X115672890Y-109137476D01*
X115820099Y-109092825D01*
X116082920Y-108967641D01*
X116316269Y-108793588D01*
X116511178Y-108577355D01*
X116660157Y-108327252D01*
X116757481Y-108052891D01*
X116636814Y-107823000D01*
X115443000Y-107823000D01*
X115189000Y-107823000D01*
X115169000Y-107823000D01*
X115169000Y-107569000D01*
X115189000Y-107569000D01*
X115189000Y-106375845D01*
X115443000Y-106375845D01*
X115443000Y-107569000D01*
X116636814Y-107569000D01*
X116757481Y-107339109D01*
X116660157Y-107064748D01*
X116511178Y-106814645D01*
X116316269Y-106598412D01*
X116082920Y-106424359D01*
X115820099Y-106299175D01*
X115672890Y-106254524D01*
X115443000Y-106375845D01*
X115189000Y-106375845D01*
X114959110Y-106254524D01*
X114811901Y-106299175D01*
X114549080Y-106424359D01*
X114315731Y-106598412D01*
X114239966Y-106682466D01*
X114215502Y-106601820D01*
X114156537Y-106491506D01*
X114077185Y-106394815D01*
X113980494Y-106315463D01*
X113870180Y-106256498D01*
X113750482Y-106220188D01*
X113626000Y-106207928D01*
X111926000Y-106207928D01*
X111801518Y-106220188D01*
X111681820Y-106256498D01*
X111571506Y-106315463D01*
X111474815Y-106394815D01*
X111395463Y-106491506D01*
X111336498Y-106601820D01*
X111300188Y-106721518D01*
X111287928Y-106846000D01*
X89633000Y-106846000D01*
X89633000Y-104887665D01*
X139281000Y-104887665D01*
X139281000Y-105170335D01*
X139336147Y-105447574D01*
X139444320Y-105708727D01*
X139601363Y-105943759D01*
X139801241Y-106143637D01*
X139827000Y-106160849D01*
X139827001Y-106691151D01*
X139801241Y-106708363D01*
X139601363Y-106908241D01*
X139444320Y-107143273D01*
X139336147Y-107404426D01*
X139281000Y-107681665D01*
X139281000Y-107964335D01*
X139336147Y-108241574D01*
X139444320Y-108502727D01*
X139601363Y-108737759D01*
X139801241Y-108937637D01*
X140036273Y-109094680D01*
X140297426Y-109202853D01*
X140574665Y-109258000D01*
X140857335Y-109258000D01*
X141134574Y-109202853D01*
X141395727Y-109094680D01*
X141630759Y-108937637D01*
X141668500Y-108899896D01*
X141833241Y-109064637D01*
X142068273Y-109221680D01*
X142329426Y-109329853D01*
X142606665Y-109385000D01*
X142889335Y-109385000D01*
X143166574Y-109329853D01*
X143427727Y-109221680D01*
X143662759Y-109064637D01*
X143862637Y-108864759D01*
X144019680Y-108629727D01*
X144127853Y-108368574D01*
X144183000Y-108091335D01*
X144183000Y-107808665D01*
X144127853Y-107531426D01*
X144019680Y-107270273D01*
X143862637Y-107035241D01*
X143662759Y-106835363D01*
X143637000Y-106818151D01*
X143637000Y-105398849D01*
X143662759Y-105381637D01*
X143862637Y-105181759D01*
X144019680Y-104946727D01*
X144127853Y-104685574D01*
X144183000Y-104408335D01*
X144183000Y-104125665D01*
X144127853Y-103848426D01*
X144019680Y-103587273D01*
X143862637Y-103352241D01*
X143662759Y-103152363D01*
X143427727Y-102995320D01*
X143166574Y-102887147D01*
X142889335Y-102832000D01*
X142606665Y-102832000D01*
X142329426Y-102887147D01*
X142068273Y-102995320D01*
X141833241Y-103152363D01*
X141633363Y-103352241D01*
X141476320Y-103587273D01*
X141403682Y-103762636D01*
X141395727Y-103757320D01*
X141134574Y-103649147D01*
X140857335Y-103594000D01*
X140574665Y-103594000D01*
X140297426Y-103649147D01*
X140036273Y-103757320D01*
X139801241Y-103914363D01*
X139601363Y-104114241D01*
X139444320Y-104349273D01*
X139336147Y-104610426D01*
X139281000Y-104887665D01*
X89633000Y-104887665D01*
X89633000Y-71882000D01*
X91303783Y-71882000D01*
X91313001Y-71975590D01*
X91313000Y-94902420D01*
X91303783Y-94996000D01*
X91313000Y-95089580D01*
X91313000Y-95089581D01*
X91340564Y-95369444D01*
X91449494Y-95728538D01*
X91626387Y-96059482D01*
X91864444Y-96349556D01*
X91937144Y-96409219D01*
X92566784Y-97038860D01*
X92626444Y-97111556D01*
X92845701Y-97291495D01*
X92916518Y-97349613D01*
X93247460Y-97526506D01*
X93331037Y-97551859D01*
X93606555Y-97635436D01*
X93886418Y-97663000D01*
X93886420Y-97663000D01*
X93980000Y-97672217D01*
X94073580Y-97663000D01*
X97121582Y-97663000D01*
X97401445Y-97635436D01*
X97760539Y-97526506D01*
X98091482Y-97349613D01*
X98381556Y-97111556D01*
X98619613Y-96821482D01*
X98796506Y-96490539D01*
X98905436Y-96131445D01*
X98942217Y-95758000D01*
X98905436Y-95384555D01*
X98796506Y-95025461D01*
X98619613Y-94694518D01*
X98381556Y-94404444D01*
X98091482Y-94166387D01*
X97760539Y-93989494D01*
X97401445Y-93880564D01*
X97121582Y-93853000D01*
X95123000Y-93853000D01*
X95123000Y-85383000D01*
X98143428Y-85383000D01*
X98143428Y-87083000D01*
X98155688Y-87207482D01*
X98191998Y-87327180D01*
X98250963Y-87437494D01*
X98330315Y-87534185D01*
X98427006Y-87613537D01*
X98537320Y-87672502D01*
X98609880Y-87694513D01*
X98478025Y-87826368D01*
X98315510Y-88069589D01*
X98203568Y-88339842D01*
X98146500Y-88626740D01*
X98146500Y-88919260D01*
X98203568Y-89206158D01*
X98315510Y-89476411D01*
X98478025Y-89719632D01*
X98684868Y-89926475D01*
X98928089Y-90088990D01*
X99198342Y-90200932D01*
X99485240Y-90258000D01*
X99777760Y-90258000D01*
X100064658Y-90200932D01*
X100334911Y-90088990D01*
X100578132Y-89926475D01*
X100784975Y-89719632D01*
X100947490Y-89476411D01*
X101059432Y-89206158D01*
X101116500Y-88919260D01*
X101116500Y-88626740D01*
X101059432Y-88339842D01*
X100947490Y-88069589D01*
X100784975Y-87826368D01*
X100653120Y-87694513D01*
X100725680Y-87672502D01*
X100835994Y-87613537D01*
X100932685Y-87534185D01*
X101012037Y-87437494D01*
X101071002Y-87327180D01*
X101107312Y-87207482D01*
X101119572Y-87083000D01*
X101119572Y-85383000D01*
X101107312Y-85258518D01*
X101071002Y-85138820D01*
X101012037Y-85028506D01*
X100932685Y-84931815D01*
X100835994Y-84852463D01*
X100725680Y-84793498D01*
X100605982Y-84757188D01*
X100481500Y-84744928D01*
X98781500Y-84744928D01*
X98657018Y-84757188D01*
X98537320Y-84793498D01*
X98427006Y-84852463D01*
X98330315Y-84931815D01*
X98250963Y-85028506D01*
X98191998Y-85138820D01*
X98155688Y-85258518D01*
X98143428Y-85383000D01*
X95123000Y-85383000D01*
X95123000Y-75399000D01*
X101191428Y-75399000D01*
X101203688Y-75523482D01*
X101239998Y-75643180D01*
X101298963Y-75753494D01*
X101378315Y-75850185D01*
X101475006Y-75929537D01*
X101585320Y-75988502D01*
X101705018Y-76024812D01*
X101829500Y-76037072D01*
X102393750Y-76034000D01*
X102552500Y-75875250D01*
X102552500Y-74676000D01*
X101353250Y-74676000D01*
X101194500Y-74834750D01*
X101191428Y-75399000D01*
X95123000Y-75399000D01*
X95123000Y-73699000D01*
X101191428Y-73699000D01*
X101194500Y-74263250D01*
X101353250Y-74422000D01*
X102552500Y-74422000D01*
X102552500Y-73222750D01*
X102806500Y-73222750D01*
X102806500Y-74422000D01*
X102826500Y-74422000D01*
X102826500Y-74676000D01*
X102806500Y-74676000D01*
X102806500Y-75875250D01*
X102965250Y-76034000D01*
X103529500Y-76037072D01*
X103653982Y-76024812D01*
X103773680Y-75988502D01*
X103883994Y-75929537D01*
X103980685Y-75850185D01*
X104060037Y-75753494D01*
X104119002Y-75643180D01*
X104141013Y-75570620D01*
X104272868Y-75702475D01*
X104516089Y-75864990D01*
X104786342Y-75976932D01*
X105073240Y-76034000D01*
X105365760Y-76034000D01*
X105652658Y-75976932D01*
X105922911Y-75864990D01*
X106166132Y-75702475D01*
X106372975Y-75495632D01*
X106489500Y-75321240D01*
X106606025Y-75495632D01*
X106812868Y-75702475D01*
X107056089Y-75864990D01*
X107326342Y-75976932D01*
X107613240Y-76034000D01*
X107905760Y-76034000D01*
X108192658Y-75976932D01*
X108462911Y-75864990D01*
X108706132Y-75702475D01*
X108912975Y-75495632D01*
X109034695Y-75313466D01*
X109104322Y-75430355D01*
X109299231Y-75646588D01*
X109532580Y-75820641D01*
X109795401Y-75945825D01*
X109942610Y-75990476D01*
X110172500Y-75869155D01*
X110172500Y-74676000D01*
X110152500Y-74676000D01*
X110152500Y-74422000D01*
X110172500Y-74422000D01*
X110172500Y-73228845D01*
X110426500Y-73228845D01*
X110426500Y-74422000D01*
X110446500Y-74422000D01*
X110446500Y-74676000D01*
X110426500Y-74676000D01*
X110426500Y-75869155D01*
X110656390Y-75990476D01*
X110803599Y-75945825D01*
X111066420Y-75820641D01*
X111299769Y-75646588D01*
X111494678Y-75430355D01*
X111564305Y-75313466D01*
X111686025Y-75495632D01*
X111892868Y-75702475D01*
X112136089Y-75864990D01*
X112406342Y-75976932D01*
X112693240Y-76034000D01*
X112985760Y-76034000D01*
X113272658Y-75976932D01*
X113542911Y-75864990D01*
X113786132Y-75702475D01*
X113992975Y-75495632D01*
X114155490Y-75252411D01*
X114267432Y-74982158D01*
X114324500Y-74695260D01*
X114324500Y-74402740D01*
X114282382Y-74191000D01*
X122825928Y-74191000D01*
X122825928Y-75891000D01*
X122838188Y-76015482D01*
X122874498Y-76135180D01*
X122933463Y-76245494D01*
X123012815Y-76342185D01*
X123109506Y-76421537D01*
X123219820Y-76480502D01*
X123339518Y-76516812D01*
X123464000Y-76529072D01*
X125164000Y-76529072D01*
X125288482Y-76516812D01*
X125408180Y-76480502D01*
X125518494Y-76421537D01*
X125615185Y-76342185D01*
X125694537Y-76245494D01*
X125753502Y-76135180D01*
X125775513Y-76062620D01*
X125907368Y-76194475D01*
X126150589Y-76356990D01*
X126420842Y-76468932D01*
X126707740Y-76526000D01*
X127000260Y-76526000D01*
X127287158Y-76468932D01*
X127557411Y-76356990D01*
X127800632Y-76194475D01*
X128007475Y-75987632D01*
X128169990Y-75744411D01*
X128281932Y-75474158D01*
X128339000Y-75187260D01*
X128339000Y-74894740D01*
X128281932Y-74607842D01*
X128169990Y-74337589D01*
X128072043Y-74191000D01*
X136160928Y-74191000D01*
X136160928Y-75891000D01*
X136173188Y-76015482D01*
X136209498Y-76135180D01*
X136268463Y-76245494D01*
X136347815Y-76342185D01*
X136444506Y-76421537D01*
X136554820Y-76480502D01*
X136674518Y-76516812D01*
X136799000Y-76529072D01*
X138499000Y-76529072D01*
X138623482Y-76516812D01*
X138743180Y-76480502D01*
X138853494Y-76421537D01*
X138950185Y-76342185D01*
X139029537Y-76245494D01*
X139088502Y-76135180D01*
X139110513Y-76062620D01*
X139242368Y-76194475D01*
X139485589Y-76356990D01*
X139755842Y-76468932D01*
X140042740Y-76526000D01*
X140335260Y-76526000D01*
X140622158Y-76468932D01*
X140892411Y-76356990D01*
X141135632Y-76194475D01*
X141342475Y-75987632D01*
X141504990Y-75744411D01*
X141616932Y-75474158D01*
X141674000Y-75187260D01*
X141674000Y-74894740D01*
X141616932Y-74607842D01*
X141504990Y-74337589D01*
X141342475Y-74094368D01*
X141135632Y-73887525D01*
X140892411Y-73725010D01*
X140622158Y-73613068D01*
X140335260Y-73556000D01*
X140042740Y-73556000D01*
X139755842Y-73613068D01*
X139485589Y-73725010D01*
X139242368Y-73887525D01*
X139110513Y-74019380D01*
X139088502Y-73946820D01*
X139029537Y-73836506D01*
X138950185Y-73739815D01*
X138853494Y-73660463D01*
X138743180Y-73601498D01*
X138623482Y-73565188D01*
X138499000Y-73552928D01*
X136799000Y-73552928D01*
X136674518Y-73565188D01*
X136554820Y-73601498D01*
X136444506Y-73660463D01*
X136347815Y-73739815D01*
X136268463Y-73836506D01*
X136209498Y-73946820D01*
X136173188Y-74066518D01*
X136160928Y-74191000D01*
X128072043Y-74191000D01*
X128007475Y-74094368D01*
X127800632Y-73887525D01*
X127557411Y-73725010D01*
X127287158Y-73613068D01*
X127000260Y-73556000D01*
X126707740Y-73556000D01*
X126420842Y-73613068D01*
X126150589Y-73725010D01*
X125907368Y-73887525D01*
X125775513Y-74019380D01*
X125753502Y-73946820D01*
X125694537Y-73836506D01*
X125615185Y-73739815D01*
X125518494Y-73660463D01*
X125408180Y-73601498D01*
X125288482Y-73565188D01*
X125164000Y-73552928D01*
X123464000Y-73552928D01*
X123339518Y-73565188D01*
X123219820Y-73601498D01*
X123109506Y-73660463D01*
X123012815Y-73739815D01*
X122933463Y-73836506D01*
X122874498Y-73946820D01*
X122838188Y-74066518D01*
X122825928Y-74191000D01*
X114282382Y-74191000D01*
X114267432Y-74115842D01*
X114155490Y-73845589D01*
X113992975Y-73602368D01*
X113786132Y-73395525D01*
X113542911Y-73233010D01*
X113272658Y-73121068D01*
X112985760Y-73064000D01*
X112693240Y-73064000D01*
X112406342Y-73121068D01*
X112136089Y-73233010D01*
X111892868Y-73395525D01*
X111686025Y-73602368D01*
X111564305Y-73784534D01*
X111494678Y-73667645D01*
X111299769Y-73451412D01*
X111066420Y-73277359D01*
X110803599Y-73152175D01*
X110656390Y-73107524D01*
X110426500Y-73228845D01*
X110172500Y-73228845D01*
X109942610Y-73107524D01*
X109795401Y-73152175D01*
X109532580Y-73277359D01*
X109299231Y-73451412D01*
X109104322Y-73667645D01*
X109034695Y-73784534D01*
X108912975Y-73602368D01*
X108706132Y-73395525D01*
X108462911Y-73233010D01*
X108192658Y-73121068D01*
X107905760Y-73064000D01*
X107613240Y-73064000D01*
X107326342Y-73121068D01*
X107056089Y-73233010D01*
X106812868Y-73395525D01*
X106606025Y-73602368D01*
X106489500Y-73776760D01*
X106372975Y-73602368D01*
X106166132Y-73395525D01*
X105922911Y-73233010D01*
X105652658Y-73121068D01*
X105365760Y-73064000D01*
X105073240Y-73064000D01*
X104786342Y-73121068D01*
X104516089Y-73233010D01*
X104272868Y-73395525D01*
X104141013Y-73527380D01*
X104119002Y-73454820D01*
X104060037Y-73344506D01*
X103980685Y-73247815D01*
X103883994Y-73168463D01*
X103773680Y-73109498D01*
X103653982Y-73073188D01*
X103529500Y-73060928D01*
X102965250Y-73064000D01*
X102806500Y-73222750D01*
X102552500Y-73222750D01*
X102393750Y-73064000D01*
X101829500Y-73060928D01*
X101705018Y-73073188D01*
X101585320Y-73109498D01*
X101475006Y-73168463D01*
X101378315Y-73247815D01*
X101298963Y-73344506D01*
X101239998Y-73454820D01*
X101203688Y-73574518D01*
X101191428Y-73699000D01*
X95123000Y-73699000D01*
X95123000Y-72671075D01*
X102389077Y-65405000D01*
X111779000Y-65405000D01*
X111778999Y-66138275D01*
X111777744Y-66138795D01*
X111608226Y-66252063D01*
X111464063Y-66396226D01*
X111350795Y-66565744D01*
X111272774Y-66754102D01*
X111233000Y-66954061D01*
X111233000Y-67157939D01*
X111272774Y-67357898D01*
X111350795Y-67546256D01*
X111464063Y-67715774D01*
X111608226Y-67859937D01*
X111777744Y-67973205D01*
X111966102Y-68051226D01*
X112166061Y-68091000D01*
X112369939Y-68091000D01*
X112569898Y-68051226D01*
X112758256Y-67973205D01*
X112927774Y-67859937D01*
X113071937Y-67715774D01*
X113185205Y-67546256D01*
X113263226Y-67357898D01*
X113272815Y-67309689D01*
X113299658Y-67287660D01*
X113410752Y-67152292D01*
X113493302Y-66997852D01*
X113544135Y-66830275D01*
X113556999Y-66699668D01*
X113556999Y-66699662D01*
X113561299Y-66656002D01*
X113556999Y-66612342D01*
X113556999Y-65405000D01*
X158877001Y-65405000D01*
X158877000Y-69226151D01*
X158851241Y-69243363D01*
X158651363Y-69443241D01*
X158494320Y-69678273D01*
X158386147Y-69939426D01*
X158331000Y-70216665D01*
X158331000Y-70499335D01*
X158386147Y-70776574D01*
X158494320Y-71037727D01*
X158651363Y-71272759D01*
X158851241Y-71472637D01*
X159086273Y-71629680D01*
X159347426Y-71737853D01*
X159624665Y-71793000D01*
X159907335Y-71793000D01*
X160184574Y-71737853D01*
X160445727Y-71629680D01*
X160680759Y-71472637D01*
X160880637Y-71272759D01*
X161037680Y-71037727D01*
X161065001Y-70971768D01*
X161065000Y-75612686D01*
X156390258Y-80287429D01*
X156356341Y-80315264D01*
X156328506Y-80349181D01*
X156328504Y-80349183D01*
X156245247Y-80450632D01*
X156162697Y-80605071D01*
X156111863Y-80772649D01*
X156094699Y-80946923D01*
X156099000Y-80990593D01*
X156098999Y-88442261D01*
X156094699Y-88485921D01*
X156098999Y-88529581D01*
X156098999Y-88529587D01*
X156111863Y-88660194D01*
X156162696Y-88827771D01*
X156245246Y-88982211D01*
X156356340Y-89117580D01*
X156390263Y-89145420D01*
X156980580Y-89735737D01*
X157008420Y-89769660D01*
X157143788Y-89880754D01*
X157298228Y-89963304D01*
X157364137Y-89983297D01*
X157465803Y-90014137D01*
X157499003Y-90017407D01*
X157596412Y-90027001D01*
X157596418Y-90027001D01*
X157640078Y-90031301D01*
X157683738Y-90027001D01*
X161859024Y-90027001D01*
X161902684Y-90031301D01*
X161946344Y-90027001D01*
X161946351Y-90027001D01*
X162076958Y-90014137D01*
X162244535Y-89963304D01*
X162398975Y-89880754D01*
X162534343Y-89769660D01*
X162562183Y-89735737D01*
X163288235Y-89009686D01*
X163325241Y-89046692D01*
X163560273Y-89203735D01*
X163821426Y-89311908D01*
X164098665Y-89367055D01*
X164381335Y-89367055D01*
X164658574Y-89311908D01*
X164919727Y-89203735D01*
X165154759Y-89046692D01*
X165354637Y-88846814D01*
X165511680Y-88611782D01*
X165619853Y-88350629D01*
X165675000Y-88073390D01*
X165675000Y-87790720D01*
X165619853Y-87513481D01*
X165511680Y-87252328D01*
X165354637Y-87017296D01*
X165154759Y-86817418D01*
X164919727Y-86660375D01*
X164658574Y-86552202D01*
X164381335Y-86497055D01*
X164098665Y-86497055D01*
X163821426Y-86552202D01*
X163560273Y-86660375D01*
X163325241Y-86817418D01*
X163125363Y-87017296D01*
X163110877Y-87038976D01*
X163108629Y-87038755D01*
X163064969Y-87043055D01*
X163064963Y-87043055D01*
X162967554Y-87052649D01*
X162934354Y-87055919D01*
X162845080Y-87083000D01*
X162766779Y-87106752D01*
X162612339Y-87189302D01*
X162476971Y-87300396D01*
X162449135Y-87334314D01*
X161534449Y-88249001D01*
X159632509Y-88249001D01*
X159677000Y-88025335D01*
X159677000Y-87742665D01*
X159621853Y-87465426D01*
X159513680Y-87204273D01*
X159356637Y-86969241D01*
X159156759Y-86769363D01*
X159131000Y-86752151D01*
X159131000Y-81394235D01*
X159890421Y-80634815D01*
X167044075Y-80634815D01*
X167087735Y-80639115D01*
X167131395Y-80634815D01*
X167131402Y-80634815D01*
X167262009Y-80621951D01*
X167429586Y-80571118D01*
X167584026Y-80488568D01*
X167719394Y-80377474D01*
X167747234Y-80343552D01*
X168498743Y-79592042D01*
X168532660Y-79564208D01*
X168643754Y-79428840D01*
X168726304Y-79274400D01*
X168760404Y-79161984D01*
X168791256Y-79149205D01*
X168960774Y-79035937D01*
X169104937Y-78891774D01*
X169218205Y-78722256D01*
X169296226Y-78533898D01*
X169336000Y-78333939D01*
X169336000Y-78130061D01*
X169296226Y-77930102D01*
X169218205Y-77741744D01*
X169104937Y-77572226D01*
X168960774Y-77428063D01*
X168791256Y-77314795D01*
X168602898Y-77236774D01*
X168402939Y-77197000D01*
X168199061Y-77197000D01*
X167999102Y-77236774D01*
X167810744Y-77314795D01*
X167641226Y-77428063D01*
X167497063Y-77572226D01*
X167383795Y-77741744D01*
X167305774Y-77930102D01*
X167296185Y-77978311D01*
X167269342Y-78000340D01*
X167247114Y-78027425D01*
X167168070Y-77974609D01*
X166979712Y-77896588D01*
X166834925Y-77867788D01*
X166738146Y-77788364D01*
X166593087Y-77710828D01*
X166435689Y-77663082D01*
X166313019Y-77651000D01*
X166313018Y-77651000D01*
X166272000Y-77646960D01*
X166230982Y-77651000D01*
X162313285Y-77651000D01*
X162190256Y-77568795D01*
X162001898Y-77490774D01*
X161801939Y-77451000D01*
X161741158Y-77451000D01*
X162551743Y-76640415D01*
X162585659Y-76612581D01*
X162696753Y-76477213D01*
X162779303Y-76322773D01*
X162830136Y-76155196D01*
X162843000Y-76024589D01*
X162843000Y-76024582D01*
X162847300Y-75980922D01*
X162843000Y-75937262D01*
X162843000Y-70953231D01*
X162928482Y-70944812D01*
X163048180Y-70908502D01*
X163158494Y-70849537D01*
X163255185Y-70770185D01*
X163334537Y-70673494D01*
X163393502Y-70563180D01*
X163415513Y-70490620D01*
X163547368Y-70622475D01*
X163790589Y-70784990D01*
X164060842Y-70896932D01*
X164347740Y-70954000D01*
X164640260Y-70954000D01*
X164927158Y-70896932D01*
X165197411Y-70784990D01*
X165440632Y-70622475D01*
X165647475Y-70415632D01*
X165764000Y-70241240D01*
X165880525Y-70415632D01*
X166087368Y-70622475D01*
X166330589Y-70784990D01*
X166600842Y-70896932D01*
X166887740Y-70954000D01*
X166929843Y-70954000D01*
X170841002Y-74865159D01*
X170841002Y-80720227D01*
X166811750Y-80723000D01*
X166653000Y-80881750D01*
X166653000Y-81310052D01*
X166588237Y-81313575D01*
X166525863Y-81463370D01*
X166465408Y-81316649D01*
X166463763Y-81313575D01*
X166399000Y-81310052D01*
X166399000Y-80881750D01*
X166240250Y-80723000D01*
X161776000Y-80719928D01*
X161651518Y-80732188D01*
X161531820Y-80768498D01*
X161421506Y-80827463D01*
X161324815Y-80906815D01*
X161245463Y-81003506D01*
X161186498Y-81113820D01*
X161150188Y-81233518D01*
X161137928Y-81358000D01*
X161141000Y-82772250D01*
X161173243Y-82804493D01*
X161147836Y-82930998D01*
X161141000Y-82930998D01*
X161141000Y-83056534D01*
X161140829Y-83148355D01*
X161141000Y-83149223D01*
X161141000Y-83185002D01*
X161148048Y-83185002D01*
X161173013Y-83311737D01*
X161141000Y-83343750D01*
X161137928Y-84758000D01*
X161150188Y-84882482D01*
X161186498Y-85002180D01*
X161245463Y-85112494D01*
X161324815Y-85209185D01*
X161421506Y-85288537D01*
X161531820Y-85347502D01*
X161651518Y-85383812D01*
X161776000Y-85396072D01*
X166240250Y-85393000D01*
X166399000Y-85234250D01*
X166399000Y-84805948D01*
X166463763Y-84802425D01*
X166526137Y-84652630D01*
X166586592Y-84799351D01*
X166588237Y-84802425D01*
X166653000Y-84805948D01*
X166653000Y-85234250D01*
X166811750Y-85393000D01*
X170841001Y-85395773D01*
X170841001Y-86737113D01*
X170115765Y-87462349D01*
X170078759Y-87425343D01*
X169843727Y-87268300D01*
X169582574Y-87160127D01*
X169305335Y-87104980D01*
X169022665Y-87104980D01*
X168745426Y-87160127D01*
X168484273Y-87268300D01*
X168249241Y-87425343D01*
X168049363Y-87625221D01*
X167892320Y-87860253D01*
X167784147Y-88121406D01*
X167729000Y-88398645D01*
X167729000Y-88681315D01*
X167784147Y-88958554D01*
X167892320Y-89219707D01*
X168049363Y-89454739D01*
X168249241Y-89654617D01*
X168484273Y-89811660D01*
X168745426Y-89919833D01*
X169022665Y-89974980D01*
X169305335Y-89974980D01*
X169582574Y-89919833D01*
X169843727Y-89811660D01*
X170078759Y-89654617D01*
X170278637Y-89454739D01*
X170293123Y-89433059D01*
X170295370Y-89433280D01*
X170339030Y-89428980D01*
X170339037Y-89428980D01*
X170469644Y-89416116D01*
X170637221Y-89365283D01*
X170791661Y-89282733D01*
X170927029Y-89171639D01*
X170954869Y-89137716D01*
X172327744Y-87764842D01*
X172361660Y-87737008D01*
X172472754Y-87601640D01*
X172555304Y-87447200D01*
X172606137Y-87279623D01*
X172619001Y-87149016D01*
X172619001Y-87149009D01*
X172623301Y-87105349D01*
X172619001Y-87061689D01*
X172619001Y-74540582D01*
X172623301Y-74496922D01*
X172619001Y-74453262D01*
X172619001Y-74453256D01*
X172609407Y-74355847D01*
X172606137Y-74322647D01*
X172555303Y-74155070D01*
X172534335Y-74115842D01*
X172472754Y-74000632D01*
X172361660Y-73865264D01*
X172327737Y-73837424D01*
X169444313Y-70954000D01*
X169720260Y-70954000D01*
X170007158Y-70896932D01*
X170277411Y-70784990D01*
X170520632Y-70622475D01*
X170664956Y-70478151D01*
X170686320Y-70529727D01*
X170843363Y-70764759D01*
X171043241Y-70964637D01*
X171278273Y-71121680D01*
X171539426Y-71229853D01*
X171816665Y-71285000D01*
X172099335Y-71285000D01*
X172376574Y-71229853D01*
X172637727Y-71121680D01*
X172872759Y-70964637D01*
X173072637Y-70764759D01*
X173229680Y-70529727D01*
X173337853Y-70268574D01*
X173393000Y-69991335D01*
X173393000Y-69708665D01*
X173337853Y-69431426D01*
X173229680Y-69170273D01*
X173072637Y-68935241D01*
X173004760Y-68867364D01*
X173037303Y-68806481D01*
X173064474Y-68716910D01*
X173088136Y-68638906D01*
X173099614Y-68522368D01*
X173101000Y-68508297D01*
X173101000Y-68508291D01*
X173105300Y-68464631D01*
X173101000Y-68420971D01*
X173101000Y-65405000D01*
X176502925Y-65405000D01*
X184023000Y-72925077D01*
X184023001Y-98361622D01*
X183905495Y-98581461D01*
X183796565Y-98940555D01*
X183759783Y-99314000D01*
X183796565Y-99687445D01*
X183905495Y-100046539D01*
X184082387Y-100377482D01*
X184320445Y-100667555D01*
X184610518Y-100905613D01*
X184941461Y-101082505D01*
X185300555Y-101191435D01*
X185674000Y-101228217D01*
X186047445Y-101191435D01*
X186406539Y-101082505D01*
X186737482Y-100905613D01*
X186954865Y-100727210D01*
X187208859Y-100473217D01*
X187281556Y-100413556D01*
X187519613Y-100123482D01*
X187696506Y-99792539D01*
X187805436Y-99433445D01*
X187833000Y-99153582D01*
X187833000Y-99153580D01*
X187842217Y-99060001D01*
X187833000Y-98966421D01*
X187833000Y-72229579D01*
X187842217Y-72135999D01*
X187817200Y-71882000D01*
X187805436Y-71762555D01*
X187696506Y-71403461D01*
X187519613Y-71072518D01*
X187281556Y-70782444D01*
X187208866Y-70722789D01*
X180319948Y-63833872D01*
X182423000Y-63833872D01*
X182423000Y-64274128D01*
X182508890Y-64705925D01*
X182677369Y-65112669D01*
X182921962Y-65478729D01*
X183233271Y-65790038D01*
X183599331Y-66034631D01*
X184006075Y-66203110D01*
X184437872Y-66289000D01*
X184878128Y-66289000D01*
X185309925Y-66203110D01*
X185716669Y-66034631D01*
X186082729Y-65790038D01*
X186394038Y-65478729D01*
X186638631Y-65112669D01*
X186807110Y-64705925D01*
X186893000Y-64274128D01*
X186893000Y-63833872D01*
X186807110Y-63402075D01*
X186638631Y-62995331D01*
X186394038Y-62629271D01*
X186082729Y-62317962D01*
X185716669Y-62073369D01*
X185309925Y-61904890D01*
X184878128Y-61819000D01*
X184437872Y-61819000D01*
X184006075Y-61904890D01*
X183599331Y-62073369D01*
X183233271Y-62317962D01*
X182921962Y-62629271D01*
X182677369Y-62995331D01*
X182508890Y-63402075D01*
X182423000Y-63833872D01*
X180319948Y-63833872D01*
X178705220Y-62219145D01*
X178645556Y-62146444D01*
X178355482Y-61908387D01*
X178024539Y-61731494D01*
X177665445Y-61622564D01*
X177385582Y-61595000D01*
X177385580Y-61595000D01*
X177292000Y-61585783D01*
X177198420Y-61595000D01*
X101693579Y-61595000D01*
X101599999Y-61585783D01*
X101506419Y-61595000D01*
X101506418Y-61595000D01*
X101226555Y-61622564D01*
X100867461Y-61731494D01*
X100713410Y-61813836D01*
X100536517Y-61908387D01*
X100357411Y-62055376D01*
X100246444Y-62146444D01*
X100186789Y-62219134D01*
X91937140Y-70468785D01*
X91864445Y-70528444D01*
X91771519Y-70641675D01*
X91626387Y-70818518D01*
X91449495Y-71149461D01*
X91340565Y-71508555D01*
X91303783Y-71882000D01*
X89633000Y-71882000D01*
X89633000Y-63833872D01*
X90983000Y-63833872D01*
X90983000Y-64274128D01*
X91068890Y-64705925D01*
X91237369Y-65112669D01*
X91481962Y-65478729D01*
X91793271Y-65790038D01*
X92159331Y-66034631D01*
X92566075Y-66203110D01*
X92997872Y-66289000D01*
X93438128Y-66289000D01*
X93869925Y-66203110D01*
X94276669Y-66034631D01*
X94642729Y-65790038D01*
X94954038Y-65478729D01*
X95198631Y-65112669D01*
X95367110Y-64705925D01*
X95453000Y-64274128D01*
X95453000Y-63833872D01*
X95367110Y-63402075D01*
X95198631Y-62995331D01*
X94954038Y-62629271D01*
X94642729Y-62317962D01*
X94276669Y-62073369D01*
X93869925Y-61904890D01*
X93438128Y-61819000D01*
X92997872Y-61819000D01*
X92566075Y-61904890D01*
X92159331Y-62073369D01*
X91793271Y-62317962D01*
X91481962Y-62629271D01*
X91237369Y-62995331D01*
X91068890Y-63402075D01*
X90983000Y-63833872D01*
X89633000Y-63833872D01*
X89633000Y-60509000D01*
X188263000Y-60509000D01*
X188263001Y-146139000D01*
G37*
X188263001Y-146139000D02*
X123623217Y-146139000D01*
X123760578Y-146065579D01*
X124024766Y-145848766D01*
X124241579Y-145584578D01*
X124402686Y-145283168D01*
X124501895Y-144956119D01*
X124535394Y-144616000D01*
X124501895Y-144275881D01*
X124402686Y-143948832D01*
X124241579Y-143647422D01*
X124024766Y-143383234D01*
X123760578Y-143166421D01*
X123459168Y-143005314D01*
X123132119Y-142906105D01*
X122877225Y-142881000D01*
X120906775Y-142881000D01*
X120651881Y-142906105D01*
X120324832Y-143005314D01*
X120023422Y-143166421D01*
X119759234Y-143383234D01*
X119542421Y-143647422D01*
X119381314Y-143948832D01*
X119282105Y-144275881D01*
X119248606Y-144616000D01*
X119282105Y-144956119D01*
X119381314Y-145283168D01*
X119542421Y-145584578D01*
X119759234Y-145848766D01*
X120023422Y-146065579D01*
X120160783Y-146139000D01*
X89633000Y-146139000D01*
X89633000Y-142273872D01*
X90983000Y-142273872D01*
X90983000Y-142714128D01*
X91068890Y-143145925D01*
X91237369Y-143552669D01*
X91481962Y-143918729D01*
X91793271Y-144230038D01*
X92159331Y-144474631D01*
X92566075Y-144643110D01*
X92997872Y-144729000D01*
X93438128Y-144729000D01*
X93869925Y-144643110D01*
X94276669Y-144474631D01*
X94642729Y-144230038D01*
X94954038Y-143918729D01*
X95198631Y-143552669D01*
X95367110Y-143145925D01*
X95453000Y-142714128D01*
X95453000Y-142684000D01*
X102317928Y-142684000D01*
X102330188Y-142808482D01*
X102366498Y-142928180D01*
X102425463Y-143038494D01*
X102504815Y-143135185D01*
X102601506Y-143214537D01*
X102711820Y-143273502D01*
X102831518Y-143309812D01*
X102956000Y-143322072D01*
X104420250Y-143319000D01*
X104579000Y-143160250D01*
X104579000Y-141311000D01*
X104833000Y-141311000D01*
X104833000Y-143160250D01*
X104991750Y-143319000D01*
X106456000Y-143322072D01*
X106580482Y-143309812D01*
X106700180Y-143273502D01*
X106810494Y-143214537D01*
X106907185Y-143135185D01*
X106986537Y-143038494D01*
X107045502Y-142928180D01*
X107081812Y-142808482D01*
X107094072Y-142684000D01*
X107091000Y-141469750D01*
X106932250Y-141311000D01*
X104833000Y-141311000D01*
X104579000Y-141311000D01*
X102479750Y-141311000D01*
X102321000Y-141469750D01*
X102317928Y-142684000D01*
X95453000Y-142684000D01*
X95453000Y-142273872D01*
X95367110Y-141842075D01*
X95198631Y-141435331D01*
X94954038Y-141069271D01*
X94642729Y-140757962D01*
X94276669Y-140513369D01*
X93869925Y-140344890D01*
X93438128Y-140259000D01*
X92997872Y-140259000D01*
X92566075Y-140344890D01*
X92159331Y-140513369D01*
X91793271Y-140757962D01*
X91481962Y-141069271D01*
X91237369Y-141435331D01*
X91068890Y-141842075D01*
X90983000Y-142273872D01*
X89633000Y-142273872D01*
X89633000Y-139684000D01*
X102317928Y-139684000D01*
X102321000Y-140898250D01*
X102479750Y-141057000D01*
X104579000Y-141057000D01*
X104579000Y-139207750D01*
X104833000Y-139207750D01*
X104833000Y-141057000D01*
X106932250Y-141057000D01*
X107091000Y-140898250D01*
X107094072Y-139684000D01*
X107081812Y-139559518D01*
X107045502Y-139439820D01*
X106986537Y-139329506D01*
X106907185Y-139232815D01*
X106810494Y-139153463D01*
X106700180Y-139094498D01*
X106580482Y-139058188D01*
X106456000Y-139045928D01*
X104991750Y-139049000D01*
X104833000Y-139207750D01*
X104579000Y-139207750D01*
X104420250Y-139049000D01*
X102956000Y-139045928D01*
X102831518Y-139058188D01*
X102711820Y-139094498D01*
X102601506Y-139153463D01*
X102504815Y-139232815D01*
X102425463Y-139329506D01*
X102366498Y-139439820D01*
X102330188Y-139559518D01*
X102317928Y-139684000D01*
X89633000Y-139684000D01*
X89633000Y-133434000D01*
X102317928Y-133434000D01*
X102317928Y-136934000D01*
X102330188Y-137058482D01*
X102366498Y-137178180D01*
X102425463Y-137288494D01*
X102504815Y-137385185D01*
X102601506Y-137464537D01*
X102711820Y-137523502D01*
X102831518Y-137559812D01*
X102956000Y-137572072D01*
X106456000Y-137572072D01*
X106580482Y-137559812D01*
X106700180Y-137523502D01*
X106810494Y-137464537D01*
X106907185Y-137385185D01*
X106986537Y-137288494D01*
X107027494Y-137211869D01*
X107017928Y-137309000D01*
X107017928Y-139059000D01*
X107047001Y-139354186D01*
X107133104Y-139638028D01*
X107272927Y-139899618D01*
X107461097Y-140128903D01*
X107690382Y-140317073D01*
X107951972Y-140456896D01*
X108235814Y-140542999D01*
X108531000Y-140572072D01*
X110281000Y-140572072D01*
X110576186Y-140542999D01*
X110860028Y-140456896D01*
X111121618Y-140317073D01*
X111350903Y-140128903D01*
X111539073Y-139899618D01*
X111678896Y-139638028D01*
X111764999Y-139354186D01*
X111794072Y-139059000D01*
X111794072Y-137309000D01*
X111764999Y-137013814D01*
X111678896Y-136729972D01*
X111539073Y-136468382D01*
X111350903Y-136239097D01*
X111121618Y-136050927D01*
X110860028Y-135911104D01*
X110576186Y-135825001D01*
X110281000Y-135795928D01*
X108531000Y-135795928D01*
X108235814Y-135825001D01*
X107951972Y-135911104D01*
X107690382Y-136050927D01*
X107461097Y-136239097D01*
X107272927Y-136468382D01*
X107133104Y-136729972D01*
X107094072Y-136858643D01*
X107094072Y-135630776D01*
X114957000Y-135630776D01*
X114957000Y-137601225D01*
X114982106Y-137856119D01*
X115081315Y-138183168D01*
X115242422Y-138484578D01*
X115459235Y-138748766D01*
X115723423Y-138965579D01*
X116024833Y-139126686D01*
X116351882Y-139225895D01*
X116692000Y-139259394D01*
X117032119Y-139225895D01*
X117359168Y-139126686D01*
X117660578Y-138965579D01*
X117672245Y-138956004D01*
X117682106Y-139056119D01*
X117781315Y-139383168D01*
X117942422Y-139684578D01*
X118159235Y-139948766D01*
X118423423Y-140165579D01*
X118724833Y-140326686D01*
X119051882Y-140425895D01*
X119392000Y-140459394D01*
X119732119Y-140425895D01*
X120059168Y-140326686D01*
X120360578Y-140165579D01*
X120624766Y-139948766D01*
X120841579Y-139684578D01*
X121002686Y-139383168D01*
X121101895Y-139056119D01*
X121127000Y-138801225D01*
X121127000Y-138716000D01*
X124753928Y-138716000D01*
X124753928Y-142716000D01*
X124766188Y-142840482D01*
X124802498Y-142960180D01*
X124861463Y-143070494D01*
X124940815Y-143167185D01*
X125037506Y-143246537D01*
X125147820Y-143305502D01*
X125267518Y-143341812D01*
X125392000Y-143354072D01*
X127592000Y-143354072D01*
X127716482Y-143341812D01*
X127836180Y-143305502D01*
X127946494Y-143246537D01*
X128043185Y-143167185D01*
X128122537Y-143070494D01*
X128181502Y-142960180D01*
X128217812Y-142840482D01*
X128218585Y-142832628D01*
X131906502Y-142832628D01*
X131906502Y-143195372D01*
X131977270Y-143551146D01*
X132116086Y-143886277D01*
X132317616Y-144187888D01*
X132574114Y-144444386D01*
X132875725Y-144645916D01*
X133210856Y-144784732D01*
X133566630Y-144855500D01*
X133929374Y-144855500D01*
X134285148Y-144784732D01*
X134620279Y-144645916D01*
X134921890Y-144444386D01*
X135178388Y-144187888D01*
X135379918Y-143886277D01*
X135518734Y-143551146D01*
X135589502Y-143195372D01*
X135589502Y-142832628D01*
X143906500Y-142832628D01*
X143906500Y-143195372D01*
X143977268Y-143551146D01*
X144116084Y-143886277D01*
X144317614Y-144187888D01*
X144574112Y-144444386D01*
X144875723Y-144645916D01*
X145210854Y-144784732D01*
X145566628Y-144855500D01*
X145929372Y-144855500D01*
X146285146Y-144784732D01*
X146620277Y-144645916D01*
X146921888Y-144444386D01*
X147178386Y-144187888D01*
X147379916Y-143886277D01*
X147518732Y-143551146D01*
X147589500Y-143195372D01*
X147589500Y-142832628D01*
X148416502Y-142832628D01*
X148416502Y-143195372D01*
X148487270Y-143551146D01*
X148626086Y-143886277D01*
X148827616Y-144187888D01*
X149084114Y-144444386D01*
X149385725Y-144645916D01*
X149720856Y-144784732D01*
X150076630Y-144855500D01*
X150439374Y-144855500D01*
X150795148Y-144784732D01*
X151130279Y-144645916D01*
X151431890Y-144444386D01*
X151688388Y-144187888D01*
X151889918Y-143886277D01*
X152028734Y-143551146D01*
X152099502Y-143195372D01*
X152099502Y-142832628D01*
X160416500Y-142832628D01*
X160416500Y-143195372D01*
X160487268Y-143551146D01*
X160626084Y-143886277D01*
X160827614Y-144187888D01*
X161084112Y-144444386D01*
X161385723Y-144645916D01*
X161720854Y-144784732D01*
X162076628Y-144855500D01*
X162439372Y-144855500D01*
X162795146Y-144784732D01*
X163130277Y-144645916D01*
X163431888Y-144444386D01*
X163688386Y-144187888D01*
X163889916Y-143886277D01*
X164028732Y-143551146D01*
X164099500Y-143195372D01*
X164099500Y-142832628D01*
X164028732Y-142476854D01*
X163889916Y-142141723D01*
X163796698Y-142002212D01*
X168983000Y-142002212D01*
X168983000Y-142225788D01*
X169026617Y-142445067D01*
X169112176Y-142651624D01*
X169236388Y-142837520D01*
X169394480Y-142995612D01*
X169580376Y-143119824D01*
X169786933Y-143205383D01*
X170006212Y-143249000D01*
X170229788Y-143249000D01*
X170449067Y-143205383D01*
X170655624Y-143119824D01*
X170841520Y-142995612D01*
X170999612Y-142837520D01*
X171123824Y-142651624D01*
X171209383Y-142445067D01*
X171253000Y-142225788D01*
X171253000Y-142002212D01*
X173383000Y-142002212D01*
X173383000Y-142225788D01*
X173426617Y-142445067D01*
X173512176Y-142651624D01*
X173636388Y-142837520D01*
X173794480Y-142995612D01*
X173980376Y-143119824D01*
X174186933Y-143205383D01*
X174406212Y-143249000D01*
X174629788Y-143249000D01*
X174849067Y-143205383D01*
X175055624Y-143119824D01*
X175241520Y-142995612D01*
X175399612Y-142837520D01*
X175523824Y-142651624D01*
X175609383Y-142445067D01*
X175643435Y-142273872D01*
X182423000Y-142273872D01*
X182423000Y-142714128D01*
X182508890Y-143145925D01*
X182677369Y-143552669D01*
X182921962Y-143918729D01*
X183233271Y-144230038D01*
X183599331Y-144474631D01*
X184006075Y-144643110D01*
X184437872Y-144729000D01*
X184878128Y-144729000D01*
X185309925Y-144643110D01*
X185716669Y-144474631D01*
X186082729Y-144230038D01*
X186394038Y-143918729D01*
X186638631Y-143552669D01*
X186807110Y-143145925D01*
X186893000Y-142714128D01*
X186893000Y-142273872D01*
X186807110Y-141842075D01*
X186638631Y-141435331D01*
X186394038Y-141069271D01*
X186082729Y-140757962D01*
X185716669Y-140513369D01*
X185309925Y-140344890D01*
X184878128Y-140259000D01*
X184437872Y-140259000D01*
X184006075Y-140344890D01*
X183599331Y-140513369D01*
X183233271Y-140757962D01*
X182921962Y-141069271D01*
X182677369Y-141435331D01*
X182508890Y-141842075D01*
X182423000Y-142273872D01*
X175643435Y-142273872D01*
X175653000Y-142225788D01*
X175653000Y-142002212D01*
X175609383Y-141782933D01*
X175523824Y-141576376D01*
X175399612Y-141390480D01*
X175241520Y-141232388D01*
X175055624Y-141108176D01*
X174849067Y-141022617D01*
X174629788Y-140979000D01*
X174406212Y-140979000D01*
X174186933Y-141022617D01*
X173980376Y-141108176D01*
X173794480Y-141232388D01*
X173636388Y-141390480D01*
X173512176Y-141576376D01*
X173426617Y-141782933D01*
X173383000Y-142002212D01*
X171253000Y-142002212D01*
X171209383Y-141782933D01*
X171123824Y-141576376D01*
X170999612Y-141390480D01*
X170841520Y-141232388D01*
X170655624Y-141108176D01*
X170449067Y-141022617D01*
X170229788Y-140979000D01*
X170006212Y-140979000D01*
X169786933Y-141022617D01*
X169580376Y-141108176D01*
X169394480Y-141232388D01*
X169236388Y-141390480D01*
X169112176Y-141576376D01*
X169026617Y-141782933D01*
X168983000Y-142002212D01*
X163796698Y-142002212D01*
X163688386Y-141840112D01*
X163431888Y-141583614D01*
X163130277Y-141382084D01*
X162795146Y-141243268D01*
X162439372Y-141172500D01*
X162076628Y-141172500D01*
X161720854Y-141243268D01*
X161385723Y-141382084D01*
X161084112Y-141583614D01*
X160827614Y-141840112D01*
X160626084Y-142141723D01*
X160487268Y-142476854D01*
X160416500Y-142832628D01*
X152099502Y-142832628D01*
X152028734Y-142476854D01*
X151889918Y-142141723D01*
X151688388Y-141840112D01*
X151431890Y-141583614D01*
X151130279Y-141382084D01*
X150795148Y-141243268D01*
X150439374Y-141172500D01*
X150076630Y-141172500D01*
X149720856Y-141243268D01*
X149385725Y-141382084D01*
X149084114Y-141583614D01*
X148827616Y-141840112D01*
X148626086Y-142141723D01*
X148487270Y-142476854D01*
X148416502Y-142832628D01*
X147589500Y-142832628D01*
X147518732Y-142476854D01*
X147379916Y-142141723D01*
X147178386Y-141840112D01*
X146921888Y-141583614D01*
X146620277Y-141382084D01*
X146285146Y-141243268D01*
X145929372Y-141172500D01*
X145566628Y-141172500D01*
X145210854Y-141243268D01*
X144875723Y-141382084D01*
X144574112Y-141583614D01*
X144317614Y-141840112D01*
X144116084Y-142141723D01*
X143977268Y-142476854D01*
X143906500Y-142832628D01*
X135589502Y-142832628D01*
X135518734Y-142476854D01*
X135379918Y-142141723D01*
X135178388Y-141840112D01*
X134921890Y-141583614D01*
X134620279Y-141382084D01*
X134285148Y-141243268D01*
X133929374Y-141172500D01*
X133566630Y-141172500D01*
X133210856Y-141243268D01*
X132875725Y-141382084D01*
X132574114Y-141583614D01*
X132317616Y-141840112D01*
X132116086Y-142141723D01*
X131977270Y-142476854D01*
X131906502Y-142832628D01*
X128218585Y-142832628D01*
X128230072Y-142716000D01*
X128230072Y-140874197D01*
X136007407Y-140874197D01*
X136066685Y-141107812D01*
X136304874Y-141218559D01*
X136560092Y-141280711D01*
X136822532Y-141291876D01*
X137082106Y-141251629D01*
X137328841Y-141161514D01*
X137429313Y-141107812D01*
X137488591Y-140874197D01*
X138407408Y-140874197D01*
X138466686Y-141107812D01*
X138704875Y-141218559D01*
X138960093Y-141280711D01*
X139222533Y-141291876D01*
X139482107Y-141251629D01*
X139728842Y-141161514D01*
X139829314Y-141107812D01*
X139888592Y-140874197D01*
X139148000Y-140133605D01*
X138407408Y-140874197D01*
X137488591Y-140874197D01*
X136747999Y-140133605D01*
X136007407Y-140874197D01*
X128230072Y-140874197D01*
X128230072Y-140028533D01*
X135410123Y-140028533D01*
X135450370Y-140288107D01*
X135540485Y-140534842D01*
X135594187Y-140635314D01*
X135827802Y-140694592D01*
X136568394Y-139954000D01*
X136927604Y-139954000D01*
X137668196Y-140694592D01*
X137901811Y-140635314D01*
X137944786Y-140542886D01*
X137994188Y-140635314D01*
X138227803Y-140694592D01*
X138968395Y-139954000D01*
X139327605Y-139954000D01*
X140068197Y-140694592D01*
X140301812Y-140635314D01*
X140346780Y-140538600D01*
X140366268Y-140585649D01*
X140512203Y-140804057D01*
X140697943Y-140989797D01*
X140916351Y-141135732D01*
X141159032Y-141236254D01*
X141416662Y-141287500D01*
X141679338Y-141287500D01*
X141936968Y-141236254D01*
X142179649Y-141135732D01*
X142398057Y-140989797D01*
X142513657Y-140874197D01*
X152517407Y-140874197D01*
X152576685Y-141107812D01*
X152814874Y-141218559D01*
X153070092Y-141280711D01*
X153332532Y-141291876D01*
X153592106Y-141251629D01*
X153838841Y-141161514D01*
X153939313Y-141107812D01*
X153998591Y-140874197D01*
X154917408Y-140874197D01*
X154976686Y-141107812D01*
X155214875Y-141218559D01*
X155470093Y-141280711D01*
X155732533Y-141291876D01*
X155992107Y-141251629D01*
X156238842Y-141161514D01*
X156339314Y-141107812D01*
X156398592Y-140874197D01*
X155658000Y-140133605D01*
X154917408Y-140874197D01*
X153998591Y-140874197D01*
X153257999Y-140133605D01*
X152517407Y-140874197D01*
X142513657Y-140874197D01*
X142583797Y-140804057D01*
X142729732Y-140585649D01*
X142830254Y-140342968D01*
X142881500Y-140085338D01*
X142881500Y-140028533D01*
X151920123Y-140028533D01*
X151960370Y-140288107D01*
X152050485Y-140534842D01*
X152104187Y-140635314D01*
X152337802Y-140694592D01*
X153078394Y-139954000D01*
X153437604Y-139954000D01*
X154178196Y-140694592D01*
X154411811Y-140635314D01*
X154454786Y-140542886D01*
X154504188Y-140635314D01*
X154737803Y-140694592D01*
X155478395Y-139954000D01*
X154737803Y-139213408D01*
X154504188Y-139272686D01*
X154461213Y-139365114D01*
X154411811Y-139272686D01*
X154178196Y-139213408D01*
X153437604Y-139954000D01*
X153078394Y-139954000D01*
X152337802Y-139213408D01*
X152104187Y-139272686D01*
X151993440Y-139510875D01*
X151931288Y-139766093D01*
X151920123Y-140028533D01*
X142881500Y-140028533D01*
X142881500Y-139822662D01*
X142830254Y-139565032D01*
X142729732Y-139322351D01*
X142583797Y-139103943D01*
X142513657Y-139033803D01*
X152517407Y-139033803D01*
X153257999Y-139774395D01*
X153998591Y-139033803D01*
X154917408Y-139033803D01*
X155658000Y-139774395D01*
X156398592Y-139033803D01*
X156339314Y-138800188D01*
X156101125Y-138689441D01*
X155845907Y-138627289D01*
X155583467Y-138616124D01*
X155323893Y-138656371D01*
X155077158Y-138746486D01*
X154976686Y-138800188D01*
X154917408Y-139033803D01*
X153998591Y-139033803D01*
X153939313Y-138800188D01*
X153701124Y-138689441D01*
X153445906Y-138627289D01*
X153183466Y-138616124D01*
X152923892Y-138656371D01*
X152677157Y-138746486D01*
X152576685Y-138800188D01*
X152517407Y-139033803D01*
X142513657Y-139033803D01*
X142398057Y-138918203D01*
X142179649Y-138772268D01*
X141936968Y-138671746D01*
X141679338Y-138620500D01*
X141416662Y-138620500D01*
X141159032Y-138671746D01*
X140916351Y-138772268D01*
X140697943Y-138918203D01*
X140512203Y-139103943D01*
X140366268Y-139322351D01*
X140349716Y-139362311D01*
X140301812Y-139272686D01*
X140068197Y-139213408D01*
X139327605Y-139954000D01*
X138968395Y-139954000D01*
X138227803Y-139213408D01*
X137994188Y-139272686D01*
X137951213Y-139365114D01*
X137901811Y-139272686D01*
X137668196Y-139213408D01*
X136927604Y-139954000D01*
X136568394Y-139954000D01*
X135827802Y-139213408D01*
X135594187Y-139272686D01*
X135483440Y-139510875D01*
X135421288Y-139766093D01*
X135410123Y-140028533D01*
X128230072Y-140028533D01*
X128230072Y-139033803D01*
X136007407Y-139033803D01*
X136747999Y-139774395D01*
X137488591Y-139033803D01*
X138407408Y-139033803D01*
X139148000Y-139774395D01*
X139888592Y-139033803D01*
X139829314Y-138800188D01*
X139591125Y-138689441D01*
X139335907Y-138627289D01*
X139073467Y-138616124D01*
X138813893Y-138656371D01*
X138567158Y-138746486D01*
X138466686Y-138800188D01*
X138407408Y-139033803D01*
X137488591Y-139033803D01*
X137429313Y-138800188D01*
X137191124Y-138689441D01*
X136935906Y-138627289D01*
X136673466Y-138616124D01*
X136413892Y-138656371D01*
X136167157Y-138746486D01*
X136066685Y-138800188D01*
X136007407Y-139033803D01*
X128230072Y-139033803D01*
X128230072Y-138716000D01*
X128217812Y-138591518D01*
X128181502Y-138471820D01*
X128122537Y-138361506D01*
X128043185Y-138264815D01*
X127946494Y-138185463D01*
X127836180Y-138126498D01*
X127716482Y-138090188D01*
X127592000Y-138077928D01*
X125392000Y-138077928D01*
X125267518Y-138090188D01*
X125147820Y-138126498D01*
X125037506Y-138185463D01*
X124940815Y-138264815D01*
X124861463Y-138361506D01*
X124802498Y-138471820D01*
X124766188Y-138591518D01*
X124753928Y-138716000D01*
X121127000Y-138716000D01*
X121127000Y-137282662D01*
X136614499Y-137282662D01*
X136614499Y-137545338D01*
X136665745Y-137802968D01*
X136766267Y-138045649D01*
X136912202Y-138264057D01*
X137097942Y-138449797D01*
X137316350Y-138595732D01*
X137559031Y-138696254D01*
X137816661Y-138747500D01*
X138079337Y-138747500D01*
X138336967Y-138696254D01*
X138579648Y-138595732D01*
X138798056Y-138449797D01*
X138983796Y-138264057D01*
X139129731Y-138045649D01*
X139148000Y-138001546D01*
X139166268Y-138045649D01*
X139312203Y-138264057D01*
X139497943Y-138449797D01*
X139716351Y-138595732D01*
X139959032Y-138696254D01*
X140216662Y-138747500D01*
X140479338Y-138747500D01*
X140736968Y-138696254D01*
X140979649Y-138595732D01*
X141198057Y-138449797D01*
X141383797Y-138264057D01*
X141529732Y-138045649D01*
X141548000Y-138001546D01*
X141566268Y-138045649D01*
X141712203Y-138264057D01*
X141897943Y-138449797D01*
X142116351Y-138595732D01*
X142359032Y-138696254D01*
X142616662Y-138747500D01*
X142879338Y-138747500D01*
X143136968Y-138696254D01*
X143379649Y-138595732D01*
X143598057Y-138449797D01*
X143783797Y-138264057D01*
X143929732Y-138045649D01*
X144030254Y-137802968D01*
X144081500Y-137545338D01*
X144081500Y-137282662D01*
X153124499Y-137282662D01*
X153124499Y-137545338D01*
X153175745Y-137802968D01*
X153276267Y-138045649D01*
X153422202Y-138264057D01*
X153607942Y-138449797D01*
X153826350Y-138595732D01*
X154069031Y-138696254D01*
X154326661Y-138747500D01*
X154589337Y-138747500D01*
X154846967Y-138696254D01*
X155089648Y-138595732D01*
X155308056Y-138449797D01*
X155493796Y-138264057D01*
X155639731Y-138045649D01*
X155658000Y-138001546D01*
X155676268Y-138045649D01*
X155822203Y-138264057D01*
X156007943Y-138449797D01*
X156226351Y-138595732D01*
X156469032Y-138696254D01*
X156726662Y-138747500D01*
X156989338Y-138747500D01*
X157169000Y-138711763D01*
X157169000Y-138957146D01*
X157022203Y-139103943D01*
X156876268Y-139322351D01*
X156859716Y-139362311D01*
X156811812Y-139272686D01*
X156578197Y-139213408D01*
X155837605Y-139954000D01*
X156578197Y-140694592D01*
X156811812Y-140635314D01*
X156856780Y-140538600D01*
X156876268Y-140585649D01*
X157022203Y-140804057D01*
X157207943Y-140989797D01*
X157426351Y-141135732D01*
X157669032Y-141236254D01*
X157926662Y-141287500D01*
X158189338Y-141287500D01*
X158446968Y-141236254D01*
X158689649Y-141135732D01*
X158908057Y-140989797D01*
X159093797Y-140804057D01*
X159239732Y-140585649D01*
X159340254Y-140342968D01*
X159391500Y-140085338D01*
X159391500Y-139822662D01*
X159340254Y-139565032D01*
X159239732Y-139322351D01*
X159093797Y-139103943D01*
X158947000Y-138957146D01*
X158947000Y-138711763D01*
X159126662Y-138747500D01*
X159389338Y-138747500D01*
X159646968Y-138696254D01*
X159889649Y-138595732D01*
X160108057Y-138449797D01*
X160293797Y-138264057D01*
X160439732Y-138045649D01*
X160540254Y-137802968D01*
X160591500Y-137545338D01*
X160591500Y-137282662D01*
X160540254Y-137025032D01*
X160439732Y-136782351D01*
X160293797Y-136563943D01*
X160108057Y-136378203D01*
X159889649Y-136232268D01*
X159646968Y-136131746D01*
X159389338Y-136080500D01*
X159126662Y-136080500D01*
X158947000Y-136116237D01*
X158947000Y-132223477D01*
X158956102Y-132227247D01*
X159156061Y-132267021D01*
X159359939Y-132267021D01*
X159559898Y-132227247D01*
X159748256Y-132149226D01*
X159917774Y-132035958D01*
X160061937Y-131891795D01*
X160175205Y-131722277D01*
X160253226Y-131533919D01*
X160293000Y-131333960D01*
X160293000Y-131130082D01*
X160253226Y-130930123D01*
X160175205Y-130741765D01*
X160061937Y-130572247D01*
X159917774Y-130428084D01*
X159893000Y-130411531D01*
X159893000Y-128494479D01*
X159921205Y-128452267D01*
X159999226Y-128263909D01*
X160039000Y-128063950D01*
X160039000Y-127860072D01*
X159999226Y-127660113D01*
X159921205Y-127471755D01*
X159807937Y-127302237D01*
X159663774Y-127158074D01*
X159494256Y-127044806D01*
X159305898Y-126966785D01*
X159105939Y-126927011D01*
X158947000Y-126927011D01*
X158947000Y-124573659D01*
X158951300Y-124529999D01*
X158947000Y-124486339D01*
X158947000Y-124486333D01*
X158937406Y-124388924D01*
X158934136Y-124355724D01*
X158891660Y-124215699D01*
X158883303Y-124188149D01*
X158824962Y-124079000D01*
X160732388Y-124079000D01*
X160711137Y-124130304D01*
X160667700Y-124348675D01*
X160667700Y-124571325D01*
X160711137Y-124789696D01*
X160796341Y-124995398D01*
X160920039Y-125180524D01*
X161077476Y-125337961D01*
X161262602Y-125461659D01*
X161297224Y-125476000D01*
X161262602Y-125490341D01*
X161077476Y-125614039D01*
X160920039Y-125771476D01*
X160796341Y-125956602D01*
X160711137Y-126162304D01*
X160667700Y-126380675D01*
X160667700Y-126603325D01*
X160711137Y-126821696D01*
X160796341Y-127027398D01*
X160920039Y-127212524D01*
X161077476Y-127369961D01*
X161262602Y-127493659D01*
X161468304Y-127578863D01*
X161686675Y-127622300D01*
X161909325Y-127622300D01*
X162127696Y-127578863D01*
X162333398Y-127493659D01*
X162518524Y-127369961D01*
X162675961Y-127212524D01*
X162799659Y-127027398D01*
X162884863Y-126821696D01*
X162928300Y-126603325D01*
X162928300Y-126380675D01*
X162884863Y-126162304D01*
X162799659Y-125956602D01*
X162675961Y-125771476D01*
X162518524Y-125614039D01*
X162333398Y-125490341D01*
X162298776Y-125476000D01*
X162333398Y-125461659D01*
X162518524Y-125337961D01*
X162675961Y-125180524D01*
X162799659Y-124995398D01*
X162884863Y-124789696D01*
X162928300Y-124571325D01*
X162928300Y-124348675D01*
X162884863Y-124130304D01*
X162863612Y-124079000D01*
X167017765Y-124079000D01*
X167412899Y-124474134D01*
X167207696Y-124389137D01*
X166989325Y-124345700D01*
X166766675Y-124345700D01*
X166548304Y-124389137D01*
X166342602Y-124474341D01*
X166157476Y-124598039D01*
X166000039Y-124755476D01*
X165876341Y-124940602D01*
X165791137Y-125146304D01*
X165747700Y-125364675D01*
X165747700Y-125587325D01*
X165791137Y-125805696D01*
X165870338Y-125996905D01*
X165709939Y-125965000D01*
X165506061Y-125965000D01*
X165306102Y-126004774D01*
X165117744Y-126082795D01*
X164948226Y-126196063D01*
X164804063Y-126340226D01*
X164690795Y-126509744D01*
X164612774Y-126698102D01*
X164573000Y-126898061D01*
X164573000Y-127101939D01*
X164612774Y-127301898D01*
X164690795Y-127490256D01*
X164719000Y-127532468D01*
X164719001Y-128739784D01*
X164085895Y-129372891D01*
X164036102Y-129382795D01*
X163847744Y-129460816D01*
X163678226Y-129574084D01*
X163534063Y-129718247D01*
X163420795Y-129887765D01*
X163342774Y-130076123D01*
X163303000Y-130276082D01*
X163303000Y-130479960D01*
X163342774Y-130679919D01*
X163420795Y-130868277D01*
X163534063Y-131037795D01*
X163678226Y-131181958D01*
X163847744Y-131295226D01*
X164036102Y-131373247D01*
X164236061Y-131413021D01*
X164439939Y-131413021D01*
X164639898Y-131373247D01*
X164828256Y-131295226D01*
X164997774Y-131181958D01*
X165141937Y-131037795D01*
X165255205Y-130868277D01*
X165333226Y-130679919D01*
X165343130Y-130630126D01*
X166205741Y-129767515D01*
X166239659Y-129739680D01*
X166350753Y-129604312D01*
X166433303Y-129449872D01*
X166458055Y-129368273D01*
X166484136Y-129282297D01*
X166490006Y-129222697D01*
X166497000Y-129151688D01*
X166497000Y-129151682D01*
X166501300Y-129108022D01*
X166497000Y-129064362D01*
X166497000Y-127532468D01*
X166525205Y-127490256D01*
X166603226Y-127301898D01*
X166643000Y-127101939D01*
X166643000Y-126898061D01*
X166603226Y-126698102D01*
X166546981Y-126562315D01*
X166548304Y-126562863D01*
X166766675Y-126606300D01*
X166989325Y-126606300D01*
X167207696Y-126562863D01*
X167413398Y-126477659D01*
X167598524Y-126353961D01*
X167755961Y-126196524D01*
X167879659Y-126011398D01*
X167964863Y-125805696D01*
X168008300Y-125587325D01*
X168008300Y-125364675D01*
X167964863Y-125146304D01*
X167879866Y-124941102D01*
X168058259Y-125119495D01*
X168058264Y-125119499D01*
X168886701Y-125947936D01*
X168896605Y-125997729D01*
X168974626Y-126186087D01*
X169087894Y-126355605D01*
X169232057Y-126499768D01*
X169401575Y-126613036D01*
X169589933Y-126691057D01*
X169789892Y-126730831D01*
X169993770Y-126730831D01*
X170193729Y-126691057D01*
X170382087Y-126613036D01*
X170551605Y-126499768D01*
X170695768Y-126355605D01*
X170809036Y-126186087D01*
X170887057Y-125997729D01*
X170926831Y-125797770D01*
X170926831Y-125593892D01*
X170887057Y-125393933D01*
X170809036Y-125205575D01*
X170695768Y-125036057D01*
X170551605Y-124891894D01*
X170382087Y-124778626D01*
X170193729Y-124700605D01*
X170143936Y-124690701D01*
X169315499Y-123862264D01*
X169315495Y-123862259D01*
X168045499Y-122592264D01*
X168017659Y-122558341D01*
X167882291Y-122447247D01*
X167727851Y-122364697D01*
X167560274Y-122313864D01*
X167429667Y-122301000D01*
X167429660Y-122301000D01*
X167386000Y-122296700D01*
X167342340Y-122301000D01*
X162828015Y-122301000D01*
X162833000Y-122275939D01*
X162833000Y-122072061D01*
X162793226Y-121872102D01*
X162715205Y-121683744D01*
X162601937Y-121514226D01*
X162457774Y-121370063D01*
X162288256Y-121256795D01*
X162099898Y-121178774D01*
X161899939Y-121139000D01*
X161696061Y-121139000D01*
X161496102Y-121178774D01*
X161307744Y-121256795D01*
X161265532Y-121285000D01*
X159824490Y-121285000D01*
X159807937Y-121260226D01*
X159663774Y-121116063D01*
X159494256Y-121002795D01*
X159305898Y-120924774D01*
X159105939Y-120885000D01*
X158902061Y-120885000D01*
X158702102Y-120924774D01*
X158530999Y-120995648D01*
X158530999Y-120347658D01*
X158535299Y-120303998D01*
X158530999Y-120260338D01*
X158530999Y-120260332D01*
X158518135Y-120129725D01*
X158518135Y-120129723D01*
X158467301Y-119962146D01*
X158451689Y-119932939D01*
X158384752Y-119807708D01*
X158273658Y-119672340D01*
X158239730Y-119644496D01*
X158141234Y-119546000D01*
X169453928Y-119546000D01*
X169453928Y-121246000D01*
X169466188Y-121370482D01*
X169502498Y-121490180D01*
X169561463Y-121600494D01*
X169640815Y-121697185D01*
X169737506Y-121776537D01*
X169847820Y-121835502D01*
X169967518Y-121871812D01*
X170092000Y-121884072D01*
X171792000Y-121884072D01*
X171916482Y-121871812D01*
X172036180Y-121835502D01*
X172146494Y-121776537D01*
X172243185Y-121697185D01*
X172322537Y-121600494D01*
X172381502Y-121490180D01*
X172417812Y-121370482D01*
X172430072Y-121246000D01*
X172430072Y-119546000D01*
X172417812Y-119421518D01*
X172381502Y-119301820D01*
X172322537Y-119191506D01*
X172243185Y-119094815D01*
X172146494Y-119015463D01*
X172036180Y-118956498D01*
X171955534Y-118932034D01*
X172039588Y-118856269D01*
X172213641Y-118622920D01*
X172338825Y-118360099D01*
X172383476Y-118212890D01*
X172262155Y-117983000D01*
X171069000Y-117983000D01*
X171069000Y-118003000D01*
X170815000Y-118003000D01*
X170815000Y-117983000D01*
X169621845Y-117983000D01*
X169500524Y-118212890D01*
X169545175Y-118360099D01*
X169670359Y-118622920D01*
X169844412Y-118856269D01*
X169928466Y-118932034D01*
X169847820Y-118956498D01*
X169737506Y-119015463D01*
X169640815Y-119094815D01*
X169561463Y-119191506D01*
X169502498Y-119301820D01*
X169466188Y-119421518D01*
X169453928Y-119546000D01*
X158141234Y-119546000D01*
X158115000Y-119519766D01*
X158115000Y-117499110D01*
X169500524Y-117499110D01*
X169621845Y-117729000D01*
X170815000Y-117729000D01*
X170815000Y-116535186D01*
X171069000Y-116535186D01*
X171069000Y-117729000D01*
X172262155Y-117729000D01*
X172383476Y-117499110D01*
X172338825Y-117351901D01*
X172213641Y-117089080D01*
X172039588Y-116855731D01*
X171823355Y-116660822D01*
X171573252Y-116511843D01*
X171298891Y-116414519D01*
X171069000Y-116535186D01*
X170815000Y-116535186D01*
X170585109Y-116414519D01*
X170310748Y-116511843D01*
X170060645Y-116660822D01*
X169844412Y-116855731D01*
X169670359Y-117089080D01*
X169545175Y-117351901D01*
X169500524Y-117499110D01*
X158115000Y-117499110D01*
X158115000Y-113816468D01*
X158143205Y-113774256D01*
X158221226Y-113585898D01*
X158261000Y-113385939D01*
X158261000Y-113182061D01*
X158221226Y-112982102D01*
X158143205Y-112793744D01*
X158029937Y-112624226D01*
X157885774Y-112480063D01*
X157716256Y-112366795D01*
X157527898Y-112288774D01*
X157327939Y-112249000D01*
X157124061Y-112249000D01*
X156924102Y-112288774D01*
X156738491Y-112365657D01*
X156716253Y-112350798D01*
X156527895Y-112272777D01*
X156327936Y-112233003D01*
X156124058Y-112233003D01*
X155924099Y-112272777D01*
X155735741Y-112350798D01*
X155571028Y-112460855D01*
X155430256Y-112366795D01*
X155241898Y-112288774D01*
X155041939Y-112249000D01*
X154838061Y-112249000D01*
X154638102Y-112288774D01*
X154449744Y-112366795D01*
X154280226Y-112480063D01*
X154136063Y-112624226D01*
X154022795Y-112793744D01*
X153944774Y-112982102D01*
X153905000Y-113182061D01*
X153905000Y-113385939D01*
X153944774Y-113585898D01*
X154022795Y-113774256D01*
X154051000Y-113816468D01*
X154051001Y-114875531D01*
X154022795Y-114917744D01*
X153944774Y-115106102D01*
X153905000Y-115306061D01*
X153905000Y-115509939D01*
X153944774Y-115709898D01*
X154022795Y-115898256D01*
X154136063Y-116067774D01*
X154280226Y-116211937D01*
X154449744Y-116325205D01*
X154638102Y-116403226D01*
X154838061Y-116443000D01*
X155041939Y-116443000D01*
X155241898Y-116403226D01*
X155336997Y-116363834D01*
X155336998Y-119574326D01*
X155336997Y-119574336D01*
X155336997Y-119845613D01*
X155332697Y-119889273D01*
X155336997Y-119932933D01*
X155336997Y-119932939D01*
X155349861Y-120063546D01*
X155400694Y-120231123D01*
X155483244Y-120385563D01*
X155594338Y-120520932D01*
X155628260Y-120548771D01*
X156044990Y-120965502D01*
X156044989Y-124363607D01*
X156040689Y-124407267D01*
X156044989Y-124450927D01*
X156044989Y-124450932D01*
X156048476Y-124486333D01*
X156057853Y-124581542D01*
X156108687Y-124749119D01*
X156130376Y-124789696D01*
X156191236Y-124903556D01*
X156302330Y-125038925D01*
X156336254Y-125066765D01*
X156460991Y-125191503D01*
X156460990Y-136135077D01*
X156226351Y-136232268D01*
X156007943Y-136378203D01*
X155822203Y-136563943D01*
X155676268Y-136782351D01*
X155658000Y-136826454D01*
X155639731Y-136782351D01*
X155493796Y-136563943D01*
X155308056Y-136378203D01*
X155089648Y-136232268D01*
X154846967Y-136131746D01*
X154589337Y-136080500D01*
X154326661Y-136080500D01*
X154069031Y-136131746D01*
X153826350Y-136232268D01*
X153607942Y-136378203D01*
X153422202Y-136563943D01*
X153276267Y-136782351D01*
X153175745Y-137025032D01*
X153124499Y-137282662D01*
X144081500Y-137282662D01*
X144030254Y-137025032D01*
X143929732Y-136782351D01*
X143783797Y-136563943D01*
X143598057Y-136378203D01*
X143379649Y-136232268D01*
X143136968Y-136131746D01*
X142879338Y-136080500D01*
X142616662Y-136080500D01*
X142359032Y-136131746D01*
X142116351Y-136232268D01*
X141897943Y-136378203D01*
X141712203Y-136563943D01*
X141566268Y-136782351D01*
X141548000Y-136826454D01*
X141529732Y-136782351D01*
X141383797Y-136563943D01*
X141198057Y-136378203D01*
X140979649Y-136232268D01*
X140736968Y-136131746D01*
X140479338Y-136080500D01*
X140216662Y-136080500D01*
X139959032Y-136131746D01*
X139716351Y-136232268D01*
X139497943Y-136378203D01*
X139312203Y-136563943D01*
X139166268Y-136782351D01*
X139148000Y-136826454D01*
X139129731Y-136782351D01*
X138983796Y-136563943D01*
X138798056Y-136378203D01*
X138579648Y-136232268D01*
X138336967Y-136131746D01*
X138079337Y-136080500D01*
X137816661Y-136080500D01*
X137559031Y-136131746D01*
X137316350Y-136232268D01*
X137097942Y-136378203D01*
X136912202Y-136563943D01*
X136766267Y-136782351D01*
X136665745Y-137025032D01*
X136614499Y-137282662D01*
X121127000Y-137282662D01*
X121127000Y-136830775D01*
X121101895Y-136575881D01*
X121002686Y-136248832D01*
X120841579Y-135947422D01*
X120624766Y-135683234D01*
X120360577Y-135466421D01*
X120059167Y-135305314D01*
X119732118Y-135206105D01*
X119392000Y-135172606D01*
X119051881Y-135206105D01*
X118724832Y-135305314D01*
X118423422Y-135466421D01*
X118411755Y-135475995D01*
X118401895Y-135375881D01*
X118302686Y-135048832D01*
X118141579Y-134747422D01*
X117924766Y-134483234D01*
X117660577Y-134266421D01*
X117359167Y-134105314D01*
X117032118Y-134006105D01*
X116692000Y-133972606D01*
X116351881Y-134006105D01*
X116024832Y-134105314D01*
X115723422Y-134266421D01*
X115459234Y-134483234D01*
X115242421Y-134747423D01*
X115081314Y-135048833D01*
X114982105Y-135375882D01*
X114957000Y-135630776D01*
X107094072Y-135630776D01*
X107094072Y-133434000D01*
X107081812Y-133309518D01*
X107045502Y-133189820D01*
X106986537Y-133079506D01*
X106907185Y-132982815D01*
X106810494Y-132903463D01*
X106700180Y-132844498D01*
X106580482Y-132808188D01*
X106456000Y-132795928D01*
X102956000Y-132795928D01*
X102831518Y-132808188D01*
X102711820Y-132844498D01*
X102601506Y-132903463D01*
X102504815Y-132982815D01*
X102425463Y-133079506D01*
X102366498Y-133189820D01*
X102330188Y-133309518D01*
X102317928Y-133434000D01*
X89633000Y-133434000D01*
X89633000Y-129906665D01*
X100419000Y-129906665D01*
X100419000Y-130189335D01*
X100474147Y-130466574D01*
X100582320Y-130727727D01*
X100739363Y-130962759D01*
X100939241Y-131162637D01*
X101174273Y-131319680D01*
X101435426Y-131427853D01*
X101712665Y-131483000D01*
X101995335Y-131483000D01*
X102272574Y-131427853D01*
X102533727Y-131319680D01*
X102768759Y-131162637D01*
X102968637Y-130962759D01*
X102985849Y-130937000D01*
X108547000Y-130937000D01*
X108547000Y-131205335D01*
X108602147Y-131482574D01*
X108710320Y-131743727D01*
X108867363Y-131978759D01*
X109067241Y-132178637D01*
X109302273Y-132335680D01*
X109563426Y-132443853D01*
X109840665Y-132499000D01*
X110123335Y-132499000D01*
X110400574Y-132443853D01*
X110661727Y-132335680D01*
X110896759Y-132178637D01*
X111096637Y-131978759D01*
X111253680Y-131743727D01*
X111361853Y-131482574D01*
X111417000Y-131205335D01*
X111417000Y-130922665D01*
X111361853Y-130645426D01*
X111253680Y-130384273D01*
X111096637Y-130149241D01*
X110896759Y-129949363D01*
X110661727Y-129792320D01*
X110400574Y-129684147D01*
X110123335Y-129629000D01*
X109840665Y-129629000D01*
X109810279Y-129635044D01*
X109625499Y-129450264D01*
X109597659Y-129416341D01*
X109462291Y-129305247D01*
X109307851Y-129222697D01*
X109140274Y-129171864D01*
X109009667Y-129159000D01*
X109009660Y-129159000D01*
X108966000Y-129154700D01*
X108922340Y-129159000D01*
X102985849Y-129159000D01*
X102968637Y-129133241D01*
X102768759Y-128933363D01*
X102533727Y-128776320D01*
X102272574Y-128668147D01*
X101995335Y-128613000D01*
X101712665Y-128613000D01*
X101435426Y-128668147D01*
X101174273Y-128776320D01*
X100939241Y-128933363D01*
X100739363Y-129133241D01*
X100582320Y-129368273D01*
X100474147Y-129629426D01*
X100419000Y-129906665D01*
X89633000Y-129906665D01*
X89633000Y-124502544D01*
X89719506Y-124573537D01*
X89829820Y-124632502D01*
X89949518Y-124668812D01*
X90074000Y-124681072D01*
X92574000Y-124681072D01*
X92698482Y-124668812D01*
X92818180Y-124632502D01*
X92928494Y-124573537D01*
X93025185Y-124494185D01*
X93104537Y-124397494D01*
X93163502Y-124287180D01*
X93199812Y-124167482D01*
X93212072Y-124043000D01*
X93212072Y-120700404D01*
X94889000Y-120700404D01*
X94889001Y-122885597D01*
X94916276Y-123162524D01*
X95024062Y-123517848D01*
X95199098Y-123845317D01*
X95434656Y-124132345D01*
X95721684Y-124367903D01*
X96049153Y-124542939D01*
X96404477Y-124650725D01*
X96774000Y-124687120D01*
X97143524Y-124650725D01*
X97498848Y-124542939D01*
X97826317Y-124367903D01*
X98113345Y-124132345D01*
X98348903Y-123845317D01*
X98523939Y-123517848D01*
X98631725Y-123162524D01*
X98659000Y-122885597D01*
X98659000Y-121920000D01*
X100339000Y-121920000D01*
X100339000Y-122920000D01*
X100399996Y-123285305D01*
X100531088Y-123631691D01*
X100727237Y-123945847D01*
X100980906Y-124215699D01*
X101282347Y-124430878D01*
X101619975Y-124583114D01*
X101804355Y-124630695D01*
X102097000Y-124514572D01*
X102097000Y-121920000D01*
X102351000Y-121920000D01*
X102351000Y-124514572D01*
X102643645Y-124630695D01*
X102828025Y-124583114D01*
X103165653Y-124430878D01*
X103467094Y-124215699D01*
X103720763Y-123945847D01*
X103916912Y-123631691D01*
X103993370Y-123429665D01*
X116294000Y-123429665D01*
X116294000Y-123712335D01*
X116349147Y-123989574D01*
X116457320Y-124250727D01*
X116614363Y-124485759D01*
X116814241Y-124685637D01*
X117049273Y-124842680D01*
X117310426Y-124950853D01*
X117587665Y-125006000D01*
X117870335Y-125006000D01*
X118147574Y-124950853D01*
X118408727Y-124842680D01*
X118643759Y-124685637D01*
X118843637Y-124485759D01*
X119000680Y-124250727D01*
X119108853Y-123989574D01*
X119164000Y-123712335D01*
X119164000Y-123429665D01*
X119157956Y-123399279D01*
X121653235Y-120904000D01*
X134295490Y-120904000D01*
X134291419Y-120907341D01*
X134263584Y-120941258D01*
X125283843Y-129921000D01*
X124194849Y-129921000D01*
X124177637Y-129895241D01*
X123977759Y-129695363D01*
X123742727Y-129538320D01*
X123481574Y-129430147D01*
X123204335Y-129375000D01*
X122921665Y-129375000D01*
X122644426Y-129430147D01*
X122383273Y-129538320D01*
X122148241Y-129695363D01*
X121948363Y-129895241D01*
X121791320Y-130130273D01*
X121683147Y-130391426D01*
X121628000Y-130668665D01*
X121628000Y-130951335D01*
X121683147Y-131228574D01*
X121791320Y-131489727D01*
X121948363Y-131724759D01*
X122148241Y-131924637D01*
X122383273Y-132081680D01*
X122644426Y-132189853D01*
X122921665Y-132245000D01*
X123204335Y-132245000D01*
X123481574Y-132189853D01*
X123742727Y-132081680D01*
X123977759Y-131924637D01*
X124177637Y-131724759D01*
X124194849Y-131699000D01*
X124824019Y-131699000D01*
X124751881Y-131706105D01*
X124424832Y-131805314D01*
X124123422Y-131966421D01*
X123859234Y-132183234D01*
X123642421Y-132447422D01*
X123481314Y-132748832D01*
X123382105Y-133075881D01*
X123348606Y-133416000D01*
X123382105Y-133756119D01*
X123481314Y-134083168D01*
X123642421Y-134384578D01*
X123859234Y-134648766D01*
X124123422Y-134865579D01*
X124424832Y-135026686D01*
X124751881Y-135125895D01*
X125006775Y-135151000D01*
X126977225Y-135151000D01*
X127232119Y-135125895D01*
X127559168Y-135026686D01*
X127860578Y-134865579D01*
X128124766Y-134648766D01*
X128341579Y-134384578D01*
X128502686Y-134083168D01*
X128601895Y-133756119D01*
X128635394Y-133416000D01*
X128601895Y-133075881D01*
X128502686Y-132748832D01*
X128341579Y-132447422D01*
X128124766Y-132183234D01*
X127860578Y-131966421D01*
X127559168Y-131805314D01*
X127232119Y-131706105D01*
X126977225Y-131681000D01*
X125843283Y-131681000D01*
X125993929Y-131635303D01*
X126148369Y-131552753D01*
X126283737Y-131441659D01*
X126311577Y-131407736D01*
X130044348Y-127674966D01*
X130046320Y-127679727D01*
X130203363Y-127914759D01*
X130403241Y-128114637D01*
X130638273Y-128271680D01*
X130899426Y-128379853D01*
X131176665Y-128435000D01*
X131459335Y-128435000D01*
X131736574Y-128379853D01*
X131997727Y-128271680D01*
X132232759Y-128114637D01*
X132432637Y-127914759D01*
X132589680Y-127679727D01*
X132697853Y-127418574D01*
X132753000Y-127141335D01*
X132753000Y-126858665D01*
X132746956Y-126828279D01*
X136004236Y-123571000D01*
X138409793Y-123571000D01*
X138428320Y-123615727D01*
X138585363Y-123850759D01*
X138785241Y-124050637D01*
X139020273Y-124207680D01*
X139281426Y-124315853D01*
X139558665Y-124371000D01*
X139841335Y-124371000D01*
X140118574Y-124315853D01*
X140379727Y-124207680D01*
X140614759Y-124050637D01*
X140814637Y-123850759D01*
X140971680Y-123615727D01*
X141079853Y-123354574D01*
X141135000Y-123077335D01*
X141135000Y-122974000D01*
X141365335Y-122974000D01*
X141642574Y-122918853D01*
X141903727Y-122810680D01*
X142138759Y-122653637D01*
X142338637Y-122453759D01*
X142495680Y-122218727D01*
X142603853Y-121957574D01*
X142659000Y-121680335D01*
X142659000Y-121397665D01*
X142603853Y-121120426D01*
X142495680Y-120859273D01*
X142338637Y-120624241D01*
X142138759Y-120424363D01*
X141903727Y-120267320D01*
X141642574Y-120159147D01*
X141365335Y-120104000D01*
X141082665Y-120104000D01*
X140805426Y-120159147D01*
X140544273Y-120267320D01*
X140467753Y-120318449D01*
X140500000Y-120156335D01*
X140500000Y-119873665D01*
X140444853Y-119596426D01*
X140336680Y-119335273D01*
X140179637Y-119100241D01*
X139979759Y-118900363D01*
X139744727Y-118743320D01*
X139483574Y-118635147D01*
X139206335Y-118580000D01*
X138923665Y-118580000D01*
X138646426Y-118635147D01*
X138385273Y-118743320D01*
X138150241Y-118900363D01*
X137950363Y-119100241D01*
X137933151Y-119126000D01*
X121328659Y-119126000D01*
X121284999Y-119121700D01*
X121241339Y-119126000D01*
X121241333Y-119126000D01*
X121143924Y-119135594D01*
X121110724Y-119138864D01*
X121009058Y-119169704D01*
X120943149Y-119189697D01*
X120788709Y-119272247D01*
X120653341Y-119383341D01*
X120625501Y-119417264D01*
X117900721Y-122142044D01*
X117870335Y-122136000D01*
X117587665Y-122136000D01*
X117310426Y-122191147D01*
X117049273Y-122299320D01*
X116814241Y-122456363D01*
X116614363Y-122656241D01*
X116457320Y-122891273D01*
X116349147Y-123152426D01*
X116294000Y-123429665D01*
X103993370Y-123429665D01*
X104048004Y-123285305D01*
X104109000Y-122920000D01*
X104109000Y-121920000D01*
X102351000Y-121920000D01*
X102097000Y-121920000D01*
X100339000Y-121920000D01*
X98659000Y-121920000D01*
X98659000Y-120700403D01*
X98655612Y-120666000D01*
X100339000Y-120666000D01*
X100339000Y-121666000D01*
X102097000Y-121666000D01*
X102097000Y-119071428D01*
X102351000Y-119071428D01*
X102351000Y-121666000D01*
X104109000Y-121666000D01*
X104109000Y-120666000D01*
X104048004Y-120300695D01*
X103916912Y-119954309D01*
X103720763Y-119640153D01*
X103467094Y-119370301D01*
X103165653Y-119155122D01*
X102828025Y-119002886D01*
X102643645Y-118955305D01*
X102351000Y-119071428D01*
X102097000Y-119071428D01*
X101804355Y-118955305D01*
X101619975Y-119002886D01*
X101282347Y-119155122D01*
X100980906Y-119370301D01*
X100727237Y-119640153D01*
X100531088Y-119954309D01*
X100399996Y-120300695D01*
X100339000Y-120666000D01*
X98655612Y-120666000D01*
X98631725Y-120423476D01*
X98523939Y-120068152D01*
X98348903Y-119740683D01*
X98113345Y-119453655D01*
X97826317Y-119218097D01*
X97498847Y-119043061D01*
X97143523Y-118935275D01*
X96774000Y-118898880D01*
X96404476Y-118935275D01*
X96049152Y-119043061D01*
X95721683Y-119218097D01*
X95434655Y-119453655D01*
X95199097Y-119740683D01*
X95024061Y-120068153D01*
X94916275Y-120423477D01*
X94889000Y-120700404D01*
X93212072Y-120700404D01*
X93212072Y-119543000D01*
X93199812Y-119418518D01*
X93163502Y-119298820D01*
X93104537Y-119188506D01*
X93025185Y-119091815D01*
X92928494Y-119012463D01*
X92818180Y-118953498D01*
X92698482Y-118917188D01*
X92574000Y-118904928D01*
X90074000Y-118904928D01*
X89949518Y-118917188D01*
X89829820Y-118953498D01*
X89719506Y-119012463D01*
X89633000Y-119083456D01*
X89633000Y-110094665D01*
X108547000Y-110094665D01*
X108547000Y-110377335D01*
X108602147Y-110654574D01*
X108710320Y-110915727D01*
X108712000Y-110918241D01*
X108712001Y-118951757D01*
X108710320Y-118954273D01*
X108602147Y-119215426D01*
X108547000Y-119492665D01*
X108547000Y-119775335D01*
X108602147Y-120052574D01*
X108710320Y-120313727D01*
X108867363Y-120548759D01*
X109067241Y-120748637D01*
X109302273Y-120905680D01*
X109563426Y-121013853D01*
X109840665Y-121069000D01*
X110123335Y-121069000D01*
X110400574Y-121013853D01*
X110661727Y-120905680D01*
X110896759Y-120748637D01*
X111096637Y-120548759D01*
X111253680Y-120313727D01*
X111361853Y-120052574D01*
X111417000Y-119775335D01*
X111417000Y-119492665D01*
X111361853Y-119215426D01*
X111253680Y-118954273D01*
X111252000Y-118951759D01*
X111252000Y-111672000D01*
X111287928Y-111672000D01*
X111287928Y-113372000D01*
X111300188Y-113496482D01*
X111336498Y-113616180D01*
X111395463Y-113726494D01*
X111474815Y-113823185D01*
X111571506Y-113902537D01*
X111681820Y-113961502D01*
X111801518Y-113997812D01*
X111926000Y-114010072D01*
X113626000Y-114010072D01*
X113750482Y-113997812D01*
X113870180Y-113961502D01*
X113980494Y-113902537D01*
X114077185Y-113823185D01*
X114156537Y-113726494D01*
X114215502Y-113616180D01*
X114239966Y-113535534D01*
X114315731Y-113619588D01*
X114549080Y-113793641D01*
X114811901Y-113918825D01*
X114959110Y-113963476D01*
X115189000Y-113842155D01*
X115189000Y-112649000D01*
X115443000Y-112649000D01*
X115443000Y-113842155D01*
X115672890Y-113963476D01*
X115820099Y-113918825D01*
X116033750Y-113817061D01*
X143618000Y-113817061D01*
X143618000Y-114020939D01*
X143657774Y-114220898D01*
X143735795Y-114409256D01*
X143849063Y-114578774D01*
X143993226Y-114722937D01*
X144162744Y-114836205D01*
X144351102Y-114914226D01*
X144551061Y-114954000D01*
X144754939Y-114954000D01*
X144954898Y-114914226D01*
X145143256Y-114836205D01*
X145185468Y-114808000D01*
X149689340Y-114808000D01*
X149733000Y-114812300D01*
X149776660Y-114808000D01*
X149776667Y-114808000D01*
X149907274Y-114795136D01*
X150074851Y-114744303D01*
X150229291Y-114661753D01*
X150364659Y-114550659D01*
X150392499Y-114516736D01*
X151890106Y-113019130D01*
X151939898Y-113009226D01*
X152128256Y-112931205D01*
X152297774Y-112817937D01*
X152441937Y-112673774D01*
X152555205Y-112504256D01*
X152633226Y-112315898D01*
X152673000Y-112115939D01*
X152673000Y-111912061D01*
X152633226Y-111712102D01*
X152555205Y-111523744D01*
X152441937Y-111354226D01*
X152297774Y-111210063D01*
X152128256Y-111096795D01*
X151939898Y-111018774D01*
X151739939Y-110979000D01*
X151536061Y-110979000D01*
X151336102Y-111018774D01*
X151147744Y-111096795D01*
X150978226Y-111210063D01*
X150834063Y-111354226D01*
X150720795Y-111523744D01*
X150642774Y-111712102D01*
X150632870Y-111761894D01*
X149364765Y-113030000D01*
X145185468Y-113030000D01*
X145143256Y-113001795D01*
X144954898Y-112923774D01*
X144754939Y-112884000D01*
X144551061Y-112884000D01*
X144351102Y-112923774D01*
X144162744Y-113001795D01*
X143993226Y-113115063D01*
X143849063Y-113259226D01*
X143735795Y-113428744D01*
X143657774Y-113617102D01*
X143618000Y-113817061D01*
X116033750Y-113817061D01*
X116082920Y-113793641D01*
X116316269Y-113619588D01*
X116511178Y-113403355D01*
X116660157Y-113153252D01*
X116757481Y-112878891D01*
X116636814Y-112649000D01*
X115443000Y-112649000D01*
X115189000Y-112649000D01*
X115169000Y-112649000D01*
X115169000Y-112395000D01*
X115189000Y-112395000D01*
X115189000Y-111201845D01*
X115443000Y-111201845D01*
X115443000Y-112395000D01*
X116636814Y-112395000D01*
X116757481Y-112165109D01*
X116660157Y-111890748D01*
X116511178Y-111640645D01*
X116316269Y-111424412D01*
X116082920Y-111250359D01*
X115820099Y-111125175D01*
X115672890Y-111080524D01*
X115443000Y-111201845D01*
X115189000Y-111201845D01*
X114959110Y-111080524D01*
X114811901Y-111125175D01*
X114549080Y-111250359D01*
X114315731Y-111424412D01*
X114239966Y-111508466D01*
X114215502Y-111427820D01*
X114156537Y-111317506D01*
X114077185Y-111220815D01*
X113980494Y-111141463D01*
X113870180Y-111082498D01*
X113750482Y-111046188D01*
X113626000Y-111033928D01*
X111926000Y-111033928D01*
X111801518Y-111046188D01*
X111681820Y-111082498D01*
X111571506Y-111141463D01*
X111474815Y-111220815D01*
X111395463Y-111317506D01*
X111336498Y-111427820D01*
X111300188Y-111547518D01*
X111287928Y-111672000D01*
X111252000Y-111672000D01*
X111252000Y-110918241D01*
X111253680Y-110915727D01*
X111361853Y-110654574D01*
X111417000Y-110377335D01*
X111417000Y-110094665D01*
X111361853Y-109817426D01*
X111253680Y-109556273D01*
X111096637Y-109321241D01*
X110896759Y-109121363D01*
X110661727Y-108964320D01*
X110400574Y-108856147D01*
X110123335Y-108801000D01*
X109840665Y-108801000D01*
X109563426Y-108856147D01*
X109302273Y-108964320D01*
X109067241Y-109121363D01*
X108867363Y-109321241D01*
X108710320Y-109556273D01*
X108602147Y-109817426D01*
X108547000Y-110094665D01*
X89633000Y-110094665D01*
X89633000Y-106846000D01*
X111287928Y-106846000D01*
X111287928Y-108546000D01*
X111300188Y-108670482D01*
X111336498Y-108790180D01*
X111395463Y-108900494D01*
X111474815Y-108997185D01*
X111571506Y-109076537D01*
X111681820Y-109135502D01*
X111801518Y-109171812D01*
X111926000Y-109184072D01*
X113626000Y-109184072D01*
X113750482Y-109171812D01*
X113870180Y-109135502D01*
X113980494Y-109076537D01*
X114077185Y-108997185D01*
X114156537Y-108900494D01*
X114215502Y-108790180D01*
X114239966Y-108709534D01*
X114315731Y-108793588D01*
X114549080Y-108967641D01*
X114811901Y-109092825D01*
X114959110Y-109137476D01*
X115189000Y-109016155D01*
X115189000Y-107823000D01*
X115443000Y-107823000D01*
X115443000Y-109016155D01*
X115672890Y-109137476D01*
X115820099Y-109092825D01*
X116082920Y-108967641D01*
X116316269Y-108793588D01*
X116511178Y-108577355D01*
X116660157Y-108327252D01*
X116757481Y-108052891D01*
X116636814Y-107823000D01*
X115443000Y-107823000D01*
X115189000Y-107823000D01*
X115169000Y-107823000D01*
X115169000Y-107569000D01*
X115189000Y-107569000D01*
X115189000Y-106375845D01*
X115443000Y-106375845D01*
X115443000Y-107569000D01*
X116636814Y-107569000D01*
X116757481Y-107339109D01*
X116660157Y-107064748D01*
X116511178Y-106814645D01*
X116316269Y-106598412D01*
X116082920Y-106424359D01*
X115820099Y-106299175D01*
X115672890Y-106254524D01*
X115443000Y-106375845D01*
X115189000Y-106375845D01*
X114959110Y-106254524D01*
X114811901Y-106299175D01*
X114549080Y-106424359D01*
X114315731Y-106598412D01*
X114239966Y-106682466D01*
X114215502Y-106601820D01*
X114156537Y-106491506D01*
X114077185Y-106394815D01*
X113980494Y-106315463D01*
X113870180Y-106256498D01*
X113750482Y-106220188D01*
X113626000Y-106207928D01*
X111926000Y-106207928D01*
X111801518Y-106220188D01*
X111681820Y-106256498D01*
X111571506Y-106315463D01*
X111474815Y-106394815D01*
X111395463Y-106491506D01*
X111336498Y-106601820D01*
X111300188Y-106721518D01*
X111287928Y-106846000D01*
X89633000Y-106846000D01*
X89633000Y-104887665D01*
X139281000Y-104887665D01*
X139281000Y-105170335D01*
X139336147Y-105447574D01*
X139444320Y-105708727D01*
X139601363Y-105943759D01*
X139801241Y-106143637D01*
X139827000Y-106160849D01*
X139827001Y-106691151D01*
X139801241Y-106708363D01*
X139601363Y-106908241D01*
X139444320Y-107143273D01*
X139336147Y-107404426D01*
X139281000Y-107681665D01*
X139281000Y-107964335D01*
X139336147Y-108241574D01*
X139444320Y-108502727D01*
X139601363Y-108737759D01*
X139801241Y-108937637D01*
X140036273Y-109094680D01*
X140297426Y-109202853D01*
X140574665Y-109258000D01*
X140857335Y-109258000D01*
X141134574Y-109202853D01*
X141395727Y-109094680D01*
X141630759Y-108937637D01*
X141668500Y-108899896D01*
X141833241Y-109064637D01*
X142068273Y-109221680D01*
X142329426Y-109329853D01*
X142606665Y-109385000D01*
X142889335Y-109385000D01*
X143166574Y-109329853D01*
X143427727Y-109221680D01*
X143662759Y-109064637D01*
X143862637Y-108864759D01*
X144019680Y-108629727D01*
X144127853Y-108368574D01*
X144183000Y-108091335D01*
X144183000Y-107808665D01*
X144127853Y-107531426D01*
X144019680Y-107270273D01*
X143862637Y-107035241D01*
X143662759Y-106835363D01*
X143637000Y-106818151D01*
X143637000Y-105398849D01*
X143662759Y-105381637D01*
X143862637Y-105181759D01*
X144019680Y-104946727D01*
X144127853Y-104685574D01*
X144183000Y-104408335D01*
X144183000Y-104125665D01*
X144127853Y-103848426D01*
X144019680Y-103587273D01*
X143862637Y-103352241D01*
X143662759Y-103152363D01*
X143427727Y-102995320D01*
X143166574Y-102887147D01*
X142889335Y-102832000D01*
X142606665Y-102832000D01*
X142329426Y-102887147D01*
X142068273Y-102995320D01*
X141833241Y-103152363D01*
X141633363Y-103352241D01*
X141476320Y-103587273D01*
X141403682Y-103762636D01*
X141395727Y-103757320D01*
X141134574Y-103649147D01*
X140857335Y-103594000D01*
X140574665Y-103594000D01*
X140297426Y-103649147D01*
X140036273Y-103757320D01*
X139801241Y-103914363D01*
X139601363Y-104114241D01*
X139444320Y-104349273D01*
X139336147Y-104610426D01*
X139281000Y-104887665D01*
X89633000Y-104887665D01*
X89633000Y-71882000D01*
X91303783Y-71882000D01*
X91313001Y-71975590D01*
X91313000Y-94902420D01*
X91303783Y-94996000D01*
X91313000Y-95089580D01*
X91313000Y-95089581D01*
X91340564Y-95369444D01*
X91449494Y-95728538D01*
X91626387Y-96059482D01*
X91864444Y-96349556D01*
X91937144Y-96409219D01*
X92566784Y-97038860D01*
X92626444Y-97111556D01*
X92845701Y-97291495D01*
X92916518Y-97349613D01*
X93247460Y-97526506D01*
X93331037Y-97551859D01*
X93606555Y-97635436D01*
X93886418Y-97663000D01*
X93886420Y-97663000D01*
X93980000Y-97672217D01*
X94073580Y-97663000D01*
X97121582Y-97663000D01*
X97401445Y-97635436D01*
X97760539Y-97526506D01*
X98091482Y-97349613D01*
X98381556Y-97111556D01*
X98619613Y-96821482D01*
X98796506Y-96490539D01*
X98905436Y-96131445D01*
X98942217Y-95758000D01*
X98905436Y-95384555D01*
X98796506Y-95025461D01*
X98619613Y-94694518D01*
X98381556Y-94404444D01*
X98091482Y-94166387D01*
X97760539Y-93989494D01*
X97401445Y-93880564D01*
X97121582Y-93853000D01*
X95123000Y-93853000D01*
X95123000Y-85383000D01*
X98143428Y-85383000D01*
X98143428Y-87083000D01*
X98155688Y-87207482D01*
X98191998Y-87327180D01*
X98250963Y-87437494D01*
X98330315Y-87534185D01*
X98427006Y-87613537D01*
X98537320Y-87672502D01*
X98609880Y-87694513D01*
X98478025Y-87826368D01*
X98315510Y-88069589D01*
X98203568Y-88339842D01*
X98146500Y-88626740D01*
X98146500Y-88919260D01*
X98203568Y-89206158D01*
X98315510Y-89476411D01*
X98478025Y-89719632D01*
X98684868Y-89926475D01*
X98928089Y-90088990D01*
X99198342Y-90200932D01*
X99485240Y-90258000D01*
X99777760Y-90258000D01*
X100064658Y-90200932D01*
X100334911Y-90088990D01*
X100578132Y-89926475D01*
X100784975Y-89719632D01*
X100947490Y-89476411D01*
X101059432Y-89206158D01*
X101116500Y-88919260D01*
X101116500Y-88626740D01*
X101059432Y-88339842D01*
X100947490Y-88069589D01*
X100784975Y-87826368D01*
X100653120Y-87694513D01*
X100725680Y-87672502D01*
X100835994Y-87613537D01*
X100932685Y-87534185D01*
X101012037Y-87437494D01*
X101071002Y-87327180D01*
X101107312Y-87207482D01*
X101119572Y-87083000D01*
X101119572Y-85383000D01*
X101107312Y-85258518D01*
X101071002Y-85138820D01*
X101012037Y-85028506D01*
X100932685Y-84931815D01*
X100835994Y-84852463D01*
X100725680Y-84793498D01*
X100605982Y-84757188D01*
X100481500Y-84744928D01*
X98781500Y-84744928D01*
X98657018Y-84757188D01*
X98537320Y-84793498D01*
X98427006Y-84852463D01*
X98330315Y-84931815D01*
X98250963Y-85028506D01*
X98191998Y-85138820D01*
X98155688Y-85258518D01*
X98143428Y-85383000D01*
X95123000Y-85383000D01*
X95123000Y-75399000D01*
X101191428Y-75399000D01*
X101203688Y-75523482D01*
X101239998Y-75643180D01*
X101298963Y-75753494D01*
X101378315Y-75850185D01*
X101475006Y-75929537D01*
X101585320Y-75988502D01*
X101705018Y-76024812D01*
X101829500Y-76037072D01*
X102393750Y-76034000D01*
X102552500Y-75875250D01*
X102552500Y-74676000D01*
X101353250Y-74676000D01*
X101194500Y-74834750D01*
X101191428Y-75399000D01*
X95123000Y-75399000D01*
X95123000Y-73699000D01*
X101191428Y-73699000D01*
X101194500Y-74263250D01*
X101353250Y-74422000D01*
X102552500Y-74422000D01*
X102552500Y-73222750D01*
X102806500Y-73222750D01*
X102806500Y-74422000D01*
X102826500Y-74422000D01*
X102826500Y-74676000D01*
X102806500Y-74676000D01*
X102806500Y-75875250D01*
X102965250Y-76034000D01*
X103529500Y-76037072D01*
X103653982Y-76024812D01*
X103773680Y-75988502D01*
X103883994Y-75929537D01*
X103980685Y-75850185D01*
X104060037Y-75753494D01*
X104119002Y-75643180D01*
X104141013Y-75570620D01*
X104272868Y-75702475D01*
X104516089Y-75864990D01*
X104786342Y-75976932D01*
X105073240Y-76034000D01*
X105365760Y-76034000D01*
X105652658Y-75976932D01*
X105922911Y-75864990D01*
X106166132Y-75702475D01*
X106372975Y-75495632D01*
X106489500Y-75321240D01*
X106606025Y-75495632D01*
X106812868Y-75702475D01*
X107056089Y-75864990D01*
X107326342Y-75976932D01*
X107613240Y-76034000D01*
X107905760Y-76034000D01*
X108192658Y-75976932D01*
X108462911Y-75864990D01*
X108706132Y-75702475D01*
X108912975Y-75495632D01*
X109034695Y-75313466D01*
X109104322Y-75430355D01*
X109299231Y-75646588D01*
X109532580Y-75820641D01*
X109795401Y-75945825D01*
X109942610Y-75990476D01*
X110172500Y-75869155D01*
X110172500Y-74676000D01*
X110152500Y-74676000D01*
X110152500Y-74422000D01*
X110172500Y-74422000D01*
X110172500Y-73228845D01*
X110426500Y-73228845D01*
X110426500Y-74422000D01*
X110446500Y-74422000D01*
X110446500Y-74676000D01*
X110426500Y-74676000D01*
X110426500Y-75869155D01*
X110656390Y-75990476D01*
X110803599Y-75945825D01*
X111066420Y-75820641D01*
X111299769Y-75646588D01*
X111494678Y-75430355D01*
X111564305Y-75313466D01*
X111686025Y-75495632D01*
X111892868Y-75702475D01*
X112136089Y-75864990D01*
X112406342Y-75976932D01*
X112693240Y-76034000D01*
X112985760Y-76034000D01*
X113272658Y-75976932D01*
X113542911Y-75864990D01*
X113786132Y-75702475D01*
X113992975Y-75495632D01*
X114155490Y-75252411D01*
X114267432Y-74982158D01*
X114324500Y-74695260D01*
X114324500Y-74402740D01*
X114282382Y-74191000D01*
X122825928Y-74191000D01*
X122825928Y-75891000D01*
X122838188Y-76015482D01*
X122874498Y-76135180D01*
X122933463Y-76245494D01*
X123012815Y-76342185D01*
X123109506Y-76421537D01*
X123219820Y-76480502D01*
X123339518Y-76516812D01*
X123464000Y-76529072D01*
X125164000Y-76529072D01*
X125288482Y-76516812D01*
X125408180Y-76480502D01*
X125518494Y-76421537D01*
X125615185Y-76342185D01*
X125694537Y-76245494D01*
X125753502Y-76135180D01*
X125775513Y-76062620D01*
X125907368Y-76194475D01*
X126150589Y-76356990D01*
X126420842Y-76468932D01*
X126707740Y-76526000D01*
X127000260Y-76526000D01*
X127287158Y-76468932D01*
X127557411Y-76356990D01*
X127800632Y-76194475D01*
X128007475Y-75987632D01*
X128169990Y-75744411D01*
X128281932Y-75474158D01*
X128339000Y-75187260D01*
X128339000Y-74894740D01*
X128281932Y-74607842D01*
X128169990Y-74337589D01*
X128072043Y-74191000D01*
X136160928Y-74191000D01*
X136160928Y-75891000D01*
X136173188Y-76015482D01*
X136209498Y-76135180D01*
X136268463Y-76245494D01*
X136347815Y-76342185D01*
X136444506Y-76421537D01*
X136554820Y-76480502D01*
X136674518Y-76516812D01*
X136799000Y-76529072D01*
X138499000Y-76529072D01*
X138623482Y-76516812D01*
X138743180Y-76480502D01*
X138853494Y-76421537D01*
X138950185Y-76342185D01*
X139029537Y-76245494D01*
X139088502Y-76135180D01*
X139110513Y-76062620D01*
X139242368Y-76194475D01*
X139485589Y-76356990D01*
X139755842Y-76468932D01*
X140042740Y-76526000D01*
X140335260Y-76526000D01*
X140622158Y-76468932D01*
X140892411Y-76356990D01*
X141135632Y-76194475D01*
X141342475Y-75987632D01*
X141504990Y-75744411D01*
X141616932Y-75474158D01*
X141674000Y-75187260D01*
X141674000Y-74894740D01*
X141616932Y-74607842D01*
X141504990Y-74337589D01*
X141342475Y-74094368D01*
X141135632Y-73887525D01*
X140892411Y-73725010D01*
X140622158Y-73613068D01*
X140335260Y-73556000D01*
X140042740Y-73556000D01*
X139755842Y-73613068D01*
X139485589Y-73725010D01*
X139242368Y-73887525D01*
X139110513Y-74019380D01*
X139088502Y-73946820D01*
X139029537Y-73836506D01*
X138950185Y-73739815D01*
X138853494Y-73660463D01*
X138743180Y-73601498D01*
X138623482Y-73565188D01*
X138499000Y-73552928D01*
X136799000Y-73552928D01*
X136674518Y-73565188D01*
X136554820Y-73601498D01*
X136444506Y-73660463D01*
X136347815Y-73739815D01*
X136268463Y-73836506D01*
X136209498Y-73946820D01*
X136173188Y-74066518D01*
X136160928Y-74191000D01*
X128072043Y-74191000D01*
X128007475Y-74094368D01*
X127800632Y-73887525D01*
X127557411Y-73725010D01*
X127287158Y-73613068D01*
X127000260Y-73556000D01*
X126707740Y-73556000D01*
X126420842Y-73613068D01*
X126150589Y-73725010D01*
X125907368Y-73887525D01*
X125775513Y-74019380D01*
X125753502Y-73946820D01*
X125694537Y-73836506D01*
X125615185Y-73739815D01*
X125518494Y-73660463D01*
X125408180Y-73601498D01*
X125288482Y-73565188D01*
X125164000Y-73552928D01*
X123464000Y-73552928D01*
X123339518Y-73565188D01*
X123219820Y-73601498D01*
X123109506Y-73660463D01*
X123012815Y-73739815D01*
X122933463Y-73836506D01*
X122874498Y-73946820D01*
X122838188Y-74066518D01*
X122825928Y-74191000D01*
X114282382Y-74191000D01*
X114267432Y-74115842D01*
X114155490Y-73845589D01*
X113992975Y-73602368D01*
X113786132Y-73395525D01*
X113542911Y-73233010D01*
X113272658Y-73121068D01*
X112985760Y-73064000D01*
X112693240Y-73064000D01*
X112406342Y-73121068D01*
X112136089Y-73233010D01*
X111892868Y-73395525D01*
X111686025Y-73602368D01*
X111564305Y-73784534D01*
X111494678Y-73667645D01*
X111299769Y-73451412D01*
X111066420Y-73277359D01*
X110803599Y-73152175D01*
X110656390Y-73107524D01*
X110426500Y-73228845D01*
X110172500Y-73228845D01*
X109942610Y-73107524D01*
X109795401Y-73152175D01*
X109532580Y-73277359D01*
X109299231Y-73451412D01*
X109104322Y-73667645D01*
X109034695Y-73784534D01*
X108912975Y-73602368D01*
X108706132Y-73395525D01*
X108462911Y-73233010D01*
X108192658Y-73121068D01*
X107905760Y-73064000D01*
X107613240Y-73064000D01*
X107326342Y-73121068D01*
X107056089Y-73233010D01*
X106812868Y-73395525D01*
X106606025Y-73602368D01*
X106489500Y-73776760D01*
X106372975Y-73602368D01*
X106166132Y-73395525D01*
X105922911Y-73233010D01*
X105652658Y-73121068D01*
X105365760Y-73064000D01*
X105073240Y-73064000D01*
X104786342Y-73121068D01*
X104516089Y-73233010D01*
X104272868Y-73395525D01*
X104141013Y-73527380D01*
X104119002Y-73454820D01*
X104060037Y-73344506D01*
X103980685Y-73247815D01*
X103883994Y-73168463D01*
X103773680Y-73109498D01*
X103653982Y-73073188D01*
X103529500Y-73060928D01*
X102965250Y-73064000D01*
X102806500Y-73222750D01*
X102552500Y-73222750D01*
X102393750Y-73064000D01*
X101829500Y-73060928D01*
X101705018Y-73073188D01*
X101585320Y-73109498D01*
X101475006Y-73168463D01*
X101378315Y-73247815D01*
X101298963Y-73344506D01*
X101239998Y-73454820D01*
X101203688Y-73574518D01*
X101191428Y-73699000D01*
X95123000Y-73699000D01*
X95123000Y-72671075D01*
X102389077Y-65405000D01*
X111779000Y-65405000D01*
X111778999Y-66138275D01*
X111777744Y-66138795D01*
X111608226Y-66252063D01*
X111464063Y-66396226D01*
X111350795Y-66565744D01*
X111272774Y-66754102D01*
X111233000Y-66954061D01*
X111233000Y-67157939D01*
X111272774Y-67357898D01*
X111350795Y-67546256D01*
X111464063Y-67715774D01*
X111608226Y-67859937D01*
X111777744Y-67973205D01*
X111966102Y-68051226D01*
X112166061Y-68091000D01*
X112369939Y-68091000D01*
X112569898Y-68051226D01*
X112758256Y-67973205D01*
X112927774Y-67859937D01*
X113071937Y-67715774D01*
X113185205Y-67546256D01*
X113263226Y-67357898D01*
X113272815Y-67309689D01*
X113299658Y-67287660D01*
X113410752Y-67152292D01*
X113493302Y-66997852D01*
X113544135Y-66830275D01*
X113556999Y-66699668D01*
X113556999Y-66699662D01*
X113561299Y-66656002D01*
X113556999Y-66612342D01*
X113556999Y-65405000D01*
X158877001Y-65405000D01*
X158877000Y-69226151D01*
X158851241Y-69243363D01*
X158651363Y-69443241D01*
X158494320Y-69678273D01*
X158386147Y-69939426D01*
X158331000Y-70216665D01*
X158331000Y-70499335D01*
X158386147Y-70776574D01*
X158494320Y-71037727D01*
X158651363Y-71272759D01*
X158851241Y-71472637D01*
X159086273Y-71629680D01*
X159347426Y-71737853D01*
X159624665Y-71793000D01*
X159907335Y-71793000D01*
X160184574Y-71737853D01*
X160445727Y-71629680D01*
X160680759Y-71472637D01*
X160880637Y-71272759D01*
X161037680Y-71037727D01*
X161065001Y-70971768D01*
X161065000Y-75612686D01*
X156390258Y-80287429D01*
X156356341Y-80315264D01*
X156328506Y-80349181D01*
X156328504Y-80349183D01*
X156245247Y-80450632D01*
X156162697Y-80605071D01*
X156111863Y-80772649D01*
X156094699Y-80946923D01*
X156099000Y-80990593D01*
X156098999Y-88442261D01*
X156094699Y-88485921D01*
X156098999Y-88529581D01*
X156098999Y-88529587D01*
X156111863Y-88660194D01*
X156162696Y-88827771D01*
X156245246Y-88982211D01*
X156356340Y-89117580D01*
X156390263Y-89145420D01*
X156980580Y-89735737D01*
X157008420Y-89769660D01*
X157143788Y-89880754D01*
X157298228Y-89963304D01*
X157364137Y-89983297D01*
X157465803Y-90014137D01*
X157499003Y-90017407D01*
X157596412Y-90027001D01*
X157596418Y-90027001D01*
X157640078Y-90031301D01*
X157683738Y-90027001D01*
X161859024Y-90027001D01*
X161902684Y-90031301D01*
X161946344Y-90027001D01*
X161946351Y-90027001D01*
X162076958Y-90014137D01*
X162244535Y-89963304D01*
X162398975Y-89880754D01*
X162534343Y-89769660D01*
X162562183Y-89735737D01*
X163288235Y-89009686D01*
X163325241Y-89046692D01*
X163560273Y-89203735D01*
X163821426Y-89311908D01*
X164098665Y-89367055D01*
X164381335Y-89367055D01*
X164658574Y-89311908D01*
X164919727Y-89203735D01*
X165154759Y-89046692D01*
X165354637Y-88846814D01*
X165511680Y-88611782D01*
X165619853Y-88350629D01*
X165675000Y-88073390D01*
X165675000Y-87790720D01*
X165619853Y-87513481D01*
X165511680Y-87252328D01*
X165354637Y-87017296D01*
X165154759Y-86817418D01*
X164919727Y-86660375D01*
X164658574Y-86552202D01*
X164381335Y-86497055D01*
X164098665Y-86497055D01*
X163821426Y-86552202D01*
X163560273Y-86660375D01*
X163325241Y-86817418D01*
X163125363Y-87017296D01*
X163110877Y-87038976D01*
X163108629Y-87038755D01*
X163064969Y-87043055D01*
X163064963Y-87043055D01*
X162967554Y-87052649D01*
X162934354Y-87055919D01*
X162845080Y-87083000D01*
X162766779Y-87106752D01*
X162612339Y-87189302D01*
X162476971Y-87300396D01*
X162449135Y-87334314D01*
X161534449Y-88249001D01*
X159632509Y-88249001D01*
X159677000Y-88025335D01*
X159677000Y-87742665D01*
X159621853Y-87465426D01*
X159513680Y-87204273D01*
X159356637Y-86969241D01*
X159156759Y-86769363D01*
X159131000Y-86752151D01*
X159131000Y-81394235D01*
X159890421Y-80634815D01*
X167044075Y-80634815D01*
X167087735Y-80639115D01*
X167131395Y-80634815D01*
X167131402Y-80634815D01*
X167262009Y-80621951D01*
X167429586Y-80571118D01*
X167584026Y-80488568D01*
X167719394Y-80377474D01*
X167747234Y-80343552D01*
X168498743Y-79592042D01*
X168532660Y-79564208D01*
X168643754Y-79428840D01*
X168726304Y-79274400D01*
X168760404Y-79161984D01*
X168791256Y-79149205D01*
X168960774Y-79035937D01*
X169104937Y-78891774D01*
X169218205Y-78722256D01*
X169296226Y-78533898D01*
X169336000Y-78333939D01*
X169336000Y-78130061D01*
X169296226Y-77930102D01*
X169218205Y-77741744D01*
X169104937Y-77572226D01*
X168960774Y-77428063D01*
X168791256Y-77314795D01*
X168602898Y-77236774D01*
X168402939Y-77197000D01*
X168199061Y-77197000D01*
X167999102Y-77236774D01*
X167810744Y-77314795D01*
X167641226Y-77428063D01*
X167497063Y-77572226D01*
X167383795Y-77741744D01*
X167305774Y-77930102D01*
X167296185Y-77978311D01*
X167269342Y-78000340D01*
X167247114Y-78027425D01*
X167168070Y-77974609D01*
X166979712Y-77896588D01*
X166834925Y-77867788D01*
X166738146Y-77788364D01*
X166593087Y-77710828D01*
X166435689Y-77663082D01*
X166313019Y-77651000D01*
X166313018Y-77651000D01*
X166272000Y-77646960D01*
X166230982Y-77651000D01*
X162313285Y-77651000D01*
X162190256Y-77568795D01*
X162001898Y-77490774D01*
X161801939Y-77451000D01*
X161741158Y-77451000D01*
X162551743Y-76640415D01*
X162585659Y-76612581D01*
X162696753Y-76477213D01*
X162779303Y-76322773D01*
X162830136Y-76155196D01*
X162843000Y-76024589D01*
X162843000Y-76024582D01*
X162847300Y-75980922D01*
X162843000Y-75937262D01*
X162843000Y-70953231D01*
X162928482Y-70944812D01*
X163048180Y-70908502D01*
X163158494Y-70849537D01*
X163255185Y-70770185D01*
X163334537Y-70673494D01*
X163393502Y-70563180D01*
X163415513Y-70490620D01*
X163547368Y-70622475D01*
X163790589Y-70784990D01*
X164060842Y-70896932D01*
X164347740Y-70954000D01*
X164640260Y-70954000D01*
X164927158Y-70896932D01*
X165197411Y-70784990D01*
X165440632Y-70622475D01*
X165647475Y-70415632D01*
X165764000Y-70241240D01*
X165880525Y-70415632D01*
X166087368Y-70622475D01*
X166330589Y-70784990D01*
X166600842Y-70896932D01*
X166887740Y-70954000D01*
X166929843Y-70954000D01*
X170841002Y-74865159D01*
X170841002Y-80720227D01*
X166811750Y-80723000D01*
X166653000Y-80881750D01*
X166653000Y-81310052D01*
X166588237Y-81313575D01*
X166525863Y-81463370D01*
X166465408Y-81316649D01*
X166463763Y-81313575D01*
X166399000Y-81310052D01*
X166399000Y-80881750D01*
X166240250Y-80723000D01*
X161776000Y-80719928D01*
X161651518Y-80732188D01*
X161531820Y-80768498D01*
X161421506Y-80827463D01*
X161324815Y-80906815D01*
X161245463Y-81003506D01*
X161186498Y-81113820D01*
X161150188Y-81233518D01*
X161137928Y-81358000D01*
X161141000Y-82772250D01*
X161173243Y-82804493D01*
X161147836Y-82930998D01*
X161141000Y-82930998D01*
X161141000Y-83056534D01*
X161140829Y-83148355D01*
X161141000Y-83149223D01*
X161141000Y-83185002D01*
X161148048Y-83185002D01*
X161173013Y-83311737D01*
X161141000Y-83343750D01*
X161137928Y-84758000D01*
X161150188Y-84882482D01*
X161186498Y-85002180D01*
X161245463Y-85112494D01*
X161324815Y-85209185D01*
X161421506Y-85288537D01*
X161531820Y-85347502D01*
X161651518Y-85383812D01*
X161776000Y-85396072D01*
X166240250Y-85393000D01*
X166399000Y-85234250D01*
X166399000Y-84805948D01*
X166463763Y-84802425D01*
X166526137Y-84652630D01*
X166586592Y-84799351D01*
X166588237Y-84802425D01*
X166653000Y-84805948D01*
X166653000Y-85234250D01*
X166811750Y-85393000D01*
X170841001Y-85395773D01*
X170841001Y-86737113D01*
X170115765Y-87462349D01*
X170078759Y-87425343D01*
X169843727Y-87268300D01*
X169582574Y-87160127D01*
X169305335Y-87104980D01*
X169022665Y-87104980D01*
X168745426Y-87160127D01*
X168484273Y-87268300D01*
X168249241Y-87425343D01*
X168049363Y-87625221D01*
X167892320Y-87860253D01*
X167784147Y-88121406D01*
X167729000Y-88398645D01*
X167729000Y-88681315D01*
X167784147Y-88958554D01*
X167892320Y-89219707D01*
X168049363Y-89454739D01*
X168249241Y-89654617D01*
X168484273Y-89811660D01*
X168745426Y-89919833D01*
X169022665Y-89974980D01*
X169305335Y-89974980D01*
X169582574Y-89919833D01*
X169843727Y-89811660D01*
X170078759Y-89654617D01*
X170278637Y-89454739D01*
X170293123Y-89433059D01*
X170295370Y-89433280D01*
X170339030Y-89428980D01*
X170339037Y-89428980D01*
X170469644Y-89416116D01*
X170637221Y-89365283D01*
X170791661Y-89282733D01*
X170927029Y-89171639D01*
X170954869Y-89137716D01*
X172327744Y-87764842D01*
X172361660Y-87737008D01*
X172472754Y-87601640D01*
X172555304Y-87447200D01*
X172606137Y-87279623D01*
X172619001Y-87149016D01*
X172619001Y-87149009D01*
X172623301Y-87105349D01*
X172619001Y-87061689D01*
X172619001Y-74540582D01*
X172623301Y-74496922D01*
X172619001Y-74453262D01*
X172619001Y-74453256D01*
X172609407Y-74355847D01*
X172606137Y-74322647D01*
X172555303Y-74155070D01*
X172534335Y-74115842D01*
X172472754Y-74000632D01*
X172361660Y-73865264D01*
X172327737Y-73837424D01*
X169444313Y-70954000D01*
X169720260Y-70954000D01*
X170007158Y-70896932D01*
X170277411Y-70784990D01*
X170520632Y-70622475D01*
X170664956Y-70478151D01*
X170686320Y-70529727D01*
X170843363Y-70764759D01*
X171043241Y-70964637D01*
X171278273Y-71121680D01*
X171539426Y-71229853D01*
X171816665Y-71285000D01*
X172099335Y-71285000D01*
X172376574Y-71229853D01*
X172637727Y-71121680D01*
X172872759Y-70964637D01*
X173072637Y-70764759D01*
X173229680Y-70529727D01*
X173337853Y-70268574D01*
X173393000Y-69991335D01*
X173393000Y-69708665D01*
X173337853Y-69431426D01*
X173229680Y-69170273D01*
X173072637Y-68935241D01*
X173004760Y-68867364D01*
X173037303Y-68806481D01*
X173064474Y-68716910D01*
X173088136Y-68638906D01*
X173099614Y-68522368D01*
X173101000Y-68508297D01*
X173101000Y-68508291D01*
X173105300Y-68464631D01*
X173101000Y-68420971D01*
X173101000Y-65405000D01*
X176502925Y-65405000D01*
X184023000Y-72925077D01*
X184023001Y-98361622D01*
X183905495Y-98581461D01*
X183796565Y-98940555D01*
X183759783Y-99314000D01*
X183796565Y-99687445D01*
X183905495Y-100046539D01*
X184082387Y-100377482D01*
X184320445Y-100667555D01*
X184610518Y-100905613D01*
X184941461Y-101082505D01*
X185300555Y-101191435D01*
X185674000Y-101228217D01*
X186047445Y-101191435D01*
X186406539Y-101082505D01*
X186737482Y-100905613D01*
X186954865Y-100727210D01*
X187208859Y-100473217D01*
X187281556Y-100413556D01*
X187519613Y-100123482D01*
X187696506Y-99792539D01*
X187805436Y-99433445D01*
X187833000Y-99153582D01*
X187833000Y-99153580D01*
X187842217Y-99060001D01*
X187833000Y-98966421D01*
X187833000Y-72229579D01*
X187842217Y-72135999D01*
X187817200Y-71882000D01*
X187805436Y-71762555D01*
X187696506Y-71403461D01*
X187519613Y-71072518D01*
X187281556Y-70782444D01*
X187208866Y-70722789D01*
X180319948Y-63833872D01*
X182423000Y-63833872D01*
X182423000Y-64274128D01*
X182508890Y-64705925D01*
X182677369Y-65112669D01*
X182921962Y-65478729D01*
X183233271Y-65790038D01*
X183599331Y-66034631D01*
X184006075Y-66203110D01*
X184437872Y-66289000D01*
X184878128Y-66289000D01*
X185309925Y-66203110D01*
X185716669Y-66034631D01*
X186082729Y-65790038D01*
X186394038Y-65478729D01*
X186638631Y-65112669D01*
X186807110Y-64705925D01*
X186893000Y-64274128D01*
X186893000Y-63833872D01*
X186807110Y-63402075D01*
X186638631Y-62995331D01*
X186394038Y-62629271D01*
X186082729Y-62317962D01*
X185716669Y-62073369D01*
X185309925Y-61904890D01*
X184878128Y-61819000D01*
X184437872Y-61819000D01*
X184006075Y-61904890D01*
X183599331Y-62073369D01*
X183233271Y-62317962D01*
X182921962Y-62629271D01*
X182677369Y-62995331D01*
X182508890Y-63402075D01*
X182423000Y-63833872D01*
X180319948Y-63833872D01*
X178705220Y-62219145D01*
X178645556Y-62146444D01*
X178355482Y-61908387D01*
X178024539Y-61731494D01*
X177665445Y-61622564D01*
X177385582Y-61595000D01*
X177385580Y-61595000D01*
X177292000Y-61585783D01*
X177198420Y-61595000D01*
X101693579Y-61595000D01*
X101599999Y-61585783D01*
X101506419Y-61595000D01*
X101506418Y-61595000D01*
X101226555Y-61622564D01*
X100867461Y-61731494D01*
X100713410Y-61813836D01*
X100536517Y-61908387D01*
X100357411Y-62055376D01*
X100246444Y-62146444D01*
X100186789Y-62219134D01*
X91937140Y-70468785D01*
X91864445Y-70528444D01*
X91771519Y-70641675D01*
X91626387Y-70818518D01*
X91449495Y-71149461D01*
X91340565Y-71508555D01*
X91303783Y-71882000D01*
X89633000Y-71882000D01*
X89633000Y-63833872D01*
X90983000Y-63833872D01*
X90983000Y-64274128D01*
X91068890Y-64705925D01*
X91237369Y-65112669D01*
X91481962Y-65478729D01*
X91793271Y-65790038D01*
X92159331Y-66034631D01*
X92566075Y-66203110D01*
X92997872Y-66289000D01*
X93438128Y-66289000D01*
X93869925Y-66203110D01*
X94276669Y-66034631D01*
X94642729Y-65790038D01*
X94954038Y-65478729D01*
X95198631Y-65112669D01*
X95367110Y-64705925D01*
X95453000Y-64274128D01*
X95453000Y-63833872D01*
X95367110Y-63402075D01*
X95198631Y-62995331D01*
X94954038Y-62629271D01*
X94642729Y-62317962D01*
X94276669Y-62073369D01*
X93869925Y-61904890D01*
X93438128Y-61819000D01*
X92997872Y-61819000D01*
X92566075Y-61904890D01*
X92159331Y-62073369D01*
X91793271Y-62317962D01*
X91481962Y-62629271D01*
X91237369Y-62995331D01*
X91068890Y-63402075D01*
X90983000Y-63833872D01*
X89633000Y-63833872D01*
X89633000Y-60509000D01*
X188263000Y-60509000D01*
X188263001Y-146139000D01*
M02*
