M48
; DRILL file {KiCad (5.1.5-0-10_14)} date 2020 June 13, Saturday 17:23:32
; FORMAT={-:-/ absolute / inch / decimal}
; #@! TF.CreationDate,2020-06-13T17:23:32+02:00
; #@! TF.GenerationSoftware,Kicad,Pcbnew,(5.1.5-0-10_14)
; #@! TF.FileFunction,Plated,1,2,PTH
FMAT,2
INCH
T1C0.0118
T2C0.0157
T3C0.0315
T4C0.0350
T5C0.0394
T6C0.0472
T7C0.0512
T8C0.0591
%
G90
G05
T1
X6.3809Y-3.4188
X6.3809Y-3.47
X6.3809Y-3.5212
X6.451Y-3.4188
X6.451Y-3.47
X6.451Y-3.5212
X6.5211Y-3.4188
X6.5211Y-3.47
X6.5211Y-3.5212
X6.5912Y-3.4188
X6.5912Y-3.47
X6.5912Y-3.5212
X6.6613Y-3.4188
X6.6613Y-3.47
X6.6613Y-3.5212
X6.7313Y-3.4188
X6.7313Y-3.47
X6.7313Y-3.5212
T2
X4.42Y-2.64
X4.475Y-4.975
X4.8Y-5.075
X5.225Y-4.875
X5.3Y-4.925
X5.4Y-5.0836
X5.4536Y-4.65
X5.5027Y-4.7446
X5.5306Y-4.7725
X5.55Y-4.15
X5.55Y-4.225
X5.5894Y-4.15
X5.5894Y-4.225
X5.6Y-3.75
X5.6291Y-4.8709
X5.675Y-4.075
X5.6857Y-4.5118
X5.85Y-4.05
X5.8712Y-4.0
X5.872Y-4.2734
X5.872Y-4.5293
X5.95Y-3.7
X5.95Y-3.75
X5.95Y-4.25
X5.9894Y-4.25
X6.0098Y-4.549
X6.05Y-4.325
X6.0644Y-3.9
X6.075Y-3.825
X6.075Y-4.475
X6.075Y-4.55
X6.1458Y-4.4659
X6.19Y-4.46
X6.225Y-4.15
X6.24Y-4.84
X6.26Y-4.8
X6.26Y-5.0379
X6.275Y-5.2
X6.2964Y-4.6
X6.325Y-5.175
X6.36Y-4.48
X6.3661Y-3.29
X6.37Y-4.81
X6.37Y-4.85
X6.41Y-5.01
X6.47Y-5.133
X6.52Y-5.0
X6.5621Y-3.306
X6.626Y-3.28
X6.805Y-5.0672
X6.8086Y-4.425
X7.4Y-4.525
T3
X3.803Y-5.4
X4.2825Y-3.6625
X4.32Y-3.48
X4.62Y-3.51
X4.85Y-2.675
X4.85Y-3.1
X4.95Y-3.525
X4.975Y-3.1
X5.35Y-2.675
X5.35Y-3.1
X5.475Y-3.1
X5.475Y-3.525
X6.03Y-4.94
X6.11Y-4.94
X6.1961Y-3.09
X6.23Y-3.66
X6.29Y-2.97
X6.4361Y-3.09
X6.4411Y-3.96
X6.4661Y-3.6619
X6.6161Y-3.09
X6.66Y-3.6858
X6.6711Y-3.96
X6.7Y-4.29
X6.77Y-2.95
X6.7911Y-3.09
X6.9211Y-4.0
X6.925Y-4.225
X6.97Y-5.04
X7.02Y-5.41
X7.1061Y-4.0
T4
X5.5638Y-5.51
X5.611Y-5.41
X5.6583Y-5.51
X5.7055Y-5.41
X5.7528Y-5.51
X5.8Y-5.41
X6.1838Y-5.51
X6.231Y-5.41
X6.2783Y-5.51
X6.3255Y-5.41
X6.3728Y-5.51
X6.42Y-5.41
T5
X6.375Y-2.8
X6.475Y-2.8
X6.575Y-2.8
X6.675Y-2.8
X4.44Y-4.43
X4.54Y-4.43
X6.375Y-2.95
X6.475Y-2.95
X6.575Y-2.95
X6.675Y-2.95
X6.375Y-2.7
X6.475Y-2.7
X6.575Y-2.7
X6.675Y-2.7
X3.9225Y-3.395
X3.9225Y-3.495
X6.73Y-4.64
X6.73Y-4.74
X6.375Y-2.6
X6.475Y-2.6
X6.575Y-2.6
X6.675Y-2.6
X4.0425Y-2.935
X4.1425Y-2.935
X4.2425Y-2.935
X4.3425Y-2.935
X4.4425Y-2.935
X4.44Y-4.24
X4.54Y-4.24
T6
X3.82Y-3.77
X4.325Y-4.3499
X4.325Y-4.6051
X4.59Y-4.02
X4.68Y-4.39
X4.77Y-4.21
X5.16Y-4.6
X5.26Y-3.97
X5.26Y-4.1
X5.95Y-3.5
X6.1461Y-3.325
X6.9461Y-3.34
X7.175Y-4.1
X5.35Y-3.35
X5.45Y-3.35
X4.85Y-2.925
X4.95Y-2.925
X7.2Y-4.3
X7.3Y-4.3
X4.85Y-3.35
X4.95Y-3.35
X5.35Y-2.925
X5.45Y-2.925
T7
X4.9142Y-5.3886
X5.0205Y-5.4358
X5.1189Y-5.7035
X5.2803Y-5.2626
X5.3Y-5.55
X4.3642Y-5.3886
X4.4705Y-5.4358
X4.5689Y-5.7035
X4.7303Y-5.2626
X4.75Y-5.55
T8
X3.5954Y-4.795
X3.81Y-4.795
X4.0246Y-4.795
T5
G00X3.9606Y-5.3222
M15
G01X4.0394Y-5.3222
M16
G05
G00X3.9606Y-5.5584
M15
G01X4.0394Y-5.5584
M16
G05
G00X4.185Y-5.4797
M15
G01X4.185Y-5.4009
M16
G05
T0
M30
