G04 #@! TF.GenerationSoftware,KiCad,Pcbnew,(5.1.5-0-10_14)*
G04 #@! TF.CreationDate,2020-06-13T17:23:30+02:00*
G04 #@! TF.ProjectId,Bertha_main,42657274-6861-45f6-9d61-696e2e6b6963,rev?*
G04 #@! TF.SameCoordinates,Original*
G04 #@! TF.FileFunction,Soldermask,Bot*
G04 #@! TF.FilePolarity,Negative*
%FSLAX46Y46*%
G04 Gerber Fmt 4.6, Leading zero omitted, Abs format (unit mm)*
G04 Created by KiCad (PCBNEW (5.1.5-0-10_14)) date 2020-06-13 17:23:30*
%MOMM*%
%LPD*%
G04 APERTURE LIST*
%ADD10C,0.100000*%
G04 APERTURE END LIST*
D10*
G36*
X131089271Y-143730103D02*
G01*
X131145635Y-143735654D01*
X131362600Y-143801470D01*
X131362602Y-143801471D01*
X131562555Y-143908347D01*
X131737818Y-144052182D01*
X131881653Y-144227445D01*
X131988529Y-144427398D01*
X132054346Y-144644366D01*
X132076569Y-144870000D01*
X132054346Y-145095634D01*
X131988529Y-145312602D01*
X131881653Y-145512555D01*
X131737818Y-145687818D01*
X131562555Y-145831653D01*
X131362602Y-145938529D01*
X131362600Y-145938530D01*
X131145635Y-146004346D01*
X131089271Y-146009897D01*
X130976545Y-146021000D01*
X129063455Y-146021000D01*
X128950729Y-146009897D01*
X128894365Y-146004346D01*
X128677400Y-145938530D01*
X128677398Y-145938529D01*
X128477445Y-145831653D01*
X128302182Y-145687818D01*
X128158347Y-145512555D01*
X128051471Y-145312602D01*
X127985654Y-145095634D01*
X127963431Y-144870000D01*
X127985654Y-144644366D01*
X128051471Y-144427398D01*
X128158347Y-144227445D01*
X128302182Y-144052182D01*
X128477445Y-143908347D01*
X128677398Y-143801471D01*
X128677400Y-143801470D01*
X128894365Y-143735654D01*
X128950729Y-143730103D01*
X129063455Y-143719000D01*
X130976545Y-143719000D01*
X131089271Y-143730103D01*
G37*
G36*
X117119271Y-143730103D02*
G01*
X117175635Y-143735654D01*
X117392600Y-143801470D01*
X117392602Y-143801471D01*
X117592555Y-143908347D01*
X117767818Y-144052182D01*
X117911653Y-144227445D01*
X118018529Y-144427398D01*
X118084346Y-144644366D01*
X118106569Y-144870000D01*
X118084346Y-145095634D01*
X118018529Y-145312602D01*
X117911653Y-145512555D01*
X117767818Y-145687818D01*
X117592555Y-145831653D01*
X117392602Y-145938529D01*
X117392600Y-145938530D01*
X117175635Y-146004346D01*
X117119271Y-146009897D01*
X117006545Y-146021000D01*
X115093455Y-146021000D01*
X114980729Y-146009897D01*
X114924365Y-146004346D01*
X114707400Y-145938530D01*
X114707398Y-145938529D01*
X114507445Y-145831653D01*
X114332182Y-145687818D01*
X114188347Y-145512555D01*
X114081471Y-145312602D01*
X114015654Y-145095634D01*
X113993431Y-144870000D01*
X114015654Y-144644366D01*
X114081471Y-144427398D01*
X114188347Y-144227445D01*
X114332182Y-144052182D01*
X114507445Y-143908347D01*
X114707398Y-143801471D01*
X114707400Y-143801470D01*
X114924365Y-143735654D01*
X114980729Y-143730103D01*
X115093455Y-143719000D01*
X117006545Y-143719000D01*
X117119271Y-143730103D01*
G37*
G36*
X150565326Y-141780663D02*
G01*
X150686799Y-141804825D01*
X150915650Y-141899618D01*
X151121610Y-142037236D01*
X151296764Y-142212390D01*
X151434382Y-142418350D01*
X151529175Y-142647201D01*
X151577500Y-142890147D01*
X151577500Y-143137853D01*
X151529175Y-143380799D01*
X151434382Y-143609650D01*
X151296764Y-143815610D01*
X151121610Y-143990764D01*
X150915650Y-144128382D01*
X150686799Y-144223175D01*
X150565326Y-144247338D01*
X150443854Y-144271500D01*
X150196146Y-144271500D01*
X150074674Y-144247338D01*
X149953201Y-144223175D01*
X149724350Y-144128382D01*
X149518390Y-143990764D01*
X149343236Y-143815610D01*
X149205618Y-143609650D01*
X149110825Y-143380799D01*
X149062500Y-143137853D01*
X149062500Y-142890147D01*
X149110825Y-142647201D01*
X149205618Y-142418350D01*
X149343236Y-142212390D01*
X149518390Y-142037236D01*
X149724350Y-141899618D01*
X149953201Y-141804825D01*
X150074674Y-141780663D01*
X150196146Y-141756500D01*
X150443854Y-141756500D01*
X150565326Y-141780663D01*
G37*
G36*
X138565328Y-141780663D02*
G01*
X138686801Y-141804825D01*
X138915652Y-141899618D01*
X139121612Y-142037236D01*
X139296766Y-142212390D01*
X139434384Y-142418350D01*
X139529177Y-142647201D01*
X139577502Y-142890147D01*
X139577502Y-143137853D01*
X139529177Y-143380799D01*
X139434384Y-143609650D01*
X139296766Y-143815610D01*
X139121612Y-143990764D01*
X138915652Y-144128382D01*
X138686801Y-144223175D01*
X138565328Y-144247338D01*
X138443856Y-144271500D01*
X138196148Y-144271500D01*
X138074676Y-144247338D01*
X137953203Y-144223175D01*
X137724352Y-144128382D01*
X137518392Y-143990764D01*
X137343238Y-143815610D01*
X137205620Y-143609650D01*
X137110827Y-143380799D01*
X137062502Y-143137853D01*
X137062502Y-142890147D01*
X137110827Y-142647201D01*
X137205620Y-142418350D01*
X137343238Y-142212390D01*
X137518392Y-142037236D01*
X137724352Y-141899618D01*
X137953203Y-141804825D01*
X138074676Y-141780663D01*
X138196148Y-141756500D01*
X138443856Y-141756500D01*
X138565328Y-141780663D01*
G37*
G36*
X154313328Y-141780663D02*
G01*
X154434801Y-141804825D01*
X154663652Y-141899618D01*
X154869612Y-142037236D01*
X155044766Y-142212390D01*
X155182384Y-142418350D01*
X155277177Y-142647201D01*
X155325502Y-142890147D01*
X155325502Y-143137853D01*
X155277177Y-143380799D01*
X155182384Y-143609650D01*
X155044766Y-143815610D01*
X154869612Y-143990764D01*
X154663652Y-144128382D01*
X154434801Y-144223175D01*
X154313328Y-144247338D01*
X154191856Y-144271500D01*
X153944148Y-144271500D01*
X153822676Y-144247338D01*
X153701203Y-144223175D01*
X153472352Y-144128382D01*
X153266392Y-143990764D01*
X153091238Y-143815610D01*
X152953620Y-143609650D01*
X152858827Y-143380799D01*
X152810502Y-143137853D01*
X152810502Y-142890147D01*
X152858827Y-142647201D01*
X152953620Y-142418350D01*
X153091238Y-142212390D01*
X153266392Y-142037236D01*
X153472352Y-141899618D01*
X153701203Y-141804825D01*
X153822676Y-141780663D01*
X153944148Y-141756500D01*
X154191856Y-141756500D01*
X154313328Y-141780663D01*
G37*
G36*
X166313326Y-141780663D02*
G01*
X166434799Y-141804825D01*
X166663650Y-141899618D01*
X166869610Y-142037236D01*
X167044764Y-142212390D01*
X167182382Y-142418350D01*
X167277175Y-142647201D01*
X167325500Y-142890147D01*
X167325500Y-143137853D01*
X167277175Y-143380799D01*
X167182382Y-143609650D01*
X167044764Y-143815610D01*
X166869610Y-143990764D01*
X166663650Y-144128382D01*
X166434799Y-144223175D01*
X166313326Y-144247338D01*
X166191854Y-144271500D01*
X165944146Y-144271500D01*
X165822674Y-144247338D01*
X165701201Y-144223175D01*
X165472350Y-144128382D01*
X165266390Y-143990764D01*
X165091236Y-143815610D01*
X164953618Y-143609650D01*
X164858825Y-143380799D01*
X164810500Y-143137853D01*
X164810500Y-142890147D01*
X164858825Y-142647201D01*
X164953618Y-142418350D01*
X165091236Y-142212390D01*
X165266390Y-142037236D01*
X165472350Y-141899618D01*
X165701201Y-141804825D01*
X165822674Y-141780663D01*
X165944146Y-141756500D01*
X166191854Y-141756500D01*
X166313326Y-141780663D01*
G37*
G36*
X185033256Y-140885298D02*
G01*
X185139579Y-140906447D01*
X185440042Y-141030903D01*
X185710451Y-141211585D01*
X185940415Y-141441549D01*
X186121097Y-141711958D01*
X186245553Y-142012421D01*
X186265120Y-142110793D01*
X186309000Y-142331389D01*
X186309000Y-142656611D01*
X186296371Y-142720099D01*
X186245553Y-142975579D01*
X186121097Y-143276042D01*
X185940415Y-143546451D01*
X185710451Y-143776415D01*
X185440042Y-143957097D01*
X185139579Y-144081553D01*
X185033256Y-144102702D01*
X184820611Y-144145000D01*
X184495389Y-144145000D01*
X184282744Y-144102702D01*
X184176421Y-144081553D01*
X183875958Y-143957097D01*
X183605549Y-143776415D01*
X183375585Y-143546451D01*
X183194903Y-143276042D01*
X183070447Y-142975579D01*
X183019629Y-142720099D01*
X183007000Y-142656611D01*
X183007000Y-142331389D01*
X183050880Y-142110793D01*
X183070447Y-142012421D01*
X183194903Y-141711958D01*
X183375585Y-141441549D01*
X183605549Y-141211585D01*
X183875958Y-141030903D01*
X184176421Y-140906447D01*
X184282744Y-140885298D01*
X184495389Y-140843000D01*
X184820611Y-140843000D01*
X185033256Y-140885298D01*
G37*
G36*
X93593256Y-140885298D02*
G01*
X93699579Y-140906447D01*
X94000042Y-141030903D01*
X94270451Y-141211585D01*
X94500415Y-141441549D01*
X94681097Y-141711958D01*
X94805553Y-142012421D01*
X94825120Y-142110793D01*
X94869000Y-142331389D01*
X94869000Y-142656611D01*
X94856371Y-142720099D01*
X94805553Y-142975579D01*
X94681097Y-143276042D01*
X94500415Y-143546451D01*
X94270451Y-143776415D01*
X94000042Y-143957097D01*
X93699579Y-144081553D01*
X93593256Y-144102702D01*
X93380611Y-144145000D01*
X93055389Y-144145000D01*
X92842744Y-144102702D01*
X92736421Y-144081553D01*
X92435958Y-143957097D01*
X92165549Y-143776415D01*
X91935585Y-143546451D01*
X91754903Y-143276042D01*
X91630447Y-142975579D01*
X91579629Y-142720099D01*
X91567000Y-142656611D01*
X91567000Y-142331389D01*
X91610880Y-142110793D01*
X91630447Y-142012421D01*
X91754903Y-141711958D01*
X91935585Y-141441549D01*
X92165549Y-141211585D01*
X92435958Y-141030903D01*
X92736421Y-140906447D01*
X92842744Y-140885298D01*
X93055389Y-140843000D01*
X93380611Y-140843000D01*
X93593256Y-140885298D01*
G37*
G36*
X121801000Y-143021000D02*
G01*
X119499000Y-143021000D01*
X119499000Y-138919000D01*
X121801000Y-138919000D01*
X121801000Y-143021000D01*
G37*
G36*
X135771000Y-143021000D02*
G01*
X133469000Y-143021000D01*
X133469000Y-138919000D01*
X135771000Y-138919000D01*
X135771000Y-143021000D01*
G37*
G36*
X102826979Y-139647293D02*
G01*
X102960625Y-139687834D01*
X103083784Y-139753664D01*
X103191740Y-139842260D01*
X103280336Y-139950216D01*
X103346166Y-140073375D01*
X103386707Y-140207021D01*
X103401000Y-140352140D01*
X103401000Y-142015860D01*
X103386707Y-142160979D01*
X103346166Y-142294625D01*
X103280336Y-142417784D01*
X103191740Y-142525740D01*
X103083784Y-142614336D01*
X102960625Y-142680166D01*
X102826979Y-142720707D01*
X102681860Y-142735000D01*
X100518140Y-142735000D01*
X100373021Y-142720707D01*
X100239375Y-142680166D01*
X100116216Y-142614336D01*
X100008260Y-142525740D01*
X99919664Y-142417784D01*
X99853834Y-142294625D01*
X99813293Y-142160979D01*
X99799000Y-142015860D01*
X99799000Y-140352140D01*
X99813293Y-140207021D01*
X99853834Y-140073375D01*
X99919664Y-139950216D01*
X100008260Y-139842260D01*
X100116216Y-139753664D01*
X100239375Y-139687834D01*
X100373021Y-139647293D01*
X100518140Y-139633000D01*
X102681860Y-139633000D01*
X102826979Y-139647293D01*
G37*
G36*
X172818721Y-141584174D02*
G01*
X172918995Y-141625709D01*
X172918996Y-141625710D01*
X173009242Y-141686010D01*
X173085990Y-141762758D01*
X173085991Y-141762760D01*
X173146291Y-141853005D01*
X173187826Y-141953279D01*
X173209000Y-142059730D01*
X173209000Y-142168270D01*
X173187826Y-142274721D01*
X173146291Y-142374995D01*
X173146290Y-142374996D01*
X173085990Y-142465242D01*
X173009242Y-142541990D01*
X172963812Y-142572345D01*
X172918995Y-142602291D01*
X172818721Y-142643826D01*
X172712270Y-142665000D01*
X172603730Y-142665000D01*
X172497279Y-142643826D01*
X172397005Y-142602291D01*
X172352188Y-142572345D01*
X172306758Y-142541990D01*
X172230010Y-142465242D01*
X172169710Y-142374996D01*
X172169709Y-142374995D01*
X172128174Y-142274721D01*
X172107000Y-142168270D01*
X172107000Y-142059730D01*
X172128174Y-141953279D01*
X172169709Y-141853005D01*
X172230009Y-141762760D01*
X172230010Y-141762758D01*
X172306758Y-141686010D01*
X172397004Y-141625710D01*
X172397005Y-141625709D01*
X172497279Y-141584174D01*
X172603730Y-141563000D01*
X172712270Y-141563000D01*
X172818721Y-141584174D01*
G37*
G36*
X177218721Y-141584174D02*
G01*
X177318995Y-141625709D01*
X177318996Y-141625710D01*
X177409242Y-141686010D01*
X177485990Y-141762758D01*
X177485991Y-141762760D01*
X177546291Y-141853005D01*
X177587826Y-141953279D01*
X177609000Y-142059730D01*
X177609000Y-142168270D01*
X177587826Y-142274721D01*
X177546291Y-142374995D01*
X177546290Y-142374996D01*
X177485990Y-142465242D01*
X177409242Y-142541990D01*
X177363812Y-142572345D01*
X177318995Y-142602291D01*
X177218721Y-142643826D01*
X177112270Y-142665000D01*
X177003730Y-142665000D01*
X176897279Y-142643826D01*
X176797005Y-142602291D01*
X176752188Y-142572345D01*
X176706758Y-142541990D01*
X176630010Y-142465242D01*
X176569710Y-142374996D01*
X176569709Y-142374995D01*
X176528174Y-142274721D01*
X176507000Y-142168270D01*
X176507000Y-142059730D01*
X176528174Y-141953279D01*
X176569709Y-141853005D01*
X176630009Y-141762760D01*
X176630010Y-141762758D01*
X176706758Y-141686010D01*
X176797004Y-141625710D01*
X176797005Y-141625709D01*
X176897279Y-141584174D01*
X177003730Y-141563000D01*
X177112270Y-141563000D01*
X177218721Y-141584174D01*
G37*
G36*
X143814425Y-139208599D02*
G01*
X143938621Y-139233302D01*
X144075022Y-139289801D01*
X144197779Y-139371825D01*
X144302175Y-139476221D01*
X144384199Y-139598978D01*
X144440698Y-139735379D01*
X144469500Y-139880181D01*
X144469500Y-140027819D01*
X144440698Y-140172621D01*
X144384199Y-140309022D01*
X144302175Y-140431779D01*
X144197779Y-140536175D01*
X144075022Y-140618199D01*
X143938621Y-140674698D01*
X143814425Y-140699401D01*
X143793820Y-140703500D01*
X143646180Y-140703500D01*
X143625575Y-140699401D01*
X143501379Y-140674698D01*
X143364978Y-140618199D01*
X143242221Y-140536175D01*
X143137825Y-140431779D01*
X143055801Y-140309022D01*
X142999302Y-140172621D01*
X142970500Y-140027819D01*
X142970500Y-139880181D01*
X142999302Y-139735379D01*
X143055801Y-139598978D01*
X143137825Y-139476221D01*
X143242221Y-139371825D01*
X143364978Y-139289801D01*
X143501379Y-139233302D01*
X143625575Y-139208599D01*
X143646180Y-139204500D01*
X143793820Y-139204500D01*
X143814425Y-139208599D01*
G37*
G36*
X161962425Y-139208599D02*
G01*
X162086621Y-139233302D01*
X162223022Y-139289801D01*
X162345779Y-139371825D01*
X162450175Y-139476221D01*
X162532199Y-139598978D01*
X162588698Y-139735379D01*
X162617500Y-139880181D01*
X162617500Y-140027819D01*
X162588698Y-140172621D01*
X162532199Y-140309022D01*
X162450175Y-140431779D01*
X162345779Y-140536175D01*
X162223022Y-140618199D01*
X162086621Y-140674698D01*
X161962425Y-140699401D01*
X161941820Y-140703500D01*
X161794180Y-140703500D01*
X161773575Y-140699401D01*
X161649379Y-140674698D01*
X161512978Y-140618199D01*
X161390221Y-140536175D01*
X161285825Y-140431779D01*
X161203801Y-140309022D01*
X161147302Y-140172621D01*
X161118500Y-140027819D01*
X161118500Y-139880181D01*
X161147302Y-139735379D01*
X161203801Y-139598978D01*
X161285825Y-139476221D01*
X161390221Y-139371825D01*
X161512978Y-139289801D01*
X161649379Y-139233302D01*
X161773575Y-139208599D01*
X161794180Y-139204500D01*
X161941820Y-139204500D01*
X161962425Y-139208599D01*
G37*
G36*
X159562425Y-139208599D02*
G01*
X159686621Y-139233302D01*
X159823022Y-139289801D01*
X159945779Y-139371825D01*
X160050175Y-139476221D01*
X160132199Y-139598978D01*
X160188698Y-139735379D01*
X160217500Y-139880181D01*
X160217500Y-140027819D01*
X160188698Y-140172621D01*
X160132199Y-140309022D01*
X160050175Y-140431779D01*
X159945779Y-140536175D01*
X159823022Y-140618199D01*
X159686621Y-140674698D01*
X159562425Y-140699401D01*
X159541820Y-140703500D01*
X159394180Y-140703500D01*
X159373575Y-140699401D01*
X159249379Y-140674698D01*
X159112978Y-140618199D01*
X158990221Y-140536175D01*
X158885825Y-140431779D01*
X158803801Y-140309022D01*
X158747302Y-140172621D01*
X158718500Y-140027819D01*
X158718500Y-139880181D01*
X158747302Y-139735379D01*
X158803801Y-139598978D01*
X158885825Y-139476221D01*
X158990221Y-139371825D01*
X159112978Y-139289801D01*
X159249379Y-139233302D01*
X159373575Y-139208599D01*
X159394180Y-139204500D01*
X159541820Y-139204500D01*
X159562425Y-139208599D01*
G37*
G36*
X157162424Y-139208599D02*
G01*
X157286620Y-139233302D01*
X157423021Y-139289801D01*
X157545778Y-139371825D01*
X157650174Y-139476221D01*
X157732198Y-139598978D01*
X157788697Y-139735379D01*
X157817499Y-139880181D01*
X157817499Y-140027819D01*
X157788697Y-140172621D01*
X157732198Y-140309022D01*
X157650174Y-140431779D01*
X157545778Y-140536175D01*
X157423021Y-140618199D01*
X157286620Y-140674698D01*
X157162424Y-140699401D01*
X157141819Y-140703500D01*
X156994179Y-140703500D01*
X156973574Y-140699401D01*
X156849378Y-140674698D01*
X156712977Y-140618199D01*
X156590220Y-140536175D01*
X156485824Y-140431779D01*
X156403800Y-140309022D01*
X156347301Y-140172621D01*
X156318499Y-140027819D01*
X156318499Y-139880181D01*
X156347301Y-139735379D01*
X156403800Y-139598978D01*
X156485824Y-139476221D01*
X156590220Y-139371825D01*
X156712977Y-139289801D01*
X156849378Y-139233302D01*
X156973574Y-139208599D01*
X156994179Y-139204500D01*
X157141819Y-139204500D01*
X157162424Y-139208599D01*
G37*
G36*
X141414424Y-139208599D02*
G01*
X141538620Y-139233302D01*
X141675021Y-139289801D01*
X141797778Y-139371825D01*
X141902174Y-139476221D01*
X141984198Y-139598978D01*
X142040697Y-139735379D01*
X142069499Y-139880181D01*
X142069499Y-140027819D01*
X142040697Y-140172621D01*
X141984198Y-140309022D01*
X141902174Y-140431779D01*
X141797778Y-140536175D01*
X141675021Y-140618199D01*
X141538620Y-140674698D01*
X141414424Y-140699401D01*
X141393819Y-140703500D01*
X141246179Y-140703500D01*
X141225574Y-140699401D01*
X141101378Y-140674698D01*
X140964977Y-140618199D01*
X140842220Y-140536175D01*
X140737824Y-140431779D01*
X140655800Y-140309022D01*
X140599301Y-140172621D01*
X140570499Y-140027819D01*
X140570499Y-139880181D01*
X140599301Y-139735379D01*
X140655800Y-139598978D01*
X140737824Y-139476221D01*
X140842220Y-139371825D01*
X140964977Y-139289801D01*
X141101378Y-139233302D01*
X141225574Y-139208599D01*
X141246179Y-139204500D01*
X141393819Y-139204500D01*
X141414424Y-139208599D01*
G37*
G36*
X146214425Y-139208599D02*
G01*
X146338621Y-139233302D01*
X146475022Y-139289801D01*
X146597779Y-139371825D01*
X146702175Y-139476221D01*
X146784199Y-139598978D01*
X146840698Y-139735379D01*
X146869500Y-139880181D01*
X146869500Y-140027819D01*
X146840698Y-140172621D01*
X146784199Y-140309022D01*
X146702175Y-140431779D01*
X146597779Y-140536175D01*
X146475022Y-140618199D01*
X146338621Y-140674698D01*
X146214425Y-140699401D01*
X146193820Y-140703500D01*
X146046180Y-140703500D01*
X146025575Y-140699401D01*
X145901379Y-140674698D01*
X145764978Y-140618199D01*
X145642221Y-140536175D01*
X145537825Y-140431779D01*
X145455801Y-140309022D01*
X145399302Y-140172621D01*
X145370500Y-140027819D01*
X145370500Y-139880181D01*
X145399302Y-139735379D01*
X145455801Y-139598978D01*
X145537825Y-139476221D01*
X145642221Y-139371825D01*
X145764978Y-139289801D01*
X145901379Y-139233302D01*
X146025575Y-139208599D01*
X146046180Y-139204500D01*
X146193820Y-139204500D01*
X146214425Y-139208599D01*
G37*
G36*
X127745634Y-136035654D02*
G01*
X127962599Y-136101470D01*
X127962601Y-136101471D01*
X128162553Y-136208347D01*
X128162555Y-136208348D01*
X128162554Y-136208348D01*
X128337818Y-136352182D01*
X128402652Y-136431183D01*
X128481653Y-136527445D01*
X128570304Y-136693302D01*
X128588530Y-136727400D01*
X128654346Y-136944365D01*
X128671000Y-137113457D01*
X128671000Y-139026543D01*
X128654346Y-139195635D01*
X128619543Y-139310366D01*
X128588529Y-139412602D01*
X128481653Y-139612555D01*
X128337818Y-139787818D01*
X128162555Y-139931653D01*
X127982639Y-140027819D01*
X127962600Y-140038530D01*
X127745635Y-140104346D01*
X127520000Y-140126569D01*
X127294366Y-140104346D01*
X127077401Y-140038530D01*
X127057362Y-140027819D01*
X126877446Y-139931653D01*
X126702183Y-139787818D01*
X126558348Y-139612555D01*
X126451472Y-139412602D01*
X126420459Y-139310366D01*
X126385655Y-139195635D01*
X126369000Y-139026543D01*
X126369000Y-137113458D01*
X126385654Y-136944366D01*
X126451470Y-136727401D01*
X126494579Y-136646750D01*
X126558347Y-136527447D01*
X126620637Y-136451546D01*
X126702182Y-136352182D01*
X126781183Y-136287348D01*
X126877445Y-136208347D01*
X127077398Y-136101471D01*
X127077400Y-136101470D01*
X127294365Y-136035654D01*
X127520000Y-136013431D01*
X127745634Y-136035654D01*
G37*
G36*
X113775634Y-136035654D02*
G01*
X113992599Y-136101470D01*
X113992601Y-136101471D01*
X114192553Y-136208347D01*
X114192555Y-136208348D01*
X114192554Y-136208348D01*
X114367818Y-136352182D01*
X114432652Y-136431183D01*
X114511653Y-136527445D01*
X114600304Y-136693302D01*
X114618530Y-136727400D01*
X114684346Y-136944365D01*
X114701000Y-137113457D01*
X114701000Y-139026543D01*
X114684346Y-139195635D01*
X114649543Y-139310366D01*
X114618529Y-139412602D01*
X114511653Y-139612555D01*
X114367818Y-139787818D01*
X114192555Y-139931653D01*
X114012639Y-140027819D01*
X113992600Y-140038530D01*
X113775635Y-140104346D01*
X113550000Y-140126569D01*
X113324366Y-140104346D01*
X113107401Y-140038530D01*
X113087362Y-140027819D01*
X112907446Y-139931653D01*
X112732183Y-139787818D01*
X112588348Y-139612555D01*
X112481472Y-139412602D01*
X112450459Y-139310366D01*
X112415655Y-139195635D01*
X112399000Y-139026543D01*
X112399000Y-137113458D01*
X112415654Y-136944366D01*
X112481470Y-136727401D01*
X112524579Y-136646750D01*
X112588347Y-136527447D01*
X112650637Y-136451546D01*
X112732182Y-136352182D01*
X112811183Y-136287348D01*
X112907445Y-136208347D01*
X113107398Y-136101471D01*
X113107400Y-136101470D01*
X113324365Y-136035654D01*
X113550000Y-136013431D01*
X113775634Y-136035654D01*
G37*
G36*
X107426366Y-136399695D02*
G01*
X107583460Y-136447349D01*
X107728231Y-136524731D01*
X107855128Y-136628872D01*
X107959269Y-136755769D01*
X108036651Y-136900540D01*
X108084305Y-137057634D01*
X108101000Y-137227140D01*
X108101000Y-139140860D01*
X108084305Y-139310366D01*
X108036651Y-139467460D01*
X107959269Y-139612231D01*
X107855128Y-139739128D01*
X107728231Y-139843269D01*
X107583460Y-139920651D01*
X107426366Y-139968305D01*
X107256860Y-139985000D01*
X105343140Y-139985000D01*
X105173634Y-139968305D01*
X105016540Y-139920651D01*
X104871769Y-139843269D01*
X104744872Y-139739128D01*
X104640731Y-139612231D01*
X104563349Y-139467460D01*
X104515695Y-139310366D01*
X104499000Y-139140860D01*
X104499000Y-137227140D01*
X104515695Y-137057634D01*
X104563349Y-136900540D01*
X104640731Y-136755769D01*
X104744872Y-136628872D01*
X104871769Y-136524731D01*
X105016540Y-136447349D01*
X105173634Y-136399695D01*
X105343140Y-136383000D01*
X107256860Y-136383000D01*
X107426366Y-136399695D01*
G37*
G36*
X125045634Y-134835654D02*
G01*
X125262599Y-134901470D01*
X125262601Y-134901471D01*
X125462553Y-135008347D01*
X125462555Y-135008348D01*
X125462554Y-135008348D01*
X125637818Y-135152182D01*
X125702652Y-135231183D01*
X125781653Y-135327445D01*
X125888529Y-135527398D01*
X125888530Y-135527400D01*
X125954346Y-135744365D01*
X125971000Y-135913457D01*
X125971000Y-137826543D01*
X125954346Y-137995635D01*
X125912162Y-138134697D01*
X125888529Y-138212602D01*
X125781653Y-138412555D01*
X125637818Y-138587818D01*
X125462555Y-138731653D01*
X125262602Y-138838529D01*
X125262600Y-138838530D01*
X125045635Y-138904346D01*
X124820000Y-138926569D01*
X124594366Y-138904346D01*
X124377401Y-138838530D01*
X124377399Y-138838529D01*
X124177446Y-138731653D01*
X124002183Y-138587818D01*
X123858348Y-138412555D01*
X123751472Y-138212602D01*
X123727840Y-138134697D01*
X123685655Y-137995635D01*
X123669000Y-137826543D01*
X123669000Y-135913458D01*
X123685654Y-135744366D01*
X123751470Y-135527401D01*
X123858348Y-135327446D01*
X124002182Y-135152182D01*
X124081183Y-135087348D01*
X124177445Y-135008347D01*
X124377398Y-134901471D01*
X124377400Y-134901470D01*
X124594365Y-134835654D01*
X124820000Y-134813431D01*
X125045634Y-134835654D01*
G37*
G36*
X111075634Y-134835654D02*
G01*
X111292599Y-134901470D01*
X111292601Y-134901471D01*
X111492553Y-135008347D01*
X111492555Y-135008348D01*
X111492554Y-135008348D01*
X111667818Y-135152182D01*
X111732652Y-135231183D01*
X111811653Y-135327445D01*
X111918529Y-135527398D01*
X111918530Y-135527400D01*
X111984346Y-135744365D01*
X112001000Y-135913457D01*
X112001000Y-137826543D01*
X111984346Y-137995635D01*
X111942162Y-138134697D01*
X111918529Y-138212602D01*
X111811653Y-138412555D01*
X111667818Y-138587818D01*
X111492555Y-138731653D01*
X111292602Y-138838529D01*
X111292600Y-138838530D01*
X111075635Y-138904346D01*
X110850000Y-138926569D01*
X110624366Y-138904346D01*
X110407401Y-138838530D01*
X110407399Y-138838529D01*
X110207446Y-138731653D01*
X110032183Y-138587818D01*
X109888348Y-138412555D01*
X109781472Y-138212602D01*
X109757840Y-138134697D01*
X109715655Y-137995635D01*
X109699000Y-137826543D01*
X109699000Y-135913458D01*
X109715654Y-135744366D01*
X109781470Y-135527401D01*
X109888348Y-135327446D01*
X110032182Y-135152182D01*
X110111183Y-135087348D01*
X110207445Y-135008347D01*
X110407398Y-134901471D01*
X110407400Y-134901470D01*
X110624365Y-134835654D01*
X110850000Y-134813431D01*
X111075634Y-134835654D01*
G37*
G36*
X147414425Y-136668599D02*
G01*
X147538621Y-136693302D01*
X147675022Y-136749801D01*
X147797779Y-136831825D01*
X147902175Y-136936221D01*
X147984199Y-137058978D01*
X148040698Y-137195379D01*
X148069500Y-137340181D01*
X148069500Y-137487819D01*
X148040698Y-137632621D01*
X147984199Y-137769022D01*
X147902175Y-137891779D01*
X147797779Y-137996175D01*
X147675022Y-138078199D01*
X147538621Y-138134698D01*
X147414425Y-138159401D01*
X147393820Y-138163500D01*
X147246180Y-138163500D01*
X147225575Y-138159401D01*
X147101379Y-138134698D01*
X146964978Y-138078199D01*
X146842221Y-137996175D01*
X146737825Y-137891779D01*
X146655801Y-137769022D01*
X146599302Y-137632621D01*
X146570500Y-137487819D01*
X146570500Y-137340181D01*
X146599302Y-137195379D01*
X146655801Y-137058978D01*
X146737825Y-136936221D01*
X146842221Y-136831825D01*
X146964978Y-136749801D01*
X147101379Y-136693302D01*
X147225575Y-136668599D01*
X147246180Y-136664500D01*
X147393820Y-136664500D01*
X147414425Y-136668599D01*
G37*
G36*
X158362424Y-136668599D02*
G01*
X158486620Y-136693302D01*
X158623021Y-136749801D01*
X158745778Y-136831825D01*
X158850174Y-136936221D01*
X158932198Y-137058978D01*
X158988697Y-137195379D01*
X159017499Y-137340181D01*
X159017499Y-137487819D01*
X158988697Y-137632621D01*
X158932198Y-137769022D01*
X158850174Y-137891779D01*
X158745778Y-137996175D01*
X158623021Y-138078199D01*
X158486620Y-138134698D01*
X158362424Y-138159401D01*
X158341819Y-138163500D01*
X158194179Y-138163500D01*
X158173574Y-138159401D01*
X158049378Y-138134698D01*
X157912977Y-138078199D01*
X157790220Y-137996175D01*
X157685824Y-137891779D01*
X157603800Y-137769022D01*
X157547301Y-137632621D01*
X157518499Y-137487819D01*
X157518499Y-137340181D01*
X157547301Y-137195379D01*
X157603800Y-137058978D01*
X157685824Y-136936221D01*
X157790220Y-136831825D01*
X157912977Y-136749801D01*
X158049378Y-136693302D01*
X158173574Y-136668599D01*
X158194179Y-136664500D01*
X158341819Y-136664500D01*
X158362424Y-136668599D01*
G37*
G36*
X145014425Y-136668599D02*
G01*
X145138621Y-136693302D01*
X145275022Y-136749801D01*
X145397779Y-136831825D01*
X145502175Y-136936221D01*
X145584199Y-137058978D01*
X145640698Y-137195379D01*
X145669500Y-137340181D01*
X145669500Y-137487819D01*
X145640698Y-137632621D01*
X145584199Y-137769022D01*
X145502175Y-137891779D01*
X145397779Y-137996175D01*
X145275022Y-138078199D01*
X145138621Y-138134698D01*
X145014425Y-138159401D01*
X144993820Y-138163500D01*
X144846180Y-138163500D01*
X144825575Y-138159401D01*
X144701379Y-138134698D01*
X144564978Y-138078199D01*
X144442221Y-137996175D01*
X144337825Y-137891779D01*
X144255801Y-137769022D01*
X144199302Y-137632621D01*
X144170500Y-137487819D01*
X144170500Y-137340181D01*
X144199302Y-137195379D01*
X144255801Y-137058978D01*
X144337825Y-136936221D01*
X144442221Y-136831825D01*
X144564978Y-136749801D01*
X144701379Y-136693302D01*
X144825575Y-136668599D01*
X144846180Y-136664500D01*
X144993820Y-136664500D01*
X145014425Y-136668599D01*
G37*
G36*
X142614424Y-136668599D02*
G01*
X142738620Y-136693302D01*
X142875021Y-136749801D01*
X142997778Y-136831825D01*
X143102174Y-136936221D01*
X143184198Y-137058978D01*
X143240697Y-137195379D01*
X143269499Y-137340181D01*
X143269499Y-137487819D01*
X143240697Y-137632621D01*
X143184198Y-137769022D01*
X143102174Y-137891779D01*
X142997778Y-137996175D01*
X142875021Y-138078199D01*
X142738620Y-138134698D01*
X142614424Y-138159401D01*
X142593819Y-138163500D01*
X142446179Y-138163500D01*
X142425574Y-138159401D01*
X142301378Y-138134698D01*
X142164977Y-138078199D01*
X142042220Y-137996175D01*
X141937824Y-137891779D01*
X141855800Y-137769022D01*
X141799301Y-137632621D01*
X141770499Y-137487819D01*
X141770499Y-137340181D01*
X141799301Y-137195379D01*
X141855800Y-137058978D01*
X141937824Y-136936221D01*
X142042220Y-136831825D01*
X142164977Y-136749801D01*
X142301378Y-136693302D01*
X142425574Y-136668599D01*
X142446179Y-136664500D01*
X142593819Y-136664500D01*
X142614424Y-136668599D01*
G37*
G36*
X163162425Y-136668599D02*
G01*
X163286621Y-136693302D01*
X163423022Y-136749801D01*
X163545779Y-136831825D01*
X163650175Y-136936221D01*
X163732199Y-137058978D01*
X163788698Y-137195379D01*
X163817500Y-137340181D01*
X163817500Y-137487819D01*
X163788698Y-137632621D01*
X163732199Y-137769022D01*
X163650175Y-137891779D01*
X163545779Y-137996175D01*
X163423022Y-138078199D01*
X163286621Y-138134698D01*
X163162425Y-138159401D01*
X163141820Y-138163500D01*
X162994180Y-138163500D01*
X162973575Y-138159401D01*
X162849379Y-138134698D01*
X162712978Y-138078199D01*
X162590221Y-137996175D01*
X162485825Y-137891779D01*
X162403801Y-137769022D01*
X162347302Y-137632621D01*
X162318500Y-137487819D01*
X162318500Y-137340181D01*
X162347302Y-137195379D01*
X162403801Y-137058978D01*
X162485825Y-136936221D01*
X162590221Y-136831825D01*
X162712978Y-136749801D01*
X162849379Y-136693302D01*
X162973575Y-136668599D01*
X162994180Y-136664500D01*
X163141820Y-136664500D01*
X163162425Y-136668599D01*
G37*
G36*
X160762425Y-136668599D02*
G01*
X160886621Y-136693302D01*
X161023022Y-136749801D01*
X161145779Y-136831825D01*
X161250175Y-136936221D01*
X161332199Y-137058978D01*
X161388698Y-137195379D01*
X161417500Y-137340181D01*
X161417500Y-137487819D01*
X161388698Y-137632621D01*
X161332199Y-137769022D01*
X161250175Y-137891779D01*
X161145779Y-137996175D01*
X161023022Y-138078199D01*
X160886621Y-138134698D01*
X160762425Y-138159401D01*
X160741820Y-138163500D01*
X160594180Y-138163500D01*
X160573575Y-138159401D01*
X160449379Y-138134698D01*
X160312978Y-138078199D01*
X160190221Y-137996175D01*
X160085825Y-137891779D01*
X160003801Y-137769022D01*
X159947302Y-137632621D01*
X159918500Y-137487819D01*
X159918500Y-137340181D01*
X159947302Y-137195379D01*
X160003801Y-137058978D01*
X160085825Y-136936221D01*
X160190221Y-136831825D01*
X160312978Y-136749801D01*
X160449379Y-136693302D01*
X160573575Y-136668599D01*
X160594180Y-136664500D01*
X160741820Y-136664500D01*
X160762425Y-136668599D01*
G37*
G36*
X103401000Y-136985000D02*
G01*
X99799000Y-136985000D01*
X99799000Y-133383000D01*
X103401000Y-133383000D01*
X103401000Y-136985000D01*
G37*
G36*
X135189271Y-132530103D02*
G01*
X135245635Y-132535654D01*
X135462600Y-132601470D01*
X135462602Y-132601471D01*
X135662555Y-132708347D01*
X135837818Y-132852182D01*
X135981653Y-133027445D01*
X136088529Y-133227398D01*
X136154346Y-133444366D01*
X136176569Y-133670000D01*
X136154346Y-133895634D01*
X136088529Y-134112602D01*
X135981653Y-134312555D01*
X135837818Y-134487818D01*
X135662555Y-134631653D01*
X135462602Y-134738529D01*
X135462600Y-134738530D01*
X135245635Y-134804346D01*
X135189271Y-134809897D01*
X135076545Y-134821000D01*
X133163455Y-134821000D01*
X133050729Y-134809897D01*
X132994365Y-134804346D01*
X132777400Y-134738530D01*
X132777398Y-134738529D01*
X132577445Y-134631653D01*
X132402182Y-134487818D01*
X132258347Y-134312555D01*
X132151471Y-134112602D01*
X132085654Y-133895634D01*
X132063431Y-133670000D01*
X132085654Y-133444366D01*
X132151471Y-133227398D01*
X132258347Y-133027445D01*
X132402182Y-132852182D01*
X132577445Y-132708347D01*
X132777398Y-132601471D01*
X132777400Y-132601470D01*
X132994365Y-132535654D01*
X133050729Y-132530103D01*
X133163455Y-132519000D01*
X135076545Y-132519000D01*
X135189271Y-132530103D01*
G37*
G36*
X121219271Y-132530103D02*
G01*
X121275635Y-132535654D01*
X121492600Y-132601470D01*
X121492602Y-132601471D01*
X121692555Y-132708347D01*
X121867818Y-132852182D01*
X122011653Y-133027445D01*
X122118529Y-133227398D01*
X122184346Y-133444366D01*
X122206569Y-133670000D01*
X122184346Y-133895634D01*
X122118529Y-134112602D01*
X122011653Y-134312555D01*
X121867818Y-134487818D01*
X121692555Y-134631653D01*
X121492602Y-134738529D01*
X121492600Y-134738530D01*
X121275635Y-134804346D01*
X121219271Y-134809897D01*
X121106545Y-134821000D01*
X119193455Y-134821000D01*
X119080729Y-134809897D01*
X119024365Y-134804346D01*
X118807400Y-134738530D01*
X118807398Y-134738529D01*
X118607445Y-134631653D01*
X118432182Y-134487818D01*
X118288347Y-134312555D01*
X118181471Y-134112602D01*
X118115654Y-133895634D01*
X118093431Y-133670000D01*
X118115654Y-133444366D01*
X118181471Y-133227398D01*
X118288347Y-133027445D01*
X118432182Y-132852182D01*
X118607445Y-132708347D01*
X118807398Y-132601471D01*
X118807400Y-132601470D01*
X119024365Y-132535654D01*
X119080729Y-132530103D01*
X119193455Y-132519000D01*
X121106545Y-132519000D01*
X121219271Y-132530103D01*
G37*
G36*
X161904578Y-125956197D02*
G01*
X161957350Y-125966694D01*
X162056770Y-126007875D01*
X162146246Y-126067661D01*
X162222339Y-126143754D01*
X162282125Y-126233230D01*
X162323306Y-126332650D01*
X162344300Y-126438194D01*
X162344300Y-126545806D01*
X162323306Y-126651350D01*
X162282125Y-126750770D01*
X162222339Y-126840246D01*
X162146246Y-126916339D01*
X162056770Y-126976125D01*
X161957350Y-127017306D01*
X161904578Y-127027803D01*
X161851807Y-127038300D01*
X161744193Y-127038300D01*
X161691422Y-127027803D01*
X161638650Y-127017306D01*
X161539230Y-126976125D01*
X161449754Y-126916339D01*
X161373661Y-126840246D01*
X161313875Y-126750770D01*
X161272694Y-126651350D01*
X161251700Y-126545806D01*
X161251700Y-126438194D01*
X161272694Y-126332650D01*
X161313875Y-126233230D01*
X161373661Y-126143754D01*
X161449754Y-126067661D01*
X161539230Y-126007875D01*
X161638650Y-125966694D01*
X161691422Y-125956197D01*
X161744193Y-125945700D01*
X161851807Y-125945700D01*
X161904578Y-125956197D01*
G37*
G36*
X166984578Y-124940197D02*
G01*
X167037350Y-124950694D01*
X167136770Y-124991875D01*
X167226246Y-125051661D01*
X167302339Y-125127754D01*
X167362125Y-125217230D01*
X167403306Y-125316650D01*
X167424300Y-125422194D01*
X167424300Y-125529806D01*
X167403306Y-125635350D01*
X167362125Y-125734770D01*
X167302339Y-125824246D01*
X167226246Y-125900339D01*
X167136770Y-125960125D01*
X167037350Y-126001306D01*
X167004325Y-126007875D01*
X166931807Y-126022300D01*
X166824193Y-126022300D01*
X166751675Y-126007875D01*
X166718650Y-126001306D01*
X166619230Y-125960125D01*
X166529754Y-125900339D01*
X166453661Y-125824246D01*
X166393875Y-125734770D01*
X166352694Y-125635350D01*
X166331700Y-125529806D01*
X166331700Y-125422194D01*
X166352694Y-125316650D01*
X166393875Y-125217230D01*
X166453661Y-125127754D01*
X166529754Y-125051661D01*
X166619230Y-124991875D01*
X166718650Y-124950694D01*
X166771422Y-124940197D01*
X166824193Y-124929700D01*
X166931807Y-124929700D01*
X166984578Y-124940197D01*
G37*
G36*
X161904578Y-123924197D02*
G01*
X161957350Y-123934694D01*
X162056770Y-123975875D01*
X162146246Y-124035661D01*
X162222339Y-124111754D01*
X162282125Y-124201230D01*
X162323306Y-124300650D01*
X162344300Y-124406194D01*
X162344300Y-124513806D01*
X162323306Y-124619350D01*
X162282125Y-124718770D01*
X162222339Y-124808246D01*
X162146246Y-124884339D01*
X162056770Y-124944125D01*
X161957350Y-124985306D01*
X161924325Y-124991875D01*
X161851807Y-125006300D01*
X161744193Y-125006300D01*
X161671675Y-124991875D01*
X161638650Y-124985306D01*
X161539230Y-124944125D01*
X161449754Y-124884339D01*
X161373661Y-124808246D01*
X161313875Y-124718770D01*
X161272694Y-124619350D01*
X161251700Y-124513806D01*
X161251700Y-124406194D01*
X161272694Y-124300650D01*
X161313875Y-124201230D01*
X161373661Y-124111754D01*
X161449754Y-124035661D01*
X161539230Y-123975875D01*
X161638650Y-123934694D01*
X161691422Y-123924197D01*
X161744193Y-123913700D01*
X161851807Y-123913700D01*
X161904578Y-123924197D01*
G37*
G36*
X102479039Y-119510825D02*
G01*
X102724279Y-119585218D01*
X102950293Y-119706025D01*
X103148396Y-119868604D01*
X103310975Y-120066706D01*
X103431782Y-120292720D01*
X103506175Y-120537960D01*
X103525000Y-120729095D01*
X103525000Y-122856905D01*
X103506175Y-123048040D01*
X103431782Y-123293280D01*
X103310975Y-123519294D01*
X103268624Y-123570899D01*
X103148397Y-123717397D01*
X103001899Y-123837624D01*
X102950294Y-123879975D01*
X102724280Y-124000782D01*
X102479040Y-124075175D01*
X102224000Y-124100294D01*
X101968961Y-124075175D01*
X101723721Y-124000782D01*
X101497707Y-123879975D01*
X101446102Y-123837624D01*
X101299604Y-123717397D01*
X101179377Y-123570899D01*
X101137026Y-123519294D01*
X101016219Y-123293280D01*
X100941826Y-123048040D01*
X100923001Y-122856905D01*
X100923000Y-120729096D01*
X100941825Y-120537961D01*
X101016218Y-120292721D01*
X101137025Y-120066707D01*
X101299604Y-119868604D01*
X101497706Y-119706025D01*
X101497705Y-119706025D01*
X101497707Y-119706024D01*
X101723718Y-119585219D01*
X101723720Y-119585218D01*
X101968960Y-119510825D01*
X102224000Y-119485706D01*
X102479039Y-119510825D01*
G37*
G36*
X97029039Y-119510825D02*
G01*
X97274279Y-119585218D01*
X97500293Y-119706025D01*
X97698396Y-119868604D01*
X97860975Y-120066706D01*
X97981782Y-120292720D01*
X98056175Y-120537960D01*
X98075000Y-120729095D01*
X98075000Y-122856905D01*
X98056175Y-123048040D01*
X97981782Y-123293280D01*
X97860975Y-123519294D01*
X97818624Y-123570899D01*
X97698397Y-123717397D01*
X97551899Y-123837624D01*
X97500294Y-123879975D01*
X97274280Y-124000782D01*
X97029040Y-124075175D01*
X96774000Y-124100294D01*
X96518961Y-124075175D01*
X96273721Y-124000782D01*
X96047707Y-123879975D01*
X95996102Y-123837624D01*
X95849604Y-123717397D01*
X95729377Y-123570899D01*
X95687026Y-123519294D01*
X95566219Y-123293280D01*
X95491826Y-123048040D01*
X95473001Y-122856905D01*
X95473000Y-120729096D01*
X95491825Y-120537961D01*
X95566218Y-120292721D01*
X95687025Y-120066707D01*
X95849604Y-119868604D01*
X96047706Y-119706025D01*
X96047705Y-119706025D01*
X96047707Y-119706024D01*
X96273718Y-119585219D01*
X96273720Y-119585218D01*
X96518960Y-119510825D01*
X96774000Y-119485706D01*
X97029039Y-119510825D01*
G37*
G36*
X92625000Y-124094000D02*
G01*
X90023000Y-124094000D01*
X90023000Y-119492000D01*
X92625000Y-119492000D01*
X92625000Y-124094000D01*
G37*
G36*
X171843000Y-121297000D02*
G01*
X170041000Y-121297000D01*
X170041000Y-119495000D01*
X171843000Y-119495000D01*
X171843000Y-121297000D01*
G37*
G36*
X171055512Y-116959927D02*
G01*
X171204812Y-116989624D01*
X171368784Y-117057544D01*
X171516354Y-117156147D01*
X171641853Y-117281646D01*
X171740456Y-117429216D01*
X171808376Y-117593188D01*
X171843000Y-117767259D01*
X171843000Y-117944741D01*
X171808376Y-118118812D01*
X171740456Y-118282784D01*
X171641853Y-118430354D01*
X171516354Y-118555853D01*
X171368784Y-118654456D01*
X171204812Y-118722376D01*
X171055512Y-118752073D01*
X171030742Y-118757000D01*
X170853258Y-118757000D01*
X170828488Y-118752073D01*
X170679188Y-118722376D01*
X170515216Y-118654456D01*
X170367646Y-118555853D01*
X170242147Y-118430354D01*
X170143544Y-118282784D01*
X170075624Y-118118812D01*
X170041000Y-117944741D01*
X170041000Y-117767259D01*
X170075624Y-117593188D01*
X170143544Y-117429216D01*
X170242147Y-117281646D01*
X170367646Y-117156147D01*
X170515216Y-117057544D01*
X170679188Y-116989624D01*
X170828488Y-116959927D01*
X170853258Y-116955000D01*
X171030742Y-116955000D01*
X171055512Y-116959927D01*
G37*
G36*
X113677000Y-113423000D02*
G01*
X111875000Y-113423000D01*
X111875000Y-111621000D01*
X113677000Y-111621000D01*
X113677000Y-113423000D01*
G37*
G36*
X115429512Y-111625927D02*
G01*
X115578812Y-111655624D01*
X115742784Y-111723544D01*
X115890354Y-111822147D01*
X116015853Y-111947646D01*
X116114456Y-112095216D01*
X116182376Y-112259188D01*
X116217000Y-112433259D01*
X116217000Y-112610741D01*
X116182376Y-112784812D01*
X116114456Y-112948784D01*
X116015853Y-113096354D01*
X115890354Y-113221853D01*
X115742784Y-113320456D01*
X115578812Y-113388376D01*
X115429512Y-113418073D01*
X115404742Y-113423000D01*
X115227258Y-113423000D01*
X115202488Y-113418073D01*
X115053188Y-113388376D01*
X114889216Y-113320456D01*
X114741646Y-113221853D01*
X114616147Y-113096354D01*
X114517544Y-112948784D01*
X114449624Y-112784812D01*
X114415000Y-112610741D01*
X114415000Y-112433259D01*
X114449624Y-112259188D01*
X114517544Y-112095216D01*
X114616147Y-111947646D01*
X114741646Y-111822147D01*
X114889216Y-111723544D01*
X115053188Y-111655624D01*
X115202488Y-111625927D01*
X115227258Y-111621000D01*
X115404742Y-111621000D01*
X115429512Y-111625927D01*
G37*
G36*
X183060548Y-108082326D02*
G01*
X183234157Y-108134990D01*
X183394156Y-108220511D01*
X183408612Y-108232375D01*
X183534397Y-108335603D01*
X183583841Y-108395852D01*
X183649489Y-108475844D01*
X183735010Y-108635843D01*
X183787674Y-108809452D01*
X183801000Y-108944757D01*
X183801000Y-109495244D01*
X183787674Y-109630548D01*
X183735010Y-109804157D01*
X183649489Y-109964156D01*
X183613729Y-110007729D01*
X183534397Y-110104397D01*
X183394155Y-110219489D01*
X183234156Y-110305010D01*
X183060547Y-110357674D01*
X182880000Y-110375456D01*
X182699452Y-110357674D01*
X182525843Y-110305010D01*
X182365844Y-110219489D01*
X182322271Y-110183729D01*
X182225603Y-110104397D01*
X182110511Y-109964155D01*
X182024991Y-109804158D01*
X182024990Y-109804156D01*
X181972326Y-109630547D01*
X181959000Y-109495243D01*
X181959000Y-108944756D01*
X181972326Y-108809452D01*
X182024990Y-108635843D01*
X182110512Y-108475844D01*
X182176159Y-108395853D01*
X182225604Y-108335603D01*
X182351389Y-108232375D01*
X182365845Y-108220511D01*
X182525844Y-108134990D01*
X182699453Y-108082326D01*
X182880000Y-108064544D01*
X183060548Y-108082326D01*
G37*
G36*
X186199561Y-108072966D02*
G01*
X186232383Y-108082923D01*
X186262632Y-108099092D01*
X186289148Y-108120852D01*
X186310908Y-108147368D01*
X186327077Y-108177617D01*
X186337034Y-108210439D01*
X186341000Y-108250713D01*
X186341000Y-110189287D01*
X186337034Y-110229561D01*
X186327077Y-110262383D01*
X186310908Y-110292632D01*
X186289148Y-110319148D01*
X186262632Y-110340908D01*
X186232383Y-110357077D01*
X186199561Y-110367034D01*
X186159287Y-110371000D01*
X184680713Y-110371000D01*
X184640439Y-110367034D01*
X184607617Y-110357077D01*
X184577368Y-110340908D01*
X184550852Y-110319148D01*
X184529092Y-110292632D01*
X184512923Y-110262383D01*
X184502966Y-110229561D01*
X184499000Y-110189287D01*
X184499000Y-108250713D01*
X184502966Y-108210439D01*
X184512923Y-108177617D01*
X184529092Y-108147368D01*
X184550852Y-108120852D01*
X184577368Y-108099092D01*
X184607617Y-108082923D01*
X184640439Y-108072966D01*
X184680713Y-108069000D01*
X186159287Y-108069000D01*
X186199561Y-108072966D01*
G37*
G36*
X113677000Y-108597000D02*
G01*
X111875000Y-108597000D01*
X111875000Y-106795000D01*
X113677000Y-106795000D01*
X113677000Y-108597000D01*
G37*
G36*
X115429512Y-106799927D02*
G01*
X115578812Y-106829624D01*
X115742784Y-106897544D01*
X115890354Y-106996147D01*
X116015853Y-107121646D01*
X116114456Y-107269216D01*
X116182376Y-107433188D01*
X116217000Y-107607259D01*
X116217000Y-107784741D01*
X116182376Y-107958812D01*
X116114456Y-108122784D01*
X116015853Y-108270354D01*
X115890354Y-108395853D01*
X115742784Y-108494456D01*
X115578812Y-108562376D01*
X115429512Y-108592073D01*
X115404742Y-108597000D01*
X115227258Y-108597000D01*
X115202488Y-108592073D01*
X115053188Y-108562376D01*
X114889216Y-108494456D01*
X114741646Y-108395853D01*
X114616147Y-108270354D01*
X114517544Y-108122784D01*
X114449624Y-107958812D01*
X114415000Y-107784741D01*
X114415000Y-107607259D01*
X114449624Y-107433188D01*
X114517544Y-107269216D01*
X114616147Y-107121646D01*
X114741646Y-106996147D01*
X114889216Y-106897544D01*
X115053188Y-106829624D01*
X115202488Y-106799927D01*
X115227258Y-106795000D01*
X115404742Y-106795000D01*
X115429512Y-106799927D01*
G37*
G36*
X99745012Y-87876927D02*
G01*
X99894312Y-87906624D01*
X100058284Y-87974544D01*
X100205854Y-88073147D01*
X100331353Y-88198646D01*
X100429956Y-88346216D01*
X100497876Y-88510188D01*
X100532500Y-88684259D01*
X100532500Y-88861741D01*
X100497876Y-89035812D01*
X100429956Y-89199784D01*
X100331353Y-89347354D01*
X100205854Y-89472853D01*
X100058284Y-89571456D01*
X99894312Y-89639376D01*
X99745012Y-89669073D01*
X99720242Y-89674000D01*
X99542758Y-89674000D01*
X99517988Y-89669073D01*
X99368688Y-89639376D01*
X99204716Y-89571456D01*
X99057146Y-89472853D01*
X98931647Y-89347354D01*
X98833044Y-89199784D01*
X98765124Y-89035812D01*
X98730500Y-88861741D01*
X98730500Y-88684259D01*
X98765124Y-88510188D01*
X98833044Y-88346216D01*
X98931647Y-88198646D01*
X99057146Y-88073147D01*
X99204716Y-87974544D01*
X99368688Y-87906624D01*
X99517988Y-87876927D01*
X99542758Y-87872000D01*
X99720242Y-87872000D01*
X99745012Y-87876927D01*
G37*
G36*
X100532500Y-87134000D02*
G01*
X98730500Y-87134000D01*
X98730500Y-85332000D01*
X100532500Y-85332000D01*
X100532500Y-87134000D01*
G37*
G36*
X125910547Y-83952326D02*
G01*
X126084156Y-84004990D01*
X126084158Y-84004991D01*
X126244155Y-84090511D01*
X126384397Y-84205603D01*
X126463729Y-84302271D01*
X126499489Y-84345844D01*
X126585010Y-84505843D01*
X126637674Y-84679452D01*
X126651000Y-84814756D01*
X126651000Y-85365243D01*
X126637674Y-85500548D01*
X126585010Y-85674157D01*
X126499489Y-85834156D01*
X126463729Y-85877729D01*
X126384397Y-85974397D01*
X126287729Y-86053729D01*
X126244156Y-86089489D01*
X126084157Y-86175010D01*
X125910548Y-86227674D01*
X125730000Y-86245456D01*
X125549453Y-86227674D01*
X125375844Y-86175010D01*
X125215845Y-86089489D01*
X125172272Y-86053729D01*
X125075604Y-85974397D01*
X124960513Y-85834157D01*
X124960512Y-85834155D01*
X124874990Y-85674157D01*
X124822326Y-85500548D01*
X124809000Y-85365244D01*
X124809000Y-84814757D01*
X124822326Y-84679453D01*
X124874990Y-84505844D01*
X124960511Y-84345845D01*
X124960512Y-84345844D01*
X125075603Y-84205603D01*
X125201388Y-84102375D01*
X125215844Y-84090511D01*
X125375843Y-84004990D01*
X125549452Y-83952326D01*
X125730000Y-83934544D01*
X125910547Y-83952326D01*
G37*
G36*
X138610547Y-83952326D02*
G01*
X138784156Y-84004990D01*
X138784158Y-84004991D01*
X138944155Y-84090511D01*
X139084397Y-84205603D01*
X139163729Y-84302271D01*
X139199489Y-84345844D01*
X139285010Y-84505843D01*
X139337674Y-84679452D01*
X139351000Y-84814756D01*
X139351000Y-85365243D01*
X139337674Y-85500548D01*
X139285010Y-85674157D01*
X139199489Y-85834156D01*
X139163729Y-85877729D01*
X139084397Y-85974397D01*
X138987729Y-86053729D01*
X138944156Y-86089489D01*
X138784157Y-86175010D01*
X138610548Y-86227674D01*
X138430000Y-86245456D01*
X138249453Y-86227674D01*
X138075844Y-86175010D01*
X137915845Y-86089489D01*
X137872272Y-86053729D01*
X137775604Y-85974397D01*
X137660513Y-85834157D01*
X137660512Y-85834155D01*
X137574990Y-85674157D01*
X137522326Y-85500548D01*
X137509000Y-85365244D01*
X137509000Y-84814757D01*
X137522326Y-84679453D01*
X137574990Y-84505844D01*
X137660511Y-84345845D01*
X137660512Y-84345844D01*
X137775603Y-84205603D01*
X137901388Y-84102375D01*
X137915844Y-84090511D01*
X138075843Y-84004990D01*
X138249452Y-83952326D01*
X138430000Y-83934544D01*
X138610547Y-83952326D01*
G37*
G36*
X123969561Y-83942966D02*
G01*
X124002383Y-83952923D01*
X124032632Y-83969092D01*
X124059148Y-83990852D01*
X124080908Y-84017368D01*
X124097077Y-84047617D01*
X124107034Y-84080439D01*
X124111000Y-84120713D01*
X124111000Y-86059287D01*
X124107034Y-86099561D01*
X124097077Y-86132383D01*
X124080908Y-86162632D01*
X124059148Y-86189148D01*
X124032632Y-86210908D01*
X124002383Y-86227077D01*
X123969561Y-86237034D01*
X123929287Y-86241000D01*
X122450713Y-86241000D01*
X122410439Y-86237034D01*
X122377617Y-86227077D01*
X122347368Y-86210908D01*
X122320852Y-86189148D01*
X122299092Y-86162632D01*
X122282923Y-86132383D01*
X122272966Y-86099561D01*
X122269000Y-86059287D01*
X122269000Y-84120713D01*
X122272966Y-84080439D01*
X122282923Y-84047617D01*
X122299092Y-84017368D01*
X122320852Y-83990852D01*
X122347368Y-83969092D01*
X122377617Y-83952923D01*
X122410439Y-83942966D01*
X122450713Y-83939000D01*
X123929287Y-83939000D01*
X123969561Y-83942966D01*
G37*
G36*
X136669561Y-83942966D02*
G01*
X136702383Y-83952923D01*
X136732632Y-83969092D01*
X136759148Y-83990852D01*
X136780908Y-84017368D01*
X136797077Y-84047617D01*
X136807034Y-84080439D01*
X136811000Y-84120713D01*
X136811000Y-86059287D01*
X136807034Y-86099561D01*
X136797077Y-86132383D01*
X136780908Y-86162632D01*
X136759148Y-86189148D01*
X136732632Y-86210908D01*
X136702383Y-86227077D01*
X136669561Y-86237034D01*
X136629287Y-86241000D01*
X135150713Y-86241000D01*
X135110439Y-86237034D01*
X135077617Y-86227077D01*
X135047368Y-86210908D01*
X135020852Y-86189148D01*
X134999092Y-86162632D01*
X134982923Y-86132383D01*
X134972966Y-86099561D01*
X134969000Y-86059287D01*
X134969000Y-84120713D01*
X134972966Y-84080439D01*
X134982923Y-84047617D01*
X134999092Y-84017368D01*
X135020852Y-83990852D01*
X135047368Y-83969092D01*
X135077617Y-83952923D01*
X135110439Y-83942966D01*
X135150713Y-83939000D01*
X136629287Y-83939000D01*
X136669561Y-83942966D01*
G37*
G36*
X169658512Y-74033927D02*
G01*
X169807812Y-74063624D01*
X169971784Y-74131544D01*
X170119354Y-74230147D01*
X170244853Y-74355646D01*
X170343456Y-74503216D01*
X170411376Y-74667188D01*
X170446000Y-74841259D01*
X170446000Y-75018741D01*
X170411376Y-75192812D01*
X170343456Y-75356784D01*
X170244853Y-75504354D01*
X170119354Y-75629853D01*
X169971784Y-75728456D01*
X169807812Y-75796376D01*
X169658512Y-75826073D01*
X169633742Y-75831000D01*
X169456258Y-75831000D01*
X169431488Y-75826073D01*
X169282188Y-75796376D01*
X169118216Y-75728456D01*
X168970646Y-75629853D01*
X168845147Y-75504354D01*
X168746544Y-75356784D01*
X168678624Y-75192812D01*
X168644000Y-75018741D01*
X168644000Y-74841259D01*
X168678624Y-74667188D01*
X168746544Y-74503216D01*
X168845147Y-74355646D01*
X168970646Y-74230147D01*
X169118216Y-74131544D01*
X169282188Y-74063624D01*
X169431488Y-74033927D01*
X169456258Y-74029000D01*
X169633742Y-74029000D01*
X169658512Y-74033927D01*
G37*
G36*
X167118512Y-74033927D02*
G01*
X167267812Y-74063624D01*
X167431784Y-74131544D01*
X167579354Y-74230147D01*
X167704853Y-74355646D01*
X167803456Y-74503216D01*
X167871376Y-74667188D01*
X167906000Y-74841259D01*
X167906000Y-75018741D01*
X167871376Y-75192812D01*
X167803456Y-75356784D01*
X167704853Y-75504354D01*
X167579354Y-75629853D01*
X167431784Y-75728456D01*
X167267812Y-75796376D01*
X167118512Y-75826073D01*
X167093742Y-75831000D01*
X166916258Y-75831000D01*
X166891488Y-75826073D01*
X166742188Y-75796376D01*
X166578216Y-75728456D01*
X166430646Y-75629853D01*
X166305147Y-75504354D01*
X166206544Y-75356784D01*
X166138624Y-75192812D01*
X166104000Y-75018741D01*
X166104000Y-74841259D01*
X166138624Y-74667188D01*
X166206544Y-74503216D01*
X166305147Y-74355646D01*
X166430646Y-74230147D01*
X166578216Y-74131544D01*
X166742188Y-74063624D01*
X166891488Y-74033927D01*
X166916258Y-74029000D01*
X167093742Y-74029000D01*
X167118512Y-74033927D01*
G37*
G36*
X164578512Y-74033927D02*
G01*
X164727812Y-74063624D01*
X164891784Y-74131544D01*
X165039354Y-74230147D01*
X165164853Y-74355646D01*
X165263456Y-74503216D01*
X165331376Y-74667188D01*
X165366000Y-74841259D01*
X165366000Y-75018741D01*
X165331376Y-75192812D01*
X165263456Y-75356784D01*
X165164853Y-75504354D01*
X165039354Y-75629853D01*
X164891784Y-75728456D01*
X164727812Y-75796376D01*
X164578512Y-75826073D01*
X164553742Y-75831000D01*
X164376258Y-75831000D01*
X164351488Y-75826073D01*
X164202188Y-75796376D01*
X164038216Y-75728456D01*
X163890646Y-75629853D01*
X163765147Y-75504354D01*
X163666544Y-75356784D01*
X163598624Y-75192812D01*
X163564000Y-75018741D01*
X163564000Y-74841259D01*
X163598624Y-74667188D01*
X163666544Y-74503216D01*
X163765147Y-74355646D01*
X163890646Y-74230147D01*
X164038216Y-74131544D01*
X164202188Y-74063624D01*
X164351488Y-74033927D01*
X164376258Y-74029000D01*
X164553742Y-74029000D01*
X164578512Y-74033927D01*
G37*
G36*
X162826000Y-75831000D02*
G01*
X161024000Y-75831000D01*
X161024000Y-74029000D01*
X162826000Y-74029000D01*
X162826000Y-75831000D01*
G37*
G36*
X138610547Y-73157326D02*
G01*
X138784156Y-73209990D01*
X138784158Y-73209991D01*
X138944155Y-73295511D01*
X139084397Y-73410603D01*
X139163729Y-73507271D01*
X139199489Y-73550844D01*
X139285010Y-73710843D01*
X139337674Y-73884452D01*
X139351000Y-74019756D01*
X139351000Y-74570243D01*
X139337674Y-74705548D01*
X139285010Y-74879157D01*
X139199489Y-75039156D01*
X139163729Y-75082729D01*
X139084397Y-75179397D01*
X138999763Y-75248853D01*
X138944156Y-75294489D01*
X138784157Y-75380010D01*
X138610548Y-75432674D01*
X138430000Y-75450456D01*
X138249453Y-75432674D01*
X138075844Y-75380010D01*
X137915845Y-75294489D01*
X137860238Y-75248853D01*
X137775604Y-75179397D01*
X137660513Y-75039157D01*
X137660512Y-75039155D01*
X137574990Y-74879157D01*
X137522326Y-74705548D01*
X137509000Y-74570244D01*
X137509000Y-74019757D01*
X137522326Y-73884453D01*
X137574990Y-73710844D01*
X137660511Y-73550845D01*
X137660512Y-73550844D01*
X137775603Y-73410603D01*
X137901388Y-73307375D01*
X137915844Y-73295511D01*
X138075843Y-73209990D01*
X138249452Y-73157326D01*
X138430000Y-73139544D01*
X138610547Y-73157326D01*
G37*
G36*
X125910547Y-73157326D02*
G01*
X126084156Y-73209990D01*
X126084158Y-73209991D01*
X126244155Y-73295511D01*
X126384397Y-73410603D01*
X126463729Y-73507271D01*
X126499489Y-73550844D01*
X126585010Y-73710843D01*
X126637674Y-73884452D01*
X126651000Y-74019756D01*
X126651000Y-74570243D01*
X126637674Y-74705548D01*
X126585010Y-74879157D01*
X126499489Y-75039156D01*
X126463729Y-75082729D01*
X126384397Y-75179397D01*
X126299763Y-75248853D01*
X126244156Y-75294489D01*
X126084157Y-75380010D01*
X125910548Y-75432674D01*
X125730000Y-75450456D01*
X125549453Y-75432674D01*
X125375844Y-75380010D01*
X125215845Y-75294489D01*
X125160238Y-75248853D01*
X125075604Y-75179397D01*
X124960513Y-75039157D01*
X124960512Y-75039155D01*
X124874990Y-74879157D01*
X124822326Y-74705548D01*
X124809000Y-74570244D01*
X124809000Y-74019757D01*
X124822326Y-73884453D01*
X124874990Y-73710844D01*
X124960511Y-73550845D01*
X124960512Y-73550844D01*
X125075603Y-73410603D01*
X125201388Y-73307375D01*
X125215844Y-73295511D01*
X125375843Y-73209990D01*
X125549452Y-73157326D01*
X125730000Y-73139544D01*
X125910547Y-73157326D01*
G37*
G36*
X103580500Y-75450000D02*
G01*
X101778500Y-75450000D01*
X101778500Y-73648000D01*
X103580500Y-73648000D01*
X103580500Y-75450000D01*
G37*
G36*
X105333012Y-73652927D02*
G01*
X105482312Y-73682624D01*
X105646284Y-73750544D01*
X105793854Y-73849147D01*
X105919353Y-73974646D01*
X106017956Y-74122216D01*
X106085876Y-74286188D01*
X106120500Y-74460259D01*
X106120500Y-74637741D01*
X106085876Y-74811812D01*
X106017956Y-74975784D01*
X105919353Y-75123354D01*
X105793854Y-75248853D01*
X105646284Y-75347456D01*
X105482312Y-75415376D01*
X105333012Y-75445073D01*
X105308242Y-75450000D01*
X105130758Y-75450000D01*
X105105988Y-75445073D01*
X104956688Y-75415376D01*
X104792716Y-75347456D01*
X104645146Y-75248853D01*
X104519647Y-75123354D01*
X104421044Y-74975784D01*
X104353124Y-74811812D01*
X104318500Y-74637741D01*
X104318500Y-74460259D01*
X104353124Y-74286188D01*
X104421044Y-74122216D01*
X104519647Y-73974646D01*
X104645146Y-73849147D01*
X104792716Y-73750544D01*
X104956688Y-73682624D01*
X105105988Y-73652927D01*
X105130758Y-73648000D01*
X105308242Y-73648000D01*
X105333012Y-73652927D01*
G37*
G36*
X107873012Y-73652927D02*
G01*
X108022312Y-73682624D01*
X108186284Y-73750544D01*
X108333854Y-73849147D01*
X108459353Y-73974646D01*
X108557956Y-74122216D01*
X108625876Y-74286188D01*
X108660500Y-74460259D01*
X108660500Y-74637741D01*
X108625876Y-74811812D01*
X108557956Y-74975784D01*
X108459353Y-75123354D01*
X108333854Y-75248853D01*
X108186284Y-75347456D01*
X108022312Y-75415376D01*
X107873012Y-75445073D01*
X107848242Y-75450000D01*
X107670758Y-75450000D01*
X107645988Y-75445073D01*
X107496688Y-75415376D01*
X107332716Y-75347456D01*
X107185146Y-75248853D01*
X107059647Y-75123354D01*
X106961044Y-74975784D01*
X106893124Y-74811812D01*
X106858500Y-74637741D01*
X106858500Y-74460259D01*
X106893124Y-74286188D01*
X106961044Y-74122216D01*
X107059647Y-73974646D01*
X107185146Y-73849147D01*
X107332716Y-73750544D01*
X107496688Y-73682624D01*
X107645988Y-73652927D01*
X107670758Y-73648000D01*
X107848242Y-73648000D01*
X107873012Y-73652927D01*
G37*
G36*
X110413012Y-73652927D02*
G01*
X110562312Y-73682624D01*
X110726284Y-73750544D01*
X110873854Y-73849147D01*
X110999353Y-73974646D01*
X111097956Y-74122216D01*
X111165876Y-74286188D01*
X111200500Y-74460259D01*
X111200500Y-74637741D01*
X111165876Y-74811812D01*
X111097956Y-74975784D01*
X110999353Y-75123354D01*
X110873854Y-75248853D01*
X110726284Y-75347456D01*
X110562312Y-75415376D01*
X110413012Y-75445073D01*
X110388242Y-75450000D01*
X110210758Y-75450000D01*
X110185988Y-75445073D01*
X110036688Y-75415376D01*
X109872716Y-75347456D01*
X109725146Y-75248853D01*
X109599647Y-75123354D01*
X109501044Y-74975784D01*
X109433124Y-74811812D01*
X109398500Y-74637741D01*
X109398500Y-74460259D01*
X109433124Y-74286188D01*
X109501044Y-74122216D01*
X109599647Y-73974646D01*
X109725146Y-73849147D01*
X109872716Y-73750544D01*
X110036688Y-73682624D01*
X110185988Y-73652927D01*
X110210758Y-73648000D01*
X110388242Y-73648000D01*
X110413012Y-73652927D01*
G37*
G36*
X112953012Y-73652927D02*
G01*
X113102312Y-73682624D01*
X113266284Y-73750544D01*
X113413854Y-73849147D01*
X113539353Y-73974646D01*
X113637956Y-74122216D01*
X113705876Y-74286188D01*
X113740500Y-74460259D01*
X113740500Y-74637741D01*
X113705876Y-74811812D01*
X113637956Y-74975784D01*
X113539353Y-75123354D01*
X113413854Y-75248853D01*
X113266284Y-75347456D01*
X113102312Y-75415376D01*
X112953012Y-75445073D01*
X112928242Y-75450000D01*
X112750758Y-75450000D01*
X112725988Y-75445073D01*
X112576688Y-75415376D01*
X112412716Y-75347456D01*
X112265146Y-75248853D01*
X112139647Y-75123354D01*
X112041044Y-74975784D01*
X111973124Y-74811812D01*
X111938500Y-74637741D01*
X111938500Y-74460259D01*
X111973124Y-74286188D01*
X112041044Y-74122216D01*
X112139647Y-73974646D01*
X112265146Y-73849147D01*
X112412716Y-73750544D01*
X112576688Y-73682624D01*
X112725988Y-73652927D01*
X112750758Y-73648000D01*
X112928242Y-73648000D01*
X112953012Y-73652927D01*
G37*
G36*
X136669561Y-73147966D02*
G01*
X136702383Y-73157923D01*
X136732632Y-73174092D01*
X136759148Y-73195852D01*
X136780908Y-73222368D01*
X136797077Y-73252617D01*
X136807034Y-73285439D01*
X136811000Y-73325713D01*
X136811000Y-75264287D01*
X136807034Y-75304561D01*
X136797077Y-75337383D01*
X136780908Y-75367632D01*
X136759148Y-75394148D01*
X136732632Y-75415908D01*
X136702383Y-75432077D01*
X136669561Y-75442034D01*
X136629287Y-75446000D01*
X135150713Y-75446000D01*
X135110439Y-75442034D01*
X135077617Y-75432077D01*
X135047368Y-75415908D01*
X135020852Y-75394148D01*
X134999092Y-75367632D01*
X134982923Y-75337383D01*
X134972966Y-75304561D01*
X134969000Y-75264287D01*
X134969000Y-73325713D01*
X134972966Y-73285439D01*
X134982923Y-73252617D01*
X134999092Y-73222368D01*
X135020852Y-73195852D01*
X135047368Y-73174092D01*
X135077617Y-73157923D01*
X135110439Y-73147966D01*
X135150713Y-73144000D01*
X136629287Y-73144000D01*
X136669561Y-73147966D01*
G37*
G36*
X123969561Y-73147966D02*
G01*
X124002383Y-73157923D01*
X124032632Y-73174092D01*
X124059148Y-73195852D01*
X124080908Y-73222368D01*
X124097077Y-73252617D01*
X124107034Y-73285439D01*
X124111000Y-73325713D01*
X124111000Y-75264287D01*
X124107034Y-75304561D01*
X124097077Y-75337383D01*
X124080908Y-75367632D01*
X124059148Y-75394148D01*
X124032632Y-75415908D01*
X124002383Y-75432077D01*
X123969561Y-75442034D01*
X123929287Y-75446000D01*
X122450713Y-75446000D01*
X122410439Y-75442034D01*
X122377617Y-75432077D01*
X122347368Y-75415908D01*
X122320852Y-75394148D01*
X122299092Y-75367632D01*
X122282923Y-75337383D01*
X122272966Y-75304561D01*
X122269000Y-75264287D01*
X122269000Y-73325713D01*
X122272966Y-73285439D01*
X122282923Y-73252617D01*
X122299092Y-73222368D01*
X122320852Y-73195852D01*
X122347368Y-73174092D01*
X122377617Y-73157923D01*
X122410439Y-73147966D01*
X122450713Y-73144000D01*
X123929287Y-73144000D01*
X123969561Y-73147966D01*
G37*
G36*
X167118512Y-70223927D02*
G01*
X167267812Y-70253624D01*
X167431784Y-70321544D01*
X167579354Y-70420147D01*
X167704853Y-70545646D01*
X167803456Y-70693216D01*
X167871376Y-70857188D01*
X167906000Y-71031259D01*
X167906000Y-71208741D01*
X167871376Y-71382812D01*
X167803456Y-71546784D01*
X167704853Y-71694354D01*
X167579354Y-71819853D01*
X167431784Y-71918456D01*
X167267812Y-71986376D01*
X167118512Y-72016073D01*
X167093742Y-72021000D01*
X166916258Y-72021000D01*
X166891488Y-72016073D01*
X166742188Y-71986376D01*
X166578216Y-71918456D01*
X166430646Y-71819853D01*
X166305147Y-71694354D01*
X166206544Y-71546784D01*
X166138624Y-71382812D01*
X166104000Y-71208741D01*
X166104000Y-71031259D01*
X166138624Y-70857188D01*
X166206544Y-70693216D01*
X166305147Y-70545646D01*
X166430646Y-70420147D01*
X166578216Y-70321544D01*
X166742188Y-70253624D01*
X166891488Y-70223927D01*
X166916258Y-70219000D01*
X167093742Y-70219000D01*
X167118512Y-70223927D01*
G37*
G36*
X164578512Y-70223927D02*
G01*
X164727812Y-70253624D01*
X164891784Y-70321544D01*
X165039354Y-70420147D01*
X165164853Y-70545646D01*
X165263456Y-70693216D01*
X165331376Y-70857188D01*
X165366000Y-71031259D01*
X165366000Y-71208741D01*
X165331376Y-71382812D01*
X165263456Y-71546784D01*
X165164853Y-71694354D01*
X165039354Y-71819853D01*
X164891784Y-71918456D01*
X164727812Y-71986376D01*
X164578512Y-72016073D01*
X164553742Y-72021000D01*
X164376258Y-72021000D01*
X164351488Y-72016073D01*
X164202188Y-71986376D01*
X164038216Y-71918456D01*
X163890646Y-71819853D01*
X163765147Y-71694354D01*
X163666544Y-71546784D01*
X163598624Y-71382812D01*
X163564000Y-71208741D01*
X163564000Y-71031259D01*
X163598624Y-70857188D01*
X163666544Y-70693216D01*
X163765147Y-70545646D01*
X163890646Y-70420147D01*
X164038216Y-70321544D01*
X164202188Y-70253624D01*
X164351488Y-70223927D01*
X164376258Y-70219000D01*
X164553742Y-70219000D01*
X164578512Y-70223927D01*
G37*
G36*
X162826000Y-72021000D02*
G01*
X161024000Y-72021000D01*
X161024000Y-70219000D01*
X162826000Y-70219000D01*
X162826000Y-72021000D01*
G37*
G36*
X169658512Y-70223927D02*
G01*
X169807812Y-70253624D01*
X169971784Y-70321544D01*
X170119354Y-70420147D01*
X170244853Y-70545646D01*
X170343456Y-70693216D01*
X170411376Y-70857188D01*
X170446000Y-71031259D01*
X170446000Y-71208741D01*
X170411376Y-71382812D01*
X170343456Y-71546784D01*
X170244853Y-71694354D01*
X170119354Y-71819853D01*
X169971784Y-71918456D01*
X169807812Y-71986376D01*
X169658512Y-72016073D01*
X169633742Y-72021000D01*
X169456258Y-72021000D01*
X169431488Y-72016073D01*
X169282188Y-71986376D01*
X169118216Y-71918456D01*
X168970646Y-71819853D01*
X168845147Y-71694354D01*
X168746544Y-71546784D01*
X168678624Y-71382812D01*
X168644000Y-71208741D01*
X168644000Y-71031259D01*
X168678624Y-70857188D01*
X168746544Y-70693216D01*
X168845147Y-70545646D01*
X168970646Y-70420147D01*
X169118216Y-70321544D01*
X169282188Y-70253624D01*
X169431488Y-70223927D01*
X169456258Y-70219000D01*
X169633742Y-70219000D01*
X169658512Y-70223927D01*
G37*
G36*
X169658512Y-67683927D02*
G01*
X169807812Y-67713624D01*
X169971784Y-67781544D01*
X170119354Y-67880147D01*
X170244853Y-68005646D01*
X170343456Y-68153216D01*
X170411376Y-68317188D01*
X170446000Y-68491259D01*
X170446000Y-68668741D01*
X170411376Y-68842812D01*
X170343456Y-69006784D01*
X170244853Y-69154354D01*
X170119354Y-69279853D01*
X169971784Y-69378456D01*
X169807812Y-69446376D01*
X169658512Y-69476073D01*
X169633742Y-69481000D01*
X169456258Y-69481000D01*
X169431488Y-69476073D01*
X169282188Y-69446376D01*
X169118216Y-69378456D01*
X168970646Y-69279853D01*
X168845147Y-69154354D01*
X168746544Y-69006784D01*
X168678624Y-68842812D01*
X168644000Y-68668741D01*
X168644000Y-68491259D01*
X168678624Y-68317188D01*
X168746544Y-68153216D01*
X168845147Y-68005646D01*
X168970646Y-67880147D01*
X169118216Y-67781544D01*
X169282188Y-67713624D01*
X169431488Y-67683927D01*
X169456258Y-67679000D01*
X169633742Y-67679000D01*
X169658512Y-67683927D01*
G37*
G36*
X167118512Y-67683927D02*
G01*
X167267812Y-67713624D01*
X167431784Y-67781544D01*
X167579354Y-67880147D01*
X167704853Y-68005646D01*
X167803456Y-68153216D01*
X167871376Y-68317188D01*
X167906000Y-68491259D01*
X167906000Y-68668741D01*
X167871376Y-68842812D01*
X167803456Y-69006784D01*
X167704853Y-69154354D01*
X167579354Y-69279853D01*
X167431784Y-69378456D01*
X167267812Y-69446376D01*
X167118512Y-69476073D01*
X167093742Y-69481000D01*
X166916258Y-69481000D01*
X166891488Y-69476073D01*
X166742188Y-69446376D01*
X166578216Y-69378456D01*
X166430646Y-69279853D01*
X166305147Y-69154354D01*
X166206544Y-69006784D01*
X166138624Y-68842812D01*
X166104000Y-68668741D01*
X166104000Y-68491259D01*
X166138624Y-68317188D01*
X166206544Y-68153216D01*
X166305147Y-68005646D01*
X166430646Y-67880147D01*
X166578216Y-67781544D01*
X166742188Y-67713624D01*
X166891488Y-67683927D01*
X166916258Y-67679000D01*
X167093742Y-67679000D01*
X167118512Y-67683927D01*
G37*
G36*
X164578512Y-67683927D02*
G01*
X164727812Y-67713624D01*
X164891784Y-67781544D01*
X165039354Y-67880147D01*
X165164853Y-68005646D01*
X165263456Y-68153216D01*
X165331376Y-68317188D01*
X165366000Y-68491259D01*
X165366000Y-68668741D01*
X165331376Y-68842812D01*
X165263456Y-69006784D01*
X165164853Y-69154354D01*
X165039354Y-69279853D01*
X164891784Y-69378456D01*
X164727812Y-69446376D01*
X164578512Y-69476073D01*
X164553742Y-69481000D01*
X164376258Y-69481000D01*
X164351488Y-69476073D01*
X164202188Y-69446376D01*
X164038216Y-69378456D01*
X163890646Y-69279853D01*
X163765147Y-69154354D01*
X163666544Y-69006784D01*
X163598624Y-68842812D01*
X163564000Y-68668741D01*
X163564000Y-68491259D01*
X163598624Y-68317188D01*
X163666544Y-68153216D01*
X163765147Y-68005646D01*
X163890646Y-67880147D01*
X164038216Y-67781544D01*
X164202188Y-67713624D01*
X164351488Y-67683927D01*
X164376258Y-67679000D01*
X164553742Y-67679000D01*
X164578512Y-67683927D01*
G37*
G36*
X162826000Y-69481000D02*
G01*
X161024000Y-69481000D01*
X161024000Y-67679000D01*
X162826000Y-67679000D01*
X162826000Y-69481000D01*
G37*
G36*
X169658512Y-65143927D02*
G01*
X169807812Y-65173624D01*
X169971784Y-65241544D01*
X170119354Y-65340147D01*
X170244853Y-65465646D01*
X170343456Y-65613216D01*
X170411376Y-65777188D01*
X170446000Y-65951259D01*
X170446000Y-66128741D01*
X170411376Y-66302812D01*
X170343456Y-66466784D01*
X170244853Y-66614354D01*
X170119354Y-66739853D01*
X169971784Y-66838456D01*
X169807812Y-66906376D01*
X169658512Y-66936073D01*
X169633742Y-66941000D01*
X169456258Y-66941000D01*
X169431488Y-66936073D01*
X169282188Y-66906376D01*
X169118216Y-66838456D01*
X168970646Y-66739853D01*
X168845147Y-66614354D01*
X168746544Y-66466784D01*
X168678624Y-66302812D01*
X168644000Y-66128741D01*
X168644000Y-65951259D01*
X168678624Y-65777188D01*
X168746544Y-65613216D01*
X168845147Y-65465646D01*
X168970646Y-65340147D01*
X169118216Y-65241544D01*
X169282188Y-65173624D01*
X169431488Y-65143927D01*
X169456258Y-65139000D01*
X169633742Y-65139000D01*
X169658512Y-65143927D01*
G37*
G36*
X167118512Y-65143927D02*
G01*
X167267812Y-65173624D01*
X167431784Y-65241544D01*
X167579354Y-65340147D01*
X167704853Y-65465646D01*
X167803456Y-65613216D01*
X167871376Y-65777188D01*
X167906000Y-65951259D01*
X167906000Y-66128741D01*
X167871376Y-66302812D01*
X167803456Y-66466784D01*
X167704853Y-66614354D01*
X167579354Y-66739853D01*
X167431784Y-66838456D01*
X167267812Y-66906376D01*
X167118512Y-66936073D01*
X167093742Y-66941000D01*
X166916258Y-66941000D01*
X166891488Y-66936073D01*
X166742188Y-66906376D01*
X166578216Y-66838456D01*
X166430646Y-66739853D01*
X166305147Y-66614354D01*
X166206544Y-66466784D01*
X166138624Y-66302812D01*
X166104000Y-66128741D01*
X166104000Y-65951259D01*
X166138624Y-65777188D01*
X166206544Y-65613216D01*
X166305147Y-65465646D01*
X166430646Y-65340147D01*
X166578216Y-65241544D01*
X166742188Y-65173624D01*
X166891488Y-65143927D01*
X166916258Y-65139000D01*
X167093742Y-65139000D01*
X167118512Y-65143927D01*
G37*
G36*
X164578512Y-65143927D02*
G01*
X164727812Y-65173624D01*
X164891784Y-65241544D01*
X165039354Y-65340147D01*
X165164853Y-65465646D01*
X165263456Y-65613216D01*
X165331376Y-65777188D01*
X165366000Y-65951259D01*
X165366000Y-66128741D01*
X165331376Y-66302812D01*
X165263456Y-66466784D01*
X165164853Y-66614354D01*
X165039354Y-66739853D01*
X164891784Y-66838456D01*
X164727812Y-66906376D01*
X164578512Y-66936073D01*
X164553742Y-66941000D01*
X164376258Y-66941000D01*
X164351488Y-66936073D01*
X164202188Y-66906376D01*
X164038216Y-66838456D01*
X163890646Y-66739853D01*
X163765147Y-66614354D01*
X163666544Y-66466784D01*
X163598624Y-66302812D01*
X163564000Y-66128741D01*
X163564000Y-65951259D01*
X163598624Y-65777188D01*
X163666544Y-65613216D01*
X163765147Y-65465646D01*
X163890646Y-65340147D01*
X164038216Y-65241544D01*
X164202188Y-65173624D01*
X164351488Y-65143927D01*
X164376258Y-65139000D01*
X164553742Y-65139000D01*
X164578512Y-65143927D01*
G37*
G36*
X162826000Y-66941000D02*
G01*
X161024000Y-66941000D01*
X161024000Y-65139000D01*
X162826000Y-65139000D01*
X162826000Y-66941000D01*
G37*
G36*
X93593256Y-62445298D02*
G01*
X93699579Y-62466447D01*
X94000042Y-62590903D01*
X94270451Y-62771585D01*
X94500415Y-63001549D01*
X94681097Y-63271958D01*
X94805553Y-63572421D01*
X94869000Y-63891391D01*
X94869000Y-64216609D01*
X94805553Y-64535579D01*
X94681097Y-64836042D01*
X94500415Y-65106451D01*
X94270451Y-65336415D01*
X94000042Y-65517097D01*
X93699579Y-65641553D01*
X93593256Y-65662702D01*
X93380611Y-65705000D01*
X93055389Y-65705000D01*
X92842744Y-65662702D01*
X92736421Y-65641553D01*
X92435958Y-65517097D01*
X92165549Y-65336415D01*
X91935585Y-65106451D01*
X91754903Y-64836042D01*
X91630447Y-64535579D01*
X91567000Y-64216609D01*
X91567000Y-63891391D01*
X91630447Y-63572421D01*
X91754903Y-63271958D01*
X91935585Y-63001549D01*
X92165549Y-62771585D01*
X92435958Y-62590903D01*
X92736421Y-62466447D01*
X92842744Y-62445298D01*
X93055389Y-62403000D01*
X93380611Y-62403000D01*
X93593256Y-62445298D01*
G37*
G36*
X185033256Y-62445298D02*
G01*
X185139579Y-62466447D01*
X185440042Y-62590903D01*
X185710451Y-62771585D01*
X185940415Y-63001549D01*
X186121097Y-63271958D01*
X186245553Y-63572421D01*
X186309000Y-63891391D01*
X186309000Y-64216609D01*
X186245553Y-64535579D01*
X186121097Y-64836042D01*
X185940415Y-65106451D01*
X185710451Y-65336415D01*
X185440042Y-65517097D01*
X185139579Y-65641553D01*
X185033256Y-65662702D01*
X184820611Y-65705000D01*
X184495389Y-65705000D01*
X184282744Y-65662702D01*
X184176421Y-65641553D01*
X183875958Y-65517097D01*
X183605549Y-65336415D01*
X183375585Y-65106451D01*
X183194903Y-64836042D01*
X183070447Y-64535579D01*
X183007000Y-64216609D01*
X183007000Y-63891391D01*
X183070447Y-63572421D01*
X183194903Y-63271958D01*
X183375585Y-63001549D01*
X183605549Y-62771585D01*
X183875958Y-62590903D01*
X184176421Y-62466447D01*
X184282744Y-62445298D01*
X184495389Y-62403000D01*
X184820611Y-62403000D01*
X185033256Y-62445298D01*
G37*
M02*
