M48
; DRILL file {KiCad (5.1.5-0-10_14)} date 2020 January 08, Wednesday 06:54:46
; FORMAT={-:-/ absolute / inch / decimal}
; #@! TF.CreationDate,2020-01-08T06:54:46+01:00
; #@! TF.GenerationSoftware,Kicad,Pcbnew,(5.1.5-0-10_14)
; #@! TF.FileFunction,Plated,1,2,PTH
FMAT,2
INCH
T1C0.0118
T2C0.0157
T3C0.0315
T4C0.0350
T5C0.0394
T6C0.0472
T7C0.0512
T8C0.0591
%
G90
G05
T1
X6.3809Y-3.2188
X6.3809Y-3.27
X6.3809Y-3.3212
X6.451Y-3.2188
X6.451Y-3.27
X6.451Y-3.3212
X6.5211Y-3.2188
X6.5211Y-3.27
X6.5211Y-3.3212
X6.5912Y-3.2188
X6.5912Y-3.27
X6.5912Y-3.3212
X6.6613Y-3.2188
X6.6613Y-3.27
X6.6613Y-3.3212
X6.7313Y-3.2188
X6.7313Y-3.27
X6.7313Y-3.3212
T2
X4.42Y-2.64
X5.695Y-4.485
X5.872Y-4.2734
X5.872Y-4.5293
X5.97Y-4.41
X6.0098Y-4.549
X6.1Y-4.46
X6.1Y-4.5436
X6.1506Y-4.4594
X6.19Y-4.46
X6.24Y-4.84
X6.26Y-4.8
X6.26Y-5.0379
X6.27Y-5.1666
X6.36Y-4.48
X6.3661Y-3.09
X6.37Y-4.81
X6.37Y-4.85
X6.41Y-5.01
X6.47Y-5.133
X6.52Y-5.0
X6.5621Y-3.106
X6.626Y-3.08
X6.6887Y-4.9487
T3
X4.01Y-5.12
X4.2825Y-3.6625
X4.32Y-3.48
X4.33Y-4.34
X4.33Y-4.71
X4.33Y-5.16
X4.48Y-5.01
X4.62Y-3.51
X4.635Y-4.865
X4.7443Y-2.7894
X4.845Y-5.15
X5.17Y-5.0
X5.2643Y-2.7894
X5.475Y-4.725
X5.5Y-4.84
X5.54Y-4.135
X5.54Y-4.245
X5.56Y-4.785
X5.62Y-4.105
X5.62Y-4.25
X5.65Y-3.88
X5.78Y-3.83
X6.03Y-4.94
X6.11Y-4.94
X6.19Y-4.1
X6.1961Y-2.89
X6.23Y-3.46
X6.29Y-2.77
X6.4361Y-2.89
X6.4411Y-3.76
X6.4661Y-3.4619
X6.6161Y-2.89
X6.66Y-3.4858
X6.6711Y-3.76
X6.7Y-4.29
X6.77Y-2.75
X6.7911Y-2.89
X6.92Y-4.74
X6.92Y-5.41
X6.9211Y-3.8
X7.1061Y-3.8
X7.31Y-3.91
T4
X5.3838Y-5.51
X5.431Y-5.41
X5.4783Y-5.51
X5.5255Y-5.41
X5.5728Y-5.51
X5.62Y-5.41
X6.0338Y-5.51
X6.081Y-5.41
X6.1283Y-5.51
X6.1755Y-5.41
X6.2228Y-5.51
X6.27Y-5.41
T5
X4.8943Y-2.9544
X4.9943Y-2.9544
X4.44Y-4.24
X4.54Y-4.24
X3.9225Y-3.395
X3.9225Y-3.495
X4.44Y-4.43
X4.54Y-4.43
X4.0425Y-2.935
X4.1425Y-2.935
X4.2425Y-2.935
X4.3425Y-2.935
X4.4425Y-2.935
X6.3761Y-2.735
X6.4761Y-2.735
X6.5761Y-2.735
X6.6761Y-2.735
X5.4193Y-2.9544
X5.5193Y-2.9544
X6.73Y-4.64
X6.73Y-4.74
T6
X3.82Y-3.77
X4.59Y-4.02
X4.68Y-4.39
X4.7543Y-3.1594
X4.77Y-4.21
X5.16Y-4.6
X5.26Y-3.97
X5.26Y-4.1
X5.2943Y-3.1594
X5.9611Y-3.315
X6.1461Y-3.125
X6.9461Y-3.14
T7
X4.5942Y-5.3786
X4.7005Y-5.4258
X4.7989Y-5.6935
X4.9603Y-5.2526
X4.98Y-5.54
T8
X3.5954Y-4.795
X3.81Y-4.795
X4.0246Y-4.795
T5
G00X4.0829Y-5.3222
M15
G01X4.1617Y-5.3222
M16
G05
G00X4.0829Y-5.5584
M15
G01X4.1617Y-5.5584
M16
G05
G00X4.3073Y-5.4797
M15
G01X4.3073Y-5.4009
M16
G05
T0
M30
